G04 #@! TF.GenerationSoftware,KiCad,Pcbnew,9.0.5*
G04 #@! TF.CreationDate,2025-10-14T20:34:03+01:00*
G04 #@! TF.ProjectId,ESP32_Xmas_Star_Module,45535033-325f-4586-9d61-735f53746172,rev?*
G04 #@! TF.SameCoordinates,Original*
G04 #@! TF.FileFunction,Copper,L2,Bot*
G04 #@! TF.FilePolarity,Positive*
%FSLAX46Y46*%
G04 Gerber Fmt 4.6, Leading zero omitted, Abs format (unit mm)*
G04 Created by KiCad (PCBNEW 9.0.5) date 2025-10-14 20:34:03*
%MOMM*%
%LPD*%
G01*
G04 APERTURE LIST*
G04 Aperture macros list*
%AMRoundRect*
0 Rectangle with rounded corners*
0 $1 Rounding radius*
0 $2 $3 $4 $5 $6 $7 $8 $9 X,Y pos of 4 corners*
0 Add a 4 corners polygon primitive as box body*
4,1,4,$2,$3,$4,$5,$6,$7,$8,$9,$2,$3,0*
0 Add four circle primitives for the rounded corners*
1,1,$1+$1,$2,$3*
1,1,$1+$1,$4,$5*
1,1,$1+$1,$6,$7*
1,1,$1+$1,$8,$9*
0 Add four rect primitives between the rounded corners*
20,1,$1+$1,$2,$3,$4,$5,0*
20,1,$1+$1,$4,$5,$6,$7,0*
20,1,$1+$1,$6,$7,$8,$9,0*
20,1,$1+$1,$8,$9,$2,$3,0*%
G04 Aperture macros list end*
G04 #@! TA.AperFunction,ComponentPad*
%ADD10C,4.400000*%
G04 #@! TD*
G04 #@! TA.AperFunction,SMDPad,CuDef*
%ADD11R,2.180000X1.600000*%
G04 #@! TD*
G04 #@! TA.AperFunction,SMDPad,CuDef*
%ADD12RoundRect,0.250000X0.450000X-0.350000X0.450000X0.350000X-0.450000X0.350000X-0.450000X-0.350000X0*%
G04 #@! TD*
G04 #@! TA.AperFunction,SMDPad,CuDef*
%ADD13R,2.410000X1.020000*%
G04 #@! TD*
G04 #@! TA.AperFunction,ViaPad*
%ADD14C,0.800000*%
G04 #@! TD*
G04 #@! TA.AperFunction,ViaPad*
%ADD15C,0.600000*%
G04 #@! TD*
G04 #@! TA.AperFunction,Conductor*
%ADD16C,0.400000*%
G04 #@! TD*
G04 #@! TA.AperFunction,Conductor*
%ADD17C,0.200000*%
G04 #@! TD*
G04 APERTURE END LIST*
D10*
X194421414Y-78697463D03*
X104970372Y-78314655D03*
X121674966Y-131018278D03*
X177092341Y-131155072D03*
X149801613Y-46007789D03*
D11*
X174770000Y-82000000D03*
X165590000Y-82000000D03*
X124460000Y-82000000D03*
X133640000Y-82000000D03*
D12*
X135759741Y-93000000D03*
X135759741Y-91000000D03*
X149177275Y-93000000D03*
X149177275Y-91000000D03*
D13*
X159335000Y-81040000D03*
X155905000Y-83580000D03*
X159335000Y-86120000D03*
X155905000Y-88660000D03*
X159335000Y-91200000D03*
X155905000Y-93740000D03*
X159335000Y-96280000D03*
X155905000Y-98820000D03*
X159335000Y-101360000D03*
X140665000Y-101360000D03*
X144095000Y-98820000D03*
X140665000Y-96280000D03*
X144095000Y-93740000D03*
X140665000Y-91200000D03*
X144095000Y-88660000D03*
X140665000Y-86120000D03*
X144095000Y-83580000D03*
X140665000Y-81040000D03*
D14*
X138430000Y-109220000D03*
X130688425Y-90291575D03*
X142240000Y-73660000D03*
X165906691Y-106216691D03*
X168910000Y-82550000D03*
D15*
X154821814Y-74360000D03*
X176530000Y-91440000D03*
X123190000Y-83820000D03*
X149860000Y-76200000D03*
X115570000Y-76792844D03*
X149790482Y-72675793D03*
X119380000Y-90170000D03*
X110490000Y-80010000D03*
X175260000Y-128270000D03*
X127000000Y-123190000D03*
X149860000Y-106680000D03*
X127000000Y-85090000D03*
X166370000Y-116840000D03*
X172720000Y-86360000D03*
X143510000Y-63500000D03*
X133350000Y-87630000D03*
X134620000Y-114300000D03*
X170180000Y-120650000D03*
X157480000Y-69850000D03*
X162560000Y-121920000D03*
X142240000Y-110490000D03*
X149860000Y-62230000D03*
X152400000Y-48260000D03*
X116840000Y-82550000D03*
X193017724Y-81490665D03*
X144780000Y-106680000D03*
X166370000Y-97790000D03*
X170180000Y-87630000D03*
X160020000Y-106680000D03*
X173990000Y-78740000D03*
X172720000Y-111760000D03*
X137160000Y-109220000D03*
X149860000Y-55880000D03*
X124460000Y-127000000D03*
X149860000Y-69850000D03*
X163830000Y-111760000D03*
X139700000Y-119380000D03*
X177800000Y-85090000D03*
X123190000Y-78740000D03*
X182880000Y-82550000D03*
X130810000Y-118110000D03*
X130810000Y-106680000D03*
X129540000Y-95250000D03*
X149860000Y-50800000D03*
X187960000Y-80010000D03*
D16*
X132080000Y-102870000D02*
X138430000Y-109220000D01*
X158750000Y-73660000D02*
X142240000Y-73660000D01*
X165075858Y-79985858D02*
X158750000Y-73660000D01*
X167081000Y-80049370D02*
X167081000Y-79985858D01*
X168910000Y-81878370D02*
X167081000Y-80049370D01*
X168910000Y-82550000D02*
X168910000Y-102870000D01*
X165563309Y-106216691D02*
X162614578Y-109165422D01*
X165906691Y-105873309D02*
X165906691Y-106216691D01*
X167081000Y-79985858D02*
X165075858Y-79985858D01*
X168910000Y-82550000D02*
X168910000Y-81878370D01*
X130688425Y-90291575D02*
X132080000Y-91683150D01*
X162614578Y-109165422D02*
X138484578Y-109165422D01*
X137795000Y-108585000D02*
X137795000Y-102235000D01*
X165906691Y-106216691D02*
X165563309Y-106216691D01*
X138670000Y-101360000D02*
X140665000Y-101360000D01*
X138430000Y-109220000D02*
X137795000Y-108585000D01*
X137795000Y-102235000D02*
X138670000Y-101360000D01*
X132080000Y-91683150D02*
X132080000Y-102870000D01*
X168910000Y-102870000D02*
X165906691Y-105873309D01*
X138484578Y-109165422D02*
X138430000Y-109220000D01*
D17*
X154082528Y-75551100D02*
X154082528Y-83784944D01*
X154821814Y-74360000D02*
X154821814Y-74811814D01*
X154082528Y-83784944D02*
X149207472Y-88660000D01*
X154821814Y-74811814D02*
X154082528Y-75551100D01*
X149207472Y-88660000D02*
X144095000Y-88660000D01*
X159449000Y-89471000D02*
X158179000Y-89471000D01*
X146150826Y-91200000D02*
X146350826Y-91000000D01*
X140665000Y-91200000D02*
X146150826Y-91200000D01*
X149177275Y-91000000D02*
X156650000Y-91000000D01*
X165590000Y-82000000D02*
X165590000Y-83330000D01*
X146350826Y-91000000D02*
X149177275Y-91000000D01*
X165590000Y-83330000D02*
X159449000Y-89471000D01*
X158179000Y-89471000D02*
X156650000Y-91000000D01*
X135759741Y-95119741D02*
X135759741Y-93000000D01*
X140665000Y-96280000D02*
X136920000Y-96280000D01*
X140665000Y-96280000D02*
X147560000Y-96280000D01*
X136920000Y-96280000D02*
X135759741Y-95119741D01*
X147560000Y-96280000D02*
X149177275Y-94662725D01*
X149177275Y-94662725D02*
X149177275Y-93000000D01*
X138670000Y-92950000D02*
X136720000Y-91000000D01*
X140970000Y-92950000D02*
X138670000Y-92950000D01*
X135759741Y-87499741D02*
X133640000Y-85380000D01*
X144095000Y-93740000D02*
X141760000Y-93740000D01*
X141760000Y-93740000D02*
X140970000Y-92950000D01*
X135759741Y-91000000D02*
X135759741Y-87499741D01*
X136720000Y-91000000D02*
X135759741Y-91000000D01*
X133640000Y-85380000D02*
X133640000Y-82000000D01*
G04 #@! TA.AperFunction,Conductor*
G36*
X152390306Y-45710486D02*
G01*
X152434424Y-45764666D01*
X152436171Y-45769057D01*
X152677355Y-46410520D01*
X154314620Y-50765059D01*
X154315838Y-50768448D01*
X156336103Y-56655183D01*
X156336255Y-56655628D01*
X160148586Y-67902820D01*
X160153256Y-67916598D01*
X160153924Y-67923737D01*
X160174366Y-67978878D01*
X160174937Y-67980562D01*
X160193258Y-68034612D01*
X160196852Y-68041907D01*
X160196185Y-68042235D01*
X160202296Y-68054219D01*
X160970043Y-70125150D01*
X160974976Y-70138456D01*
X160976065Y-70146976D01*
X160997842Y-70200135D01*
X161017802Y-70253973D01*
X161017804Y-70253975D01*
X161021599Y-70261162D01*
X161021155Y-70261396D01*
X161028149Y-70274113D01*
X161155641Y-70585317D01*
X161711198Y-71941409D01*
X161714668Y-71958798D01*
X161736091Y-72002173D01*
X161737738Y-72006193D01*
X161754432Y-72046944D01*
X161754437Y-72046953D01*
X161757944Y-72051559D01*
X161770457Y-72071753D01*
X162346293Y-73237641D01*
X162346293Y-73237642D01*
X162350201Y-73245555D01*
X162359633Y-73274332D01*
X162379254Y-73304379D01*
X162382543Y-73311038D01*
X162382547Y-73311045D01*
X162395151Y-73336562D01*
X162409308Y-73352686D01*
X162419951Y-73366699D01*
X162648396Y-73716520D01*
X162651036Y-73720564D01*
X162673333Y-73761296D01*
X162686926Y-73775523D01*
X162693181Y-73785101D01*
X162693183Y-73785103D01*
X162697695Y-73792012D01*
X162728705Y-73819791D01*
X162735622Y-73826489D01*
X162798008Y-73891783D01*
X162921217Y-74020735D01*
X162932950Y-74038460D01*
X162966557Y-74068190D01*
X162970152Y-74071952D01*
X162997568Y-74100646D01*
X162997570Y-74100648D01*
X163015734Y-74111694D01*
X163031655Y-74125778D01*
X163071817Y-74145799D01*
X163076264Y-74148503D01*
X163076265Y-74148504D01*
X163110163Y-74169119D01*
X163110165Y-74169120D01*
X163110166Y-74169120D01*
X163110169Y-74169122D01*
X163119962Y-74171986D01*
X163140466Y-74180021D01*
X163380415Y-74299640D01*
X163419290Y-74323163D01*
X163439172Y-74328931D01*
X163457697Y-74338166D01*
X163497244Y-74346209D01*
X163507072Y-74348629D01*
X163923975Y-74469579D01*
X163951001Y-74481869D01*
X163986991Y-74487860D01*
X163993990Y-74489891D01*
X163993993Y-74489892D01*
X164005570Y-74493250D01*
X164022032Y-74498027D01*
X164042746Y-74498452D01*
X164060551Y-74500109D01*
X165378842Y-74719610D01*
X165395155Y-74725715D01*
X165443615Y-74730395D01*
X165491653Y-74738394D01*
X165497037Y-74737870D01*
X165520939Y-74737864D01*
X167348740Y-74914403D01*
X167356748Y-74917100D01*
X167414225Y-74920728D01*
X167471509Y-74926261D01*
X167471516Y-74926259D01*
X167479639Y-74925979D01*
X167479657Y-74926507D01*
X167494037Y-74925765D01*
X169751640Y-75068276D01*
X169758386Y-75070341D01*
X169817304Y-75072421D01*
X169876125Y-75076134D01*
X169876126Y-75076133D01*
X169876130Y-75076134D01*
X169884237Y-75075583D01*
X169884289Y-75076352D01*
X169897607Y-75075255D01*
X181964326Y-75501248D01*
X188292976Y-75748587D01*
X188296406Y-75748771D01*
X193809826Y-76122299D01*
X193815715Y-76122839D01*
X193826003Y-76124034D01*
X193890322Y-76151323D01*
X193929678Y-76209054D01*
X193931575Y-76278898D01*
X193895410Y-76338680D01*
X193839286Y-76368097D01*
X193755819Y-76387147D01*
X193755811Y-76387150D01*
X193501331Y-76476197D01*
X193258419Y-76593177D01*
X193030126Y-76736624D01*
X192819329Y-76904728D01*
X192628679Y-77095378D01*
X192460575Y-77306175D01*
X192317128Y-77534468D01*
X192200148Y-77777380D01*
X192111101Y-78031860D01*
X192111098Y-78031868D01*
X192051102Y-78294731D01*
X192051100Y-78294743D01*
X192020914Y-78562649D01*
X192020914Y-78832276D01*
X192051100Y-79100182D01*
X192051102Y-79100194D01*
X192111098Y-79363057D01*
X192111101Y-79363065D01*
X192200148Y-79617545D01*
X192317128Y-79860457D01*
X192317130Y-79860460D01*
X192460576Y-80088752D01*
X192628680Y-80299548D01*
X192819329Y-80490197D01*
X193030125Y-80658301D01*
X193258417Y-80801747D01*
X193501335Y-80918730D01*
X193692463Y-80985608D01*
X193755811Y-81007775D01*
X193755819Y-81007778D01*
X193755822Y-81007778D01*
X193755823Y-81007779D01*
X194018682Y-81067775D01*
X194286601Y-81097962D01*
X194286602Y-81097963D01*
X194286605Y-81097963D01*
X194556226Y-81097963D01*
X194556226Y-81097962D01*
X194824146Y-81067775D01*
X195087005Y-81007779D01*
X195232643Y-80956817D01*
X195302420Y-80953255D01*
X195363048Y-80987984D01*
X195395275Y-81049977D01*
X195388871Y-81119553D01*
X195352113Y-81169834D01*
X193519222Y-82669307D01*
X193517036Y-82671054D01*
X191268336Y-84427499D01*
X191266530Y-84428884D01*
X186289514Y-88171395D01*
X186289138Y-88171676D01*
X176770481Y-95273002D01*
X176758827Y-95281697D01*
X176752244Y-95284539D01*
X176706117Y-95321020D01*
X176704687Y-95322088D01*
X176704685Y-95322088D01*
X176658949Y-95356211D01*
X176653122Y-95361882D01*
X176652606Y-95361351D01*
X176643097Y-95370863D01*
X174910768Y-96740988D01*
X174899630Y-96749796D01*
X174891872Y-96753461D01*
X174848111Y-96790542D01*
X174846434Y-96791869D01*
X174846414Y-96791887D01*
X174803011Y-96826215D01*
X174797352Y-96832044D01*
X174796993Y-96831696D01*
X174787053Y-96842282D01*
X173421533Y-97999412D01*
X173412428Y-98007126D01*
X173396967Y-98015799D01*
X173362345Y-98049567D01*
X173359021Y-98052384D01*
X173325421Y-98080856D01*
X173325420Y-98080857D01*
X173322109Y-98085635D01*
X173306779Y-98103761D01*
X172375892Y-99011701D01*
X172369574Y-99017862D01*
X172345126Y-99035722D01*
X172322613Y-99063666D01*
X172317292Y-99068857D01*
X172317293Y-99068857D01*
X172296919Y-99088730D01*
X172296913Y-99088737D01*
X172285958Y-99107177D01*
X172275920Y-99121629D01*
X172013813Y-99446997D01*
X172013812Y-99446996D01*
X172010775Y-99450764D01*
X171978935Y-99484550D01*
X171969601Y-99501880D01*
X171962422Y-99510793D01*
X171957255Y-99517207D01*
X171957249Y-99517217D01*
X171940414Y-99555286D01*
X171936184Y-99563929D01*
X171814038Y-99790737D01*
X171808793Y-99800475D01*
X171795563Y-99817111D01*
X171777669Y-99858268D01*
X171775196Y-99862861D01*
X171775194Y-99862862D01*
X171756392Y-99897777D01*
X171756386Y-99897792D01*
X171754038Y-99907721D01*
X171747091Y-99928604D01*
X171743022Y-99937963D01*
X171743021Y-99937967D01*
X171737158Y-99977210D01*
X171735192Y-99987418D01*
X171726061Y-100026034D01*
X171726363Y-100036235D01*
X171725056Y-100058222D01*
X171698279Y-100237466D01*
X171685443Y-100323385D01*
X171675084Y-100367628D01*
X171675741Y-100388316D01*
X171674088Y-100399387D01*
X171672683Y-100408792D01*
X171677255Y-100448896D01*
X171677990Y-100458998D01*
X171691505Y-100883887D01*
X171691790Y-100892861D01*
X171688455Y-100922358D01*
X171693877Y-100958435D01*
X171694109Y-100965725D01*
X171695037Y-100994903D01*
X171701032Y-101014733D01*
X171704960Y-101032187D01*
X171901793Y-102341905D01*
X171903578Y-102353779D01*
X171902814Y-102371183D01*
X171913337Y-102418718D01*
X171913972Y-102422939D01*
X171913973Y-102422944D01*
X171920575Y-102466872D01*
X171920576Y-102466876D01*
X171922737Y-102471836D01*
X171930128Y-102494561D01*
X172327054Y-104287466D01*
X172326964Y-104295912D01*
X172341269Y-104351676D01*
X172341718Y-104353702D01*
X172341717Y-104353703D01*
X172353714Y-104407889D01*
X172356493Y-104415530D01*
X172356000Y-104415709D01*
X172361148Y-104429167D01*
X172879171Y-106448481D01*
X172923250Y-106620306D01*
X172923371Y-106627359D01*
X172939593Y-106684015D01*
X172940025Y-106685699D01*
X172954244Y-106741124D01*
X172957275Y-106748668D01*
X172956565Y-106748952D01*
X172961717Y-106761283D01*
X176285336Y-118368844D01*
X176285464Y-118369295D01*
X178005806Y-124464333D01*
X178006720Y-124467757D01*
X179339688Y-129765053D01*
X179336958Y-129834869D01*
X179296916Y-129892126D01*
X179232275Y-129918646D01*
X179163557Y-129906007D01*
X179114443Y-129861284D01*
X179053179Y-129763783D01*
X178885075Y-129552987D01*
X178694426Y-129362338D01*
X178483630Y-129194234D01*
X178255338Y-129050788D01*
X178255335Y-129050786D01*
X178012423Y-128933806D01*
X177757943Y-128844759D01*
X177757935Y-128844756D01*
X177548748Y-128797011D01*
X177495073Y-128784760D01*
X177495069Y-128784759D01*
X177495060Y-128784758D01*
X177227154Y-128754572D01*
X177227150Y-128754572D01*
X176957532Y-128754572D01*
X176957527Y-128754572D01*
X176689621Y-128784758D01*
X176689609Y-128784760D01*
X176426746Y-128844756D01*
X176426738Y-128844759D01*
X176172258Y-128933806D01*
X175929346Y-129050786D01*
X175701053Y-129194233D01*
X175490256Y-129362337D01*
X175299606Y-129552987D01*
X175131502Y-129763784D01*
X174988055Y-129992077D01*
X174871075Y-130234989D01*
X174782028Y-130489469D01*
X174782025Y-130489477D01*
X174722029Y-130752340D01*
X174722027Y-130752352D01*
X174691841Y-131020258D01*
X174691841Y-131289885D01*
X174722027Y-131557791D01*
X174722028Y-131557800D01*
X174722029Y-131557804D01*
X174725434Y-131572721D01*
X174782025Y-131820666D01*
X174782028Y-131820674D01*
X174871075Y-132075154D01*
X174988055Y-132318066D01*
X174988057Y-132318069D01*
X175131503Y-132546361D01*
X175154119Y-132574720D01*
X175269393Y-132719270D01*
X175295802Y-132783957D01*
X175283045Y-132852652D01*
X175235175Y-132903546D01*
X175167388Y-132920480D01*
X175105431Y-132900914D01*
X173038808Y-131573470D01*
X173036471Y-131571931D01*
X170671018Y-129976002D01*
X170669200Y-129974751D01*
X168778454Y-128647966D01*
X165571873Y-126397824D01*
X165571489Y-126397554D01*
X159787866Y-122306238D01*
X155864454Y-119530828D01*
X155859721Y-119525448D01*
X155810781Y-119492859D01*
X155762725Y-119458865D01*
X155762721Y-119458863D01*
X155755540Y-119455081D01*
X155755887Y-119454420D01*
X155743896Y-119448321D01*
X153893696Y-118216305D01*
X153887808Y-118210052D01*
X153838940Y-118179844D01*
X153837190Y-118178678D01*
X153837189Y-118178677D01*
X153791157Y-118148025D01*
X153783861Y-118144442D01*
X153784081Y-118143993D01*
X153770943Y-118137811D01*
X152248481Y-117196701D01*
X152238332Y-117190427D01*
X152225305Y-117178400D01*
X152182480Y-117155901D01*
X152178789Y-117153620D01*
X152141321Y-117130460D01*
X152141320Y-117130459D01*
X152141319Y-117130459D01*
X152135752Y-117128786D01*
X152113776Y-117119808D01*
X150962622Y-116515056D01*
X150954811Y-116510952D01*
X150930266Y-116493215D01*
X150896726Y-116480438D01*
X150890144Y-116476980D01*
X150890143Y-116476979D01*
X150864957Y-116463748D01*
X150864956Y-116463747D01*
X150844015Y-116459022D01*
X150827170Y-116453941D01*
X150436746Y-116305212D01*
X150436746Y-116305211D01*
X150432224Y-116303488D01*
X150390246Y-116283642D01*
X150370876Y-116280120D01*
X150352484Y-116273114D01*
X150352481Y-116273113D01*
X150311075Y-116268867D01*
X150301545Y-116267514D01*
X150048093Y-116221434D01*
X150048093Y-116221433D01*
X150037207Y-116219454D01*
X150017301Y-116212013D01*
X149972622Y-116207713D01*
X149967494Y-116206781D01*
X149928472Y-116199686D01*
X149928464Y-116199686D01*
X149918293Y-116200521D01*
X149896282Y-116200367D01*
X149887559Y-116199528D01*
X149886123Y-116199390D01*
X149886122Y-116199390D01*
X149886120Y-116199390D01*
X149846986Y-116205939D01*
X149836677Y-116207223D01*
X149797126Y-116210473D01*
X149797125Y-116210473D01*
X149787516Y-116213913D01*
X149766203Y-116219463D01*
X149506775Y-116262890D01*
X149501765Y-116263728D01*
X149456500Y-116267548D01*
X149437033Y-116274563D01*
X149425991Y-116276412D01*
X149425991Y-116276413D01*
X149416611Y-116277983D01*
X149416610Y-116277983D01*
X149379865Y-116294731D01*
X149370488Y-116298550D01*
X148970572Y-116442700D01*
X148962133Y-116445742D01*
X148933050Y-116451684D01*
X148900414Y-116467987D01*
X148893561Y-116470458D01*
X148893560Y-116470458D01*
X148875472Y-116476979D01*
X148866084Y-116480363D01*
X148849078Y-116492192D01*
X148833692Y-116501322D01*
X147648901Y-117093242D01*
X147648900Y-117093241D01*
X147638150Y-117098611D01*
X147621375Y-117103259D01*
X147579423Y-117127953D01*
X147575607Y-117129860D01*
X147535857Y-117149718D01*
X147535852Y-117149722D01*
X147531793Y-117153319D01*
X147512468Y-117167365D01*
X145942237Y-118091680D01*
X145942236Y-118091679D01*
X145929973Y-118098897D01*
X145921919Y-118101421D01*
X145873321Y-118132247D01*
X145871523Y-118133306D01*
X145871521Y-118133306D01*
X145823691Y-118161463D01*
X145817286Y-118166464D01*
X145816963Y-118166051D01*
X145805756Y-118175105D01*
X143907851Y-119378994D01*
X143907850Y-119378993D01*
X143895543Y-119386799D01*
X143888880Y-119389092D01*
X143840035Y-119422009D01*
X143838543Y-119422957D01*
X143838511Y-119422979D01*
X143790220Y-119453612D01*
X143783984Y-119458824D01*
X143783495Y-119458239D01*
X143773362Y-119466945D01*
X133760765Y-126214963D01*
X133760376Y-126215224D01*
X128492732Y-129736531D01*
X128490933Y-129737710D01*
X126045391Y-131309310D01*
X126043114Y-131310738D01*
X123814479Y-132674093D01*
X123810595Y-132676373D01*
X123661870Y-132760090D01*
X123593794Y-132775821D01*
X123528021Y-132752250D01*
X123485432Y-132696861D01*
X123479549Y-132627239D01*
X123504096Y-132574723D01*
X123635804Y-132409567D01*
X123779250Y-132181275D01*
X123896233Y-131938357D01*
X123985282Y-131683869D01*
X124045278Y-131421010D01*
X124075466Y-131153087D01*
X124075466Y-130883469D01*
X124045278Y-130615546D01*
X123985282Y-130352687D01*
X123896233Y-130098199D01*
X123779250Y-129855281D01*
X123635804Y-129626989D01*
X123467700Y-129416193D01*
X123277051Y-129225544D01*
X123237789Y-129194234D01*
X123223515Y-129182851D01*
X123066255Y-129057440D01*
X122908579Y-128958365D01*
X122837960Y-128913992D01*
X122595048Y-128797012D01*
X122340568Y-128707965D01*
X122340560Y-128707962D01*
X122143412Y-128662965D01*
X122077698Y-128647966D01*
X122077694Y-128647965D01*
X122077685Y-128647964D01*
X121809779Y-128617778D01*
X121809775Y-128617778D01*
X121540157Y-128617778D01*
X121540152Y-128617778D01*
X121272246Y-128647964D01*
X121272234Y-128647966D01*
X121009371Y-128707962D01*
X121009363Y-128707965D01*
X120754883Y-128797012D01*
X120511971Y-128913992D01*
X120283678Y-129057439D01*
X120072881Y-129225543D01*
X119882232Y-129416192D01*
X119863358Y-129439859D01*
X119806168Y-129479997D01*
X119736357Y-129482845D01*
X119676088Y-129447498D01*
X119644496Y-129385178D01*
X119646861Y-129329630D01*
X120987606Y-124460174D01*
X120988575Y-124456843D01*
X122814347Y-118506689D01*
X126345454Y-107152498D01*
X126349111Y-107146330D01*
X126364991Y-107089678D01*
X126382461Y-107033505D01*
X126382461Y-107033498D01*
X126383842Y-107025487D01*
X126384582Y-107025614D01*
X126386672Y-107012331D01*
X126986646Y-104871978D01*
X126990772Y-104864449D01*
X127004393Y-104808666D01*
X127019898Y-104753355D01*
X127019898Y-104753347D01*
X127021051Y-104745307D01*
X127021549Y-104745378D01*
X127023363Y-104730976D01*
X127450778Y-102980619D01*
X127458191Y-102964515D01*
X127466353Y-102916836D01*
X127477833Y-102869826D01*
X127477703Y-102864026D01*
X127479449Y-102840339D01*
X127700368Y-101549946D01*
X127709652Y-101521125D01*
X127711438Y-101485284D01*
X127717496Y-101449904D01*
X127715517Y-101428520D01*
X127715145Y-101410930D01*
X127716911Y-101375510D01*
X127736188Y-100988844D01*
X127742094Y-100942773D01*
X127739457Y-100923264D01*
X127740438Y-100903607D01*
X127740436Y-100903601D01*
X127740437Y-100903600D01*
X127731680Y-100862916D01*
X127730023Y-100853447D01*
X127694044Y-100587184D01*
X127694971Y-100565947D01*
X127685254Y-100522129D01*
X127679244Y-100477651D01*
X127671041Y-100458037D01*
X127666440Y-100437288D01*
X127645716Y-100397483D01*
X127628397Y-100356071D01*
X127628395Y-100356069D01*
X127628394Y-100356066D01*
X127622159Y-100347998D01*
X127610290Y-100329439D01*
X127604526Y-100318368D01*
X127486481Y-100091634D01*
X127468857Y-100049753D01*
X127456162Y-100033399D01*
X127446603Y-100015039D01*
X127419328Y-99985276D01*
X127412797Y-99977537D01*
X127152117Y-99641734D01*
X127146617Y-99634649D01*
X127131978Y-99608824D01*
X127106384Y-99582822D01*
X127084011Y-99554001D01*
X127067496Y-99541475D01*
X127054064Y-99529667D01*
X127043434Y-99518867D01*
X126116572Y-98577223D01*
X126106962Y-98562694D01*
X126070501Y-98530417D01*
X126036346Y-98495717D01*
X126036344Y-98495715D01*
X126031678Y-98492972D01*
X126012337Y-98478927D01*
X124648039Y-97271182D01*
X124637382Y-97261748D01*
X124632492Y-97254864D01*
X124588151Y-97218167D01*
X124545033Y-97179996D01*
X124545031Y-97179995D01*
X124538296Y-97175450D01*
X124538589Y-97175015D01*
X124526509Y-97167150D01*
X122795071Y-95734168D01*
X122783840Y-95724873D01*
X122779600Y-95719241D01*
X122733172Y-95682939D01*
X122731860Y-95681853D01*
X122731858Y-95681851D01*
X122687756Y-95645351D01*
X122680872Y-95641030D01*
X122681277Y-95640384D01*
X122669858Y-95633433D01*
X119545460Y-93190464D01*
X115736861Y-90212518D01*
X130087925Y-90212518D01*
X130087925Y-90370632D01*
X130122893Y-90501132D01*
X130128848Y-90523358D01*
X130128851Y-90523365D01*
X130207900Y-90660284D01*
X130207904Y-90660289D01*
X130207905Y-90660291D01*
X130319709Y-90772095D01*
X130319711Y-90772096D01*
X130319715Y-90772099D01*
X130414827Y-90827011D01*
X130456641Y-90851152D01*
X130609368Y-90892075D01*
X130671170Y-90892075D01*
X130738209Y-90911760D01*
X130758851Y-90928394D01*
X131643181Y-91812724D01*
X131676666Y-91874047D01*
X131679500Y-91900405D01*
X131679500Y-102922726D01*
X131706793Y-103024589D01*
X131714954Y-103038724D01*
X131759520Y-103115913D01*
X131759521Y-103115914D01*
X131759522Y-103115915D01*
X137793181Y-109149574D01*
X137826666Y-109210897D01*
X137829500Y-109237255D01*
X137829500Y-109299056D01*
X137870423Y-109451783D01*
X137870426Y-109451790D01*
X137949475Y-109588709D01*
X137949479Y-109588714D01*
X137949480Y-109588716D01*
X138061284Y-109700520D01*
X138061286Y-109700521D01*
X138061290Y-109700524D01*
X138198209Y-109779573D01*
X138198216Y-109779577D01*
X138350943Y-109820500D01*
X138350945Y-109820500D01*
X138509055Y-109820500D01*
X138509057Y-109820500D01*
X138661784Y-109779577D01*
X138798716Y-109700520D01*
X138896995Y-109602241D01*
X138958318Y-109568756D01*
X138984676Y-109565922D01*
X162667303Y-109565922D01*
X162667305Y-109565922D01*
X162769166Y-109538629D01*
X162860491Y-109485902D01*
X165542229Y-106804162D01*
X165603550Y-106770679D01*
X165666778Y-106775200D01*
X165667056Y-106774164D01*
X165672434Y-106775605D01*
X165673242Y-106775663D01*
X165674504Y-106776159D01*
X165674903Y-106776266D01*
X165674907Y-106776268D01*
X165827634Y-106817191D01*
X165827636Y-106817191D01*
X165985746Y-106817191D01*
X165985748Y-106817191D01*
X166138475Y-106776268D01*
X166275407Y-106697211D01*
X166387211Y-106585407D01*
X166466268Y-106448475D01*
X166507191Y-106295748D01*
X166507191Y-106137634D01*
X166466268Y-105984907D01*
X166466267Y-105984905D01*
X166464164Y-105977056D01*
X166466120Y-105976531D01*
X166459815Y-105917895D01*
X166491088Y-105855414D01*
X166494135Y-105852256D01*
X169230480Y-103115913D01*
X169283206Y-103024588D01*
X169283207Y-103024587D01*
X169310500Y-102922727D01*
X169310500Y-83050098D01*
X169330185Y-82983059D01*
X169346819Y-82962417D01*
X169364684Y-82944552D01*
X169390520Y-82918716D01*
X169431438Y-82847844D01*
X173180000Y-82847844D01*
X173186401Y-82907372D01*
X173186403Y-82907379D01*
X173236645Y-83042086D01*
X173236649Y-83042093D01*
X173322809Y-83157187D01*
X173322812Y-83157190D01*
X173437906Y-83243350D01*
X173437913Y-83243354D01*
X173572620Y-83293596D01*
X173572627Y-83293598D01*
X173632155Y-83299999D01*
X173632172Y-83300000D01*
X174520000Y-83300000D01*
X175020000Y-83300000D01*
X175907828Y-83300000D01*
X175907844Y-83299999D01*
X175967372Y-83293598D01*
X175967379Y-83293596D01*
X176102086Y-83243354D01*
X176102093Y-83243350D01*
X176217187Y-83157190D01*
X176217190Y-83157187D01*
X176303350Y-83042093D01*
X176303354Y-83042086D01*
X176353596Y-82907379D01*
X176353598Y-82907372D01*
X176359999Y-82847844D01*
X176360000Y-82847827D01*
X176360000Y-82250000D01*
X175020000Y-82250000D01*
X175020000Y-83300000D01*
X174520000Y-83300000D01*
X174520000Y-82250000D01*
X173180000Y-82250000D01*
X173180000Y-82847844D01*
X169431438Y-82847844D01*
X169469577Y-82781784D01*
X169510500Y-82629057D01*
X169510500Y-82470943D01*
X169469577Y-82318216D01*
X169390520Y-82181284D01*
X169340143Y-82130907D01*
X169334554Y-82123296D01*
X169325735Y-82098970D01*
X169313334Y-82076260D01*
X169311576Y-82059918D01*
X169310740Y-82057610D01*
X169311139Y-82055850D01*
X169310500Y-82049902D01*
X169310500Y-81941099D01*
X169310501Y-81941086D01*
X169310501Y-81825644D01*
X169310501Y-81825643D01*
X169283207Y-81723783D01*
X169269187Y-81699500D01*
X169230480Y-81632457D01*
X169155913Y-81557890D01*
X169155910Y-81557888D01*
X168750177Y-81152155D01*
X173180000Y-81152155D01*
X173180000Y-81750000D01*
X174520000Y-81750000D01*
X175020000Y-81750000D01*
X176360000Y-81750000D01*
X176360000Y-81152172D01*
X176359999Y-81152155D01*
X176353598Y-81092627D01*
X176353596Y-81092620D01*
X176303354Y-80957913D01*
X176303350Y-80957906D01*
X176217190Y-80842812D01*
X176217187Y-80842809D01*
X176102093Y-80756649D01*
X176102086Y-80756645D01*
X175967379Y-80706403D01*
X175967372Y-80706401D01*
X175907844Y-80700000D01*
X175020000Y-80700000D01*
X175020000Y-81750000D01*
X174520000Y-81750000D01*
X174520000Y-80700000D01*
X173632155Y-80700000D01*
X173572627Y-80706401D01*
X173572620Y-80706403D01*
X173437913Y-80756645D01*
X173437906Y-80756649D01*
X173322812Y-80842809D01*
X173322809Y-80842812D01*
X173236649Y-80957906D01*
X173236645Y-80957913D01*
X173186403Y-81092620D01*
X173186401Y-81092627D01*
X173180000Y-81152155D01*
X168750177Y-81152155D01*
X167486820Y-79888797D01*
X167457825Y-79838573D01*
X167457319Y-79838783D01*
X167455726Y-79834938D01*
X167454724Y-79833202D01*
X167454207Y-79831271D01*
X167401480Y-79739945D01*
X167326913Y-79665378D01*
X167244064Y-79617545D01*
X167235589Y-79612652D01*
X167235588Y-79612651D01*
X167235587Y-79612651D01*
X167133727Y-79585358D01*
X167133726Y-79585358D01*
X165293113Y-79585358D01*
X165226074Y-79565673D01*
X165205432Y-79549039D01*
X158995915Y-73339522D01*
X158995913Y-73339520D01*
X158935058Y-73304385D01*
X158904589Y-73286793D01*
X158853657Y-73273146D01*
X158802727Y-73259500D01*
X158802726Y-73259500D01*
X142740098Y-73259500D01*
X142673059Y-73239815D01*
X142652417Y-73223181D01*
X142608717Y-73179481D01*
X142608709Y-73179475D01*
X142471790Y-73100426D01*
X142471786Y-73100424D01*
X142471784Y-73100423D01*
X142319057Y-73059500D01*
X142160943Y-73059500D01*
X142008216Y-73100423D01*
X142008209Y-73100426D01*
X141871290Y-73179475D01*
X141871282Y-73179481D01*
X141759481Y-73291282D01*
X141759475Y-73291290D01*
X141680426Y-73428209D01*
X141680423Y-73428216D01*
X141639500Y-73580943D01*
X141639500Y-73739057D01*
X141662928Y-73826489D01*
X141680423Y-73891783D01*
X141680426Y-73891790D01*
X141759475Y-74028709D01*
X141759479Y-74028714D01*
X141759480Y-74028716D01*
X141871284Y-74140520D01*
X141871286Y-74140521D01*
X141871290Y-74140524D01*
X142008209Y-74219573D01*
X142008216Y-74219577D01*
X142160943Y-74260500D01*
X142160945Y-74260500D01*
X142319055Y-74260500D01*
X142319057Y-74260500D01*
X142471784Y-74219577D01*
X142608716Y-74140520D01*
X142652417Y-74096819D01*
X142713740Y-74063334D01*
X142740098Y-74060500D01*
X154222309Y-74060500D01*
X154289348Y-74080185D01*
X154335103Y-74132989D01*
X154345047Y-74202147D01*
X154342084Y-74216591D01*
X154321314Y-74294108D01*
X154321314Y-74425892D01*
X154334797Y-74476212D01*
X154355422Y-74553187D01*
X154379189Y-74594352D01*
X154417673Y-74661008D01*
X154434146Y-74728906D01*
X154411294Y-74794933D01*
X154397967Y-74810688D01*
X153898017Y-75310640D01*
X153842069Y-75366587D01*
X153842063Y-75366595D01*
X153802510Y-75435104D01*
X153802507Y-75435109D01*
X153782028Y-75511539D01*
X153782028Y-83609111D01*
X153762343Y-83676150D01*
X153745709Y-83696792D01*
X149119320Y-88323181D01*
X149057997Y-88356666D01*
X149031639Y-88359500D01*
X145624500Y-88359500D01*
X145557461Y-88339815D01*
X145511706Y-88287011D01*
X145500500Y-88235500D01*
X145500500Y-88130249D01*
X145500499Y-88130247D01*
X145488868Y-88071770D01*
X145488867Y-88071769D01*
X145444552Y-88005447D01*
X145378230Y-87961132D01*
X145378229Y-87961131D01*
X145319752Y-87949500D01*
X145319748Y-87949500D01*
X142870252Y-87949500D01*
X142870247Y-87949500D01*
X142811770Y-87961131D01*
X142811769Y-87961132D01*
X142745447Y-88005447D01*
X142701132Y-88071769D01*
X142701131Y-88071770D01*
X142689500Y-88130247D01*
X142689500Y-89189752D01*
X142701131Y-89248229D01*
X142701132Y-89248230D01*
X142745447Y-89314552D01*
X142811769Y-89358867D01*
X142811770Y-89358868D01*
X142870247Y-89370499D01*
X142870250Y-89370500D01*
X142870252Y-89370500D01*
X145319750Y-89370500D01*
X145319751Y-89370499D01*
X145334568Y-89367552D01*
X145378229Y-89358868D01*
X145378229Y-89358867D01*
X145378231Y-89358867D01*
X145444552Y-89314552D01*
X145488867Y-89248231D01*
X145488867Y-89248229D01*
X145488868Y-89248229D01*
X145500499Y-89189752D01*
X145500500Y-89189750D01*
X145500500Y-89084500D01*
X145520185Y-89017461D01*
X145572989Y-88971706D01*
X145624500Y-88960500D01*
X149247032Y-88960500D01*
X149247034Y-88960500D01*
X149323461Y-88940021D01*
X149391983Y-88900460D01*
X149447932Y-88844511D01*
X150162196Y-88130247D01*
X154499500Y-88130247D01*
X154499500Y-89189752D01*
X154511131Y-89248229D01*
X154511132Y-89248230D01*
X154555447Y-89314552D01*
X154621769Y-89358867D01*
X154621770Y-89358868D01*
X154680247Y-89370499D01*
X154680250Y-89370500D01*
X154680252Y-89370500D01*
X157129750Y-89370500D01*
X157129751Y-89370499D01*
X157144568Y-89367552D01*
X157188229Y-89358868D01*
X157188229Y-89358867D01*
X157188231Y-89358867D01*
X157254552Y-89314552D01*
X157298867Y-89248231D01*
X157298867Y-89248229D01*
X157298868Y-89248229D01*
X157310499Y-89189752D01*
X157310500Y-89189750D01*
X157310500Y-88130249D01*
X157310499Y-88130247D01*
X157298868Y-88071770D01*
X157298867Y-88071769D01*
X157254552Y-88005447D01*
X157188230Y-87961132D01*
X157188229Y-87961131D01*
X157129752Y-87949500D01*
X157129748Y-87949500D01*
X154680252Y-87949500D01*
X154680247Y-87949500D01*
X154621770Y-87961131D01*
X154621769Y-87961132D01*
X154555447Y-88005447D01*
X154511132Y-88071769D01*
X154511131Y-88071770D01*
X154499500Y-88130247D01*
X150162196Y-88130247D01*
X152702196Y-85590247D01*
X157929500Y-85590247D01*
X157929500Y-86649752D01*
X157941131Y-86708229D01*
X157941132Y-86708230D01*
X157985447Y-86774552D01*
X158051769Y-86818867D01*
X158051770Y-86818868D01*
X158110247Y-86830499D01*
X158110250Y-86830500D01*
X158110252Y-86830500D01*
X160559750Y-86830500D01*
X160559751Y-86830499D01*
X160574568Y-86827552D01*
X160618229Y-86818868D01*
X160618229Y-86818867D01*
X160618231Y-86818867D01*
X160684552Y-86774552D01*
X160728867Y-86708231D01*
X160728867Y-86708229D01*
X160728868Y-86708229D01*
X160740499Y-86649752D01*
X160740500Y-86649750D01*
X160740500Y-85590249D01*
X160740499Y-85590247D01*
X160728868Y-85531770D01*
X160728867Y-85531769D01*
X160684552Y-85465447D01*
X160618230Y-85421132D01*
X160618229Y-85421131D01*
X160559752Y-85409500D01*
X160559748Y-85409500D01*
X158110252Y-85409500D01*
X158110247Y-85409500D01*
X158051770Y-85421131D01*
X158051769Y-85421132D01*
X157985447Y-85465447D01*
X157941132Y-85531769D01*
X157941131Y-85531770D01*
X157929500Y-85590247D01*
X152702196Y-85590247D01*
X154287819Y-84004624D01*
X154349142Y-83971139D01*
X154418834Y-83976123D01*
X154474767Y-84017995D01*
X154499184Y-84083459D01*
X154499500Y-84092305D01*
X154499500Y-84109752D01*
X154511131Y-84168229D01*
X154511132Y-84168230D01*
X154555447Y-84234552D01*
X154621769Y-84278867D01*
X154621770Y-84278868D01*
X154680247Y-84290499D01*
X154680250Y-84290500D01*
X154680252Y-84290500D01*
X157129750Y-84290500D01*
X157129751Y-84290499D01*
X157144568Y-84287552D01*
X157188229Y-84278868D01*
X157188229Y-84278867D01*
X157188231Y-84278867D01*
X157254552Y-84234552D01*
X157298867Y-84168231D01*
X157298867Y-84168229D01*
X157298868Y-84168229D01*
X157310499Y-84109752D01*
X157310500Y-84109750D01*
X157310500Y-83050249D01*
X157310499Y-83050247D01*
X157298868Y-82991770D01*
X157298867Y-82991769D01*
X157254552Y-82925447D01*
X157188230Y-82881132D01*
X157188229Y-82881131D01*
X157129752Y-82869500D01*
X157129748Y-82869500D01*
X154680252Y-82869500D01*
X154680247Y-82869500D01*
X154621770Y-82881131D01*
X154621769Y-82881132D01*
X154575919Y-82911769D01*
X154509242Y-82932647D01*
X154441862Y-82914163D01*
X154395171Y-82862184D01*
X154383028Y-82808667D01*
X154383028Y-80510247D01*
X157929500Y-80510247D01*
X157929500Y-81569752D01*
X157941131Y-81628229D01*
X157941132Y-81628230D01*
X157985447Y-81694552D01*
X158051769Y-81738867D01*
X158051770Y-81738868D01*
X158110247Y-81750499D01*
X158110250Y-81750500D01*
X158110252Y-81750500D01*
X160559750Y-81750500D01*
X160559751Y-81750499D01*
X160574568Y-81747552D01*
X160618229Y-81738868D01*
X160618229Y-81738867D01*
X160618231Y-81738867D01*
X160684552Y-81694552D01*
X160728867Y-81628231D01*
X160728867Y-81628229D01*
X160728868Y-81628229D01*
X160740499Y-81569752D01*
X160740500Y-81569750D01*
X160740500Y-80510249D01*
X160740499Y-80510247D01*
X160728868Y-80451770D01*
X160728867Y-80451769D01*
X160684552Y-80385447D01*
X160618230Y-80341132D01*
X160618229Y-80341131D01*
X160559752Y-80329500D01*
X160559748Y-80329500D01*
X158110252Y-80329500D01*
X158110247Y-80329500D01*
X158051770Y-80341131D01*
X158051769Y-80341132D01*
X157985447Y-80385447D01*
X157941132Y-80451769D01*
X157941131Y-80451770D01*
X157929500Y-80510247D01*
X154383028Y-80510247D01*
X154383028Y-75726933D01*
X154402713Y-75659894D01*
X154419347Y-75639252D01*
X154692012Y-75366587D01*
X155062274Y-74996325D01*
X155078013Y-74969064D01*
X155101835Y-74927803D01*
X155122314Y-74851376D01*
X155122314Y-74801243D01*
X155127119Y-74784490D01*
X155136869Y-74769106D01*
X155141999Y-74751637D01*
X155158633Y-74730995D01*
X155171991Y-74717637D01*
X155222314Y-74667314D01*
X155288206Y-74553186D01*
X155322314Y-74425892D01*
X155322314Y-74294108D01*
X155301544Y-74216592D01*
X155303207Y-74146743D01*
X155342370Y-74088881D01*
X155406598Y-74061377D01*
X155421319Y-74060500D01*
X158532745Y-74060500D01*
X158599784Y-74080185D01*
X158620426Y-74096819D01*
X164829945Y-80306338D01*
X164921270Y-80359065D01*
X165023131Y-80386358D01*
X166800233Y-80386358D01*
X166867272Y-80406043D01*
X166887914Y-80422677D01*
X168450319Y-81985082D01*
X168483804Y-82046405D01*
X168478820Y-82116097D01*
X168450321Y-82160443D01*
X168429478Y-82181286D01*
X168429475Y-82181290D01*
X168350426Y-82318209D01*
X168350423Y-82318216D01*
X168309500Y-82470943D01*
X168309500Y-82629057D01*
X168320520Y-82670182D01*
X168350423Y-82781783D01*
X168350426Y-82781790D01*
X168429475Y-82918709D01*
X168429481Y-82918717D01*
X168473181Y-82962417D01*
X168506666Y-83023740D01*
X168509500Y-83050098D01*
X168509500Y-102652745D01*
X168489815Y-102719784D01*
X168473181Y-102740426D01*
X165586213Y-105627393D01*
X165586211Y-105627396D01*
X165533483Y-105718721D01*
X165530375Y-105726227D01*
X165528859Y-105725599D01*
X165526031Y-105730496D01*
X165523109Y-105743932D01*
X165501958Y-105772186D01*
X165462186Y-105811958D01*
X165415602Y-105838857D01*
X165416230Y-105840374D01*
X165408722Y-105843483D01*
X165317393Y-105896213D01*
X162485004Y-108728603D01*
X162423681Y-108762088D01*
X162397323Y-108764922D01*
X138873965Y-108764922D01*
X138806926Y-108745237D01*
X138798827Y-108739543D01*
X138661790Y-108660426D01*
X138661786Y-108660424D01*
X138661784Y-108660423D01*
X138509057Y-108619500D01*
X138509056Y-108619500D01*
X138447255Y-108619500D01*
X138417814Y-108610855D01*
X138387828Y-108604332D01*
X138382812Y-108600577D01*
X138380216Y-108599815D01*
X138359574Y-108583181D01*
X138231819Y-108455426D01*
X138198334Y-108394103D01*
X138195500Y-108367745D01*
X138195500Y-102452255D01*
X138215185Y-102385216D01*
X138231819Y-102364574D01*
X138799574Y-101796819D01*
X138860897Y-101763334D01*
X138887255Y-101760500D01*
X139135500Y-101760500D01*
X139202539Y-101780185D01*
X139248294Y-101832989D01*
X139259500Y-101884500D01*
X139259500Y-101889752D01*
X139271131Y-101948229D01*
X139271132Y-101948230D01*
X139315447Y-102014552D01*
X139381769Y-102058867D01*
X139381770Y-102058868D01*
X139440247Y-102070499D01*
X139440250Y-102070500D01*
X139440252Y-102070500D01*
X141889750Y-102070500D01*
X141889751Y-102070499D01*
X141904568Y-102067552D01*
X141948229Y-102058868D01*
X141948229Y-102058867D01*
X141948231Y-102058867D01*
X142014552Y-102014552D01*
X142058867Y-101948231D01*
X142058867Y-101948229D01*
X142058868Y-101948229D01*
X142070499Y-101889752D01*
X142070500Y-101889750D01*
X142070500Y-100830249D01*
X142070499Y-100830247D01*
X157929500Y-100830247D01*
X157929500Y-101889752D01*
X157941131Y-101948229D01*
X157941132Y-101948230D01*
X157985447Y-102014552D01*
X158051769Y-102058867D01*
X158051770Y-102058868D01*
X158110247Y-102070499D01*
X158110250Y-102070500D01*
X158110252Y-102070500D01*
X160559750Y-102070500D01*
X160559751Y-102070499D01*
X160574568Y-102067552D01*
X160618229Y-102058868D01*
X160618229Y-102058867D01*
X160618231Y-102058867D01*
X160684552Y-102014552D01*
X160728867Y-101948231D01*
X160728867Y-101948229D01*
X160728868Y-101948229D01*
X160740499Y-101889752D01*
X160740500Y-101889750D01*
X160740500Y-100830249D01*
X160740499Y-100830247D01*
X160728868Y-100771770D01*
X160728867Y-100771769D01*
X160684552Y-100705447D01*
X160618230Y-100661132D01*
X160618229Y-100661131D01*
X160559752Y-100649500D01*
X160559748Y-100649500D01*
X158110252Y-100649500D01*
X158110247Y-100649500D01*
X158051770Y-100661131D01*
X158051769Y-100661132D01*
X157985447Y-100705447D01*
X157941132Y-100771769D01*
X157941131Y-100771770D01*
X157929500Y-100830247D01*
X142070499Y-100830247D01*
X142058868Y-100771770D01*
X142058867Y-100771769D01*
X142014552Y-100705447D01*
X141948230Y-100661132D01*
X141948229Y-100661131D01*
X141889752Y-100649500D01*
X141889748Y-100649500D01*
X139440252Y-100649500D01*
X139440247Y-100649500D01*
X139381770Y-100661131D01*
X139381769Y-100661132D01*
X139315447Y-100705447D01*
X139271132Y-100771769D01*
X139271131Y-100771770D01*
X139259500Y-100830247D01*
X139259500Y-100835500D01*
X139239815Y-100902539D01*
X139187011Y-100948294D01*
X139135500Y-100959500D01*
X138617273Y-100959500D01*
X138515410Y-100986793D01*
X138424087Y-101039520D01*
X138424084Y-101039522D01*
X137474522Y-101989084D01*
X137474520Y-101989087D01*
X137421793Y-102080410D01*
X137394500Y-102182273D01*
X137394500Y-107318745D01*
X137374815Y-107385784D01*
X137322011Y-107431539D01*
X137252853Y-107441483D01*
X137189297Y-107412458D01*
X137182819Y-107406426D01*
X132516819Y-102740426D01*
X132483334Y-102679103D01*
X132480500Y-102652745D01*
X132480500Y-99377844D01*
X142390000Y-99377844D01*
X142396401Y-99437372D01*
X142396403Y-99437379D01*
X142446645Y-99572086D01*
X142446649Y-99572093D01*
X142532809Y-99687187D01*
X142532812Y-99687190D01*
X142647906Y-99773350D01*
X142647913Y-99773354D01*
X142782620Y-99823596D01*
X142782627Y-99823598D01*
X142842155Y-99829999D01*
X142842172Y-99830000D01*
X143845000Y-99830000D01*
X144345000Y-99830000D01*
X145347828Y-99830000D01*
X145347844Y-99829999D01*
X145407372Y-99823598D01*
X145407379Y-99823596D01*
X145542086Y-99773354D01*
X145542093Y-99773350D01*
X145657187Y-99687190D01*
X145657190Y-99687187D01*
X145743350Y-99572093D01*
X145743354Y-99572086D01*
X145793596Y-99437379D01*
X145793598Y-99437372D01*
X145799999Y-99377844D01*
X145800000Y-99377827D01*
X145800000Y-99070000D01*
X144345000Y-99070000D01*
X144345000Y-99830000D01*
X143845000Y-99830000D01*
X143845000Y-99070000D01*
X142390000Y-99070000D01*
X142390000Y-99377844D01*
X132480500Y-99377844D01*
X132480500Y-98262155D01*
X142390000Y-98262155D01*
X142390000Y-98570000D01*
X143845000Y-98570000D01*
X144345000Y-98570000D01*
X145800000Y-98570000D01*
X145800000Y-98290247D01*
X154499500Y-98290247D01*
X154499500Y-99349752D01*
X154511131Y-99408229D01*
X154511132Y-99408230D01*
X154555447Y-99474552D01*
X154621769Y-99518867D01*
X154621770Y-99518868D01*
X154680247Y-99530499D01*
X154680250Y-99530500D01*
X154680252Y-99530500D01*
X157129750Y-99530500D01*
X157129751Y-99530499D01*
X157144568Y-99527552D01*
X157188229Y-99518868D01*
X157188229Y-99518867D01*
X157188231Y-99518867D01*
X157254552Y-99474552D01*
X157298867Y-99408231D01*
X157298867Y-99408229D01*
X157298868Y-99408229D01*
X157310499Y-99349752D01*
X157310500Y-99349750D01*
X157310500Y-98290249D01*
X157310499Y-98290247D01*
X157298868Y-98231770D01*
X157298867Y-98231769D01*
X157254552Y-98165447D01*
X157188230Y-98121132D01*
X157188229Y-98121131D01*
X157129752Y-98109500D01*
X157129748Y-98109500D01*
X154680252Y-98109500D01*
X154680247Y-98109500D01*
X154621770Y-98121131D01*
X154621769Y-98121132D01*
X154555447Y-98165447D01*
X154511132Y-98231769D01*
X154511131Y-98231770D01*
X154499500Y-98290247D01*
X145800000Y-98290247D01*
X145800000Y-98262172D01*
X145799999Y-98262155D01*
X145793598Y-98202627D01*
X145793596Y-98202620D01*
X145743354Y-98067913D01*
X145743350Y-98067906D01*
X145657190Y-97952812D01*
X145657187Y-97952809D01*
X145542093Y-97866649D01*
X145542086Y-97866645D01*
X145407379Y-97816403D01*
X145407372Y-97816401D01*
X145347844Y-97810000D01*
X144345000Y-97810000D01*
X144345000Y-98570000D01*
X143845000Y-98570000D01*
X143845000Y-97810000D01*
X142842155Y-97810000D01*
X142782627Y-97816401D01*
X142782620Y-97816403D01*
X142647913Y-97866645D01*
X142647906Y-97866649D01*
X142532812Y-97952809D01*
X142532809Y-97952812D01*
X142446649Y-98067906D01*
X142446645Y-98067913D01*
X142396403Y-98202620D01*
X142396401Y-98202627D01*
X142390000Y-98262155D01*
X132480500Y-98262155D01*
X132480500Y-92595730D01*
X134859241Y-92595730D01*
X134859241Y-93404269D01*
X134862094Y-93434699D01*
X134862094Y-93434701D01*
X134906947Y-93562880D01*
X134906948Y-93562882D01*
X134987591Y-93672150D01*
X135096859Y-93752793D01*
X135139586Y-93767744D01*
X135225040Y-93797646D01*
X135255471Y-93800500D01*
X135255475Y-93800500D01*
X135335241Y-93800500D01*
X135402280Y-93820185D01*
X135448035Y-93872989D01*
X135459241Y-93924500D01*
X135459241Y-95159303D01*
X135479720Y-95235730D01*
X135503622Y-95277129D01*
X135519281Y-95304252D01*
X136679540Y-96464511D01*
X136735489Y-96520460D01*
X136735491Y-96520461D01*
X136735495Y-96520464D01*
X136804004Y-96560017D01*
X136804011Y-96560021D01*
X136880438Y-96580500D01*
X136959562Y-96580500D01*
X139135500Y-96580500D01*
X139202539Y-96600185D01*
X139248294Y-96652989D01*
X139259500Y-96704500D01*
X139259500Y-96809752D01*
X139271131Y-96868229D01*
X139271132Y-96868230D01*
X139315447Y-96934552D01*
X139381769Y-96978867D01*
X139381770Y-96978868D01*
X139440247Y-96990499D01*
X139440250Y-96990500D01*
X139440252Y-96990500D01*
X141889750Y-96990500D01*
X141889751Y-96990499D01*
X141904568Y-96987552D01*
X141948229Y-96978868D01*
X141948229Y-96978867D01*
X141948231Y-96978867D01*
X142014552Y-96934552D01*
X142058867Y-96868231D01*
X142058867Y-96868229D01*
X142058868Y-96868229D01*
X142070499Y-96809752D01*
X142070500Y-96809750D01*
X142070500Y-96704500D01*
X142090185Y-96637461D01*
X142142989Y-96591706D01*
X142194500Y-96580500D01*
X147599560Y-96580500D01*
X147599562Y-96580500D01*
X147675989Y-96560021D01*
X147744511Y-96520460D01*
X147800460Y-96464511D01*
X148514724Y-95750247D01*
X157929500Y-95750247D01*
X157929500Y-96809752D01*
X157941131Y-96868229D01*
X157941132Y-96868230D01*
X157985447Y-96934552D01*
X158051769Y-96978867D01*
X158051770Y-96978868D01*
X158110247Y-96990499D01*
X158110250Y-96990500D01*
X158110252Y-96990500D01*
X160559750Y-96990500D01*
X160559751Y-96990499D01*
X160574568Y-96987552D01*
X160618229Y-96978868D01*
X160618229Y-96978867D01*
X160618231Y-96978867D01*
X160684552Y-96934552D01*
X160728867Y-96868231D01*
X160728867Y-96868229D01*
X160728868Y-96868229D01*
X160740499Y-96809752D01*
X160740500Y-96809750D01*
X160740500Y-95750249D01*
X160740499Y-95750247D01*
X160728868Y-95691770D01*
X160728867Y-95691769D01*
X160684552Y-95625447D01*
X160618230Y-95581132D01*
X160618229Y-95581131D01*
X160559752Y-95569500D01*
X160559748Y-95569500D01*
X158110252Y-95569500D01*
X158110247Y-95569500D01*
X158051770Y-95581131D01*
X158051769Y-95581132D01*
X157985447Y-95625447D01*
X157941132Y-95691769D01*
X157941131Y-95691770D01*
X157929500Y-95750247D01*
X148514724Y-95750247D01*
X149417735Y-94847236D01*
X149433898Y-94819241D01*
X149457296Y-94778714D01*
X149477775Y-94702287D01*
X149477775Y-93924500D01*
X149497460Y-93857461D01*
X149550264Y-93811706D01*
X149601775Y-93800500D01*
X149681545Y-93800500D01*
X149711974Y-93797646D01*
X149711976Y-93797646D01*
X149776065Y-93775219D01*
X149840157Y-93752793D01*
X149949425Y-93672150D01*
X150030068Y-93562882D01*
X150052494Y-93498790D01*
X150074921Y-93434701D01*
X150074921Y-93434699D01*
X150077775Y-93404269D01*
X150077775Y-93210247D01*
X154499500Y-93210247D01*
X154499500Y-94269752D01*
X154511131Y-94328229D01*
X154511132Y-94328230D01*
X154555447Y-94394552D01*
X154621769Y-94438867D01*
X154621770Y-94438868D01*
X154680247Y-94450499D01*
X154680250Y-94450500D01*
X154680252Y-94450500D01*
X157129750Y-94450500D01*
X157129751Y-94450499D01*
X157144568Y-94447552D01*
X157188229Y-94438868D01*
X157188229Y-94438867D01*
X157188231Y-94438867D01*
X157254552Y-94394552D01*
X157298867Y-94328231D01*
X157298867Y-94328229D01*
X157298868Y-94328229D01*
X157310499Y-94269752D01*
X157310500Y-94269750D01*
X157310500Y-93210249D01*
X157310499Y-93210247D01*
X157298868Y-93151770D01*
X157298867Y-93151769D01*
X157254552Y-93085447D01*
X157188230Y-93041132D01*
X157188229Y-93041131D01*
X157129752Y-93029500D01*
X157129748Y-93029500D01*
X154680252Y-93029500D01*
X154680247Y-93029500D01*
X154621770Y-93041131D01*
X154621769Y-93041132D01*
X154555447Y-93085447D01*
X154511132Y-93151769D01*
X154511131Y-93151770D01*
X154499500Y-93210247D01*
X150077775Y-93210247D01*
X150077775Y-92595730D01*
X150074921Y-92565300D01*
X150074921Y-92565298D01*
X150030068Y-92437119D01*
X150030067Y-92437117D01*
X149949425Y-92327850D01*
X149840157Y-92247207D01*
X149840155Y-92247206D01*
X149711975Y-92202353D01*
X149681545Y-92199500D01*
X149681541Y-92199500D01*
X148673009Y-92199500D01*
X148673005Y-92199500D01*
X148642575Y-92202353D01*
X148642573Y-92202353D01*
X148514394Y-92247206D01*
X148514392Y-92247207D01*
X148405125Y-92327850D01*
X148324482Y-92437117D01*
X148324481Y-92437119D01*
X148279628Y-92565298D01*
X148279628Y-92565300D01*
X148276775Y-92595730D01*
X148276775Y-93404269D01*
X148279628Y-93434699D01*
X148279628Y-93434701D01*
X148324481Y-93562880D01*
X148324482Y-93562882D01*
X148405125Y-93672150D01*
X148514393Y-93752793D01*
X148557120Y-93767744D01*
X148642574Y-93797646D01*
X148673005Y-93800500D01*
X148673009Y-93800500D01*
X148752775Y-93800500D01*
X148819814Y-93820185D01*
X148865569Y-93872989D01*
X148876775Y-93924500D01*
X148876775Y-94486892D01*
X148857090Y-94553931D01*
X148840456Y-94574573D01*
X147471848Y-95943181D01*
X147410525Y-95976666D01*
X147384167Y-95979500D01*
X142194500Y-95979500D01*
X142127461Y-95959815D01*
X142081706Y-95907011D01*
X142070500Y-95855500D01*
X142070500Y-95750249D01*
X142070499Y-95750247D01*
X142058868Y-95691770D01*
X142058867Y-95691769D01*
X142014552Y-95625447D01*
X141948230Y-95581132D01*
X141948229Y-95581131D01*
X141889752Y-95569500D01*
X141889748Y-95569500D01*
X139440252Y-95569500D01*
X139440247Y-95569500D01*
X139381770Y-95581131D01*
X139381769Y-95581132D01*
X139315447Y-95625447D01*
X139271132Y-95691769D01*
X139271131Y-95691770D01*
X139259500Y-95750247D01*
X139259500Y-95855500D01*
X139239815Y-95922539D01*
X139187011Y-95968294D01*
X139135500Y-95979500D01*
X137095833Y-95979500D01*
X137028794Y-95959815D01*
X137008152Y-95943181D01*
X136096560Y-95031589D01*
X136063075Y-94970266D01*
X136060241Y-94943908D01*
X136060241Y-93924500D01*
X136079926Y-93857461D01*
X136132730Y-93811706D01*
X136184241Y-93800500D01*
X136264011Y-93800500D01*
X136294440Y-93797646D01*
X136294442Y-93797646D01*
X136358531Y-93775219D01*
X136422623Y-93752793D01*
X136531891Y-93672150D01*
X136612534Y-93562882D01*
X136634960Y-93498790D01*
X136657387Y-93434701D01*
X136657387Y-93434699D01*
X136660241Y-93404269D01*
X136660241Y-92595730D01*
X136657387Y-92565300D01*
X136657387Y-92565298D01*
X136612534Y-92437119D01*
X136612533Y-92437117D01*
X136531891Y-92327850D01*
X136422623Y-92247207D01*
X136422621Y-92247206D01*
X136294441Y-92202353D01*
X136264011Y-92199500D01*
X136264007Y-92199500D01*
X135255475Y-92199500D01*
X135255471Y-92199500D01*
X135225041Y-92202353D01*
X135225039Y-92202353D01*
X135096860Y-92247206D01*
X135096858Y-92247207D01*
X134987591Y-92327850D01*
X134906948Y-92437117D01*
X134906947Y-92437119D01*
X134862094Y-92565298D01*
X134862094Y-92565300D01*
X134859241Y-92595730D01*
X132480500Y-92595730D01*
X132480500Y-91630425D01*
X132480500Y-91630423D01*
X132453207Y-91528563D01*
X132453207Y-91528562D01*
X132400480Y-91437237D01*
X131325244Y-90362001D01*
X131291759Y-90300678D01*
X131288925Y-90274320D01*
X131288925Y-90212520D01*
X131288925Y-90212518D01*
X131248002Y-90059791D01*
X131247998Y-90059784D01*
X131168949Y-89922865D01*
X131168943Y-89922857D01*
X131057142Y-89811056D01*
X131057134Y-89811050D01*
X130920215Y-89732001D01*
X130920211Y-89731999D01*
X130920209Y-89731998D01*
X130767482Y-89691075D01*
X130609368Y-89691075D01*
X130456641Y-89731998D01*
X130456634Y-89732001D01*
X130319715Y-89811050D01*
X130319707Y-89811056D01*
X130207906Y-89922857D01*
X130207900Y-89922865D01*
X130128851Y-90059784D01*
X130128848Y-90059791D01*
X130087925Y-90212518D01*
X115736861Y-90212518D01*
X113158069Y-88196159D01*
X113157735Y-88195897D01*
X113074425Y-88130249D01*
X108180955Y-84274193D01*
X108179210Y-84272793D01*
X106436627Y-82847844D01*
X122870000Y-82847844D01*
X122876401Y-82907372D01*
X122876403Y-82907379D01*
X122926645Y-83042086D01*
X122926649Y-83042093D01*
X123012809Y-83157187D01*
X123012812Y-83157190D01*
X123127906Y-83243350D01*
X123127913Y-83243354D01*
X123262620Y-83293596D01*
X123262627Y-83293598D01*
X123322155Y-83299999D01*
X123322172Y-83300000D01*
X124210000Y-83300000D01*
X124710000Y-83300000D01*
X125597828Y-83300000D01*
X125597844Y-83299999D01*
X125657372Y-83293598D01*
X125657379Y-83293596D01*
X125792086Y-83243354D01*
X125792093Y-83243350D01*
X125907187Y-83157190D01*
X125907190Y-83157187D01*
X125993350Y-83042093D01*
X125993354Y-83042086D01*
X126043596Y-82907379D01*
X126043598Y-82907372D01*
X126049999Y-82847844D01*
X126050000Y-82847827D01*
X126050000Y-82250000D01*
X124710000Y-82250000D01*
X124710000Y-83300000D01*
X124210000Y-83300000D01*
X124210000Y-82250000D01*
X122870000Y-82250000D01*
X122870000Y-82847844D01*
X106436627Y-82847844D01*
X105928909Y-82432672D01*
X105926800Y-82430909D01*
X105765424Y-82292867D01*
X104538189Y-81243080D01*
X104431895Y-81152155D01*
X122870000Y-81152155D01*
X122870000Y-81750000D01*
X124210000Y-81750000D01*
X124710000Y-81750000D01*
X126050000Y-81750000D01*
X126050000Y-81180247D01*
X132349500Y-81180247D01*
X132349500Y-82819752D01*
X132361131Y-82878229D01*
X132361132Y-82878230D01*
X132405447Y-82944552D01*
X132471769Y-82988867D01*
X132471770Y-82988868D01*
X132530247Y-83000499D01*
X132530250Y-83000500D01*
X132530252Y-83000500D01*
X133215500Y-83000500D01*
X133282539Y-83020185D01*
X133328294Y-83072989D01*
X133339500Y-83124500D01*
X133339500Y-85419562D01*
X133339921Y-85421132D01*
X133359979Y-85495990D01*
X133359982Y-85495995D01*
X133399535Y-85564504D01*
X133399541Y-85564512D01*
X135422922Y-87587893D01*
X135456407Y-87649216D01*
X135459241Y-87675574D01*
X135459241Y-90075500D01*
X135439556Y-90142539D01*
X135386752Y-90188294D01*
X135335241Y-90199500D01*
X135255471Y-90199500D01*
X135225041Y-90202353D01*
X135225039Y-90202353D01*
X135096860Y-90247206D01*
X135096858Y-90247207D01*
X134987591Y-90327850D01*
X134906948Y-90437117D01*
X134906947Y-90437119D01*
X134862094Y-90565298D01*
X134862094Y-90565300D01*
X134859241Y-90595730D01*
X134859241Y-91404269D01*
X134862094Y-91434699D01*
X134862094Y-91434701D01*
X134905051Y-91557461D01*
X134906948Y-91562882D01*
X134987591Y-91672150D01*
X135096859Y-91752793D01*
X135139586Y-91767744D01*
X135225040Y-91797646D01*
X135255471Y-91800500D01*
X135255475Y-91800500D01*
X136264011Y-91800500D01*
X136294440Y-91797646D01*
X136294442Y-91797646D01*
X136358531Y-91775219D01*
X136422623Y-91752793D01*
X136531891Y-91672150D01*
X136612534Y-91562882D01*
X136612535Y-91562876D01*
X136616874Y-91554669D01*
X136619196Y-91555896D01*
X136651677Y-91510606D01*
X136716629Y-91484857D01*
X136785191Y-91498310D01*
X136815682Y-91520653D01*
X138429540Y-93134511D01*
X138485489Y-93190460D01*
X138485491Y-93190461D01*
X138485495Y-93190464D01*
X138554004Y-93230017D01*
X138554011Y-93230021D01*
X138630438Y-93250500D01*
X140794167Y-93250500D01*
X140861206Y-93270185D01*
X140881848Y-93286819D01*
X141575489Y-93980460D01*
X141644012Y-94020022D01*
X141720438Y-94040500D01*
X141799562Y-94040500D01*
X142565500Y-94040500D01*
X142632539Y-94060185D01*
X142678294Y-94112989D01*
X142689500Y-94164500D01*
X142689500Y-94269752D01*
X142701131Y-94328229D01*
X142701132Y-94328230D01*
X142745447Y-94394552D01*
X142811769Y-94438867D01*
X142811770Y-94438868D01*
X142870247Y-94450499D01*
X142870250Y-94450500D01*
X142870252Y-94450500D01*
X145319750Y-94450500D01*
X145319751Y-94450499D01*
X145334568Y-94447552D01*
X145378229Y-94438868D01*
X145378229Y-94438867D01*
X145378231Y-94438867D01*
X145444552Y-94394552D01*
X145488867Y-94328231D01*
X145488867Y-94328229D01*
X145488868Y-94328229D01*
X145500499Y-94269752D01*
X145500500Y-94269750D01*
X145500500Y-93210249D01*
X145500499Y-93210247D01*
X145488868Y-93151770D01*
X145488867Y-93151769D01*
X145444552Y-93085447D01*
X145378230Y-93041132D01*
X145378229Y-93041131D01*
X145319752Y-93029500D01*
X145319748Y-93029500D01*
X142870252Y-93029500D01*
X142870247Y-93029500D01*
X142811770Y-93041131D01*
X142811769Y-93041132D01*
X142745447Y-93085447D01*
X142701132Y-93151769D01*
X142701131Y-93151770D01*
X142689500Y-93210247D01*
X142689500Y-93315500D01*
X142669815Y-93382539D01*
X142617011Y-93428294D01*
X142565500Y-93439500D01*
X141935833Y-93439500D01*
X141868794Y-93419815D01*
X141848152Y-93403181D01*
X141154512Y-92709541D01*
X141154507Y-92709537D01*
X141137124Y-92699502D01*
X141137120Y-92699498D01*
X141137120Y-92699499D01*
X141111555Y-92684739D01*
X141085990Y-92669979D01*
X141060513Y-92663152D01*
X141009562Y-92649500D01*
X141009560Y-92649500D01*
X138845833Y-92649500D01*
X138778794Y-92629815D01*
X138758152Y-92613181D01*
X136914038Y-90769067D01*
X136904511Y-90759540D01*
X136835989Y-90719979D01*
X136759562Y-90699500D01*
X136752776Y-90699500D01*
X136733960Y-90691383D01*
X136719811Y-90679637D01*
X136702992Y-90672196D01*
X136701707Y-90670247D01*
X139259500Y-90670247D01*
X139259500Y-91729752D01*
X139271131Y-91788229D01*
X139271132Y-91788230D01*
X139315447Y-91854552D01*
X139381769Y-91898867D01*
X139381770Y-91898868D01*
X139440247Y-91910499D01*
X139440250Y-91910500D01*
X139440252Y-91910500D01*
X141889750Y-91910500D01*
X141889751Y-91910499D01*
X141904568Y-91907552D01*
X141948229Y-91898868D01*
X141948229Y-91898867D01*
X141948231Y-91898867D01*
X142014552Y-91854552D01*
X142058867Y-91788231D01*
X142058867Y-91788229D01*
X142058868Y-91788229D01*
X142070499Y-91729752D01*
X142070500Y-91729750D01*
X142070500Y-91624500D01*
X142090185Y-91557461D01*
X142142989Y-91511706D01*
X142194500Y-91500500D01*
X146190386Y-91500500D01*
X146190388Y-91500500D01*
X146266815Y-91480021D01*
X146335337Y-91440460D01*
X146391286Y-91384511D01*
X146438978Y-91336819D01*
X146500301Y-91303334D01*
X146526659Y-91300500D01*
X148154128Y-91300500D01*
X148221167Y-91320185D01*
X148266922Y-91372989D01*
X148277586Y-91412921D01*
X148279628Y-91434699D01*
X148279628Y-91434701D01*
X148322585Y-91557461D01*
X148324482Y-91562882D01*
X148405125Y-91672150D01*
X148514393Y-91752793D01*
X148557120Y-91767744D01*
X148642574Y-91797646D01*
X148673005Y-91800500D01*
X148673009Y-91800500D01*
X149681545Y-91800500D01*
X149711974Y-91797646D01*
X149711976Y-91797646D01*
X149776065Y-91775219D01*
X149840157Y-91752793D01*
X149949425Y-91672150D01*
X150030068Y-91562882D01*
X150072904Y-91440464D01*
X150074921Y-91434701D01*
X150074921Y-91434699D01*
X150076964Y-91412921D01*
X150102822Y-91348013D01*
X150159668Y-91307388D01*
X150200422Y-91300500D01*
X156689560Y-91300500D01*
X156689562Y-91300500D01*
X156765989Y-91280021D01*
X156834511Y-91240460D01*
X156890460Y-91184511D01*
X157404724Y-90670247D01*
X157929500Y-90670247D01*
X157929500Y-91729752D01*
X157941131Y-91788229D01*
X157941132Y-91788230D01*
X157985447Y-91854552D01*
X158051769Y-91898867D01*
X158051770Y-91898868D01*
X158110247Y-91910499D01*
X158110250Y-91910500D01*
X158110252Y-91910500D01*
X160559750Y-91910500D01*
X160559751Y-91910499D01*
X160574568Y-91907552D01*
X160618229Y-91898868D01*
X160618229Y-91898867D01*
X160618231Y-91898867D01*
X160684552Y-91854552D01*
X160728867Y-91788231D01*
X160728867Y-91788229D01*
X160728868Y-91788229D01*
X160740499Y-91729752D01*
X160740500Y-91729750D01*
X160740500Y-90670249D01*
X160740499Y-90670247D01*
X160728868Y-90611770D01*
X160728867Y-90611769D01*
X160684552Y-90545447D01*
X160618230Y-90501132D01*
X160618229Y-90501131D01*
X160559752Y-90489500D01*
X160559748Y-90489500D01*
X158110252Y-90489500D01*
X158110247Y-90489500D01*
X158051770Y-90501131D01*
X158051769Y-90501132D01*
X157985447Y-90545447D01*
X157941132Y-90611769D01*
X157941131Y-90611770D01*
X157929500Y-90670247D01*
X157404724Y-90670247D01*
X158267152Y-89807819D01*
X158328475Y-89774334D01*
X158354833Y-89771500D01*
X159488560Y-89771500D01*
X159488562Y-89771500D01*
X159564989Y-89751021D01*
X159633511Y-89711460D01*
X159689460Y-89655511D01*
X165830460Y-83514511D01*
X165847819Y-83484444D01*
X165870021Y-83445989D01*
X165890500Y-83369562D01*
X165890500Y-83124500D01*
X165910185Y-83057461D01*
X165962989Y-83011706D01*
X166014500Y-83000500D01*
X166699750Y-83000500D01*
X166699751Y-83000499D01*
X166714568Y-82997552D01*
X166758229Y-82988868D01*
X166758229Y-82988867D01*
X166758231Y-82988867D01*
X166824552Y-82944552D01*
X166868867Y-82878231D01*
X166868867Y-82878229D01*
X166868868Y-82878229D01*
X166880499Y-82819752D01*
X166880500Y-82819750D01*
X166880500Y-81180249D01*
X166880499Y-81180247D01*
X166868868Y-81121770D01*
X166868867Y-81121769D01*
X166824552Y-81055447D01*
X166758230Y-81011132D01*
X166758229Y-81011131D01*
X166699752Y-80999500D01*
X166699748Y-80999500D01*
X164480252Y-80999500D01*
X164480247Y-80999500D01*
X164421770Y-81011131D01*
X164421769Y-81011132D01*
X164355447Y-81055447D01*
X164311132Y-81121769D01*
X164311131Y-81121770D01*
X164299500Y-81180247D01*
X164299500Y-82819752D01*
X164311131Y-82878229D01*
X164311132Y-82878230D01*
X164355447Y-82944552D01*
X164421769Y-82988867D01*
X164421770Y-82988868D01*
X164480247Y-83000499D01*
X164480250Y-83000500D01*
X164480252Y-83000500D01*
X165165500Y-83000500D01*
X165174185Y-83003050D01*
X165183147Y-83001762D01*
X165207187Y-83012740D01*
X165232539Y-83020185D01*
X165238466Y-83027025D01*
X165246703Y-83030787D01*
X165260992Y-83053021D01*
X165278294Y-83072989D01*
X165280581Y-83083503D01*
X165284477Y-83089565D01*
X165289500Y-83124500D01*
X165289500Y-83154167D01*
X165269815Y-83221206D01*
X165253181Y-83241848D01*
X159360848Y-89134181D01*
X159299525Y-89167666D01*
X159273167Y-89170500D01*
X158139438Y-89170500D01*
X158063010Y-89190978D01*
X157994489Y-89230540D01*
X157994486Y-89230542D01*
X156561848Y-90663181D01*
X156500525Y-90696666D01*
X156474167Y-90699500D01*
X150200422Y-90699500D01*
X150133383Y-90679815D01*
X150087628Y-90627011D01*
X150076964Y-90587079D01*
X150074921Y-90565300D01*
X150074921Y-90565298D01*
X150030068Y-90437119D01*
X150030067Y-90437117D01*
X149980999Y-90370632D01*
X149949425Y-90327850D01*
X149840157Y-90247207D01*
X149840155Y-90247206D01*
X149711975Y-90202353D01*
X149681545Y-90199500D01*
X149681541Y-90199500D01*
X148673009Y-90199500D01*
X148673005Y-90199500D01*
X148642575Y-90202353D01*
X148642573Y-90202353D01*
X148514394Y-90247206D01*
X148514392Y-90247207D01*
X148405125Y-90327850D01*
X148324482Y-90437117D01*
X148324481Y-90437119D01*
X148279628Y-90565298D01*
X148279628Y-90565300D01*
X148277586Y-90587079D01*
X148251728Y-90651987D01*
X148194882Y-90692612D01*
X148154128Y-90699500D01*
X146311264Y-90699500D01*
X146234836Y-90719978D01*
X146166315Y-90759540D01*
X146166312Y-90759542D01*
X146062674Y-90863181D01*
X146001351Y-90896666D01*
X145974993Y-90899500D01*
X142194500Y-90899500D01*
X142127461Y-90879815D01*
X142081706Y-90827011D01*
X142070500Y-90775500D01*
X142070500Y-90670249D01*
X142070499Y-90670247D01*
X142058868Y-90611770D01*
X142058867Y-90611769D01*
X142014552Y-90545447D01*
X141948230Y-90501132D01*
X141948229Y-90501131D01*
X141889752Y-90489500D01*
X141889748Y-90489500D01*
X139440252Y-90489500D01*
X139440247Y-90489500D01*
X139381770Y-90501131D01*
X139381769Y-90501132D01*
X139315447Y-90545447D01*
X139271132Y-90611769D01*
X139271131Y-90611770D01*
X139259500Y-90670247D01*
X136701707Y-90670247D01*
X136693485Y-90657782D01*
X136680201Y-90646754D01*
X136674648Y-90629221D01*
X136664523Y-90613870D01*
X136659619Y-90589110D01*
X136657387Y-90565301D01*
X136657386Y-90565298D01*
X136657386Y-90565296D01*
X136612534Y-90437119D01*
X136612533Y-90437117D01*
X136563465Y-90370632D01*
X136531891Y-90327850D01*
X136422623Y-90247207D01*
X136422621Y-90247206D01*
X136294441Y-90202353D01*
X136264011Y-90199500D01*
X136264007Y-90199500D01*
X136184241Y-90199500D01*
X136117202Y-90179815D01*
X136071447Y-90127011D01*
X136060241Y-90075500D01*
X136060241Y-87460180D01*
X136039761Y-87383750D01*
X136039758Y-87383745D01*
X136000205Y-87315236D01*
X136000199Y-87315228D01*
X134275218Y-85590247D01*
X139259500Y-85590247D01*
X139259500Y-86649752D01*
X139271131Y-86708229D01*
X139271132Y-86708230D01*
X139315447Y-86774552D01*
X139381769Y-86818867D01*
X139381770Y-86818868D01*
X139440247Y-86830499D01*
X139440250Y-86830500D01*
X139440252Y-86830500D01*
X141889750Y-86830500D01*
X141889751Y-86830499D01*
X141904568Y-86827552D01*
X141948229Y-86818868D01*
X141948229Y-86818867D01*
X141948231Y-86818867D01*
X142014552Y-86774552D01*
X142058867Y-86708231D01*
X142058867Y-86708229D01*
X142058868Y-86708229D01*
X142070499Y-86649752D01*
X142070500Y-86649750D01*
X142070500Y-85590249D01*
X142070499Y-85590247D01*
X142058868Y-85531770D01*
X142058867Y-85531769D01*
X142014552Y-85465447D01*
X141948230Y-85421132D01*
X141948229Y-85421131D01*
X141889752Y-85409500D01*
X141889748Y-85409500D01*
X139440252Y-85409500D01*
X139440247Y-85409500D01*
X139381770Y-85421131D01*
X139381769Y-85421132D01*
X139315447Y-85465447D01*
X139271132Y-85531769D01*
X139271131Y-85531770D01*
X139259500Y-85590247D01*
X134275218Y-85590247D01*
X133976819Y-85291848D01*
X133943334Y-85230525D01*
X133940500Y-85204167D01*
X133940500Y-83124500D01*
X133960185Y-83057461D01*
X133968510Y-83050247D01*
X142689500Y-83050247D01*
X142689500Y-84109752D01*
X142701131Y-84168229D01*
X142701132Y-84168230D01*
X142745447Y-84234552D01*
X142811769Y-84278867D01*
X142811770Y-84278868D01*
X142870247Y-84290499D01*
X142870250Y-84290500D01*
X142870252Y-84290500D01*
X145319750Y-84290500D01*
X145319751Y-84290499D01*
X145334568Y-84287552D01*
X145378229Y-84278868D01*
X145378229Y-84278867D01*
X145378231Y-84278867D01*
X145444552Y-84234552D01*
X145488867Y-84168231D01*
X145488867Y-84168229D01*
X145488868Y-84168229D01*
X145500499Y-84109752D01*
X145500500Y-84109750D01*
X145500500Y-83050249D01*
X145500499Y-83050247D01*
X145488868Y-82991770D01*
X145488867Y-82991769D01*
X145444552Y-82925447D01*
X145378230Y-82881132D01*
X145378229Y-82881131D01*
X145319752Y-82869500D01*
X145319748Y-82869500D01*
X142870252Y-82869500D01*
X142870247Y-82869500D01*
X142811770Y-82881131D01*
X142811769Y-82881132D01*
X142745447Y-82925447D01*
X142701132Y-82991769D01*
X142701131Y-82991770D01*
X142689500Y-83050247D01*
X133968510Y-83050247D01*
X134012989Y-83011706D01*
X134064500Y-83000500D01*
X134749750Y-83000500D01*
X134749751Y-83000499D01*
X134764568Y-82997552D01*
X134808229Y-82988868D01*
X134808229Y-82988867D01*
X134808231Y-82988867D01*
X134874552Y-82944552D01*
X134918867Y-82878231D01*
X134918867Y-82878229D01*
X134918868Y-82878229D01*
X134930499Y-82819752D01*
X134930500Y-82819750D01*
X134930500Y-81180249D01*
X134930499Y-81180247D01*
X134918868Y-81121770D01*
X134918867Y-81121769D01*
X134874552Y-81055447D01*
X134808230Y-81011132D01*
X134808229Y-81011131D01*
X134749752Y-80999500D01*
X134749748Y-80999500D01*
X132530252Y-80999500D01*
X132530247Y-80999500D01*
X132471770Y-81011131D01*
X132471769Y-81011132D01*
X132405447Y-81055447D01*
X132361132Y-81121769D01*
X132361131Y-81121770D01*
X132349500Y-81180247D01*
X126050000Y-81180247D01*
X126050000Y-81152172D01*
X126049999Y-81152155D01*
X126043598Y-81092627D01*
X126043596Y-81092620D01*
X125993354Y-80957913D01*
X125993350Y-80957906D01*
X125907190Y-80842812D01*
X125907187Y-80842809D01*
X125792093Y-80756649D01*
X125792086Y-80756645D01*
X125657379Y-80706403D01*
X125657372Y-80706401D01*
X125597844Y-80700000D01*
X124710000Y-80700000D01*
X124710000Y-81750000D01*
X124210000Y-81750000D01*
X124210000Y-80700000D01*
X123322155Y-80700000D01*
X123262627Y-80706401D01*
X123262620Y-80706403D01*
X123127913Y-80756645D01*
X123127906Y-80756649D01*
X123012812Y-80842809D01*
X123012809Y-80842812D01*
X122926649Y-80957906D01*
X122926645Y-80957913D01*
X122876403Y-81092620D01*
X122876401Y-81092627D01*
X122870000Y-81152155D01*
X104431895Y-81152155D01*
X103979070Y-80764805D01*
X103940922Y-80706268D01*
X103940477Y-80636400D01*
X103977876Y-80577382D01*
X104041245Y-80547953D01*
X104100627Y-80553534D01*
X104221377Y-80595787D01*
X104304769Y-80624967D01*
X104304777Y-80624970D01*
X104304780Y-80624970D01*
X104304781Y-80624971D01*
X104567640Y-80684967D01*
X104835559Y-80715154D01*
X104835560Y-80715155D01*
X104835563Y-80715155D01*
X105105184Y-80715155D01*
X105105184Y-80715154D01*
X105373104Y-80684967D01*
X105635963Y-80624971D01*
X105890451Y-80535922D01*
X105943766Y-80510247D01*
X139259500Y-80510247D01*
X139259500Y-81569752D01*
X139271131Y-81628229D01*
X139271132Y-81628230D01*
X139315447Y-81694552D01*
X139381769Y-81738867D01*
X139381770Y-81738868D01*
X139440247Y-81750499D01*
X139440250Y-81750500D01*
X139440252Y-81750500D01*
X141889750Y-81750500D01*
X141889751Y-81750499D01*
X141904568Y-81747552D01*
X141948229Y-81738868D01*
X141948229Y-81738867D01*
X141948231Y-81738867D01*
X142014552Y-81694552D01*
X142058867Y-81628231D01*
X142058867Y-81628229D01*
X142058868Y-81628229D01*
X142070499Y-81569752D01*
X142070500Y-81569750D01*
X142070500Y-80510249D01*
X142070499Y-80510247D01*
X142058868Y-80451770D01*
X142058867Y-80451769D01*
X142014552Y-80385447D01*
X141948230Y-80341132D01*
X141948229Y-80341131D01*
X141889752Y-80329500D01*
X141889748Y-80329500D01*
X139440252Y-80329500D01*
X139440247Y-80329500D01*
X139381770Y-80341131D01*
X139381769Y-80341132D01*
X139315447Y-80385447D01*
X139271132Y-80451769D01*
X139271131Y-80451770D01*
X139259500Y-80510247D01*
X105943766Y-80510247D01*
X106133369Y-80418939D01*
X106361661Y-80275493D01*
X106572457Y-80107389D01*
X106763106Y-79916740D01*
X106931210Y-79705944D01*
X107074656Y-79477652D01*
X107191639Y-79234734D01*
X107280688Y-78980246D01*
X107340684Y-78717387D01*
X107370872Y-78449464D01*
X107370872Y-78179846D01*
X107340684Y-77911923D01*
X107280688Y-77649064D01*
X107191639Y-77394576D01*
X107095710Y-77195378D01*
X107074657Y-77151660D01*
X107040057Y-77096595D01*
X106931210Y-76923366D01*
X106763106Y-76712570D01*
X106572457Y-76521921D01*
X106361661Y-76353817D01*
X106133369Y-76210371D01*
X106133366Y-76210369D01*
X105890454Y-76093389D01*
X105635974Y-76004342D01*
X105635966Y-76004339D01*
X105577429Y-75990979D01*
X105516451Y-75956870D01*
X105483593Y-75895209D01*
X105489288Y-75825572D01*
X105531728Y-75770068D01*
X105597438Y-75746320D01*
X105599360Y-75746217D01*
X110879797Y-75505901D01*
X110883371Y-75505791D01*
X117106513Y-75403502D01*
X128996070Y-75253143D01*
X129003066Y-75254715D01*
X129061847Y-75252311D01*
X129120674Y-75251568D01*
X129120679Y-75251566D01*
X129128726Y-75250404D01*
X129128833Y-75251147D01*
X129142114Y-75249029D01*
X131363110Y-75158233D01*
X131371548Y-75159831D01*
X131428823Y-75155546D01*
X131486205Y-75153201D01*
X131486213Y-75153198D01*
X131494215Y-75151811D01*
X131494301Y-75152307D01*
X131508558Y-75149582D01*
X133305327Y-75015186D01*
X133322935Y-75017259D01*
X133370804Y-75010288D01*
X133419059Y-75006679D01*
X133422154Y-75005596D01*
X133424529Y-75004766D01*
X133447601Y-74999105D01*
X134743107Y-74810457D01*
X134773388Y-74810380D01*
X134808025Y-74801004D01*
X134843545Y-74795832D01*
X134863262Y-74787346D01*
X134879880Y-74781554D01*
X135287826Y-74671130D01*
X135333458Y-74662512D01*
X135351193Y-74653978D01*
X135370198Y-74648834D01*
X135406214Y-74627916D01*
X135414701Y-74623420D01*
X135646829Y-74511728D01*
X135656794Y-74506933D01*
X135677280Y-74501251D01*
X135715952Y-74478468D01*
X135756394Y-74459009D01*
X135764123Y-74452360D01*
X135782042Y-74439532D01*
X135790825Y-74434359D01*
X135818650Y-74406039D01*
X135826217Y-74398959D01*
X135856311Y-74373080D01*
X135862062Y-74364649D01*
X135876039Y-74347634D01*
X136063956Y-74156390D01*
X136098338Y-74126691D01*
X136109966Y-74109566D01*
X136124476Y-74094800D01*
X136144368Y-74059634D01*
X136149693Y-74051060D01*
X136393546Y-73691949D01*
X136413585Y-73670046D01*
X136430405Y-73637669D01*
X136450903Y-73607484D01*
X136457709Y-73587913D01*
X136464786Y-73571492D01*
X137080917Y-72385556D01*
X137091766Y-72371927D01*
X137111195Y-72327278D01*
X137133643Y-72284071D01*
X137134809Y-72278788D01*
X137142191Y-72256049D01*
X137231178Y-72051559D01*
X137874913Y-70572260D01*
X137879950Y-70565482D01*
X137901148Y-70511973D01*
X137924127Y-70459169D01*
X137924127Y-70459165D01*
X137924129Y-70459162D01*
X137926371Y-70451354D01*
X137926876Y-70451499D01*
X137930618Y-70437586D01*
X138758420Y-68348075D01*
X138763791Y-68334517D01*
X138767838Y-68328744D01*
X138788020Y-68273360D01*
X138809731Y-68218558D01*
X138811712Y-68210679D01*
X138812456Y-68210866D01*
X138815534Y-68197854D01*
X138872362Y-68041907D01*
X142949551Y-56853216D01*
X145140392Y-50910888D01*
X145141634Y-50907663D01*
X147162042Y-45875597D01*
X147205288Y-45820720D01*
X147271337Y-45797935D01*
X147339221Y-45814475D01*
X147387386Y-45865091D01*
X147401113Y-45921800D01*
X147401113Y-46142602D01*
X147431299Y-46410508D01*
X147431301Y-46410520D01*
X147491297Y-46673383D01*
X147491300Y-46673391D01*
X147580347Y-46927871D01*
X147697327Y-47170783D01*
X147697329Y-47170786D01*
X147840775Y-47399078D01*
X148008879Y-47609874D01*
X148199528Y-47800523D01*
X148410324Y-47968627D01*
X148638616Y-48112073D01*
X148881534Y-48229056D01*
X149072662Y-48295934D01*
X149136010Y-48318101D01*
X149136018Y-48318104D01*
X149136021Y-48318104D01*
X149136022Y-48318105D01*
X149398881Y-48378101D01*
X149666800Y-48408288D01*
X149666801Y-48408289D01*
X149666804Y-48408289D01*
X149936425Y-48408289D01*
X149936425Y-48408288D01*
X150204345Y-48378101D01*
X150467204Y-48318105D01*
X150721692Y-48229056D01*
X150964610Y-48112073D01*
X151192902Y-47968627D01*
X151403698Y-47800523D01*
X151594347Y-47609874D01*
X151762451Y-47399078D01*
X151905897Y-47170786D01*
X152022880Y-46927868D01*
X152111929Y-46673380D01*
X152171925Y-46410521D01*
X152202113Y-46142598D01*
X152202113Y-45872980D01*
X152196886Y-45826586D01*
X152208940Y-45757764D01*
X152256289Y-45706384D01*
X152323900Y-45688760D01*
X152390306Y-45710486D01*
G37*
G04 #@! TD.AperFunction*
M02*
