G04 #@! TF.GenerationSoftware,KiCad,Pcbnew,9.0.5*
G04 #@! TF.CreationDate,2025-10-14T20:34:03+01:00*
G04 #@! TF.ProjectId,ESP32_Xmas_Star_Module,45535033-325f-4586-9d61-735f53746172,rev?*
G04 #@! TF.SameCoordinates,Original*
G04 #@! TF.FileFunction,Paste,Top*
G04 #@! TF.FilePolarity,Positive*
%FSLAX46Y46*%
G04 Gerber Fmt 4.6, Leading zero omitted, Abs format (unit mm)*
G04 Created by KiCad (PCBNEW 9.0.5) date 2025-10-14 20:34:03*
%MOMM*%
%LPD*%
G01*
G04 APERTURE LIST*
G04 Aperture macros list*
%AMRoundRect*
0 Rectangle with rounded corners*
0 $1 Rounding radius*
0 $2 $3 $4 $5 $6 $7 $8 $9 X,Y pos of 4 corners*
0 Add a 4 corners polygon primitive as box body*
4,1,4,$2,$3,$4,$5,$6,$7,$8,$9,$2,$3,0*
0 Add four circle primitives for the rounded corners*
1,1,$1+$1,$2,$3*
1,1,$1+$1,$4,$5*
1,1,$1+$1,$6,$7*
1,1,$1+$1,$8,$9*
0 Add four rect primitives between the rounded corners*
20,1,$1+$1,$2,$3,$4,$5,0*
20,1,$1+$1,$4,$5,$6,$7,0*
20,1,$1+$1,$6,$7,$8,$9,0*
20,1,$1+$1,$8,$9,$2,$3,0*%
G04 Aperture macros list end*
%ADD10RoundRect,0.090000X-0.660000X-0.360000X0.660000X-0.360000X0.660000X0.360000X-0.660000X0.360000X0*%
%ADD11RoundRect,0.090000X0.138429X-0.738943X0.546332X0.516451X-0.138429X0.738943X-0.546332X-0.516451X0*%
%ADD12RoundRect,0.090000X-0.546332X0.516451X-0.138429X-0.738943X0.546332X-0.516451X0.138429X0.738943X0*%
%ADD13RoundRect,0.250000X0.475000X-0.337500X0.475000X0.337500X-0.475000X0.337500X-0.475000X-0.337500X0*%
%ADD14RoundRect,0.090000X0.745554X-0.096692X-0.322349X0.679184X-0.745554X0.096692X0.322349X-0.679184X0*%
%ADD15RoundRect,0.250000X-0.337500X-0.475000X0.337500X-0.475000X0.337500X0.475000X-0.337500X0.475000X0*%
%ADD16RoundRect,0.090000X0.322349X0.679184X-0.745554X-0.096692X-0.322349X-0.679184X0.745554X0.096692X0*%
%ADD17RoundRect,0.250000X0.337500X0.475000X-0.337500X0.475000X-0.337500X-0.475000X0.337500X-0.475000X0*%
G04 APERTURE END LIST*
D10*
X147430788Y-55878045D03*
X147430788Y-59178045D03*
X152330788Y-59178045D03*
X152330788Y-55878045D03*
D11*
X129385133Y-88988283D03*
X132523621Y-90008040D03*
X134037803Y-85347863D03*
X130899315Y-84328106D03*
D12*
X184817024Y-79341563D03*
X181678537Y-80361319D03*
X183192720Y-85021495D03*
X186331207Y-84001739D03*
D13*
X143510000Y-70887500D03*
X143510000Y-68812500D03*
D14*
X132536732Y-120419871D03*
X134476424Y-117750115D03*
X130512240Y-114869967D03*
X128572548Y-117539723D03*
D15*
X169142500Y-80010000D03*
X171217500Y-80010000D03*
X167182029Y-107613382D03*
X169257029Y-107613382D03*
D16*
X177050934Y-126694804D03*
X175111243Y-124025048D03*
X171147060Y-126905196D03*
X173086751Y-129574952D03*
D10*
X147445601Y-72970436D03*
X147445600Y-76270436D03*
X152345599Y-76270436D03*
X152345600Y-72970436D03*
X147429046Y-61576476D03*
X147429046Y-64876476D03*
X152329046Y-64876476D03*
X152329046Y-61576476D03*
D14*
X129193214Y-125003412D03*
X131132906Y-122333656D03*
X127168722Y-119453508D03*
X125229030Y-122123264D03*
D15*
X141202500Y-115570000D03*
X143277500Y-115570000D03*
D16*
X170432186Y-117517056D03*
X168492495Y-114847300D03*
X164528312Y-117727448D03*
X166468003Y-120397204D03*
D10*
X147414327Y-50175447D03*
X147414327Y-53475447D03*
X152314327Y-53475447D03*
X152314327Y-50175447D03*
D11*
X113246854Y-83696181D03*
X116385342Y-84715938D03*
X117899524Y-80055761D03*
X114761036Y-79036004D03*
D12*
X179430908Y-81103124D03*
X176292421Y-82122880D03*
X177806604Y-86783056D03*
X180945091Y-85763300D03*
D14*
X125868797Y-129574952D03*
X127808488Y-126905196D03*
X123844305Y-124025048D03*
X121904614Y-126694804D03*
D10*
X147442702Y-67295143D03*
X147442702Y-70595143D03*
X152342702Y-70595143D03*
X152342702Y-67295143D03*
D11*
X123980422Y-87227159D03*
X127118910Y-88246916D03*
X128633092Y-83586739D03*
X125494604Y-82566982D03*
D17*
X127326722Y-91258685D03*
X125251722Y-91258685D03*
D16*
X167116049Y-112928353D03*
X165176358Y-110258597D03*
X161212175Y-113138745D03*
X163151866Y-115808501D03*
D12*
X168632004Y-84622681D03*
X165493518Y-85642437D03*
X167007702Y-90302613D03*
X170146188Y-89282857D03*
D11*
X107817518Y-81917772D03*
X110956006Y-82937529D03*
X112470188Y-78277352D03*
X109331700Y-77257595D03*
D16*
X173735580Y-122096641D03*
X171795889Y-119426885D03*
X167831706Y-122307033D03*
X169771397Y-124976789D03*
D12*
X190233738Y-77556331D03*
X187095251Y-78576087D03*
X188609434Y-83236263D03*
X191747921Y-82216507D03*
D14*
X135878966Y-115847866D03*
X137818658Y-113178110D03*
X133854474Y-110297962D03*
X131914782Y-112967718D03*
D12*
X174021078Y-82874057D03*
X170882592Y-83893813D03*
X172396776Y-88553989D03*
X175535262Y-87534233D03*
D14*
X139215993Y-111259256D03*
X141155685Y-108589500D03*
X137191501Y-105709352D03*
X135251809Y-108379108D03*
D16*
X163799985Y-108323396D03*
X161860294Y-105653640D03*
X157896111Y-108533788D03*
X159835802Y-111203544D03*
D11*
X118604662Y-85441629D03*
X121743150Y-86461386D03*
X123257332Y-81801209D03*
X120118844Y-80781452D03*
M02*
