%TF.GenerationSoftware,KiCad,Pcbnew,9.0.5*%
%TF.CreationDate,2025-10-14T20:34:08+01:00*%
%TF.ProjectId,ESP32_Xmas_Star_Module,45535033-325f-4586-9d61-735f53746172,rev?*%
%TF.SameCoordinates,Original*%
%TF.FileFunction,Drillmap*%
%TF.FilePolarity,Positive*%
%FSLAX45Y45*%
G04 Gerber Fmt 4.5, Leading zero omitted, Abs format (unit mm)*
G04 Created by KiCad (PCBNEW 9.0.5) date 2025-10-14 20:34:08*
%MOMM*%
%LPD*%
G01*
G04 APERTURE LIST*
%ADD10C,0.093976*%
%ADD11C,0.200000*%
G04 APERTURE END LIST*
D10*
X15017354Y-4066279D02*
X15048667Y-4092343D01*
X15082727Y-4134625D01*
X15119328Y-4192000D01*
X15199317Y-4347546D01*
X15286973Y-4550003D01*
X15478629Y-5059741D01*
X15680991Y-5649392D01*
X16064612Y-6781154D01*
X16146419Y-7001821D01*
X16219260Y-7179624D01*
X16281472Y-7305584D01*
X16308073Y-7346318D01*
X16331392Y-7370725D01*
X16362202Y-7386084D01*
X16409820Y-7399899D01*
X16550886Y-7423387D01*
X16745404Y-7442174D01*
X16984190Y-7457248D01*
X18198298Y-7500109D01*
X18832139Y-7524882D01*
X19385861Y-7562396D01*
X19609714Y-7588395D01*
X19785982Y-7620537D01*
X19905479Y-7659808D01*
X19941068Y-7682424D01*
X19959020Y-7707192D01*
X19959021Y-7707191D01*
X19959021Y-7707191D01*
X19959021Y-7707191D01*
X19959021Y-7707191D01*
X19959021Y-7707191D01*
X19959485Y-7736854D01*
X19944372Y-7774688D01*
X19914685Y-7820147D01*
X19871428Y-7872686D01*
X19748213Y-7996828D01*
X19582752Y-8142756D01*
X19383069Y-8306115D01*
X19157188Y-8482549D01*
X18658929Y-8857219D01*
X17701104Y-9571797D01*
X17516517Y-9717790D01*
X17369926Y-9842010D01*
X17269355Y-9940102D01*
X17238835Y-9977988D01*
X17222829Y-10007709D01*
X17217743Y-10041757D01*
X17219319Y-10091314D01*
X17240573Y-10232733D01*
X17282814Y-10423537D01*
X17342267Y-10655293D01*
X17676684Y-11823224D01*
X17848992Y-12433698D01*
X17984423Y-12971911D01*
X18028871Y-13192843D01*
X18052772Y-13370416D01*
X18052350Y-13496199D01*
X18041838Y-13537036D01*
X18023830Y-13561763D01*
X17995760Y-13571371D01*
X17955108Y-13568688D01*
X17902700Y-13554502D01*
X17839365Y-13529597D01*
X17683224Y-13450775D01*
X17493308Y-13338506D01*
X17276238Y-13199077D01*
X17038638Y-13038773D01*
X16528336Y-12680680D01*
X15552747Y-11990552D01*
X15356860Y-11860113D01*
X15193420Y-11759083D01*
X15069052Y-11693747D01*
X15023589Y-11676428D01*
X14990377Y-11670390D01*
X14956423Y-11676074D01*
X14909779Y-11692886D01*
X14781849Y-11756800D01*
X14613437Y-11855936D01*
X14411396Y-11984096D01*
X13403968Y-12663055D01*
X12876619Y-13015576D01*
X12631017Y-13173409D01*
X12406599Y-13310696D01*
X12210215Y-13421240D01*
X12048719Y-13498844D01*
X11983195Y-13523358D01*
X11928961Y-13537312D01*
X11886876Y-13539934D01*
X11857794Y-13530449D01*
X11839982Y-13506722D01*
X11829970Y-13467230D01*
X11827267Y-13413004D01*
X11831381Y-13345072D01*
X11858096Y-13172216D01*
X11906182Y-12956903D01*
X12050745Y-12431864D01*
X12233619Y-11835880D01*
X12588497Y-10694779D01*
X12652019Y-10468171D01*
X12697599Y-10281511D01*
X12721305Y-10143039D01*
X12723728Y-10094450D01*
X12719207Y-10060997D01*
X12703309Y-10030461D01*
X12672906Y-9991296D01*
X12572587Y-9889377D01*
X12426262Y-9759843D01*
X12241940Y-9607294D01*
X11284899Y-8858983D01*
X10786672Y-8466379D01*
X10560668Y-8281571D01*
X10360751Y-8110561D01*
X10194932Y-7957949D01*
X10071221Y-7828338D01*
X10027659Y-7773596D01*
X9997628Y-7726329D01*
X9982129Y-7687114D01*
X9982164Y-7656524D01*
X9999225Y-7632252D01*
X10033690Y-7610527D01*
X10150305Y-7574121D01*
X10322956Y-7546112D01*
X10542592Y-7525309D01*
X11086606Y-7500551D01*
X11709931Y-7490305D01*
X12904846Y-7475194D01*
X13139992Y-7465581D01*
X13331602Y-7451249D01*
X13470622Y-7431005D01*
X13517582Y-7418294D01*
X13548001Y-7403657D01*
X13572129Y-7379101D01*
X13599983Y-7338083D01*
X13665913Y-7211180D01*
X13743890Y-7031988D01*
X13832015Y-6809547D01*
X14247959Y-5668107D01*
X14467386Y-5072944D01*
X14674173Y-4557915D01*
X14768074Y-4353052D01*
X14853113Y-4195344D01*
X14927388Y-4093831D01*
X14959895Y-4066972D01*
X14988998Y-4057553D01*
X15017354Y-4066279D01*
D11*
X10238207Y-13887553D02*
X10238207Y-13687553D01*
X10238207Y-13687553D02*
X10285826Y-13687553D01*
X10285826Y-13687553D02*
X10314398Y-13697077D01*
X10314398Y-13697077D02*
X10333445Y-13716125D01*
X10333445Y-13716125D02*
X10342969Y-13735172D01*
X10342969Y-13735172D02*
X10352493Y-13773267D01*
X10352493Y-13773267D02*
X10352493Y-13801839D01*
X10352493Y-13801839D02*
X10342969Y-13839934D01*
X10342969Y-13839934D02*
X10333445Y-13858982D01*
X10333445Y-13858982D02*
X10314398Y-13878029D01*
X10314398Y-13878029D02*
X10285826Y-13887553D01*
X10285826Y-13887553D02*
X10238207Y-13887553D01*
X10438207Y-13887553D02*
X10438207Y-13754220D01*
X10438207Y-13792315D02*
X10447731Y-13773267D01*
X10447731Y-13773267D02*
X10457255Y-13763744D01*
X10457255Y-13763744D02*
X10476302Y-13754220D01*
X10476302Y-13754220D02*
X10495350Y-13754220D01*
X10562017Y-13887553D02*
X10562017Y-13754220D01*
X10562017Y-13687553D02*
X10552493Y-13697077D01*
X10552493Y-13697077D02*
X10562017Y-13706601D01*
X10562017Y-13706601D02*
X10571540Y-13697077D01*
X10571540Y-13697077D02*
X10562017Y-13687553D01*
X10562017Y-13687553D02*
X10562017Y-13706601D01*
X10685826Y-13887553D02*
X10666779Y-13878029D01*
X10666779Y-13878029D02*
X10657255Y-13858982D01*
X10657255Y-13858982D02*
X10657255Y-13687553D01*
X10790588Y-13887553D02*
X10771540Y-13878029D01*
X10771540Y-13878029D02*
X10762017Y-13858982D01*
X10762017Y-13858982D02*
X10762017Y-13687553D01*
X11019160Y-13887553D02*
X11019160Y-13687553D01*
X11019160Y-13687553D02*
X11085826Y-13830410D01*
X11085826Y-13830410D02*
X11152493Y-13687553D01*
X11152493Y-13687553D02*
X11152493Y-13887553D01*
X11333445Y-13887553D02*
X11333445Y-13782791D01*
X11333445Y-13782791D02*
X11323921Y-13763744D01*
X11323921Y-13763744D02*
X11304874Y-13754220D01*
X11304874Y-13754220D02*
X11266778Y-13754220D01*
X11266778Y-13754220D02*
X11247731Y-13763744D01*
X11333445Y-13878029D02*
X11314398Y-13887553D01*
X11314398Y-13887553D02*
X11266778Y-13887553D01*
X11266778Y-13887553D02*
X11247731Y-13878029D01*
X11247731Y-13878029D02*
X11238207Y-13858982D01*
X11238207Y-13858982D02*
X11238207Y-13839934D01*
X11238207Y-13839934D02*
X11247731Y-13820886D01*
X11247731Y-13820886D02*
X11266778Y-13811363D01*
X11266778Y-13811363D02*
X11314398Y-13811363D01*
X11314398Y-13811363D02*
X11333445Y-13801839D01*
X11428683Y-13754220D02*
X11428683Y-13954220D01*
X11428683Y-13763744D02*
X11447731Y-13754220D01*
X11447731Y-13754220D02*
X11485826Y-13754220D01*
X11485826Y-13754220D02*
X11504874Y-13763744D01*
X11504874Y-13763744D02*
X11514398Y-13773267D01*
X11514398Y-13773267D02*
X11523921Y-13792315D01*
X11523921Y-13792315D02*
X11523921Y-13849458D01*
X11523921Y-13849458D02*
X11514398Y-13868505D01*
X11514398Y-13868505D02*
X11504874Y-13878029D01*
X11504874Y-13878029D02*
X11485826Y-13887553D01*
X11485826Y-13887553D02*
X11447731Y-13887553D01*
X11447731Y-13887553D02*
X11428683Y-13878029D01*
X11609636Y-13868505D02*
X11619159Y-13878029D01*
X11619159Y-13878029D02*
X11609636Y-13887553D01*
X11609636Y-13887553D02*
X11600112Y-13878029D01*
X11600112Y-13878029D02*
X11609636Y-13868505D01*
X11609636Y-13868505D02*
X11609636Y-13887553D01*
X11609636Y-13763744D02*
X11619159Y-13773267D01*
X11619159Y-13773267D02*
X11609636Y-13782791D01*
X11609636Y-13782791D02*
X11600112Y-13773267D01*
X11600112Y-13773267D02*
X11609636Y-13763744D01*
X11609636Y-13763744D02*
X11609636Y-13782791D01*
M02*
