G04 #@! TF.GenerationSoftware,KiCad,Pcbnew,9.0.5*
G04 #@! TF.CreationDate,2025-10-14T20:34:03+01:00*
G04 #@! TF.ProjectId,ESP32_Xmas_Star_Module,45535033-325f-4586-9d61-735f53746172,rev?*
G04 #@! TF.SameCoordinates,Original*
G04 #@! TF.FileFunction,Profile,NP*
%FSLAX46Y46*%
G04 Gerber Fmt 4.6, Leading zero omitted, Abs format (unit mm)*
G04 Created by KiCad (PCBNEW 9.0.5) date 2025-10-14 20:34:03*
%MOMM*%
%LPD*%
G01*
G04 APERTURE LIST*
G04 #@! TA.AperFunction,Profile*
%ADD10C,0.093976*%
G04 #@! TD*
G04 APERTURE END LIST*
D10*
X150173545Y-40662787D02*
X150486668Y-40923435D01*
X150827271Y-41346248D01*
X151193276Y-41920005D01*
X151993174Y-43475464D01*
X152869730Y-45500034D01*
X154786294Y-50597408D01*
X156809915Y-56493922D01*
X160646118Y-67811543D01*
X161464186Y-70018213D01*
X162192597Y-71796238D01*
X162814720Y-73055842D01*
X163080726Y-73463181D01*
X163313924Y-73707249D01*
X163622025Y-73860842D01*
X164098202Y-73998988D01*
X165508859Y-74233868D01*
X167454040Y-74421745D01*
X169841895Y-74572477D01*
X181982982Y-75001095D01*
X188321389Y-75248817D01*
X193858609Y-75623957D01*
X196097142Y-75883952D01*
X197859820Y-76205372D01*
X199054790Y-76598076D01*
X199410681Y-76824239D01*
X199590200Y-77071919D01*
X199590205Y-77071914D01*
X199590207Y-77071912D01*
X199590209Y-77071910D01*
X199590210Y-77071908D01*
X199590211Y-77071907D01*
X199594852Y-77368539D01*
X199443721Y-77746882D01*
X199146853Y-78201472D01*
X198714278Y-78726864D01*
X197482130Y-79968276D01*
X195827519Y-81427558D01*
X193830687Y-83061150D01*
X191571876Y-84825492D01*
X186589290Y-88572191D01*
X177011043Y-95717973D01*
X175165171Y-97177901D01*
X173699260Y-98420102D01*
X172693553Y-99401018D01*
X172388352Y-99779881D01*
X172228292Y-100077088D01*
X172177426Y-100417574D01*
X172193190Y-100913135D01*
X172405725Y-102327333D01*
X172828139Y-104235369D01*
X173422673Y-106552933D01*
X176766837Y-118232244D01*
X178489915Y-124336977D01*
X179844231Y-129719112D01*
X180288707Y-131928426D01*
X180527716Y-133704158D01*
X180523501Y-134961995D01*
X180418384Y-135370356D01*
X180238302Y-135617627D01*
X179957603Y-135713706D01*
X179551076Y-135686885D01*
X179026999Y-135545022D01*
X178393648Y-135295974D01*
X176832241Y-134507748D01*
X174933078Y-133385062D01*
X172762384Y-131990770D01*
X170386384Y-130387726D01*
X165283357Y-126806800D01*
X155527475Y-119905519D01*
X153568596Y-118601135D01*
X151934203Y-117590834D01*
X150690519Y-116937471D01*
X150235888Y-116764283D01*
X149903768Y-116703900D01*
X149564228Y-116760738D01*
X149097792Y-116928865D01*
X147818487Y-117568005D01*
X146134370Y-118559358D01*
X144113957Y-119840958D01*
X134039678Y-126630548D01*
X128766193Y-130155759D01*
X126310171Y-131734093D01*
X124065986Y-133106961D01*
X122102154Y-134212399D01*
X120487191Y-134988441D01*
X119831947Y-135233576D01*
X119289614Y-135373125D01*
X118868757Y-135399344D01*
X118577939Y-135304486D01*
X118399821Y-135067217D01*
X118299704Y-134672300D01*
X118272673Y-134130036D01*
X118313815Y-133450725D01*
X118580960Y-131722164D01*
X119061823Y-129569026D01*
X120507453Y-124318636D01*
X122336194Y-118358803D01*
X125884972Y-106947793D01*
X126520189Y-104681711D01*
X126975988Y-102815110D01*
X127213054Y-101430394D01*
X127237278Y-100944496D01*
X127192075Y-100609971D01*
X127033095Y-100304613D01*
X126729060Y-99912960D01*
X125725873Y-98893773D01*
X124262619Y-97598427D01*
X122419403Y-96072936D01*
X112848993Y-88589826D01*
X107866720Y-84663794D01*
X105606682Y-82815712D01*
X103607514Y-81105606D01*
X101949322Y-79579491D01*
X100712209Y-78283382D01*
X100276590Y-77735960D01*
X99976279Y-77263295D01*
X99821291Y-76871139D01*
X99821637Y-76565243D01*
X99992253Y-76322524D01*
X100336904Y-76105271D01*
X101503053Y-75741206D01*
X103229564Y-75461121D01*
X105425916Y-75253093D01*
X110866058Y-75005509D01*
X117099309Y-74903054D01*
X129048459Y-74751941D01*
X131399924Y-74655810D01*
X133316018Y-74512488D01*
X134706220Y-74310050D01*
X135175824Y-74182936D01*
X135480008Y-74036572D01*
X135721294Y-73791013D01*
X135999826Y-73380831D01*
X136659128Y-72111799D01*
X137438905Y-70319879D01*
X138320147Y-68095474D01*
X142479588Y-56681068D01*
X144673859Y-50729437D01*
X146741732Y-45579153D01*
X147680745Y-43530524D01*
X148531131Y-41953442D01*
X149273879Y-40938309D01*
X149598949Y-40669724D01*
X149889982Y-40575528D01*
X150173545Y-40662787D01*
M02*
