%TF.GenerationSoftware,KiCad,Pcbnew,9.0.5*%
%TF.CreationDate,2025-10-14T20:34:08+01:00*%
%TF.ProjectId,ESP32_Xmas_Star_Module,45535033-325f-4586-9d61-735f53746172,rev?*%
%TF.SameCoordinates,Original*%
%TF.FileFunction,Drillmap*%
%TF.FilePolarity,Positive*%
%FSLAX45Y45*%
G04 Gerber Fmt 4.5, Leading zero omitted, Abs format (unit mm)*
G04 Created by KiCad (PCBNEW 9.0.5) date 2025-10-14 20:34:08*
%MOMM*%
%LPD*%
G01*
G04 APERTURE LIST*
%ADD10C,0.093976*%
%ADD11C,0.200000*%
%ADD12C,0.100000*%
%ADD13C,0.220000*%
G04 APERTURE END LIST*
D10*
X15017354Y-4066279D02*
X15048667Y-4092343D01*
X15082727Y-4134625D01*
X15119328Y-4192000D01*
X15199317Y-4347546D01*
X15286973Y-4550003D01*
X15478629Y-5059741D01*
X15680991Y-5649392D01*
X16064612Y-6781154D01*
X16146419Y-7001821D01*
X16219260Y-7179624D01*
X16281472Y-7305584D01*
X16308073Y-7346318D01*
X16331392Y-7370725D01*
X16362202Y-7386084D01*
X16409820Y-7399899D01*
X16550886Y-7423387D01*
X16745404Y-7442174D01*
X16984190Y-7457248D01*
X18198298Y-7500109D01*
X18832139Y-7524882D01*
X19385861Y-7562396D01*
X19609714Y-7588395D01*
X19785982Y-7620537D01*
X19905479Y-7659808D01*
X19941068Y-7682424D01*
X19959020Y-7707192D01*
X19959021Y-7707191D01*
X19959021Y-7707191D01*
X19959021Y-7707191D01*
X19959021Y-7707191D01*
X19959021Y-7707191D01*
X19959485Y-7736854D01*
X19944372Y-7774688D01*
X19914685Y-7820147D01*
X19871428Y-7872686D01*
X19748213Y-7996828D01*
X19582752Y-8142756D01*
X19383069Y-8306115D01*
X19157188Y-8482549D01*
X18658929Y-8857219D01*
X17701104Y-9571797D01*
X17516517Y-9717790D01*
X17369926Y-9842010D01*
X17269355Y-9940102D01*
X17238835Y-9977988D01*
X17222829Y-10007709D01*
X17217743Y-10041757D01*
X17219319Y-10091314D01*
X17240573Y-10232733D01*
X17282814Y-10423537D01*
X17342267Y-10655293D01*
X17676684Y-11823224D01*
X17848992Y-12433698D01*
X17984423Y-12971911D01*
X18028871Y-13192843D01*
X18052772Y-13370416D01*
X18052350Y-13496199D01*
X18041838Y-13537036D01*
X18023830Y-13561763D01*
X17995760Y-13571371D01*
X17955108Y-13568688D01*
X17902700Y-13554502D01*
X17839365Y-13529597D01*
X17683224Y-13450775D01*
X17493308Y-13338506D01*
X17276238Y-13199077D01*
X17038638Y-13038773D01*
X16528336Y-12680680D01*
X15552747Y-11990552D01*
X15356860Y-11860113D01*
X15193420Y-11759083D01*
X15069052Y-11693747D01*
X15023589Y-11676428D01*
X14990377Y-11670390D01*
X14956423Y-11676074D01*
X14909779Y-11692886D01*
X14781849Y-11756800D01*
X14613437Y-11855936D01*
X14411396Y-11984096D01*
X13403968Y-12663055D01*
X12876619Y-13015576D01*
X12631017Y-13173409D01*
X12406599Y-13310696D01*
X12210215Y-13421240D01*
X12048719Y-13498844D01*
X11983195Y-13523358D01*
X11928961Y-13537312D01*
X11886876Y-13539934D01*
X11857794Y-13530449D01*
X11839982Y-13506722D01*
X11829970Y-13467230D01*
X11827267Y-13413004D01*
X11831381Y-13345072D01*
X11858096Y-13172216D01*
X11906182Y-12956903D01*
X12050745Y-12431864D01*
X12233619Y-11835880D01*
X12588497Y-10694779D01*
X12652019Y-10468171D01*
X12697599Y-10281511D01*
X12721305Y-10143039D01*
X12723728Y-10094450D01*
X12719207Y-10060997D01*
X12703309Y-10030461D01*
X12672906Y-9991296D01*
X12572587Y-9889377D01*
X12426262Y-9759843D01*
X12241940Y-9607294D01*
X11284899Y-8858983D01*
X10786672Y-8466379D01*
X10560668Y-8281571D01*
X10360751Y-8110561D01*
X10194932Y-7957949D01*
X10071221Y-7828338D01*
X10027659Y-7773596D01*
X9997628Y-7726329D01*
X9982129Y-7687114D01*
X9982164Y-7656524D01*
X9999225Y-7632252D01*
X10033690Y-7610527D01*
X10150305Y-7574121D01*
X10322956Y-7546112D01*
X10542592Y-7525309D01*
X11086606Y-7500551D01*
X11709931Y-7490305D01*
X12904846Y-7475194D01*
X13139992Y-7465581D01*
X13331602Y-7451249D01*
X13470622Y-7431005D01*
X13517582Y-7418294D01*
X13548001Y-7403657D01*
X13572129Y-7379101D01*
X13599983Y-7338083D01*
X13665913Y-7211180D01*
X13743890Y-7031988D01*
X13832015Y-6809547D01*
X14247959Y-5668107D01*
X14467386Y-5072944D01*
X14674173Y-4557915D01*
X14768074Y-4353052D01*
X14853113Y-4195344D01*
X14927388Y-4093831D01*
X14959895Y-4066972D01*
X14988998Y-4057553D01*
X15017354Y-4066279D01*
D11*
D12*
X11034000Y-7986000D02*
X11064000Y-8016000D01*
X11064000Y-7986000D02*
X11034000Y-8016000D01*
X11542000Y-7664284D02*
X11572000Y-7694284D01*
X11572000Y-7664284D02*
X11542000Y-7694284D01*
X11669000Y-8240000D02*
X11699000Y-8270000D01*
X11699000Y-8240000D02*
X11669000Y-8270000D01*
X11923000Y-9002000D02*
X11953000Y-9032000D01*
X11953000Y-9002000D02*
X11923000Y-9032000D01*
X12304000Y-7859000D02*
X12334000Y-7889000D01*
X12334000Y-7859000D02*
X12304000Y-7889000D01*
X12304000Y-8367000D02*
X12334000Y-8397000D01*
X12334000Y-8367000D02*
X12304000Y-8397000D01*
X12431000Y-12685000D02*
X12461000Y-12715000D01*
X12461000Y-12685000D02*
X12431000Y-12715000D01*
X12685000Y-8494000D02*
X12715000Y-8524000D01*
X12715000Y-8494000D02*
X12685000Y-8524000D01*
X12685000Y-12304000D02*
X12715000Y-12334000D01*
X12715000Y-12304000D02*
X12685000Y-12334000D01*
X12939000Y-9510000D02*
X12969000Y-9540000D01*
X12969000Y-9510000D02*
X12939000Y-9540000D01*
X13053842Y-9014158D02*
X13083842Y-9044158D01*
X13083842Y-9014158D02*
X13053842Y-9044158D01*
X13066000Y-10653000D02*
X13096000Y-10683000D01*
X13096000Y-10653000D02*
X13066000Y-10683000D01*
X13066000Y-11796000D02*
X13096000Y-11826000D01*
X13096000Y-11796000D02*
X13066000Y-11826000D01*
X13320000Y-8748000D02*
X13350000Y-8778000D01*
X13350000Y-8748000D02*
X13320000Y-8778000D01*
X13447000Y-11415000D02*
X13477000Y-11445000D01*
X13477000Y-11415000D02*
X13447000Y-11445000D01*
X13701000Y-10907000D02*
X13731000Y-10937000D01*
X13731000Y-10907000D02*
X13701000Y-10937000D01*
X13828000Y-10907000D02*
X13858000Y-10937000D01*
X13858000Y-10907000D02*
X13828000Y-10937000D01*
X13955000Y-11923000D02*
X13985000Y-11953000D01*
X13985000Y-11923000D02*
X13955000Y-11953000D01*
X14209000Y-7351000D02*
X14239000Y-7381000D01*
X14239000Y-7351000D02*
X14209000Y-7381000D01*
X14209000Y-11034000D02*
X14239000Y-11064000D01*
X14239000Y-11034000D02*
X14209000Y-11064000D01*
X14336000Y-6335000D02*
X14366000Y-6365000D01*
X14366000Y-6335000D02*
X14336000Y-6365000D01*
X14463000Y-10653000D02*
X14493000Y-10683000D01*
X14493000Y-10653000D02*
X14463000Y-10683000D01*
X14964048Y-7252579D02*
X14994048Y-7282579D01*
X14994048Y-7252579D02*
X14964048Y-7282579D01*
X14971000Y-5065000D02*
X15001000Y-5095000D01*
X15001000Y-5065000D02*
X14971000Y-5095000D01*
X14971000Y-5573000D02*
X15001000Y-5603000D01*
X15001000Y-5573000D02*
X14971000Y-5603000D01*
X14971000Y-6208000D02*
X15001000Y-6238000D01*
X15001000Y-6208000D02*
X14971000Y-6238000D01*
X14971000Y-6970000D02*
X15001000Y-7000000D01*
X15001000Y-6970000D02*
X14971000Y-7000000D01*
X14971000Y-7605000D02*
X15001000Y-7635000D01*
X15001000Y-7605000D02*
X14971000Y-7635000D01*
X14971000Y-10653000D02*
X15001000Y-10683000D01*
X15001000Y-10653000D02*
X14971000Y-10683000D01*
X15225000Y-4811000D02*
X15255000Y-4841000D01*
X15255000Y-4811000D02*
X15225000Y-4841000D01*
X15467181Y-7421000D02*
X15497181Y-7451000D01*
X15497181Y-7421000D02*
X15467181Y-7451000D01*
X15733000Y-6970000D02*
X15763000Y-7000000D01*
X15763000Y-6970000D02*
X15733000Y-7000000D01*
X15987000Y-10653000D02*
X16017000Y-10683000D01*
X16017000Y-10653000D02*
X15987000Y-10683000D01*
X16241000Y-12177000D02*
X16271000Y-12207000D01*
X16271000Y-12177000D02*
X16241000Y-12207000D01*
X16368000Y-11161000D02*
X16398000Y-11191000D01*
X16398000Y-11161000D02*
X16368000Y-11191000D01*
X16575669Y-10606669D02*
X16605669Y-10636669D01*
X16605669Y-10606669D02*
X16575669Y-10636669D01*
X16622000Y-9764000D02*
X16652000Y-9794000D01*
X16652000Y-9764000D02*
X16622000Y-9794000D01*
X16622000Y-11669000D02*
X16652000Y-11699000D01*
X16652000Y-11669000D02*
X16622000Y-11699000D01*
X16876000Y-8240000D02*
X16906000Y-8270000D01*
X16906000Y-8240000D02*
X16876000Y-8270000D01*
X17003000Y-8748000D02*
X17033000Y-8778000D01*
X17033000Y-8748000D02*
X17003000Y-8778000D01*
X17003000Y-12050000D02*
X17033000Y-12080000D01*
X17033000Y-12050000D02*
X17003000Y-12080000D01*
X17257000Y-8621000D02*
X17287000Y-8651000D01*
X17287000Y-8621000D02*
X17257000Y-8651000D01*
X17257000Y-11161000D02*
X17287000Y-11191000D01*
X17287000Y-11161000D02*
X17257000Y-11191000D01*
X17384000Y-7859000D02*
X17414000Y-7889000D01*
X17414000Y-7859000D02*
X17384000Y-7889000D01*
X17511000Y-12812000D02*
X17541000Y-12842000D01*
X17541000Y-12812000D02*
X17511000Y-12842000D01*
X17638000Y-9129000D02*
X17668000Y-9159000D01*
X17668000Y-9129000D02*
X17638000Y-9159000D01*
X17765000Y-8494000D02*
X17795000Y-8524000D01*
X17795000Y-8494000D02*
X17765000Y-8524000D01*
X18273000Y-8240000D02*
X18303000Y-8270000D01*
X18303000Y-8240000D02*
X18273000Y-8270000D01*
X18781000Y-7986000D02*
X18811000Y-8016000D01*
X18811000Y-7986000D02*
X18781000Y-8016000D01*
X19286772Y-8134066D02*
X19316772Y-8164066D01*
X19316772Y-8134066D02*
X19286772Y-8164066D01*
D13*
X10607037Y-7831465D02*
G75*
G02*
X10387037Y-7831465I-110000J0D01*
G01*
X10387037Y-7831465D02*
G75*
G02*
X10607037Y-7831465I110000J0D01*
G01*
X12277497Y-13101828D02*
G75*
G02*
X12057497Y-13101828I-110000J0D01*
G01*
X12057497Y-13101828D02*
G75*
G02*
X12277497Y-13101828I110000J0D01*
G01*
X15090161Y-4600779D02*
G75*
G02*
X14870161Y-4600779I-110000J0D01*
G01*
X14870161Y-4600779D02*
G75*
G02*
X15090161Y-4600779I110000J0D01*
G01*
X17819234Y-13115507D02*
G75*
G02*
X17599234Y-13115507I-110000J0D01*
G01*
X17599234Y-13115507D02*
G75*
G02*
X17819234Y-13115507I110000J0D01*
G01*
X19552141Y-7869746D02*
G75*
G02*
X19332141Y-7869746I-110000J0D01*
G01*
X19332141Y-7869746D02*
G75*
G02*
X19552141Y-7869746I110000J0D01*
G01*
D11*
X10238207Y-13887553D02*
X10238207Y-13687553D01*
X10238207Y-13687553D02*
X10285826Y-13687553D01*
X10285826Y-13687553D02*
X10314398Y-13697077D01*
X10314398Y-13697077D02*
X10333445Y-13716125D01*
X10333445Y-13716125D02*
X10342969Y-13735172D01*
X10342969Y-13735172D02*
X10352493Y-13773267D01*
X10352493Y-13773267D02*
X10352493Y-13801839D01*
X10352493Y-13801839D02*
X10342969Y-13839934D01*
X10342969Y-13839934D02*
X10333445Y-13858982D01*
X10333445Y-13858982D02*
X10314398Y-13878029D01*
X10314398Y-13878029D02*
X10285826Y-13887553D01*
X10285826Y-13887553D02*
X10238207Y-13887553D01*
X10438207Y-13887553D02*
X10438207Y-13754220D01*
X10438207Y-13792315D02*
X10447731Y-13773267D01*
X10447731Y-13773267D02*
X10457255Y-13763744D01*
X10457255Y-13763744D02*
X10476302Y-13754220D01*
X10476302Y-13754220D02*
X10495350Y-13754220D01*
X10562017Y-13887553D02*
X10562017Y-13754220D01*
X10562017Y-13687553D02*
X10552493Y-13697077D01*
X10552493Y-13697077D02*
X10562017Y-13706601D01*
X10562017Y-13706601D02*
X10571540Y-13697077D01*
X10571540Y-13697077D02*
X10562017Y-13687553D01*
X10562017Y-13687553D02*
X10562017Y-13706601D01*
X10685826Y-13887553D02*
X10666779Y-13878029D01*
X10666779Y-13878029D02*
X10657255Y-13858982D01*
X10657255Y-13858982D02*
X10657255Y-13687553D01*
X10790588Y-13887553D02*
X10771540Y-13878029D01*
X10771540Y-13878029D02*
X10762017Y-13858982D01*
X10762017Y-13858982D02*
X10762017Y-13687553D01*
X11019160Y-13887553D02*
X11019160Y-13687553D01*
X11019160Y-13687553D02*
X11085826Y-13830410D01*
X11085826Y-13830410D02*
X11152493Y-13687553D01*
X11152493Y-13687553D02*
X11152493Y-13887553D01*
X11333445Y-13887553D02*
X11333445Y-13782791D01*
X11333445Y-13782791D02*
X11323921Y-13763744D01*
X11323921Y-13763744D02*
X11304874Y-13754220D01*
X11304874Y-13754220D02*
X11266778Y-13754220D01*
X11266778Y-13754220D02*
X11247731Y-13763744D01*
X11333445Y-13878029D02*
X11314398Y-13887553D01*
X11314398Y-13887553D02*
X11266778Y-13887553D01*
X11266778Y-13887553D02*
X11247731Y-13878029D01*
X11247731Y-13878029D02*
X11238207Y-13858982D01*
X11238207Y-13858982D02*
X11238207Y-13839934D01*
X11238207Y-13839934D02*
X11247731Y-13820886D01*
X11247731Y-13820886D02*
X11266778Y-13811363D01*
X11266778Y-13811363D02*
X11314398Y-13811363D01*
X11314398Y-13811363D02*
X11333445Y-13801839D01*
X11428683Y-13754220D02*
X11428683Y-13954220D01*
X11428683Y-13763744D02*
X11447731Y-13754220D01*
X11447731Y-13754220D02*
X11485826Y-13754220D01*
X11485826Y-13754220D02*
X11504874Y-13763744D01*
X11504874Y-13763744D02*
X11514398Y-13773267D01*
X11514398Y-13773267D02*
X11523921Y-13792315D01*
X11523921Y-13792315D02*
X11523921Y-13849458D01*
X11523921Y-13849458D02*
X11514398Y-13868505D01*
X11514398Y-13868505D02*
X11504874Y-13878029D01*
X11504874Y-13878029D02*
X11485826Y-13887553D01*
X11485826Y-13887553D02*
X11447731Y-13887553D01*
X11447731Y-13887553D02*
X11428683Y-13878029D01*
X11609636Y-13868505D02*
X11619159Y-13878029D01*
X11619159Y-13878029D02*
X11609636Y-13887553D01*
X11609636Y-13887553D02*
X11600112Y-13878029D01*
X11600112Y-13878029D02*
X11609636Y-13868505D01*
X11609636Y-13868505D02*
X11609636Y-13887553D01*
X11609636Y-13763744D02*
X11619159Y-13773267D01*
X11619159Y-13773267D02*
X11609636Y-13782791D01*
X11609636Y-13782791D02*
X11600112Y-13773267D01*
X11600112Y-13773267D02*
X11609636Y-13763744D01*
X11609636Y-13763744D02*
X11609636Y-13782791D01*
D12*
X9947430Y-14201069D02*
X9977430Y-14231069D01*
X9977430Y-14201069D02*
X9947430Y-14231069D01*
D11*
X10276302Y-14107553D02*
X10295350Y-14107553D01*
X10295350Y-14107553D02*
X10314398Y-14117077D01*
X10314398Y-14117077D02*
X10323921Y-14126601D01*
X10323921Y-14126601D02*
X10333445Y-14145648D01*
X10333445Y-14145648D02*
X10342969Y-14183744D01*
X10342969Y-14183744D02*
X10342969Y-14231363D01*
X10342969Y-14231363D02*
X10333445Y-14269458D01*
X10333445Y-14269458D02*
X10323921Y-14288505D01*
X10323921Y-14288505D02*
X10314398Y-14298029D01*
X10314398Y-14298029D02*
X10295350Y-14307553D01*
X10295350Y-14307553D02*
X10276302Y-14307553D01*
X10276302Y-14307553D02*
X10257255Y-14298029D01*
X10257255Y-14298029D02*
X10247731Y-14288505D01*
X10247731Y-14288505D02*
X10238207Y-14269458D01*
X10238207Y-14269458D02*
X10228683Y-14231363D01*
X10228683Y-14231363D02*
X10228683Y-14183744D01*
X10228683Y-14183744D02*
X10238207Y-14145648D01*
X10238207Y-14145648D02*
X10247731Y-14126601D01*
X10247731Y-14126601D02*
X10257255Y-14117077D01*
X10257255Y-14117077D02*
X10276302Y-14107553D01*
X10428683Y-14288505D02*
X10438207Y-14298029D01*
X10438207Y-14298029D02*
X10428683Y-14307553D01*
X10428683Y-14307553D02*
X10419160Y-14298029D01*
X10419160Y-14298029D02*
X10428683Y-14288505D01*
X10428683Y-14288505D02*
X10428683Y-14307553D01*
X10504874Y-14107553D02*
X10628683Y-14107553D01*
X10628683Y-14107553D02*
X10562017Y-14183744D01*
X10562017Y-14183744D02*
X10590588Y-14183744D01*
X10590588Y-14183744D02*
X10609636Y-14193267D01*
X10609636Y-14193267D02*
X10619160Y-14202791D01*
X10619160Y-14202791D02*
X10628683Y-14221839D01*
X10628683Y-14221839D02*
X10628683Y-14269458D01*
X10628683Y-14269458D02*
X10619160Y-14288505D01*
X10619160Y-14288505D02*
X10609636Y-14298029D01*
X10609636Y-14298029D02*
X10590588Y-14307553D01*
X10590588Y-14307553D02*
X10533445Y-14307553D01*
X10533445Y-14307553D02*
X10514398Y-14298029D01*
X10514398Y-14298029D02*
X10504874Y-14288505D01*
X10752493Y-14107553D02*
X10771541Y-14107553D01*
X10771541Y-14107553D02*
X10790588Y-14117077D01*
X10790588Y-14117077D02*
X10800112Y-14126601D01*
X10800112Y-14126601D02*
X10809636Y-14145648D01*
X10809636Y-14145648D02*
X10819160Y-14183744D01*
X10819160Y-14183744D02*
X10819160Y-14231363D01*
X10819160Y-14231363D02*
X10809636Y-14269458D01*
X10809636Y-14269458D02*
X10800112Y-14288505D01*
X10800112Y-14288505D02*
X10790588Y-14298029D01*
X10790588Y-14298029D02*
X10771541Y-14307553D01*
X10771541Y-14307553D02*
X10752493Y-14307553D01*
X10752493Y-14307553D02*
X10733445Y-14298029D01*
X10733445Y-14298029D02*
X10723921Y-14288505D01*
X10723921Y-14288505D02*
X10714398Y-14269458D01*
X10714398Y-14269458D02*
X10704874Y-14231363D01*
X10704874Y-14231363D02*
X10704874Y-14183744D01*
X10704874Y-14183744D02*
X10714398Y-14145648D01*
X10714398Y-14145648D02*
X10723921Y-14126601D01*
X10723921Y-14126601D02*
X10733445Y-14117077D01*
X10733445Y-14117077D02*
X10752493Y-14107553D01*
X10942969Y-14107553D02*
X10962017Y-14107553D01*
X10962017Y-14107553D02*
X10981064Y-14117077D01*
X10981064Y-14117077D02*
X10990588Y-14126601D01*
X10990588Y-14126601D02*
X11000112Y-14145648D01*
X11000112Y-14145648D02*
X11009636Y-14183744D01*
X11009636Y-14183744D02*
X11009636Y-14231363D01*
X11009636Y-14231363D02*
X11000112Y-14269458D01*
X11000112Y-14269458D02*
X10990588Y-14288505D01*
X10990588Y-14288505D02*
X10981064Y-14298029D01*
X10981064Y-14298029D02*
X10962017Y-14307553D01*
X10962017Y-14307553D02*
X10942969Y-14307553D01*
X10942969Y-14307553D02*
X10923921Y-14298029D01*
X10923921Y-14298029D02*
X10914398Y-14288505D01*
X10914398Y-14288505D02*
X10904874Y-14269458D01*
X10904874Y-14269458D02*
X10895350Y-14231363D01*
X10895350Y-14231363D02*
X10895350Y-14183744D01*
X10895350Y-14183744D02*
X10904874Y-14145648D01*
X10904874Y-14145648D02*
X10914398Y-14126601D01*
X10914398Y-14126601D02*
X10923921Y-14117077D01*
X10923921Y-14117077D02*
X10942969Y-14107553D01*
X11095350Y-14307553D02*
X11095350Y-14174220D01*
X11095350Y-14193267D02*
X11104874Y-14183744D01*
X11104874Y-14183744D02*
X11123921Y-14174220D01*
X11123921Y-14174220D02*
X11152493Y-14174220D01*
X11152493Y-14174220D02*
X11171541Y-14183744D01*
X11171541Y-14183744D02*
X11181064Y-14202791D01*
X11181064Y-14202791D02*
X11181064Y-14307553D01*
X11181064Y-14202791D02*
X11190588Y-14183744D01*
X11190588Y-14183744D02*
X11209636Y-14174220D01*
X11209636Y-14174220D02*
X11238207Y-14174220D01*
X11238207Y-14174220D02*
X11257255Y-14183744D01*
X11257255Y-14183744D02*
X11266779Y-14202791D01*
X11266779Y-14202791D02*
X11266779Y-14307553D01*
X11362017Y-14307553D02*
X11362017Y-14174220D01*
X11362017Y-14193267D02*
X11371540Y-14183744D01*
X11371540Y-14183744D02*
X11390588Y-14174220D01*
X11390588Y-14174220D02*
X11419160Y-14174220D01*
X11419160Y-14174220D02*
X11438207Y-14183744D01*
X11438207Y-14183744D02*
X11447731Y-14202791D01*
X11447731Y-14202791D02*
X11447731Y-14307553D01*
X11447731Y-14202791D02*
X11457255Y-14183744D01*
X11457255Y-14183744D02*
X11476302Y-14174220D01*
X11476302Y-14174220D02*
X11504874Y-14174220D01*
X11504874Y-14174220D02*
X11523921Y-14183744D01*
X11523921Y-14183744D02*
X11533445Y-14202791D01*
X11533445Y-14202791D02*
X11533445Y-14307553D01*
X11923921Y-14098029D02*
X11752493Y-14355172D01*
X12181064Y-14107553D02*
X12200112Y-14107553D01*
X12200112Y-14107553D02*
X12219160Y-14117077D01*
X12219160Y-14117077D02*
X12228683Y-14126601D01*
X12228683Y-14126601D02*
X12238207Y-14145648D01*
X12238207Y-14145648D02*
X12247731Y-14183744D01*
X12247731Y-14183744D02*
X12247731Y-14231363D01*
X12247731Y-14231363D02*
X12238207Y-14269458D01*
X12238207Y-14269458D02*
X12228683Y-14288505D01*
X12228683Y-14288505D02*
X12219160Y-14298029D01*
X12219160Y-14298029D02*
X12200112Y-14307553D01*
X12200112Y-14307553D02*
X12181064Y-14307553D01*
X12181064Y-14307553D02*
X12162017Y-14298029D01*
X12162017Y-14298029D02*
X12152493Y-14288505D01*
X12152493Y-14288505D02*
X12142969Y-14269458D01*
X12142969Y-14269458D02*
X12133445Y-14231363D01*
X12133445Y-14231363D02*
X12133445Y-14183744D01*
X12133445Y-14183744D02*
X12142969Y-14145648D01*
X12142969Y-14145648D02*
X12152493Y-14126601D01*
X12152493Y-14126601D02*
X12162017Y-14117077D01*
X12162017Y-14117077D02*
X12181064Y-14107553D01*
X12333445Y-14288505D02*
X12342969Y-14298029D01*
X12342969Y-14298029D02*
X12333445Y-14307553D01*
X12333445Y-14307553D02*
X12323922Y-14298029D01*
X12323922Y-14298029D02*
X12333445Y-14288505D01*
X12333445Y-14288505D02*
X12333445Y-14307553D01*
X12466779Y-14107553D02*
X12485826Y-14107553D01*
X12485826Y-14107553D02*
X12504874Y-14117077D01*
X12504874Y-14117077D02*
X12514398Y-14126601D01*
X12514398Y-14126601D02*
X12523922Y-14145648D01*
X12523922Y-14145648D02*
X12533445Y-14183744D01*
X12533445Y-14183744D02*
X12533445Y-14231363D01*
X12533445Y-14231363D02*
X12523922Y-14269458D01*
X12523922Y-14269458D02*
X12514398Y-14288505D01*
X12514398Y-14288505D02*
X12504874Y-14298029D01*
X12504874Y-14298029D02*
X12485826Y-14307553D01*
X12485826Y-14307553D02*
X12466779Y-14307553D01*
X12466779Y-14307553D02*
X12447731Y-14298029D01*
X12447731Y-14298029D02*
X12438207Y-14288505D01*
X12438207Y-14288505D02*
X12428683Y-14269458D01*
X12428683Y-14269458D02*
X12419160Y-14231363D01*
X12419160Y-14231363D02*
X12419160Y-14183744D01*
X12419160Y-14183744D02*
X12428683Y-14145648D01*
X12428683Y-14145648D02*
X12438207Y-14126601D01*
X12438207Y-14126601D02*
X12447731Y-14117077D01*
X12447731Y-14117077D02*
X12466779Y-14107553D01*
X12723922Y-14307553D02*
X12609636Y-14307553D01*
X12666779Y-14307553D02*
X12666779Y-14107553D01*
X12666779Y-14107553D02*
X12647731Y-14136125D01*
X12647731Y-14136125D02*
X12628683Y-14155172D01*
X12628683Y-14155172D02*
X12609636Y-14164696D01*
X12914398Y-14307553D02*
X12800112Y-14307553D01*
X12857255Y-14307553D02*
X12857255Y-14107553D01*
X12857255Y-14107553D02*
X12838207Y-14136125D01*
X12838207Y-14136125D02*
X12819160Y-14155172D01*
X12819160Y-14155172D02*
X12800112Y-14164696D01*
X13028683Y-14193267D02*
X13009636Y-14183744D01*
X13009636Y-14183744D02*
X13000112Y-14174220D01*
X13000112Y-14174220D02*
X12990588Y-14155172D01*
X12990588Y-14155172D02*
X12990588Y-14145648D01*
X12990588Y-14145648D02*
X13000112Y-14126601D01*
X13000112Y-14126601D02*
X13009636Y-14117077D01*
X13009636Y-14117077D02*
X13028683Y-14107553D01*
X13028683Y-14107553D02*
X13066779Y-14107553D01*
X13066779Y-14107553D02*
X13085826Y-14117077D01*
X13085826Y-14117077D02*
X13095350Y-14126601D01*
X13095350Y-14126601D02*
X13104874Y-14145648D01*
X13104874Y-14145648D02*
X13104874Y-14155172D01*
X13104874Y-14155172D02*
X13095350Y-14174220D01*
X13095350Y-14174220D02*
X13085826Y-14183744D01*
X13085826Y-14183744D02*
X13066779Y-14193267D01*
X13066779Y-14193267D02*
X13028683Y-14193267D01*
X13028683Y-14193267D02*
X13009636Y-14202791D01*
X13009636Y-14202791D02*
X13000112Y-14212315D01*
X13000112Y-14212315D02*
X12990588Y-14231363D01*
X12990588Y-14231363D02*
X12990588Y-14269458D01*
X12990588Y-14269458D02*
X13000112Y-14288505D01*
X13000112Y-14288505D02*
X13009636Y-14298029D01*
X13009636Y-14298029D02*
X13028683Y-14307553D01*
X13028683Y-14307553D02*
X13066779Y-14307553D01*
X13066779Y-14307553D02*
X13085826Y-14298029D01*
X13085826Y-14298029D02*
X13095350Y-14288505D01*
X13095350Y-14288505D02*
X13104874Y-14269458D01*
X13104874Y-14269458D02*
X13104874Y-14231363D01*
X13104874Y-14231363D02*
X13095350Y-14212315D01*
X13095350Y-14212315D02*
X13085826Y-14202791D01*
X13085826Y-14202791D02*
X13066779Y-14193267D01*
X13181064Y-14107553D02*
X13181064Y-14145648D01*
X13257255Y-14107553D02*
X13257255Y-14145648D01*
X13552493Y-14383744D02*
X13542969Y-14374220D01*
X13542969Y-14374220D02*
X13523922Y-14345648D01*
X13523922Y-14345648D02*
X13514398Y-14326601D01*
X13514398Y-14326601D02*
X13504874Y-14298029D01*
X13504874Y-14298029D02*
X13495350Y-14250410D01*
X13495350Y-14250410D02*
X13495350Y-14212315D01*
X13495350Y-14212315D02*
X13504874Y-14164696D01*
X13504874Y-14164696D02*
X13514398Y-14136125D01*
X13514398Y-14136125D02*
X13523922Y-14117077D01*
X13523922Y-14117077D02*
X13542969Y-14088505D01*
X13542969Y-14088505D02*
X13552493Y-14078982D01*
X13723922Y-14107553D02*
X13628684Y-14107553D01*
X13628684Y-14107553D02*
X13619160Y-14202791D01*
X13619160Y-14202791D02*
X13628684Y-14193267D01*
X13628684Y-14193267D02*
X13647731Y-14183744D01*
X13647731Y-14183744D02*
X13695350Y-14183744D01*
X13695350Y-14183744D02*
X13714398Y-14193267D01*
X13714398Y-14193267D02*
X13723922Y-14202791D01*
X13723922Y-14202791D02*
X13733445Y-14221839D01*
X13733445Y-14221839D02*
X13733445Y-14269458D01*
X13733445Y-14269458D02*
X13723922Y-14288505D01*
X13723922Y-14288505D02*
X13714398Y-14298029D01*
X13714398Y-14298029D02*
X13695350Y-14307553D01*
X13695350Y-14307553D02*
X13647731Y-14307553D01*
X13647731Y-14307553D02*
X13628684Y-14298029D01*
X13628684Y-14298029D02*
X13619160Y-14288505D01*
X13857255Y-14107553D02*
X13876303Y-14107553D01*
X13876303Y-14107553D02*
X13895350Y-14117077D01*
X13895350Y-14117077D02*
X13904874Y-14126601D01*
X13904874Y-14126601D02*
X13914398Y-14145648D01*
X13914398Y-14145648D02*
X13923922Y-14183744D01*
X13923922Y-14183744D02*
X13923922Y-14231363D01*
X13923922Y-14231363D02*
X13914398Y-14269458D01*
X13914398Y-14269458D02*
X13904874Y-14288505D01*
X13904874Y-14288505D02*
X13895350Y-14298029D01*
X13895350Y-14298029D02*
X13876303Y-14307553D01*
X13876303Y-14307553D02*
X13857255Y-14307553D01*
X13857255Y-14307553D02*
X13838207Y-14298029D01*
X13838207Y-14298029D02*
X13828684Y-14288505D01*
X13828684Y-14288505D02*
X13819160Y-14269458D01*
X13819160Y-14269458D02*
X13809636Y-14231363D01*
X13809636Y-14231363D02*
X13809636Y-14183744D01*
X13809636Y-14183744D02*
X13819160Y-14145648D01*
X13819160Y-14145648D02*
X13828684Y-14126601D01*
X13828684Y-14126601D02*
X13838207Y-14117077D01*
X13838207Y-14117077D02*
X13857255Y-14107553D01*
X14162017Y-14307553D02*
X14162017Y-14107553D01*
X14247731Y-14307553D02*
X14247731Y-14202791D01*
X14247731Y-14202791D02*
X14238207Y-14183744D01*
X14238207Y-14183744D02*
X14219160Y-14174220D01*
X14219160Y-14174220D02*
X14190588Y-14174220D01*
X14190588Y-14174220D02*
X14171541Y-14183744D01*
X14171541Y-14183744D02*
X14162017Y-14193267D01*
X14371541Y-14307553D02*
X14352493Y-14298029D01*
X14352493Y-14298029D02*
X14342969Y-14288505D01*
X14342969Y-14288505D02*
X14333446Y-14269458D01*
X14333446Y-14269458D02*
X14333446Y-14212315D01*
X14333446Y-14212315D02*
X14342969Y-14193267D01*
X14342969Y-14193267D02*
X14352493Y-14183744D01*
X14352493Y-14183744D02*
X14371541Y-14174220D01*
X14371541Y-14174220D02*
X14400112Y-14174220D01*
X14400112Y-14174220D02*
X14419160Y-14183744D01*
X14419160Y-14183744D02*
X14428684Y-14193267D01*
X14428684Y-14193267D02*
X14438207Y-14212315D01*
X14438207Y-14212315D02*
X14438207Y-14269458D01*
X14438207Y-14269458D02*
X14428684Y-14288505D01*
X14428684Y-14288505D02*
X14419160Y-14298029D01*
X14419160Y-14298029D02*
X14400112Y-14307553D01*
X14400112Y-14307553D02*
X14371541Y-14307553D01*
X14552493Y-14307553D02*
X14533446Y-14298029D01*
X14533446Y-14298029D02*
X14523922Y-14278982D01*
X14523922Y-14278982D02*
X14523922Y-14107553D01*
X14704874Y-14298029D02*
X14685827Y-14307553D01*
X14685827Y-14307553D02*
X14647731Y-14307553D01*
X14647731Y-14307553D02*
X14628684Y-14298029D01*
X14628684Y-14298029D02*
X14619160Y-14278982D01*
X14619160Y-14278982D02*
X14619160Y-14202791D01*
X14619160Y-14202791D02*
X14628684Y-14183744D01*
X14628684Y-14183744D02*
X14647731Y-14174220D01*
X14647731Y-14174220D02*
X14685827Y-14174220D01*
X14685827Y-14174220D02*
X14704874Y-14183744D01*
X14704874Y-14183744D02*
X14714398Y-14202791D01*
X14714398Y-14202791D02*
X14714398Y-14221839D01*
X14714398Y-14221839D02*
X14619160Y-14240886D01*
X14790588Y-14298029D02*
X14809636Y-14307553D01*
X14809636Y-14307553D02*
X14847731Y-14307553D01*
X14847731Y-14307553D02*
X14866779Y-14298029D01*
X14866779Y-14298029D02*
X14876303Y-14278982D01*
X14876303Y-14278982D02*
X14876303Y-14269458D01*
X14876303Y-14269458D02*
X14866779Y-14250410D01*
X14866779Y-14250410D02*
X14847731Y-14240886D01*
X14847731Y-14240886D02*
X14819160Y-14240886D01*
X14819160Y-14240886D02*
X14800112Y-14231363D01*
X14800112Y-14231363D02*
X14790588Y-14212315D01*
X14790588Y-14212315D02*
X14790588Y-14202791D01*
X14790588Y-14202791D02*
X14800112Y-14183744D01*
X14800112Y-14183744D02*
X14819160Y-14174220D01*
X14819160Y-14174220D02*
X14847731Y-14174220D01*
X14847731Y-14174220D02*
X14866779Y-14183744D01*
X14942969Y-14383744D02*
X14952493Y-14374220D01*
X14952493Y-14374220D02*
X14971541Y-14345648D01*
X14971541Y-14345648D02*
X14981065Y-14326601D01*
X14981065Y-14326601D02*
X14990588Y-14298029D01*
X14990588Y-14298029D02*
X15000112Y-14250410D01*
X15000112Y-14250410D02*
X15000112Y-14212315D01*
X15000112Y-14212315D02*
X14990588Y-14164696D01*
X14990588Y-14164696D02*
X14981065Y-14136125D01*
X14981065Y-14136125D02*
X14971541Y-14117077D01*
X14971541Y-14117077D02*
X14952493Y-14088505D01*
X14952493Y-14088505D02*
X14942969Y-14078982D01*
X9977430Y-14480069D02*
G75*
G02*
X9777430Y-14480069I-100000J0D01*
G01*
X9777430Y-14480069D02*
G75*
G02*
X9977430Y-14480069I100000J0D01*
G01*
X10228683Y-14390601D02*
X10238207Y-14381077D01*
X10238207Y-14381077D02*
X10257255Y-14371553D01*
X10257255Y-14371553D02*
X10304874Y-14371553D01*
X10304874Y-14371553D02*
X10323921Y-14381077D01*
X10323921Y-14381077D02*
X10333445Y-14390601D01*
X10333445Y-14390601D02*
X10342969Y-14409648D01*
X10342969Y-14409648D02*
X10342969Y-14428696D01*
X10342969Y-14428696D02*
X10333445Y-14457267D01*
X10333445Y-14457267D02*
X10219160Y-14571553D01*
X10219160Y-14571553D02*
X10342969Y-14571553D01*
X10428683Y-14552505D02*
X10438207Y-14562029D01*
X10438207Y-14562029D02*
X10428683Y-14571553D01*
X10428683Y-14571553D02*
X10419160Y-14562029D01*
X10419160Y-14562029D02*
X10428683Y-14552505D01*
X10428683Y-14552505D02*
X10428683Y-14571553D01*
X10514398Y-14390601D02*
X10523921Y-14381077D01*
X10523921Y-14381077D02*
X10542969Y-14371553D01*
X10542969Y-14371553D02*
X10590588Y-14371553D01*
X10590588Y-14371553D02*
X10609636Y-14381077D01*
X10609636Y-14381077D02*
X10619160Y-14390601D01*
X10619160Y-14390601D02*
X10628683Y-14409648D01*
X10628683Y-14409648D02*
X10628683Y-14428696D01*
X10628683Y-14428696D02*
X10619160Y-14457267D01*
X10619160Y-14457267D02*
X10504874Y-14571553D01*
X10504874Y-14571553D02*
X10628683Y-14571553D01*
X10752493Y-14371553D02*
X10771541Y-14371553D01*
X10771541Y-14371553D02*
X10790588Y-14381077D01*
X10790588Y-14381077D02*
X10800112Y-14390601D01*
X10800112Y-14390601D02*
X10809636Y-14409648D01*
X10809636Y-14409648D02*
X10819160Y-14447744D01*
X10819160Y-14447744D02*
X10819160Y-14495363D01*
X10819160Y-14495363D02*
X10809636Y-14533458D01*
X10809636Y-14533458D02*
X10800112Y-14552505D01*
X10800112Y-14552505D02*
X10790588Y-14562029D01*
X10790588Y-14562029D02*
X10771541Y-14571553D01*
X10771541Y-14571553D02*
X10752493Y-14571553D01*
X10752493Y-14571553D02*
X10733445Y-14562029D01*
X10733445Y-14562029D02*
X10723921Y-14552505D01*
X10723921Y-14552505D02*
X10714398Y-14533458D01*
X10714398Y-14533458D02*
X10704874Y-14495363D01*
X10704874Y-14495363D02*
X10704874Y-14447744D01*
X10704874Y-14447744D02*
X10714398Y-14409648D01*
X10714398Y-14409648D02*
X10723921Y-14390601D01*
X10723921Y-14390601D02*
X10733445Y-14381077D01*
X10733445Y-14381077D02*
X10752493Y-14371553D01*
X10942969Y-14371553D02*
X10962017Y-14371553D01*
X10962017Y-14371553D02*
X10981064Y-14381077D01*
X10981064Y-14381077D02*
X10990588Y-14390601D01*
X10990588Y-14390601D02*
X11000112Y-14409648D01*
X11000112Y-14409648D02*
X11009636Y-14447744D01*
X11009636Y-14447744D02*
X11009636Y-14495363D01*
X11009636Y-14495363D02*
X11000112Y-14533458D01*
X11000112Y-14533458D02*
X10990588Y-14552505D01*
X10990588Y-14552505D02*
X10981064Y-14562029D01*
X10981064Y-14562029D02*
X10962017Y-14571553D01*
X10962017Y-14571553D02*
X10942969Y-14571553D01*
X10942969Y-14571553D02*
X10923921Y-14562029D01*
X10923921Y-14562029D02*
X10914398Y-14552505D01*
X10914398Y-14552505D02*
X10904874Y-14533458D01*
X10904874Y-14533458D02*
X10895350Y-14495363D01*
X10895350Y-14495363D02*
X10895350Y-14447744D01*
X10895350Y-14447744D02*
X10904874Y-14409648D01*
X10904874Y-14409648D02*
X10914398Y-14390601D01*
X10914398Y-14390601D02*
X10923921Y-14381077D01*
X10923921Y-14381077D02*
X10942969Y-14371553D01*
X11095350Y-14571553D02*
X11095350Y-14438220D01*
X11095350Y-14457267D02*
X11104874Y-14447744D01*
X11104874Y-14447744D02*
X11123921Y-14438220D01*
X11123921Y-14438220D02*
X11152493Y-14438220D01*
X11152493Y-14438220D02*
X11171541Y-14447744D01*
X11171541Y-14447744D02*
X11181064Y-14466791D01*
X11181064Y-14466791D02*
X11181064Y-14571553D01*
X11181064Y-14466791D02*
X11190588Y-14447744D01*
X11190588Y-14447744D02*
X11209636Y-14438220D01*
X11209636Y-14438220D02*
X11238207Y-14438220D01*
X11238207Y-14438220D02*
X11257255Y-14447744D01*
X11257255Y-14447744D02*
X11266779Y-14466791D01*
X11266779Y-14466791D02*
X11266779Y-14571553D01*
X11362017Y-14571553D02*
X11362017Y-14438220D01*
X11362017Y-14457267D02*
X11371540Y-14447744D01*
X11371540Y-14447744D02*
X11390588Y-14438220D01*
X11390588Y-14438220D02*
X11419160Y-14438220D01*
X11419160Y-14438220D02*
X11438207Y-14447744D01*
X11438207Y-14447744D02*
X11447731Y-14466791D01*
X11447731Y-14466791D02*
X11447731Y-14571553D01*
X11447731Y-14466791D02*
X11457255Y-14447744D01*
X11457255Y-14447744D02*
X11476302Y-14438220D01*
X11476302Y-14438220D02*
X11504874Y-14438220D01*
X11504874Y-14438220D02*
X11523921Y-14447744D01*
X11523921Y-14447744D02*
X11533445Y-14466791D01*
X11533445Y-14466791D02*
X11533445Y-14571553D01*
X11923921Y-14362029D02*
X11752493Y-14619172D01*
X12181064Y-14371553D02*
X12200112Y-14371553D01*
X12200112Y-14371553D02*
X12219160Y-14381077D01*
X12219160Y-14381077D02*
X12228683Y-14390601D01*
X12228683Y-14390601D02*
X12238207Y-14409648D01*
X12238207Y-14409648D02*
X12247731Y-14447744D01*
X12247731Y-14447744D02*
X12247731Y-14495363D01*
X12247731Y-14495363D02*
X12238207Y-14533458D01*
X12238207Y-14533458D02*
X12228683Y-14552505D01*
X12228683Y-14552505D02*
X12219160Y-14562029D01*
X12219160Y-14562029D02*
X12200112Y-14571553D01*
X12200112Y-14571553D02*
X12181064Y-14571553D01*
X12181064Y-14571553D02*
X12162017Y-14562029D01*
X12162017Y-14562029D02*
X12152493Y-14552505D01*
X12152493Y-14552505D02*
X12142969Y-14533458D01*
X12142969Y-14533458D02*
X12133445Y-14495363D01*
X12133445Y-14495363D02*
X12133445Y-14447744D01*
X12133445Y-14447744D02*
X12142969Y-14409648D01*
X12142969Y-14409648D02*
X12152493Y-14390601D01*
X12152493Y-14390601D02*
X12162017Y-14381077D01*
X12162017Y-14381077D02*
X12181064Y-14371553D01*
X12333445Y-14552505D02*
X12342969Y-14562029D01*
X12342969Y-14562029D02*
X12333445Y-14571553D01*
X12333445Y-14571553D02*
X12323922Y-14562029D01*
X12323922Y-14562029D02*
X12333445Y-14552505D01*
X12333445Y-14552505D02*
X12333445Y-14571553D01*
X12466779Y-14371553D02*
X12485826Y-14371553D01*
X12485826Y-14371553D02*
X12504874Y-14381077D01*
X12504874Y-14381077D02*
X12514398Y-14390601D01*
X12514398Y-14390601D02*
X12523922Y-14409648D01*
X12523922Y-14409648D02*
X12533445Y-14447744D01*
X12533445Y-14447744D02*
X12533445Y-14495363D01*
X12533445Y-14495363D02*
X12523922Y-14533458D01*
X12523922Y-14533458D02*
X12514398Y-14552505D01*
X12514398Y-14552505D02*
X12504874Y-14562029D01*
X12504874Y-14562029D02*
X12485826Y-14571553D01*
X12485826Y-14571553D02*
X12466779Y-14571553D01*
X12466779Y-14571553D02*
X12447731Y-14562029D01*
X12447731Y-14562029D02*
X12438207Y-14552505D01*
X12438207Y-14552505D02*
X12428683Y-14533458D01*
X12428683Y-14533458D02*
X12419160Y-14495363D01*
X12419160Y-14495363D02*
X12419160Y-14447744D01*
X12419160Y-14447744D02*
X12428683Y-14409648D01*
X12428683Y-14409648D02*
X12438207Y-14390601D01*
X12438207Y-14390601D02*
X12447731Y-14381077D01*
X12447731Y-14381077D02*
X12466779Y-14371553D01*
X12647731Y-14457267D02*
X12628683Y-14447744D01*
X12628683Y-14447744D02*
X12619160Y-14438220D01*
X12619160Y-14438220D02*
X12609636Y-14419172D01*
X12609636Y-14419172D02*
X12609636Y-14409648D01*
X12609636Y-14409648D02*
X12619160Y-14390601D01*
X12619160Y-14390601D02*
X12628683Y-14381077D01*
X12628683Y-14381077D02*
X12647731Y-14371553D01*
X12647731Y-14371553D02*
X12685826Y-14371553D01*
X12685826Y-14371553D02*
X12704874Y-14381077D01*
X12704874Y-14381077D02*
X12714398Y-14390601D01*
X12714398Y-14390601D02*
X12723922Y-14409648D01*
X12723922Y-14409648D02*
X12723922Y-14419172D01*
X12723922Y-14419172D02*
X12714398Y-14438220D01*
X12714398Y-14438220D02*
X12704874Y-14447744D01*
X12704874Y-14447744D02*
X12685826Y-14457267D01*
X12685826Y-14457267D02*
X12647731Y-14457267D01*
X12647731Y-14457267D02*
X12628683Y-14466791D01*
X12628683Y-14466791D02*
X12619160Y-14476315D01*
X12619160Y-14476315D02*
X12609636Y-14495363D01*
X12609636Y-14495363D02*
X12609636Y-14533458D01*
X12609636Y-14533458D02*
X12619160Y-14552505D01*
X12619160Y-14552505D02*
X12628683Y-14562029D01*
X12628683Y-14562029D02*
X12647731Y-14571553D01*
X12647731Y-14571553D02*
X12685826Y-14571553D01*
X12685826Y-14571553D02*
X12704874Y-14562029D01*
X12704874Y-14562029D02*
X12714398Y-14552505D01*
X12714398Y-14552505D02*
X12723922Y-14533458D01*
X12723922Y-14533458D02*
X12723922Y-14495363D01*
X12723922Y-14495363D02*
X12714398Y-14476315D01*
X12714398Y-14476315D02*
X12704874Y-14466791D01*
X12704874Y-14466791D02*
X12685826Y-14457267D01*
X12895350Y-14371553D02*
X12857255Y-14371553D01*
X12857255Y-14371553D02*
X12838207Y-14381077D01*
X12838207Y-14381077D02*
X12828683Y-14390601D01*
X12828683Y-14390601D02*
X12809636Y-14419172D01*
X12809636Y-14419172D02*
X12800112Y-14457267D01*
X12800112Y-14457267D02*
X12800112Y-14533458D01*
X12800112Y-14533458D02*
X12809636Y-14552505D01*
X12809636Y-14552505D02*
X12819160Y-14562029D01*
X12819160Y-14562029D02*
X12838207Y-14571553D01*
X12838207Y-14571553D02*
X12876303Y-14571553D01*
X12876303Y-14571553D02*
X12895350Y-14562029D01*
X12895350Y-14562029D02*
X12904874Y-14552505D01*
X12904874Y-14552505D02*
X12914398Y-14533458D01*
X12914398Y-14533458D02*
X12914398Y-14485839D01*
X12914398Y-14485839D02*
X12904874Y-14466791D01*
X12904874Y-14466791D02*
X12895350Y-14457267D01*
X12895350Y-14457267D02*
X12876303Y-14447744D01*
X12876303Y-14447744D02*
X12838207Y-14447744D01*
X12838207Y-14447744D02*
X12819160Y-14457267D01*
X12819160Y-14457267D02*
X12809636Y-14466791D01*
X12809636Y-14466791D02*
X12800112Y-14485839D01*
X13085826Y-14371553D02*
X13047731Y-14371553D01*
X13047731Y-14371553D02*
X13028683Y-14381077D01*
X13028683Y-14381077D02*
X13019160Y-14390601D01*
X13019160Y-14390601D02*
X13000112Y-14419172D01*
X13000112Y-14419172D02*
X12990588Y-14457267D01*
X12990588Y-14457267D02*
X12990588Y-14533458D01*
X12990588Y-14533458D02*
X13000112Y-14552505D01*
X13000112Y-14552505D02*
X13009636Y-14562029D01*
X13009636Y-14562029D02*
X13028683Y-14571553D01*
X13028683Y-14571553D02*
X13066779Y-14571553D01*
X13066779Y-14571553D02*
X13085826Y-14562029D01*
X13085826Y-14562029D02*
X13095350Y-14552505D01*
X13095350Y-14552505D02*
X13104874Y-14533458D01*
X13104874Y-14533458D02*
X13104874Y-14485839D01*
X13104874Y-14485839D02*
X13095350Y-14466791D01*
X13095350Y-14466791D02*
X13085826Y-14457267D01*
X13085826Y-14457267D02*
X13066779Y-14447744D01*
X13066779Y-14447744D02*
X13028683Y-14447744D01*
X13028683Y-14447744D02*
X13009636Y-14457267D01*
X13009636Y-14457267D02*
X13000112Y-14466791D01*
X13000112Y-14466791D02*
X12990588Y-14485839D01*
X13181064Y-14371553D02*
X13181064Y-14409648D01*
X13257255Y-14371553D02*
X13257255Y-14409648D01*
X13552493Y-14647744D02*
X13542969Y-14638220D01*
X13542969Y-14638220D02*
X13523922Y-14609648D01*
X13523922Y-14609648D02*
X13514398Y-14590601D01*
X13514398Y-14590601D02*
X13504874Y-14562029D01*
X13504874Y-14562029D02*
X13495350Y-14514410D01*
X13495350Y-14514410D02*
X13495350Y-14476315D01*
X13495350Y-14476315D02*
X13504874Y-14428696D01*
X13504874Y-14428696D02*
X13514398Y-14400125D01*
X13514398Y-14400125D02*
X13523922Y-14381077D01*
X13523922Y-14381077D02*
X13542969Y-14352505D01*
X13542969Y-14352505D02*
X13552493Y-14342982D01*
X13723922Y-14371553D02*
X13628684Y-14371553D01*
X13628684Y-14371553D02*
X13619160Y-14466791D01*
X13619160Y-14466791D02*
X13628684Y-14457267D01*
X13628684Y-14457267D02*
X13647731Y-14447744D01*
X13647731Y-14447744D02*
X13695350Y-14447744D01*
X13695350Y-14447744D02*
X13714398Y-14457267D01*
X13714398Y-14457267D02*
X13723922Y-14466791D01*
X13723922Y-14466791D02*
X13733445Y-14485839D01*
X13733445Y-14485839D02*
X13733445Y-14533458D01*
X13733445Y-14533458D02*
X13723922Y-14552505D01*
X13723922Y-14552505D02*
X13714398Y-14562029D01*
X13714398Y-14562029D02*
X13695350Y-14571553D01*
X13695350Y-14571553D02*
X13647731Y-14571553D01*
X13647731Y-14571553D02*
X13628684Y-14562029D01*
X13628684Y-14562029D02*
X13619160Y-14552505D01*
X13971541Y-14571553D02*
X13971541Y-14371553D01*
X14057255Y-14571553D02*
X14057255Y-14466791D01*
X14057255Y-14466791D02*
X14047731Y-14447744D01*
X14047731Y-14447744D02*
X14028684Y-14438220D01*
X14028684Y-14438220D02*
X14000112Y-14438220D01*
X14000112Y-14438220D02*
X13981065Y-14447744D01*
X13981065Y-14447744D02*
X13971541Y-14457267D01*
X14181065Y-14571553D02*
X14162017Y-14562029D01*
X14162017Y-14562029D02*
X14152493Y-14552505D01*
X14152493Y-14552505D02*
X14142969Y-14533458D01*
X14142969Y-14533458D02*
X14142969Y-14476315D01*
X14142969Y-14476315D02*
X14152493Y-14457267D01*
X14152493Y-14457267D02*
X14162017Y-14447744D01*
X14162017Y-14447744D02*
X14181065Y-14438220D01*
X14181065Y-14438220D02*
X14209636Y-14438220D01*
X14209636Y-14438220D02*
X14228684Y-14447744D01*
X14228684Y-14447744D02*
X14238207Y-14457267D01*
X14238207Y-14457267D02*
X14247731Y-14476315D01*
X14247731Y-14476315D02*
X14247731Y-14533458D01*
X14247731Y-14533458D02*
X14238207Y-14552505D01*
X14238207Y-14552505D02*
X14228684Y-14562029D01*
X14228684Y-14562029D02*
X14209636Y-14571553D01*
X14209636Y-14571553D02*
X14181065Y-14571553D01*
X14362017Y-14571553D02*
X14342969Y-14562029D01*
X14342969Y-14562029D02*
X14333446Y-14542982D01*
X14333446Y-14542982D02*
X14333446Y-14371553D01*
X14514398Y-14562029D02*
X14495350Y-14571553D01*
X14495350Y-14571553D02*
X14457255Y-14571553D01*
X14457255Y-14571553D02*
X14438207Y-14562029D01*
X14438207Y-14562029D02*
X14428684Y-14542982D01*
X14428684Y-14542982D02*
X14428684Y-14466791D01*
X14428684Y-14466791D02*
X14438207Y-14447744D01*
X14438207Y-14447744D02*
X14457255Y-14438220D01*
X14457255Y-14438220D02*
X14495350Y-14438220D01*
X14495350Y-14438220D02*
X14514398Y-14447744D01*
X14514398Y-14447744D02*
X14523922Y-14466791D01*
X14523922Y-14466791D02*
X14523922Y-14485839D01*
X14523922Y-14485839D02*
X14428684Y-14504886D01*
X14600112Y-14562029D02*
X14619160Y-14571553D01*
X14619160Y-14571553D02*
X14657255Y-14571553D01*
X14657255Y-14571553D02*
X14676303Y-14562029D01*
X14676303Y-14562029D02*
X14685827Y-14542982D01*
X14685827Y-14542982D02*
X14685827Y-14533458D01*
X14685827Y-14533458D02*
X14676303Y-14514410D01*
X14676303Y-14514410D02*
X14657255Y-14504886D01*
X14657255Y-14504886D02*
X14628684Y-14504886D01*
X14628684Y-14504886D02*
X14609636Y-14495363D01*
X14609636Y-14495363D02*
X14600112Y-14476315D01*
X14600112Y-14476315D02*
X14600112Y-14466791D01*
X14600112Y-14466791D02*
X14609636Y-14447744D01*
X14609636Y-14447744D02*
X14628684Y-14438220D01*
X14628684Y-14438220D02*
X14657255Y-14438220D01*
X14657255Y-14438220D02*
X14676303Y-14447744D01*
X14752493Y-14647744D02*
X14762017Y-14638220D01*
X14762017Y-14638220D02*
X14781065Y-14609648D01*
X14781065Y-14609648D02*
X14790588Y-14590601D01*
X14790588Y-14590601D02*
X14800112Y-14562029D01*
X14800112Y-14562029D02*
X14809636Y-14514410D01*
X14809636Y-14514410D02*
X14809636Y-14476315D01*
X14809636Y-14476315D02*
X14800112Y-14428696D01*
X14800112Y-14428696D02*
X14790588Y-14400125D01*
X14790588Y-14400125D02*
X14781065Y-14381077D01*
X14781065Y-14381077D02*
X14762017Y-14352505D01*
X14762017Y-14352505D02*
X14752493Y-14342982D01*
M02*
