M48
; DRILL file {KiCad 9.0.5} date 2025-10-14T20:34:08+0100
; FORMAT={-:-/ absolute / metric / decimal}
; #@! TF.CreationDate,2025-10-14T20:34:08+01:00
; #@! TF.GenerationSoftware,Kicad,Pcbnew,9.0.5
; #@! TF.FileFunction,Plated,1,2,PTH
FMAT,2
METRIC
; #@! TA.AperFunction,Plated,PTH,ViaDrill
T1C0.300
; #@! TA.AperFunction,Plated,PTH,ComponentDrill
T2C2.200
%
G90
G05
T1
X110.49Y-80.01
X115.57Y-76.793
X116.84Y-82.55
X119.38Y-90.17
X123.19Y-78.74
X123.19Y-83.82
X124.46Y-127.0
X127.0Y-85.09
X127.0Y-123.19
X129.54Y-95.25
X130.688Y-90.292
X130.81Y-106.68
X130.81Y-118.11
X133.35Y-87.63
X134.62Y-114.3
X137.16Y-109.22
X138.43Y-109.22
X139.7Y-119.38
X142.24Y-73.66
X142.24Y-110.49
X143.51Y-63.5
X144.78Y-106.68
X149.79Y-72.676
X149.86Y-50.8
X149.86Y-55.88
X149.86Y-62.23
X149.86Y-69.85
X149.86Y-76.2
X149.86Y-106.68
X152.4Y-48.26
X154.822Y-74.36
X157.48Y-69.85
X160.02Y-106.68
X162.56Y-121.92
X163.83Y-111.76
X165.907Y-106.217
X166.37Y-97.79
X166.37Y-116.84
X168.91Y-82.55
X170.18Y-87.63
X170.18Y-120.65
X172.72Y-86.36
X172.72Y-111.76
X173.99Y-78.74
X175.26Y-128.27
X176.53Y-91.44
X177.8Y-85.09
X182.88Y-82.55
X187.96Y-80.01
X193.018Y-81.491
T2
X104.97Y-78.315
X121.675Y-131.018
X149.802Y-46.008
X177.092Y-131.155
X194.421Y-78.697
M30
