G04 #@! TF.GenerationSoftware,KiCad,Pcbnew,9.0.5*
G04 #@! TF.CreationDate,2025-10-14T20:34:03+01:00*
G04 #@! TF.ProjectId,ESP32_Xmas_Star_Module,45535033-325f-4586-9d61-735f53746172,rev?*
G04 #@! TF.SameCoordinates,Original*
G04 #@! TF.FileFunction,Legend,Bot*
G04 #@! TF.FilePolarity,Positive*
%FSLAX46Y46*%
G04 Gerber Fmt 4.6, Leading zero omitted, Abs format (unit mm)*
G04 Created by KiCad (PCBNEW 9.0.5) date 2025-10-14 20:34:03*
%MOMM*%
%LPD*%
G01*
G04 APERTURE LIST*
G04 Aperture macros list*
%AMRoundRect*
0 Rectangle with rounded corners*
0 $1 Rounding radius*
0 $2 $3 $4 $5 $6 $7 $8 $9 X,Y pos of 4 corners*
0 Add a 4 corners polygon primitive as box body*
4,1,4,$2,$3,$4,$5,$6,$7,$8,$9,$2,$3,0*
0 Add four circle primitives for the rounded corners*
1,1,$1+$1,$2,$3*
1,1,$1+$1,$4,$5*
1,1,$1+$1,$6,$7*
1,1,$1+$1,$8,$9*
0 Add four rect primitives between the rounded corners*
20,1,$1+$1,$2,$3,$4,$5,0*
20,1,$1+$1,$4,$5,$6,$7,0*
20,1,$1+$1,$6,$7,$8,$9,0*
20,1,$1+$1,$8,$9,$2,$3,0*%
G04 Aperture macros list end*
%ADD10C,0.100000*%
%ADD11C,0.200000*%
%ADD12C,0.300000*%
%ADD13C,0.150000*%
%ADD14C,0.010000*%
%ADD15C,0.000000*%
%ADD16C,0.120000*%
%ADD17C,4.400000*%
%ADD18R,2.180000X1.600000*%
%ADD19RoundRect,0.250000X0.450000X-0.350000X0.450000X0.350000X-0.450000X0.350000X-0.450000X-0.350000X0*%
%ADD20RoundRect,0.102000X-1.205000X0.510000X-1.205000X-0.510000X1.205000X-0.510000X1.205000X0.510000X0*%
%ADD21RoundRect,0.102000X1.205000X-0.510000X1.205000X0.510000X-1.205000X0.510000X-1.205000X-0.510000X0*%
G04 APERTURE END LIST*
D10*
X131442782Y-79358609D02*
X131299925Y-79406228D01*
X131299925Y-79406228D02*
X131252306Y-79453847D01*
X131252306Y-79453847D02*
X131204687Y-79549085D01*
X131204687Y-79549085D02*
X131204687Y-79691942D01*
X131204687Y-79691942D02*
X131252306Y-79787180D01*
X131252306Y-79787180D02*
X131299925Y-79834800D01*
X131299925Y-79834800D02*
X131395163Y-79882419D01*
X131395163Y-79882419D02*
X131776115Y-79882419D01*
X131776115Y-79882419D02*
X131776115Y-78882419D01*
X131776115Y-78882419D02*
X131442782Y-78882419D01*
X131442782Y-78882419D02*
X131347544Y-78930038D01*
X131347544Y-78930038D02*
X131299925Y-78977657D01*
X131299925Y-78977657D02*
X131252306Y-79072895D01*
X131252306Y-79072895D02*
X131252306Y-79168133D01*
X131252306Y-79168133D02*
X131299925Y-79263371D01*
X131299925Y-79263371D02*
X131347544Y-79310990D01*
X131347544Y-79310990D02*
X131442782Y-79358609D01*
X131442782Y-79358609D02*
X131776115Y-79358609D01*
X130347544Y-79215752D02*
X130347544Y-79882419D01*
X130776115Y-79215752D02*
X130776115Y-79739561D01*
X130776115Y-79739561D02*
X130728496Y-79834800D01*
X130728496Y-79834800D02*
X130633258Y-79882419D01*
X130633258Y-79882419D02*
X130490401Y-79882419D01*
X130490401Y-79882419D02*
X130395163Y-79834800D01*
X130395163Y-79834800D02*
X130347544Y-79787180D01*
X130014210Y-79215752D02*
X129633258Y-79215752D01*
X129871353Y-78882419D02*
X129871353Y-79739561D01*
X129871353Y-79739561D02*
X129823734Y-79834800D01*
X129823734Y-79834800D02*
X129728496Y-79882419D01*
X129728496Y-79882419D02*
X129633258Y-79882419D01*
X129442781Y-79215752D02*
X129061829Y-79215752D01*
X129299924Y-78882419D02*
X129299924Y-79739561D01*
X129299924Y-79739561D02*
X129252305Y-79834800D01*
X129252305Y-79834800D02*
X129157067Y-79882419D01*
X129157067Y-79882419D02*
X129061829Y-79882419D01*
X128585638Y-79882419D02*
X128680876Y-79834800D01*
X128680876Y-79834800D02*
X128728495Y-79787180D01*
X128728495Y-79787180D02*
X128776114Y-79691942D01*
X128776114Y-79691942D02*
X128776114Y-79406228D01*
X128776114Y-79406228D02*
X128728495Y-79310990D01*
X128728495Y-79310990D02*
X128680876Y-79263371D01*
X128680876Y-79263371D02*
X128585638Y-79215752D01*
X128585638Y-79215752D02*
X128442781Y-79215752D01*
X128442781Y-79215752D02*
X128347543Y-79263371D01*
X128347543Y-79263371D02*
X128299924Y-79310990D01*
X128299924Y-79310990D02*
X128252305Y-79406228D01*
X128252305Y-79406228D02*
X128252305Y-79691942D01*
X128252305Y-79691942D02*
X128299924Y-79787180D01*
X128299924Y-79787180D02*
X128347543Y-79834800D01*
X128347543Y-79834800D02*
X128442781Y-79882419D01*
X128442781Y-79882419D02*
X128585638Y-79882419D01*
X127823733Y-79215752D02*
X127823733Y-79882419D01*
X127823733Y-79310990D02*
X127776114Y-79263371D01*
X127776114Y-79263371D02*
X127680876Y-79215752D01*
X127680876Y-79215752D02*
X127538019Y-79215752D01*
X127538019Y-79215752D02*
X127442781Y-79263371D01*
X127442781Y-79263371D02*
X127395162Y-79358609D01*
X127395162Y-79358609D02*
X127395162Y-79882419D01*
X125633257Y-79882419D02*
X126204685Y-79882419D01*
X125918971Y-79882419D02*
X125918971Y-78882419D01*
X125918971Y-78882419D02*
X126014209Y-79025276D01*
X126014209Y-79025276D02*
X126109447Y-79120514D01*
X126109447Y-79120514D02*
X126204685Y-79168133D01*
D11*
X161074286Y-109677331D02*
X161074286Y-108677331D01*
X161074286Y-108677331D02*
X160836191Y-108677331D01*
X160836191Y-108677331D02*
X160693334Y-108724950D01*
X160693334Y-108724950D02*
X160598096Y-108820188D01*
X160598096Y-108820188D02*
X160550477Y-108915426D01*
X160550477Y-108915426D02*
X160502858Y-109105902D01*
X160502858Y-109105902D02*
X160502858Y-109248759D01*
X160502858Y-109248759D02*
X160550477Y-109439235D01*
X160550477Y-109439235D02*
X160598096Y-109534473D01*
X160598096Y-109534473D02*
X160693334Y-109629712D01*
X160693334Y-109629712D02*
X160836191Y-109677331D01*
X160836191Y-109677331D02*
X161074286Y-109677331D01*
X159693334Y-109629712D02*
X159788572Y-109677331D01*
X159788572Y-109677331D02*
X159979048Y-109677331D01*
X159979048Y-109677331D02*
X160074286Y-109629712D01*
X160074286Y-109629712D02*
X160121905Y-109534473D01*
X160121905Y-109534473D02*
X160121905Y-109153521D01*
X160121905Y-109153521D02*
X160074286Y-109058283D01*
X160074286Y-109058283D02*
X159979048Y-109010664D01*
X159979048Y-109010664D02*
X159788572Y-109010664D01*
X159788572Y-109010664D02*
X159693334Y-109058283D01*
X159693334Y-109058283D02*
X159645715Y-109153521D01*
X159645715Y-109153521D02*
X159645715Y-109248759D01*
X159645715Y-109248759D02*
X160121905Y-109343997D01*
X159264762Y-109629712D02*
X159169524Y-109677331D01*
X159169524Y-109677331D02*
X158979048Y-109677331D01*
X158979048Y-109677331D02*
X158883810Y-109629712D01*
X158883810Y-109629712D02*
X158836191Y-109534473D01*
X158836191Y-109534473D02*
X158836191Y-109486854D01*
X158836191Y-109486854D02*
X158883810Y-109391616D01*
X158883810Y-109391616D02*
X158979048Y-109343997D01*
X158979048Y-109343997D02*
X159121905Y-109343997D01*
X159121905Y-109343997D02*
X159217143Y-109296378D01*
X159217143Y-109296378D02*
X159264762Y-109201140D01*
X159264762Y-109201140D02*
X159264762Y-109153521D01*
X159264762Y-109153521D02*
X159217143Y-109058283D01*
X159217143Y-109058283D02*
X159121905Y-109010664D01*
X159121905Y-109010664D02*
X158979048Y-109010664D01*
X158979048Y-109010664D02*
X158883810Y-109058283D01*
X158407619Y-109677331D02*
X158407619Y-109010664D01*
X158407619Y-108677331D02*
X158455238Y-108724950D01*
X158455238Y-108724950D02*
X158407619Y-108772569D01*
X158407619Y-108772569D02*
X158360000Y-108724950D01*
X158360000Y-108724950D02*
X158407619Y-108677331D01*
X158407619Y-108677331D02*
X158407619Y-108772569D01*
X157502858Y-109010664D02*
X157502858Y-109820188D01*
X157502858Y-109820188D02*
X157550477Y-109915426D01*
X157550477Y-109915426D02*
X157598096Y-109963045D01*
X157598096Y-109963045D02*
X157693334Y-110010664D01*
X157693334Y-110010664D02*
X157836191Y-110010664D01*
X157836191Y-110010664D02*
X157931429Y-109963045D01*
X157502858Y-109629712D02*
X157598096Y-109677331D01*
X157598096Y-109677331D02*
X157788572Y-109677331D01*
X157788572Y-109677331D02*
X157883810Y-109629712D01*
X157883810Y-109629712D02*
X157931429Y-109582092D01*
X157931429Y-109582092D02*
X157979048Y-109486854D01*
X157979048Y-109486854D02*
X157979048Y-109201140D01*
X157979048Y-109201140D02*
X157931429Y-109105902D01*
X157931429Y-109105902D02*
X157883810Y-109058283D01*
X157883810Y-109058283D02*
X157788572Y-109010664D01*
X157788572Y-109010664D02*
X157598096Y-109010664D01*
X157598096Y-109010664D02*
X157502858Y-109058283D01*
X157026667Y-109010664D02*
X157026667Y-109677331D01*
X157026667Y-109105902D02*
X156979048Y-109058283D01*
X156979048Y-109058283D02*
X156883810Y-109010664D01*
X156883810Y-109010664D02*
X156740953Y-109010664D01*
X156740953Y-109010664D02*
X156645715Y-109058283D01*
X156645715Y-109058283D02*
X156598096Y-109153521D01*
X156598096Y-109153521D02*
X156598096Y-109677331D01*
X155740953Y-109629712D02*
X155836191Y-109677331D01*
X155836191Y-109677331D02*
X156026667Y-109677331D01*
X156026667Y-109677331D02*
X156121905Y-109629712D01*
X156121905Y-109629712D02*
X156169524Y-109534473D01*
X156169524Y-109534473D02*
X156169524Y-109153521D01*
X156169524Y-109153521D02*
X156121905Y-109058283D01*
X156121905Y-109058283D02*
X156026667Y-109010664D01*
X156026667Y-109010664D02*
X155836191Y-109010664D01*
X155836191Y-109010664D02*
X155740953Y-109058283D01*
X155740953Y-109058283D02*
X155693334Y-109153521D01*
X155693334Y-109153521D02*
X155693334Y-109248759D01*
X155693334Y-109248759D02*
X156169524Y-109343997D01*
X154836191Y-109677331D02*
X154836191Y-108677331D01*
X154836191Y-109629712D02*
X154931429Y-109677331D01*
X154931429Y-109677331D02*
X155121905Y-109677331D01*
X155121905Y-109677331D02*
X155217143Y-109629712D01*
X155217143Y-109629712D02*
X155264762Y-109582092D01*
X155264762Y-109582092D02*
X155312381Y-109486854D01*
X155312381Y-109486854D02*
X155312381Y-109201140D01*
X155312381Y-109201140D02*
X155264762Y-109105902D01*
X155264762Y-109105902D02*
X155217143Y-109058283D01*
X155217143Y-109058283D02*
X155121905Y-109010664D01*
X155121905Y-109010664D02*
X154931429Y-109010664D01*
X154931429Y-109010664D02*
X154836191Y-109058283D01*
X153598095Y-109677331D02*
X153598095Y-109010664D01*
X153598095Y-108677331D02*
X153645714Y-108724950D01*
X153645714Y-108724950D02*
X153598095Y-108772569D01*
X153598095Y-108772569D02*
X153550476Y-108724950D01*
X153550476Y-108724950D02*
X153598095Y-108677331D01*
X153598095Y-108677331D02*
X153598095Y-108772569D01*
X153121905Y-109010664D02*
X153121905Y-109677331D01*
X153121905Y-109105902D02*
X153074286Y-109058283D01*
X153074286Y-109058283D02*
X152979048Y-109010664D01*
X152979048Y-109010664D02*
X152836191Y-109010664D01*
X152836191Y-109010664D02*
X152740953Y-109058283D01*
X152740953Y-109058283D02*
X152693334Y-109153521D01*
X152693334Y-109153521D02*
X152693334Y-109677331D01*
X151598095Y-108677331D02*
X151026667Y-108677331D01*
X151312381Y-109677331D02*
X151312381Y-108677331D01*
X150693333Y-109677331D02*
X150693333Y-108677331D01*
X150264762Y-109677331D02*
X150264762Y-109153521D01*
X150264762Y-109153521D02*
X150312381Y-109058283D01*
X150312381Y-109058283D02*
X150407619Y-109010664D01*
X150407619Y-109010664D02*
X150550476Y-109010664D01*
X150550476Y-109010664D02*
X150645714Y-109058283D01*
X150645714Y-109058283D02*
X150693333Y-109105902D01*
X149360000Y-109677331D02*
X149360000Y-109153521D01*
X149360000Y-109153521D02*
X149407619Y-109058283D01*
X149407619Y-109058283D02*
X149502857Y-109010664D01*
X149502857Y-109010664D02*
X149693333Y-109010664D01*
X149693333Y-109010664D02*
X149788571Y-109058283D01*
X149360000Y-109629712D02*
X149455238Y-109677331D01*
X149455238Y-109677331D02*
X149693333Y-109677331D01*
X149693333Y-109677331D02*
X149788571Y-109629712D01*
X149788571Y-109629712D02*
X149836190Y-109534473D01*
X149836190Y-109534473D02*
X149836190Y-109439235D01*
X149836190Y-109439235D02*
X149788571Y-109343997D01*
X149788571Y-109343997D02*
X149693333Y-109296378D01*
X149693333Y-109296378D02*
X149455238Y-109296378D01*
X149455238Y-109296378D02*
X149360000Y-109248759D01*
X149026666Y-109010664D02*
X148645714Y-109010664D01*
X148883809Y-108677331D02*
X148883809Y-109534473D01*
X148883809Y-109534473D02*
X148836190Y-109629712D01*
X148836190Y-109629712D02*
X148740952Y-109677331D01*
X148740952Y-109677331D02*
X148645714Y-109677331D01*
X147883809Y-109629712D02*
X147979047Y-109677331D01*
X147979047Y-109677331D02*
X148169523Y-109677331D01*
X148169523Y-109677331D02*
X148264761Y-109629712D01*
X148264761Y-109629712D02*
X148312380Y-109582092D01*
X148312380Y-109582092D02*
X148359999Y-109486854D01*
X148359999Y-109486854D02*
X148359999Y-109201140D01*
X148359999Y-109201140D02*
X148312380Y-109105902D01*
X148312380Y-109105902D02*
X148264761Y-109058283D01*
X148264761Y-109058283D02*
X148169523Y-109010664D01*
X148169523Y-109010664D02*
X147979047Y-109010664D01*
X147979047Y-109010664D02*
X147883809Y-109058283D01*
X147455237Y-109677331D02*
X147455237Y-108677331D01*
X147026666Y-109677331D02*
X147026666Y-109153521D01*
X147026666Y-109153521D02*
X147074285Y-109058283D01*
X147074285Y-109058283D02*
X147169523Y-109010664D01*
X147169523Y-109010664D02*
X147312380Y-109010664D01*
X147312380Y-109010664D02*
X147407618Y-109058283D01*
X147407618Y-109058283D02*
X147455237Y-109105902D01*
X146121904Y-109677331D02*
X146121904Y-109153521D01*
X146121904Y-109153521D02*
X146169523Y-109058283D01*
X146169523Y-109058283D02*
X146264761Y-109010664D01*
X146264761Y-109010664D02*
X146455237Y-109010664D01*
X146455237Y-109010664D02*
X146550475Y-109058283D01*
X146121904Y-109629712D02*
X146217142Y-109677331D01*
X146217142Y-109677331D02*
X146455237Y-109677331D01*
X146455237Y-109677331D02*
X146550475Y-109629712D01*
X146550475Y-109629712D02*
X146598094Y-109534473D01*
X146598094Y-109534473D02*
X146598094Y-109439235D01*
X146598094Y-109439235D02*
X146550475Y-109343997D01*
X146550475Y-109343997D02*
X146455237Y-109296378D01*
X146455237Y-109296378D02*
X146217142Y-109296378D01*
X146217142Y-109296378D02*
X146121904Y-109248759D01*
X145645713Y-109677331D02*
X145645713Y-109010664D01*
X145645713Y-109105902D02*
X145598094Y-109058283D01*
X145598094Y-109058283D02*
X145502856Y-109010664D01*
X145502856Y-109010664D02*
X145359999Y-109010664D01*
X145359999Y-109010664D02*
X145264761Y-109058283D01*
X145264761Y-109058283D02*
X145217142Y-109153521D01*
X145217142Y-109153521D02*
X145217142Y-109677331D01*
X145217142Y-109153521D02*
X145169523Y-109058283D01*
X145169523Y-109058283D02*
X145074285Y-109010664D01*
X145074285Y-109010664D02*
X144931428Y-109010664D01*
X144931428Y-109010664D02*
X144836189Y-109058283D01*
X144836189Y-109058283D02*
X144788570Y-109153521D01*
X144788570Y-109153521D02*
X144788570Y-109677331D01*
X144264761Y-109629712D02*
X144264761Y-109677331D01*
X144264761Y-109677331D02*
X144312380Y-109772569D01*
X144312380Y-109772569D02*
X144359999Y-109820188D01*
X143074285Y-108677331D02*
X143074285Y-109486854D01*
X143074285Y-109486854D02*
X143026666Y-109582092D01*
X143026666Y-109582092D02*
X142979047Y-109629712D01*
X142979047Y-109629712D02*
X142883809Y-109677331D01*
X142883809Y-109677331D02*
X142693333Y-109677331D01*
X142693333Y-109677331D02*
X142598095Y-109629712D01*
X142598095Y-109629712D02*
X142550476Y-109582092D01*
X142550476Y-109582092D02*
X142502857Y-109486854D01*
X142502857Y-109486854D02*
X142502857Y-108677331D01*
X142026666Y-109677331D02*
X142026666Y-108677331D01*
X141455238Y-109677331D02*
X141883809Y-109105902D01*
X141455238Y-108677331D02*
X142026666Y-109248759D01*
X140407618Y-109010664D02*
X140026666Y-109010664D01*
X140264761Y-109677331D02*
X140264761Y-108820188D01*
X140264761Y-108820188D02*
X140217142Y-108724950D01*
X140217142Y-108724950D02*
X140121904Y-108677331D01*
X140121904Y-108677331D02*
X140026666Y-108677331D01*
X139550475Y-109677331D02*
X139645713Y-109629712D01*
X139645713Y-109629712D02*
X139693332Y-109582092D01*
X139693332Y-109582092D02*
X139740951Y-109486854D01*
X139740951Y-109486854D02*
X139740951Y-109201140D01*
X139740951Y-109201140D02*
X139693332Y-109105902D01*
X139693332Y-109105902D02*
X139645713Y-109058283D01*
X139645713Y-109058283D02*
X139550475Y-109010664D01*
X139550475Y-109010664D02*
X139407618Y-109010664D01*
X139407618Y-109010664D02*
X139312380Y-109058283D01*
X139312380Y-109058283D02*
X139264761Y-109105902D01*
X139264761Y-109105902D02*
X139217142Y-109201140D01*
X139217142Y-109201140D02*
X139217142Y-109486854D01*
X139217142Y-109486854D02*
X139264761Y-109582092D01*
X139264761Y-109582092D02*
X139312380Y-109629712D01*
X139312380Y-109629712D02*
X139407618Y-109677331D01*
X139407618Y-109677331D02*
X139550475Y-109677331D01*
X138788570Y-109677331D02*
X138788570Y-109010664D01*
X138788570Y-109201140D02*
X138740951Y-109105902D01*
X138740951Y-109105902D02*
X138693332Y-109058283D01*
X138693332Y-109058283D02*
X138598094Y-109010664D01*
X138598094Y-109010664D02*
X138502856Y-109010664D01*
X161860001Y-111287275D02*
X161860001Y-110287275D01*
X161860001Y-110287275D02*
X161288573Y-111287275D01*
X161288573Y-111287275D02*
X161288573Y-110287275D01*
X160431430Y-111239656D02*
X160526668Y-111287275D01*
X160526668Y-111287275D02*
X160717144Y-111287275D01*
X160717144Y-111287275D02*
X160812382Y-111239656D01*
X160812382Y-111239656D02*
X160860001Y-111144417D01*
X160860001Y-111144417D02*
X160860001Y-110763465D01*
X160860001Y-110763465D02*
X160812382Y-110668227D01*
X160812382Y-110668227D02*
X160717144Y-110620608D01*
X160717144Y-110620608D02*
X160526668Y-110620608D01*
X160526668Y-110620608D02*
X160431430Y-110668227D01*
X160431430Y-110668227D02*
X160383811Y-110763465D01*
X160383811Y-110763465D02*
X160383811Y-110858703D01*
X160383811Y-110858703D02*
X160860001Y-110953941D01*
X160050477Y-110620608D02*
X159860001Y-111287275D01*
X159860001Y-111287275D02*
X159669525Y-110811084D01*
X159669525Y-110811084D02*
X159479049Y-111287275D01*
X159479049Y-111287275D02*
X159288573Y-110620608D01*
X158907620Y-111287275D02*
X158907620Y-110287275D01*
X158907620Y-110668227D02*
X158812382Y-110620608D01*
X158812382Y-110620608D02*
X158621906Y-110620608D01*
X158621906Y-110620608D02*
X158526668Y-110668227D01*
X158526668Y-110668227D02*
X158479049Y-110715846D01*
X158479049Y-110715846D02*
X158431430Y-110811084D01*
X158431430Y-110811084D02*
X158431430Y-111096798D01*
X158431430Y-111096798D02*
X158479049Y-111192036D01*
X158479049Y-111192036D02*
X158526668Y-111239656D01*
X158526668Y-111239656D02*
X158621906Y-111287275D01*
X158621906Y-111287275D02*
X158812382Y-111287275D01*
X158812382Y-111287275D02*
X158907620Y-111239656D01*
X157574287Y-110620608D02*
X157574287Y-111287275D01*
X158002858Y-110620608D02*
X158002858Y-111144417D01*
X158002858Y-111144417D02*
X157955239Y-111239656D01*
X157955239Y-111239656D02*
X157860001Y-111287275D01*
X157860001Y-111287275D02*
X157717144Y-111287275D01*
X157717144Y-111287275D02*
X157621906Y-111239656D01*
X157621906Y-111239656D02*
X157574287Y-111192036D01*
X157098096Y-111287275D02*
X157098096Y-110620608D01*
X157098096Y-110811084D02*
X157050477Y-110715846D01*
X157050477Y-110715846D02*
X157002858Y-110668227D01*
X157002858Y-110668227D02*
X156907620Y-110620608D01*
X156907620Y-110620608D02*
X156812382Y-110620608D01*
X156574286Y-110620608D02*
X156336191Y-111287275D01*
X156098096Y-110620608D02*
X156336191Y-111287275D01*
X156336191Y-111287275D02*
X156431429Y-111525370D01*
X156431429Y-111525370D02*
X156479048Y-111572989D01*
X156479048Y-111572989D02*
X156574286Y-111620608D01*
X154526667Y-111287275D02*
X154526667Y-110763465D01*
X154526667Y-110763465D02*
X154574286Y-110668227D01*
X154574286Y-110668227D02*
X154669524Y-110620608D01*
X154669524Y-110620608D02*
X154860000Y-110620608D01*
X154860000Y-110620608D02*
X154955238Y-110668227D01*
X154526667Y-111239656D02*
X154621905Y-111287275D01*
X154621905Y-111287275D02*
X154860000Y-111287275D01*
X154860000Y-111287275D02*
X154955238Y-111239656D01*
X154955238Y-111239656D02*
X155002857Y-111144417D01*
X155002857Y-111144417D02*
X155002857Y-111049179D01*
X155002857Y-111049179D02*
X154955238Y-110953941D01*
X154955238Y-110953941D02*
X154860000Y-110906322D01*
X154860000Y-110906322D02*
X154621905Y-110906322D01*
X154621905Y-110906322D02*
X154526667Y-110858703D01*
X154050476Y-110620608D02*
X154050476Y-111287275D01*
X154050476Y-110715846D02*
X154002857Y-110668227D01*
X154002857Y-110668227D02*
X153907619Y-110620608D01*
X153907619Y-110620608D02*
X153764762Y-110620608D01*
X153764762Y-110620608D02*
X153669524Y-110668227D01*
X153669524Y-110668227D02*
X153621905Y-110763465D01*
X153621905Y-110763465D02*
X153621905Y-111287275D01*
X152717143Y-111287275D02*
X152717143Y-110287275D01*
X152717143Y-111239656D02*
X152812381Y-111287275D01*
X152812381Y-111287275D02*
X153002857Y-111287275D01*
X153002857Y-111287275D02*
X153098095Y-111239656D01*
X153098095Y-111239656D02*
X153145714Y-111192036D01*
X153145714Y-111192036D02*
X153193333Y-111096798D01*
X153193333Y-111096798D02*
X153193333Y-110811084D01*
X153193333Y-110811084D02*
X153145714Y-110715846D01*
X153145714Y-110715846D02*
X153098095Y-110668227D01*
X153098095Y-110668227D02*
X153002857Y-110620608D01*
X153002857Y-110620608D02*
X152812381Y-110620608D01*
X152812381Y-110620608D02*
X152717143Y-110668227D01*
X151479047Y-111287275D02*
X151479047Y-110287275D01*
X151479047Y-110287275D02*
X151240952Y-110287275D01*
X151240952Y-110287275D02*
X151098095Y-110334894D01*
X151098095Y-110334894D02*
X151002857Y-110430132D01*
X151002857Y-110430132D02*
X150955238Y-110525370D01*
X150955238Y-110525370D02*
X150907619Y-110715846D01*
X150907619Y-110715846D02*
X150907619Y-110858703D01*
X150907619Y-110858703D02*
X150955238Y-111049179D01*
X150955238Y-111049179D02*
X151002857Y-111144417D01*
X151002857Y-111144417D02*
X151098095Y-111239656D01*
X151098095Y-111239656D02*
X151240952Y-111287275D01*
X151240952Y-111287275D02*
X151479047Y-111287275D01*
X150479047Y-111287275D02*
X150479047Y-110620608D01*
X150479047Y-110287275D02*
X150526666Y-110334894D01*
X150526666Y-110334894D02*
X150479047Y-110382513D01*
X150479047Y-110382513D02*
X150431428Y-110334894D01*
X150431428Y-110334894D02*
X150479047Y-110287275D01*
X150479047Y-110287275D02*
X150479047Y-110382513D01*
X150050476Y-111239656D02*
X149955238Y-111287275D01*
X149955238Y-111287275D02*
X149764762Y-111287275D01*
X149764762Y-111287275D02*
X149669524Y-111239656D01*
X149669524Y-111239656D02*
X149621905Y-111144417D01*
X149621905Y-111144417D02*
X149621905Y-111096798D01*
X149621905Y-111096798D02*
X149669524Y-111001560D01*
X149669524Y-111001560D02*
X149764762Y-110953941D01*
X149764762Y-110953941D02*
X149907619Y-110953941D01*
X149907619Y-110953941D02*
X150002857Y-110906322D01*
X150002857Y-110906322D02*
X150050476Y-110811084D01*
X150050476Y-110811084D02*
X150050476Y-110763465D01*
X150050476Y-110763465D02*
X150002857Y-110668227D01*
X150002857Y-110668227D02*
X149907619Y-110620608D01*
X149907619Y-110620608D02*
X149764762Y-110620608D01*
X149764762Y-110620608D02*
X149669524Y-110668227D01*
X149336190Y-110620608D02*
X148955238Y-110620608D01*
X149193333Y-110287275D02*
X149193333Y-111144417D01*
X149193333Y-111144417D02*
X149145714Y-111239656D01*
X149145714Y-111239656D02*
X149050476Y-111287275D01*
X149050476Y-111287275D02*
X148955238Y-111287275D01*
X148621904Y-111287275D02*
X148621904Y-110620608D01*
X148621904Y-110811084D02*
X148574285Y-110715846D01*
X148574285Y-110715846D02*
X148526666Y-110668227D01*
X148526666Y-110668227D02*
X148431428Y-110620608D01*
X148431428Y-110620608D02*
X148336190Y-110620608D01*
X148002856Y-111287275D02*
X148002856Y-110620608D01*
X148002856Y-110287275D02*
X148050475Y-110334894D01*
X148050475Y-110334894D02*
X148002856Y-110382513D01*
X148002856Y-110382513D02*
X147955237Y-110334894D01*
X147955237Y-110334894D02*
X148002856Y-110287275D01*
X148002856Y-110287275D02*
X148002856Y-110382513D01*
X147098095Y-111239656D02*
X147193333Y-111287275D01*
X147193333Y-111287275D02*
X147383809Y-111287275D01*
X147383809Y-111287275D02*
X147479047Y-111239656D01*
X147479047Y-111239656D02*
X147526666Y-111192036D01*
X147526666Y-111192036D02*
X147574285Y-111096798D01*
X147574285Y-111096798D02*
X147574285Y-110811084D01*
X147574285Y-110811084D02*
X147526666Y-110715846D01*
X147526666Y-110715846D02*
X147479047Y-110668227D01*
X147479047Y-110668227D02*
X147383809Y-110620608D01*
X147383809Y-110620608D02*
X147193333Y-110620608D01*
X147193333Y-110620608D02*
X147098095Y-110668227D01*
X146812380Y-110620608D02*
X146431428Y-110620608D01*
X146669523Y-110287275D02*
X146669523Y-111144417D01*
X146669523Y-111144417D02*
X146621904Y-111239656D01*
X146621904Y-111239656D02*
X146526666Y-111287275D01*
X146526666Y-111287275D02*
X146431428Y-111287275D01*
X145336189Y-111287275D02*
X145336189Y-110287275D01*
X145336189Y-110763465D02*
X144764761Y-110763465D01*
X144764761Y-111287275D02*
X144764761Y-110287275D01*
X143859999Y-111287275D02*
X143859999Y-110763465D01*
X143859999Y-110763465D02*
X143907618Y-110668227D01*
X143907618Y-110668227D02*
X144002856Y-110620608D01*
X144002856Y-110620608D02*
X144193332Y-110620608D01*
X144193332Y-110620608D02*
X144288570Y-110668227D01*
X143859999Y-111239656D02*
X143955237Y-111287275D01*
X143955237Y-111287275D02*
X144193332Y-111287275D01*
X144193332Y-111287275D02*
X144288570Y-111239656D01*
X144288570Y-111239656D02*
X144336189Y-111144417D01*
X144336189Y-111144417D02*
X144336189Y-111049179D01*
X144336189Y-111049179D02*
X144288570Y-110953941D01*
X144288570Y-110953941D02*
X144193332Y-110906322D01*
X144193332Y-110906322D02*
X143955237Y-110906322D01*
X143955237Y-110906322D02*
X143859999Y-110858703D01*
X142955237Y-111239656D02*
X143050475Y-111287275D01*
X143050475Y-111287275D02*
X143240951Y-111287275D01*
X143240951Y-111287275D02*
X143336189Y-111239656D01*
X143336189Y-111239656D02*
X143383808Y-111192036D01*
X143383808Y-111192036D02*
X143431427Y-111096798D01*
X143431427Y-111096798D02*
X143431427Y-110811084D01*
X143431427Y-110811084D02*
X143383808Y-110715846D01*
X143383808Y-110715846D02*
X143336189Y-110668227D01*
X143336189Y-110668227D02*
X143240951Y-110620608D01*
X143240951Y-110620608D02*
X143050475Y-110620608D01*
X143050475Y-110620608D02*
X142955237Y-110668227D01*
X142526665Y-111287275D02*
X142526665Y-110287275D01*
X142431427Y-110906322D02*
X142145713Y-111287275D01*
X142145713Y-110620608D02*
X142526665Y-111001560D01*
X141764760Y-111239656D02*
X141669522Y-111287275D01*
X141669522Y-111287275D02*
X141479046Y-111287275D01*
X141479046Y-111287275D02*
X141383808Y-111239656D01*
X141383808Y-111239656D02*
X141336189Y-111144417D01*
X141336189Y-111144417D02*
X141336189Y-111096798D01*
X141336189Y-111096798D02*
X141383808Y-111001560D01*
X141383808Y-111001560D02*
X141479046Y-110953941D01*
X141479046Y-110953941D02*
X141621903Y-110953941D01*
X141621903Y-110953941D02*
X141717141Y-110906322D01*
X141717141Y-110906322D02*
X141764760Y-110811084D01*
X141764760Y-110811084D02*
X141764760Y-110763465D01*
X141764760Y-110763465D02*
X141717141Y-110668227D01*
X141717141Y-110668227D02*
X141621903Y-110620608D01*
X141621903Y-110620608D02*
X141479046Y-110620608D01*
X141479046Y-110620608D02*
X141383808Y-110668227D01*
X140907617Y-110620608D02*
X140907617Y-111620608D01*
X140907617Y-110668227D02*
X140812379Y-110620608D01*
X140812379Y-110620608D02*
X140621903Y-110620608D01*
X140621903Y-110620608D02*
X140526665Y-110668227D01*
X140526665Y-110668227D02*
X140479046Y-110715846D01*
X140479046Y-110715846D02*
X140431427Y-110811084D01*
X140431427Y-110811084D02*
X140431427Y-111096798D01*
X140431427Y-111096798D02*
X140479046Y-111192036D01*
X140479046Y-111192036D02*
X140526665Y-111239656D01*
X140526665Y-111239656D02*
X140621903Y-111287275D01*
X140621903Y-111287275D02*
X140812379Y-111287275D01*
X140812379Y-111287275D02*
X140907617Y-111239656D01*
X139574284Y-111287275D02*
X139574284Y-110763465D01*
X139574284Y-110763465D02*
X139621903Y-110668227D01*
X139621903Y-110668227D02*
X139717141Y-110620608D01*
X139717141Y-110620608D02*
X139907617Y-110620608D01*
X139907617Y-110620608D02*
X140002855Y-110668227D01*
X139574284Y-111239656D02*
X139669522Y-111287275D01*
X139669522Y-111287275D02*
X139907617Y-111287275D01*
X139907617Y-111287275D02*
X140002855Y-111239656D01*
X140002855Y-111239656D02*
X140050474Y-111144417D01*
X140050474Y-111144417D02*
X140050474Y-111049179D01*
X140050474Y-111049179D02*
X140002855Y-110953941D01*
X140002855Y-110953941D02*
X139907617Y-110906322D01*
X139907617Y-110906322D02*
X139669522Y-110906322D01*
X139669522Y-110906322D02*
X139574284Y-110858703D01*
X138669522Y-111239656D02*
X138764760Y-111287275D01*
X138764760Y-111287275D02*
X138955236Y-111287275D01*
X138955236Y-111287275D02*
X139050474Y-111239656D01*
X139050474Y-111239656D02*
X139098093Y-111192036D01*
X139098093Y-111192036D02*
X139145712Y-111096798D01*
X139145712Y-111096798D02*
X139145712Y-110811084D01*
X139145712Y-110811084D02*
X139098093Y-110715846D01*
X139098093Y-110715846D02*
X139050474Y-110668227D01*
X139050474Y-110668227D02*
X138955236Y-110620608D01*
X138955236Y-110620608D02*
X138764760Y-110620608D01*
X138764760Y-110620608D02*
X138669522Y-110668227D01*
X137859998Y-111239656D02*
X137955236Y-111287275D01*
X137955236Y-111287275D02*
X138145712Y-111287275D01*
X138145712Y-111287275D02*
X138240950Y-111239656D01*
X138240950Y-111239656D02*
X138288569Y-111144417D01*
X138288569Y-111144417D02*
X138288569Y-110763465D01*
X138288569Y-110763465D02*
X138240950Y-110668227D01*
X138240950Y-110668227D02*
X138145712Y-110620608D01*
X138145712Y-110620608D02*
X137955236Y-110620608D01*
X137955236Y-110620608D02*
X137859998Y-110668227D01*
X137859998Y-110668227D02*
X137812379Y-110763465D01*
X137812379Y-110763465D02*
X137812379Y-110858703D01*
X137812379Y-110858703D02*
X138288569Y-110953941D01*
X164121904Y-112373409D02*
X163979047Y-112421028D01*
X163979047Y-112421028D02*
X163931428Y-112468647D01*
X163931428Y-112468647D02*
X163883809Y-112563885D01*
X163883809Y-112563885D02*
X163883809Y-112706742D01*
X163883809Y-112706742D02*
X163931428Y-112801980D01*
X163931428Y-112801980D02*
X163979047Y-112849600D01*
X163979047Y-112849600D02*
X164074285Y-112897219D01*
X164074285Y-112897219D02*
X164455237Y-112897219D01*
X164455237Y-112897219D02*
X164455237Y-111897219D01*
X164455237Y-111897219D02*
X164121904Y-111897219D01*
X164121904Y-111897219D02*
X164026666Y-111944838D01*
X164026666Y-111944838D02*
X163979047Y-111992457D01*
X163979047Y-111992457D02*
X163931428Y-112087695D01*
X163931428Y-112087695D02*
X163931428Y-112182933D01*
X163931428Y-112182933D02*
X163979047Y-112278171D01*
X163979047Y-112278171D02*
X164026666Y-112325790D01*
X164026666Y-112325790D02*
X164121904Y-112373409D01*
X164121904Y-112373409D02*
X164455237Y-112373409D01*
X163550475Y-112230552D02*
X163312380Y-112897219D01*
X163074285Y-112230552D02*
X163312380Y-112897219D01*
X163312380Y-112897219D02*
X163407618Y-113135314D01*
X163407618Y-113135314D02*
X163455237Y-113182933D01*
X163455237Y-113182933D02*
X163550475Y-113230552D01*
X161979046Y-112611504D02*
X161502856Y-112611504D01*
X162074284Y-112897219D02*
X161740951Y-111897219D01*
X161740951Y-111897219D02*
X161407618Y-112897219D01*
X161074284Y-112801980D02*
X161026665Y-112849600D01*
X161026665Y-112849600D02*
X161074284Y-112897219D01*
X161074284Y-112897219D02*
X161121903Y-112849600D01*
X161121903Y-112849600D02*
X161074284Y-112801980D01*
X161074284Y-112801980D02*
X161074284Y-112897219D01*
X160598094Y-112897219D02*
X160598094Y-111897219D01*
X160598094Y-111897219D02*
X160359999Y-111897219D01*
X160359999Y-111897219D02*
X160217142Y-111944838D01*
X160217142Y-111944838D02*
X160121904Y-112040076D01*
X160121904Y-112040076D02*
X160074285Y-112135314D01*
X160074285Y-112135314D02*
X160026666Y-112325790D01*
X160026666Y-112325790D02*
X160026666Y-112468647D01*
X160026666Y-112468647D02*
X160074285Y-112659123D01*
X160074285Y-112659123D02*
X160121904Y-112754361D01*
X160121904Y-112754361D02*
X160217142Y-112849600D01*
X160217142Y-112849600D02*
X160359999Y-112897219D01*
X160359999Y-112897219D02*
X160598094Y-112897219D01*
X159598094Y-112801980D02*
X159550475Y-112849600D01*
X159550475Y-112849600D02*
X159598094Y-112897219D01*
X159598094Y-112897219D02*
X159645713Y-112849600D01*
X159645713Y-112849600D02*
X159598094Y-112801980D01*
X159598094Y-112801980D02*
X159598094Y-112897219D01*
X158645714Y-112897219D02*
X159121904Y-112897219D01*
X159121904Y-112897219D02*
X159121904Y-111897219D01*
X158312380Y-112897219D02*
X158312380Y-112230552D01*
X158312380Y-111897219D02*
X158359999Y-111944838D01*
X158359999Y-111944838D02*
X158312380Y-111992457D01*
X158312380Y-111992457D02*
X158264761Y-111944838D01*
X158264761Y-111944838D02*
X158312380Y-111897219D01*
X158312380Y-111897219D02*
X158312380Y-111992457D01*
X157836190Y-112230552D02*
X157836190Y-112897219D01*
X157836190Y-112325790D02*
X157788571Y-112278171D01*
X157788571Y-112278171D02*
X157693333Y-112230552D01*
X157693333Y-112230552D02*
X157550476Y-112230552D01*
X157550476Y-112230552D02*
X157455238Y-112278171D01*
X157455238Y-112278171D02*
X157407619Y-112373409D01*
X157407619Y-112373409D02*
X157407619Y-112897219D01*
X156502857Y-112897219D02*
X156502857Y-111897219D01*
X156502857Y-112849600D02*
X156598095Y-112897219D01*
X156598095Y-112897219D02*
X156788571Y-112897219D01*
X156788571Y-112897219D02*
X156883809Y-112849600D01*
X156883809Y-112849600D02*
X156931428Y-112801980D01*
X156931428Y-112801980D02*
X156979047Y-112706742D01*
X156979047Y-112706742D02*
X156979047Y-112421028D01*
X156979047Y-112421028D02*
X156931428Y-112325790D01*
X156931428Y-112325790D02*
X156883809Y-112278171D01*
X156883809Y-112278171D02*
X156788571Y-112230552D01*
X156788571Y-112230552D02*
X156598095Y-112230552D01*
X156598095Y-112230552D02*
X156502857Y-112278171D01*
X156074285Y-112849600D02*
X155979047Y-112897219D01*
X155979047Y-112897219D02*
X155788571Y-112897219D01*
X155788571Y-112897219D02*
X155693333Y-112849600D01*
X155693333Y-112849600D02*
X155645714Y-112754361D01*
X155645714Y-112754361D02*
X155645714Y-112706742D01*
X155645714Y-112706742D02*
X155693333Y-112611504D01*
X155693333Y-112611504D02*
X155788571Y-112563885D01*
X155788571Y-112563885D02*
X155931428Y-112563885D01*
X155931428Y-112563885D02*
X156026666Y-112516266D01*
X156026666Y-112516266D02*
X156074285Y-112421028D01*
X156074285Y-112421028D02*
X156074285Y-112373409D01*
X156074285Y-112373409D02*
X156026666Y-112278171D01*
X156026666Y-112278171D02*
X155931428Y-112230552D01*
X155931428Y-112230552D02*
X155788571Y-112230552D01*
X155788571Y-112230552D02*
X155693333Y-112278171D01*
X154788571Y-112897219D02*
X154788571Y-112373409D01*
X154788571Y-112373409D02*
X154836190Y-112278171D01*
X154836190Y-112278171D02*
X154931428Y-112230552D01*
X154931428Y-112230552D02*
X155121904Y-112230552D01*
X155121904Y-112230552D02*
X155217142Y-112278171D01*
X154788571Y-112849600D02*
X154883809Y-112897219D01*
X154883809Y-112897219D02*
X155121904Y-112897219D01*
X155121904Y-112897219D02*
X155217142Y-112849600D01*
X155217142Y-112849600D02*
X155264761Y-112754361D01*
X155264761Y-112754361D02*
X155264761Y-112659123D01*
X155264761Y-112659123D02*
X155217142Y-112563885D01*
X155217142Y-112563885D02*
X155121904Y-112516266D01*
X155121904Y-112516266D02*
X154883809Y-112516266D01*
X154883809Y-112516266D02*
X154788571Y-112468647D01*
X154407618Y-112230552D02*
X154169523Y-112897219D01*
X153931428Y-112230552D02*
X154169523Y-112897219D01*
X154169523Y-112897219D02*
X154264761Y-113135314D01*
X154264761Y-113135314D02*
X154312380Y-113182933D01*
X154312380Y-113182933D02*
X154407618Y-113230552D01*
X153502856Y-112849600D02*
X153502856Y-112897219D01*
X153502856Y-112897219D02*
X153550475Y-112992457D01*
X153550475Y-112992457D02*
X153598094Y-113040076D01*
X152455237Y-111897219D02*
X151883809Y-111897219D01*
X152169523Y-112897219D02*
X152169523Y-111897219D01*
X151550475Y-112897219D02*
X151550475Y-111897219D01*
X151121904Y-112897219D02*
X151121904Y-112373409D01*
X151121904Y-112373409D02*
X151169523Y-112278171D01*
X151169523Y-112278171D02*
X151264761Y-112230552D01*
X151264761Y-112230552D02*
X151407618Y-112230552D01*
X151407618Y-112230552D02*
X151502856Y-112278171D01*
X151502856Y-112278171D02*
X151550475Y-112325790D01*
X150645713Y-112897219D02*
X150645713Y-112230552D01*
X150645713Y-111897219D02*
X150693332Y-111944838D01*
X150693332Y-111944838D02*
X150645713Y-111992457D01*
X150645713Y-111992457D02*
X150598094Y-111944838D01*
X150598094Y-111944838D02*
X150645713Y-111897219D01*
X150645713Y-111897219D02*
X150645713Y-111992457D01*
X150169523Y-112230552D02*
X150169523Y-112897219D01*
X150169523Y-112325790D02*
X150121904Y-112278171D01*
X150121904Y-112278171D02*
X150026666Y-112230552D01*
X150026666Y-112230552D02*
X149883809Y-112230552D01*
X149883809Y-112230552D02*
X149788571Y-112278171D01*
X149788571Y-112278171D02*
X149740952Y-112373409D01*
X149740952Y-112373409D02*
X149740952Y-112897219D01*
X148836190Y-112230552D02*
X148836190Y-113040076D01*
X148836190Y-113040076D02*
X148883809Y-113135314D01*
X148883809Y-113135314D02*
X148931428Y-113182933D01*
X148931428Y-113182933D02*
X149026666Y-113230552D01*
X149026666Y-113230552D02*
X149169523Y-113230552D01*
X149169523Y-113230552D02*
X149264761Y-113182933D01*
X148836190Y-112849600D02*
X148931428Y-112897219D01*
X148931428Y-112897219D02*
X149121904Y-112897219D01*
X149121904Y-112897219D02*
X149217142Y-112849600D01*
X149217142Y-112849600D02*
X149264761Y-112801980D01*
X149264761Y-112801980D02*
X149312380Y-112706742D01*
X149312380Y-112706742D02*
X149312380Y-112421028D01*
X149312380Y-112421028D02*
X149264761Y-112325790D01*
X149264761Y-112325790D02*
X149217142Y-112278171D01*
X149217142Y-112278171D02*
X149121904Y-112230552D01*
X149121904Y-112230552D02*
X148931428Y-112230552D01*
X148931428Y-112230552D02*
X148836190Y-112278171D01*
X148359999Y-112897219D02*
X148359999Y-111897219D01*
X147883809Y-112230552D02*
X147883809Y-112897219D01*
X147883809Y-112325790D02*
X147836190Y-112278171D01*
X147836190Y-112278171D02*
X147740952Y-112230552D01*
X147740952Y-112230552D02*
X147598095Y-112230552D01*
X147598095Y-112230552D02*
X147502857Y-112278171D01*
X147502857Y-112278171D02*
X147455238Y-112373409D01*
X147455238Y-112373409D02*
X147455238Y-112897219D01*
X146979047Y-112230552D02*
X146979047Y-112897219D01*
X146979047Y-112325790D02*
X146931428Y-112278171D01*
X146931428Y-112278171D02*
X146836190Y-112230552D01*
X146836190Y-112230552D02*
X146693333Y-112230552D01*
X146693333Y-112230552D02*
X146598095Y-112278171D01*
X146598095Y-112278171D02*
X146550476Y-112373409D01*
X146550476Y-112373409D02*
X146550476Y-112897219D01*
X145931428Y-112897219D02*
X146026666Y-112849600D01*
X146026666Y-112849600D02*
X146074285Y-112801980D01*
X146074285Y-112801980D02*
X146121904Y-112706742D01*
X146121904Y-112706742D02*
X146121904Y-112421028D01*
X146121904Y-112421028D02*
X146074285Y-112325790D01*
X146074285Y-112325790D02*
X146026666Y-112278171D01*
X146026666Y-112278171D02*
X145931428Y-112230552D01*
X145931428Y-112230552D02*
X145788571Y-112230552D01*
X145788571Y-112230552D02*
X145693333Y-112278171D01*
X145693333Y-112278171D02*
X145645714Y-112325790D01*
X145645714Y-112325790D02*
X145598095Y-112421028D01*
X145598095Y-112421028D02*
X145598095Y-112706742D01*
X145598095Y-112706742D02*
X145645714Y-112801980D01*
X145645714Y-112801980D02*
X145693333Y-112849600D01*
X145693333Y-112849600D02*
X145788571Y-112897219D01*
X145788571Y-112897219D02*
X145931428Y-112897219D01*
X145264761Y-112230552D02*
X145026666Y-112897219D01*
X145026666Y-112897219D02*
X144788571Y-112230552D01*
X143979047Y-112897219D02*
X143979047Y-112373409D01*
X143979047Y-112373409D02*
X144026666Y-112278171D01*
X144026666Y-112278171D02*
X144121904Y-112230552D01*
X144121904Y-112230552D02*
X144312380Y-112230552D01*
X144312380Y-112230552D02*
X144407618Y-112278171D01*
X143979047Y-112849600D02*
X144074285Y-112897219D01*
X144074285Y-112897219D02*
X144312380Y-112897219D01*
X144312380Y-112897219D02*
X144407618Y-112849600D01*
X144407618Y-112849600D02*
X144455237Y-112754361D01*
X144455237Y-112754361D02*
X144455237Y-112659123D01*
X144455237Y-112659123D02*
X144407618Y-112563885D01*
X144407618Y-112563885D02*
X144312380Y-112516266D01*
X144312380Y-112516266D02*
X144074285Y-112516266D01*
X144074285Y-112516266D02*
X143979047Y-112468647D01*
X143645713Y-112230552D02*
X143264761Y-112230552D01*
X143502856Y-111897219D02*
X143502856Y-112754361D01*
X143502856Y-112754361D02*
X143455237Y-112849600D01*
X143455237Y-112849600D02*
X143359999Y-112897219D01*
X143359999Y-112897219D02*
X143264761Y-112897219D01*
X142931427Y-112897219D02*
X142931427Y-112230552D01*
X142931427Y-111897219D02*
X142979046Y-111944838D01*
X142979046Y-111944838D02*
X142931427Y-111992457D01*
X142931427Y-111992457D02*
X142883808Y-111944838D01*
X142883808Y-111944838D02*
X142931427Y-111897219D01*
X142931427Y-111897219D02*
X142931427Y-111992457D01*
X142312380Y-112897219D02*
X142407618Y-112849600D01*
X142407618Y-112849600D02*
X142455237Y-112801980D01*
X142455237Y-112801980D02*
X142502856Y-112706742D01*
X142502856Y-112706742D02*
X142502856Y-112421028D01*
X142502856Y-112421028D02*
X142455237Y-112325790D01*
X142455237Y-112325790D02*
X142407618Y-112278171D01*
X142407618Y-112278171D02*
X142312380Y-112230552D01*
X142312380Y-112230552D02*
X142169523Y-112230552D01*
X142169523Y-112230552D02*
X142074285Y-112278171D01*
X142074285Y-112278171D02*
X142026666Y-112325790D01*
X142026666Y-112325790D02*
X141979047Y-112421028D01*
X141979047Y-112421028D02*
X141979047Y-112706742D01*
X141979047Y-112706742D02*
X142026666Y-112801980D01*
X142026666Y-112801980D02*
X142074285Y-112849600D01*
X142074285Y-112849600D02*
X142169523Y-112897219D01*
X142169523Y-112897219D02*
X142312380Y-112897219D01*
X141550475Y-112230552D02*
X141550475Y-112897219D01*
X141550475Y-112325790D02*
X141502856Y-112278171D01*
X141502856Y-112278171D02*
X141407618Y-112230552D01*
X141407618Y-112230552D02*
X141264761Y-112230552D01*
X141264761Y-112230552D02*
X141169523Y-112278171D01*
X141169523Y-112278171D02*
X141121904Y-112373409D01*
X141121904Y-112373409D02*
X141121904Y-112897219D01*
X140693332Y-112849600D02*
X140598094Y-112897219D01*
X140598094Y-112897219D02*
X140407618Y-112897219D01*
X140407618Y-112897219D02*
X140312380Y-112849600D01*
X140312380Y-112849600D02*
X140264761Y-112754361D01*
X140264761Y-112754361D02*
X140264761Y-112706742D01*
X140264761Y-112706742D02*
X140312380Y-112611504D01*
X140312380Y-112611504D02*
X140407618Y-112563885D01*
X140407618Y-112563885D02*
X140550475Y-112563885D01*
X140550475Y-112563885D02*
X140645713Y-112516266D01*
X140645713Y-112516266D02*
X140693332Y-112421028D01*
X140693332Y-112421028D02*
X140693332Y-112373409D01*
X140693332Y-112373409D02*
X140645713Y-112278171D01*
X140645713Y-112278171D02*
X140550475Y-112230552D01*
X140550475Y-112230552D02*
X140407618Y-112230552D01*
X140407618Y-112230552D02*
X140312380Y-112278171D01*
X139788570Y-112849600D02*
X139788570Y-112897219D01*
X139788570Y-112897219D02*
X139836189Y-112992457D01*
X139836189Y-112992457D02*
X139883808Y-113040076D01*
X138645713Y-111992457D02*
X138598094Y-111944838D01*
X138598094Y-111944838D02*
X138502856Y-111897219D01*
X138502856Y-111897219D02*
X138264761Y-111897219D01*
X138264761Y-111897219D02*
X138169523Y-111944838D01*
X138169523Y-111944838D02*
X138121904Y-111992457D01*
X138121904Y-111992457D02*
X138074285Y-112087695D01*
X138074285Y-112087695D02*
X138074285Y-112182933D01*
X138074285Y-112182933D02*
X138121904Y-112325790D01*
X138121904Y-112325790D02*
X138693332Y-112897219D01*
X138693332Y-112897219D02*
X138074285Y-112897219D01*
X137455237Y-111897219D02*
X137359999Y-111897219D01*
X137359999Y-111897219D02*
X137264761Y-111944838D01*
X137264761Y-111944838D02*
X137217142Y-111992457D01*
X137217142Y-111992457D02*
X137169523Y-112087695D01*
X137169523Y-112087695D02*
X137121904Y-112278171D01*
X137121904Y-112278171D02*
X137121904Y-112516266D01*
X137121904Y-112516266D02*
X137169523Y-112706742D01*
X137169523Y-112706742D02*
X137217142Y-112801980D01*
X137217142Y-112801980D02*
X137264761Y-112849600D01*
X137264761Y-112849600D02*
X137359999Y-112897219D01*
X137359999Y-112897219D02*
X137455237Y-112897219D01*
X137455237Y-112897219D02*
X137550475Y-112849600D01*
X137550475Y-112849600D02*
X137598094Y-112801980D01*
X137598094Y-112801980D02*
X137645713Y-112706742D01*
X137645713Y-112706742D02*
X137693332Y-112516266D01*
X137693332Y-112516266D02*
X137693332Y-112278171D01*
X137693332Y-112278171D02*
X137645713Y-112087695D01*
X137645713Y-112087695D02*
X137598094Y-111992457D01*
X137598094Y-111992457D02*
X137550475Y-111944838D01*
X137550475Y-111944838D02*
X137455237Y-111897219D01*
X136740951Y-111992457D02*
X136693332Y-111944838D01*
X136693332Y-111944838D02*
X136598094Y-111897219D01*
X136598094Y-111897219D02*
X136359999Y-111897219D01*
X136359999Y-111897219D02*
X136264761Y-111944838D01*
X136264761Y-111944838D02*
X136217142Y-111992457D01*
X136217142Y-111992457D02*
X136169523Y-112087695D01*
X136169523Y-112087695D02*
X136169523Y-112182933D01*
X136169523Y-112182933D02*
X136217142Y-112325790D01*
X136217142Y-112325790D02*
X136788570Y-112897219D01*
X136788570Y-112897219D02*
X136169523Y-112897219D01*
X135264761Y-111897219D02*
X135740951Y-111897219D01*
X135740951Y-111897219D02*
X135788570Y-112373409D01*
X135788570Y-112373409D02*
X135740951Y-112325790D01*
X135740951Y-112325790D02*
X135645713Y-112278171D01*
X135645713Y-112278171D02*
X135407618Y-112278171D01*
X135407618Y-112278171D02*
X135312380Y-112325790D01*
X135312380Y-112325790D02*
X135264761Y-112373409D01*
X135264761Y-112373409D02*
X135217142Y-112468647D01*
X135217142Y-112468647D02*
X135217142Y-112706742D01*
X135217142Y-112706742D02*
X135264761Y-112801980D01*
X135264761Y-112801980D02*
X135312380Y-112849600D01*
X135312380Y-112849600D02*
X135407618Y-112897219D01*
X135407618Y-112897219D02*
X135645713Y-112897219D01*
X135645713Y-112897219D02*
X135740951Y-112849600D01*
X135740951Y-112849600D02*
X135788570Y-112801980D01*
D12*
X153115489Y-104980828D02*
X153115489Y-106195114D01*
X153115489Y-106195114D02*
X153044060Y-106337971D01*
X153044060Y-106337971D02*
X152972632Y-106409400D01*
X152972632Y-106409400D02*
X152829774Y-106480828D01*
X152829774Y-106480828D02*
X152544060Y-106480828D01*
X152544060Y-106480828D02*
X152401203Y-106409400D01*
X152401203Y-106409400D02*
X152329774Y-106337971D01*
X152329774Y-106337971D02*
X152258346Y-106195114D01*
X152258346Y-106195114D02*
X152258346Y-104980828D01*
X151615488Y-106409400D02*
X151401203Y-106480828D01*
X151401203Y-106480828D02*
X151044060Y-106480828D01*
X151044060Y-106480828D02*
X150901203Y-106409400D01*
X150901203Y-106409400D02*
X150829774Y-106337971D01*
X150829774Y-106337971D02*
X150758345Y-106195114D01*
X150758345Y-106195114D02*
X150758345Y-106052257D01*
X150758345Y-106052257D02*
X150829774Y-105909400D01*
X150829774Y-105909400D02*
X150901203Y-105837971D01*
X150901203Y-105837971D02*
X151044060Y-105766542D01*
X151044060Y-105766542D02*
X151329774Y-105695114D01*
X151329774Y-105695114D02*
X151472631Y-105623685D01*
X151472631Y-105623685D02*
X151544060Y-105552257D01*
X151544060Y-105552257D02*
X151615488Y-105409400D01*
X151615488Y-105409400D02*
X151615488Y-105266542D01*
X151615488Y-105266542D02*
X151544060Y-105123685D01*
X151544060Y-105123685D02*
X151472631Y-105052257D01*
X151472631Y-105052257D02*
X151329774Y-104980828D01*
X151329774Y-104980828D02*
X150972631Y-104980828D01*
X150972631Y-104980828D02*
X150758345Y-105052257D01*
X149615489Y-105695114D02*
X149401203Y-105766542D01*
X149401203Y-105766542D02*
X149329774Y-105837971D01*
X149329774Y-105837971D02*
X149258346Y-105980828D01*
X149258346Y-105980828D02*
X149258346Y-106195114D01*
X149258346Y-106195114D02*
X149329774Y-106337971D01*
X149329774Y-106337971D02*
X149401203Y-106409400D01*
X149401203Y-106409400D02*
X149544060Y-106480828D01*
X149544060Y-106480828D02*
X150115489Y-106480828D01*
X150115489Y-106480828D02*
X150115489Y-104980828D01*
X150115489Y-104980828D02*
X149615489Y-104980828D01*
X149615489Y-104980828D02*
X149472632Y-105052257D01*
X149472632Y-105052257D02*
X149401203Y-105123685D01*
X149401203Y-105123685D02*
X149329774Y-105266542D01*
X149329774Y-105266542D02*
X149329774Y-105409400D01*
X149329774Y-105409400D02*
X149401203Y-105552257D01*
X149401203Y-105552257D02*
X149472632Y-105623685D01*
X149472632Y-105623685D02*
X149615489Y-105695114D01*
X149615489Y-105695114D02*
X150115489Y-105695114D01*
X148615489Y-105909400D02*
X147472632Y-105909400D01*
X145901203Y-106337971D02*
X145972631Y-106409400D01*
X145972631Y-106409400D02*
X146186917Y-106480828D01*
X146186917Y-106480828D02*
X146329774Y-106480828D01*
X146329774Y-106480828D02*
X146544060Y-106409400D01*
X146544060Y-106409400D02*
X146686917Y-106266542D01*
X146686917Y-106266542D02*
X146758346Y-106123685D01*
X146758346Y-106123685D02*
X146829774Y-105837971D01*
X146829774Y-105837971D02*
X146829774Y-105623685D01*
X146829774Y-105623685D02*
X146758346Y-105337971D01*
X146758346Y-105337971D02*
X146686917Y-105195114D01*
X146686917Y-105195114D02*
X146544060Y-105052257D01*
X146544060Y-105052257D02*
X146329774Y-104980828D01*
X146329774Y-104980828D02*
X146186917Y-104980828D01*
X146186917Y-104980828D02*
X145972631Y-105052257D01*
X145972631Y-105052257D02*
X145901203Y-105123685D01*
X157181429Y-67360996D02*
X157181429Y-65860996D01*
X157181429Y-65860996D02*
X156324286Y-67360996D01*
X156324286Y-67360996D02*
X156324286Y-65860996D01*
X155681428Y-66932425D02*
X154967143Y-66932425D01*
X155824285Y-67360996D02*
X155324285Y-65860996D01*
X155324285Y-65860996D02*
X154824285Y-67360996D01*
X154324286Y-67360996D02*
X154324286Y-65860996D01*
X154324286Y-65860996D02*
X153967143Y-65860996D01*
X153967143Y-65860996D02*
X153752857Y-65932425D01*
X153752857Y-65932425D02*
X153610000Y-66075282D01*
X153610000Y-66075282D02*
X153538571Y-66218139D01*
X153538571Y-66218139D02*
X153467143Y-66503853D01*
X153467143Y-66503853D02*
X153467143Y-66718139D01*
X153467143Y-66718139D02*
X153538571Y-67003853D01*
X153538571Y-67003853D02*
X153610000Y-67146710D01*
X153610000Y-67146710D02*
X153752857Y-67289568D01*
X153752857Y-67289568D02*
X153967143Y-67360996D01*
X153967143Y-67360996D02*
X154324286Y-67360996D01*
X152824286Y-67360996D02*
X152824286Y-65860996D01*
X152824286Y-66575282D02*
X151967143Y-66575282D01*
X151967143Y-67360996D02*
X151967143Y-65860996D01*
X150610000Y-67360996D02*
X150610000Y-66575282D01*
X150610000Y-66575282D02*
X150681428Y-66432425D01*
X150681428Y-66432425D02*
X150824285Y-66360996D01*
X150824285Y-66360996D02*
X151110000Y-66360996D01*
X151110000Y-66360996D02*
X151252857Y-66432425D01*
X150610000Y-67289568D02*
X150752857Y-67360996D01*
X150752857Y-67360996D02*
X151110000Y-67360996D01*
X151110000Y-67360996D02*
X151252857Y-67289568D01*
X151252857Y-67289568D02*
X151324285Y-67146710D01*
X151324285Y-67146710D02*
X151324285Y-67003853D01*
X151324285Y-67003853D02*
X151252857Y-66860996D01*
X151252857Y-66860996D02*
X151110000Y-66789568D01*
X151110000Y-66789568D02*
X150752857Y-66789568D01*
X150752857Y-66789568D02*
X150610000Y-66718139D01*
X149252857Y-67289568D02*
X149395714Y-67360996D01*
X149395714Y-67360996D02*
X149681428Y-67360996D01*
X149681428Y-67360996D02*
X149824285Y-67289568D01*
X149824285Y-67289568D02*
X149895714Y-67218139D01*
X149895714Y-67218139D02*
X149967142Y-67075282D01*
X149967142Y-67075282D02*
X149967142Y-66646710D01*
X149967142Y-66646710D02*
X149895714Y-66503853D01*
X149895714Y-66503853D02*
X149824285Y-66432425D01*
X149824285Y-66432425D02*
X149681428Y-66360996D01*
X149681428Y-66360996D02*
X149395714Y-66360996D01*
X149395714Y-66360996D02*
X149252857Y-66432425D01*
X148610000Y-67360996D02*
X148610000Y-65860996D01*
X148467143Y-66789568D02*
X148038571Y-67360996D01*
X148038571Y-66360996D02*
X148610000Y-66932425D01*
X146395714Y-65860996D02*
X146038571Y-67360996D01*
X146038571Y-67360996D02*
X145752857Y-66289568D01*
X145752857Y-66289568D02*
X145467142Y-67360996D01*
X145467142Y-67360996D02*
X145110000Y-65860996D01*
X144538571Y-67360996D02*
X144538571Y-66360996D01*
X144538571Y-65860996D02*
X144609999Y-65932425D01*
X144609999Y-65932425D02*
X144538571Y-66003853D01*
X144538571Y-66003853D02*
X144467142Y-65932425D01*
X144467142Y-65932425D02*
X144538571Y-65860996D01*
X144538571Y-65860996D02*
X144538571Y-66003853D01*
X143324285Y-66575282D02*
X143824285Y-66575282D01*
X143824285Y-67360996D02*
X143824285Y-65860996D01*
X143824285Y-65860996D02*
X143109999Y-65860996D01*
X142538571Y-67360996D02*
X142538571Y-66360996D01*
X142538571Y-65860996D02*
X142609999Y-65932425D01*
X142609999Y-65932425D02*
X142538571Y-66003853D01*
X142538571Y-66003853D02*
X142467142Y-65932425D01*
X142467142Y-65932425D02*
X142538571Y-65860996D01*
X142538571Y-65860996D02*
X142538571Y-66003853D01*
X157645714Y-69633055D02*
X157717142Y-69704484D01*
X157717142Y-69704484D02*
X157931428Y-69775912D01*
X157931428Y-69775912D02*
X158074285Y-69775912D01*
X158074285Y-69775912D02*
X158288571Y-69704484D01*
X158288571Y-69704484D02*
X158431428Y-69561626D01*
X158431428Y-69561626D02*
X158502857Y-69418769D01*
X158502857Y-69418769D02*
X158574285Y-69133055D01*
X158574285Y-69133055D02*
X158574285Y-68918769D01*
X158574285Y-68918769D02*
X158502857Y-68633055D01*
X158502857Y-68633055D02*
X158431428Y-68490198D01*
X158431428Y-68490198D02*
X158288571Y-68347341D01*
X158288571Y-68347341D02*
X158074285Y-68275912D01*
X158074285Y-68275912D02*
X157931428Y-68275912D01*
X157931428Y-68275912D02*
X157717142Y-68347341D01*
X157717142Y-68347341D02*
X157645714Y-68418769D01*
X157002857Y-69775912D02*
X157002857Y-68275912D01*
X156360000Y-69775912D02*
X156360000Y-68990198D01*
X156360000Y-68990198D02*
X156431428Y-68847341D01*
X156431428Y-68847341D02*
X156574285Y-68775912D01*
X156574285Y-68775912D02*
X156788571Y-68775912D01*
X156788571Y-68775912D02*
X156931428Y-68847341D01*
X156931428Y-68847341D02*
X157002857Y-68918769D01*
X155645714Y-69775912D02*
X155645714Y-68775912D01*
X155645714Y-69061626D02*
X155574285Y-68918769D01*
X155574285Y-68918769D02*
X155502857Y-68847341D01*
X155502857Y-68847341D02*
X155359999Y-68775912D01*
X155359999Y-68775912D02*
X155217142Y-68775912D01*
X154717143Y-69775912D02*
X154717143Y-68775912D01*
X154717143Y-68275912D02*
X154788571Y-68347341D01*
X154788571Y-68347341D02*
X154717143Y-68418769D01*
X154717143Y-68418769D02*
X154645714Y-68347341D01*
X154645714Y-68347341D02*
X154717143Y-68275912D01*
X154717143Y-68275912D02*
X154717143Y-68418769D01*
X154074285Y-69704484D02*
X153931428Y-69775912D01*
X153931428Y-69775912D02*
X153645714Y-69775912D01*
X153645714Y-69775912D02*
X153502857Y-69704484D01*
X153502857Y-69704484D02*
X153431428Y-69561626D01*
X153431428Y-69561626D02*
X153431428Y-69490198D01*
X153431428Y-69490198D02*
X153502857Y-69347341D01*
X153502857Y-69347341D02*
X153645714Y-69275912D01*
X153645714Y-69275912D02*
X153860000Y-69275912D01*
X153860000Y-69275912D02*
X154002857Y-69204484D01*
X154002857Y-69204484D02*
X154074285Y-69061626D01*
X154074285Y-69061626D02*
X154074285Y-68990198D01*
X154074285Y-68990198D02*
X154002857Y-68847341D01*
X154002857Y-68847341D02*
X153860000Y-68775912D01*
X153860000Y-68775912D02*
X153645714Y-68775912D01*
X153645714Y-68775912D02*
X153502857Y-68847341D01*
X153002856Y-68775912D02*
X152431428Y-68775912D01*
X152788571Y-68275912D02*
X152788571Y-69561626D01*
X152788571Y-69561626D02*
X152717142Y-69704484D01*
X152717142Y-69704484D02*
X152574285Y-69775912D01*
X152574285Y-69775912D02*
X152431428Y-69775912D01*
X151931428Y-69775912D02*
X151931428Y-68775912D01*
X151931428Y-68918769D02*
X151859999Y-68847341D01*
X151859999Y-68847341D02*
X151717142Y-68775912D01*
X151717142Y-68775912D02*
X151502856Y-68775912D01*
X151502856Y-68775912D02*
X151359999Y-68847341D01*
X151359999Y-68847341D02*
X151288571Y-68990198D01*
X151288571Y-68990198D02*
X151288571Y-69775912D01*
X151288571Y-68990198D02*
X151217142Y-68847341D01*
X151217142Y-68847341D02*
X151074285Y-68775912D01*
X151074285Y-68775912D02*
X150859999Y-68775912D01*
X150859999Y-68775912D02*
X150717142Y-68847341D01*
X150717142Y-68847341D02*
X150645713Y-68990198D01*
X150645713Y-68990198D02*
X150645713Y-69775912D01*
X149288571Y-69775912D02*
X149288571Y-68990198D01*
X149288571Y-68990198D02*
X149359999Y-68847341D01*
X149359999Y-68847341D02*
X149502856Y-68775912D01*
X149502856Y-68775912D02*
X149788571Y-68775912D01*
X149788571Y-68775912D02*
X149931428Y-68847341D01*
X149288571Y-69704484D02*
X149431428Y-69775912D01*
X149431428Y-69775912D02*
X149788571Y-69775912D01*
X149788571Y-69775912D02*
X149931428Y-69704484D01*
X149931428Y-69704484D02*
X150002856Y-69561626D01*
X150002856Y-69561626D02*
X150002856Y-69418769D01*
X150002856Y-69418769D02*
X149931428Y-69275912D01*
X149931428Y-69275912D02*
X149788571Y-69204484D01*
X149788571Y-69204484D02*
X149431428Y-69204484D01*
X149431428Y-69204484D02*
X149288571Y-69133055D01*
X148645713Y-69704484D02*
X148502856Y-69775912D01*
X148502856Y-69775912D02*
X148217142Y-69775912D01*
X148217142Y-69775912D02*
X148074285Y-69704484D01*
X148074285Y-69704484D02*
X148002856Y-69561626D01*
X148002856Y-69561626D02*
X148002856Y-69490198D01*
X148002856Y-69490198D02*
X148074285Y-69347341D01*
X148074285Y-69347341D02*
X148217142Y-69275912D01*
X148217142Y-69275912D02*
X148431428Y-69275912D01*
X148431428Y-69275912D02*
X148574285Y-69204484D01*
X148574285Y-69204484D02*
X148645713Y-69061626D01*
X148645713Y-69061626D02*
X148645713Y-68990198D01*
X148645713Y-68990198D02*
X148574285Y-68847341D01*
X148574285Y-68847341D02*
X148431428Y-68775912D01*
X148431428Y-68775912D02*
X148217142Y-68775912D01*
X148217142Y-68775912D02*
X148074285Y-68847341D01*
X146288570Y-69704484D02*
X146074285Y-69775912D01*
X146074285Y-69775912D02*
X145717142Y-69775912D01*
X145717142Y-69775912D02*
X145574285Y-69704484D01*
X145574285Y-69704484D02*
X145502856Y-69633055D01*
X145502856Y-69633055D02*
X145431427Y-69490198D01*
X145431427Y-69490198D02*
X145431427Y-69347341D01*
X145431427Y-69347341D02*
X145502856Y-69204484D01*
X145502856Y-69204484D02*
X145574285Y-69133055D01*
X145574285Y-69133055D02*
X145717142Y-69061626D01*
X145717142Y-69061626D02*
X146002856Y-68990198D01*
X146002856Y-68990198D02*
X146145713Y-68918769D01*
X146145713Y-68918769D02*
X146217142Y-68847341D01*
X146217142Y-68847341D02*
X146288570Y-68704484D01*
X146288570Y-68704484D02*
X146288570Y-68561626D01*
X146288570Y-68561626D02*
X146217142Y-68418769D01*
X146217142Y-68418769D02*
X146145713Y-68347341D01*
X146145713Y-68347341D02*
X146002856Y-68275912D01*
X146002856Y-68275912D02*
X145645713Y-68275912D01*
X145645713Y-68275912D02*
X145431427Y-68347341D01*
X145002856Y-68775912D02*
X144431428Y-68775912D01*
X144788571Y-68275912D02*
X144788571Y-69561626D01*
X144788571Y-69561626D02*
X144717142Y-69704484D01*
X144717142Y-69704484D02*
X144574285Y-69775912D01*
X144574285Y-69775912D02*
X144431428Y-69775912D01*
X143288571Y-69775912D02*
X143288571Y-68990198D01*
X143288571Y-68990198D02*
X143359999Y-68847341D01*
X143359999Y-68847341D02*
X143502856Y-68775912D01*
X143502856Y-68775912D02*
X143788571Y-68775912D01*
X143788571Y-68775912D02*
X143931428Y-68847341D01*
X143288571Y-69704484D02*
X143431428Y-69775912D01*
X143431428Y-69775912D02*
X143788571Y-69775912D01*
X143788571Y-69775912D02*
X143931428Y-69704484D01*
X143931428Y-69704484D02*
X144002856Y-69561626D01*
X144002856Y-69561626D02*
X144002856Y-69418769D01*
X144002856Y-69418769D02*
X143931428Y-69275912D01*
X143931428Y-69275912D02*
X143788571Y-69204484D01*
X143788571Y-69204484D02*
X143431428Y-69204484D01*
X143431428Y-69204484D02*
X143288571Y-69133055D01*
X142574285Y-69775912D02*
X142574285Y-68775912D01*
X142574285Y-69061626D02*
X142502856Y-68918769D01*
X142502856Y-68918769D02*
X142431428Y-68847341D01*
X142431428Y-68847341D02*
X142288570Y-68775912D01*
X142288570Y-68775912D02*
X142145713Y-68775912D01*
X152145713Y-70690828D02*
X151645713Y-72190828D01*
X151645713Y-72190828D02*
X151145713Y-70690828D01*
X150717142Y-70833685D02*
X150645714Y-70762257D01*
X150645714Y-70762257D02*
X150502857Y-70690828D01*
X150502857Y-70690828D02*
X150145714Y-70690828D01*
X150145714Y-70690828D02*
X150002857Y-70762257D01*
X150002857Y-70762257D02*
X149931428Y-70833685D01*
X149931428Y-70833685D02*
X149859999Y-70976542D01*
X149859999Y-70976542D02*
X149859999Y-71119400D01*
X149859999Y-71119400D02*
X149931428Y-71333685D01*
X149931428Y-71333685D02*
X150788571Y-72190828D01*
X150788571Y-72190828D02*
X149859999Y-72190828D01*
X149217143Y-72047971D02*
X149145714Y-72119400D01*
X149145714Y-72119400D02*
X149217143Y-72190828D01*
X149217143Y-72190828D02*
X149288571Y-72119400D01*
X149288571Y-72119400D02*
X149217143Y-72047971D01*
X149217143Y-72047971D02*
X149217143Y-72190828D01*
X148217142Y-70690828D02*
X148074285Y-70690828D01*
X148074285Y-70690828D02*
X147931428Y-70762257D01*
X147931428Y-70762257D02*
X147860000Y-70833685D01*
X147860000Y-70833685D02*
X147788571Y-70976542D01*
X147788571Y-70976542D02*
X147717142Y-71262257D01*
X147717142Y-71262257D02*
X147717142Y-71619400D01*
X147717142Y-71619400D02*
X147788571Y-71905114D01*
X147788571Y-71905114D02*
X147860000Y-72047971D01*
X147860000Y-72047971D02*
X147931428Y-72119400D01*
X147931428Y-72119400D02*
X148074285Y-72190828D01*
X148074285Y-72190828D02*
X148217142Y-72190828D01*
X148217142Y-72190828D02*
X148360000Y-72119400D01*
X148360000Y-72119400D02*
X148431428Y-72047971D01*
X148431428Y-72047971D02*
X148502857Y-71905114D01*
X148502857Y-71905114D02*
X148574285Y-71619400D01*
X148574285Y-71619400D02*
X148574285Y-71262257D01*
X148574285Y-71262257D02*
X148502857Y-70976542D01*
X148502857Y-70976542D02*
X148431428Y-70833685D01*
X148431428Y-70833685D02*
X148360000Y-70762257D01*
X148360000Y-70762257D02*
X148217142Y-70690828D01*
D10*
X172831905Y-79092319D02*
X172689048Y-79139938D01*
X172689048Y-79139938D02*
X172641429Y-79187557D01*
X172641429Y-79187557D02*
X172593810Y-79282795D01*
X172593810Y-79282795D02*
X172593810Y-79425652D01*
X172593810Y-79425652D02*
X172641429Y-79520890D01*
X172641429Y-79520890D02*
X172689048Y-79568510D01*
X172689048Y-79568510D02*
X172784286Y-79616129D01*
X172784286Y-79616129D02*
X173165238Y-79616129D01*
X173165238Y-79616129D02*
X173165238Y-78616129D01*
X173165238Y-78616129D02*
X172831905Y-78616129D01*
X172831905Y-78616129D02*
X172736667Y-78663748D01*
X172736667Y-78663748D02*
X172689048Y-78711367D01*
X172689048Y-78711367D02*
X172641429Y-78806605D01*
X172641429Y-78806605D02*
X172641429Y-78901843D01*
X172641429Y-78901843D02*
X172689048Y-78997081D01*
X172689048Y-78997081D02*
X172736667Y-79044700D01*
X172736667Y-79044700D02*
X172831905Y-79092319D01*
X172831905Y-79092319D02*
X173165238Y-79092319D01*
X171736667Y-78949462D02*
X171736667Y-79616129D01*
X172165238Y-78949462D02*
X172165238Y-79473271D01*
X172165238Y-79473271D02*
X172117619Y-79568510D01*
X172117619Y-79568510D02*
X172022381Y-79616129D01*
X172022381Y-79616129D02*
X171879524Y-79616129D01*
X171879524Y-79616129D02*
X171784286Y-79568510D01*
X171784286Y-79568510D02*
X171736667Y-79520890D01*
X171403333Y-78949462D02*
X171022381Y-78949462D01*
X171260476Y-78616129D02*
X171260476Y-79473271D01*
X171260476Y-79473271D02*
X171212857Y-79568510D01*
X171212857Y-79568510D02*
X171117619Y-79616129D01*
X171117619Y-79616129D02*
X171022381Y-79616129D01*
X170831904Y-78949462D02*
X170450952Y-78949462D01*
X170689047Y-78616129D02*
X170689047Y-79473271D01*
X170689047Y-79473271D02*
X170641428Y-79568510D01*
X170641428Y-79568510D02*
X170546190Y-79616129D01*
X170546190Y-79616129D02*
X170450952Y-79616129D01*
X169974761Y-79616129D02*
X170069999Y-79568510D01*
X170069999Y-79568510D02*
X170117618Y-79520890D01*
X170117618Y-79520890D02*
X170165237Y-79425652D01*
X170165237Y-79425652D02*
X170165237Y-79139938D01*
X170165237Y-79139938D02*
X170117618Y-79044700D01*
X170117618Y-79044700D02*
X170069999Y-78997081D01*
X170069999Y-78997081D02*
X169974761Y-78949462D01*
X169974761Y-78949462D02*
X169831904Y-78949462D01*
X169831904Y-78949462D02*
X169736666Y-78997081D01*
X169736666Y-78997081D02*
X169689047Y-79044700D01*
X169689047Y-79044700D02*
X169641428Y-79139938D01*
X169641428Y-79139938D02*
X169641428Y-79425652D01*
X169641428Y-79425652D02*
X169689047Y-79520890D01*
X169689047Y-79520890D02*
X169736666Y-79568510D01*
X169736666Y-79568510D02*
X169831904Y-79616129D01*
X169831904Y-79616129D02*
X169974761Y-79616129D01*
X169212856Y-78949462D02*
X169212856Y-79616129D01*
X169212856Y-79044700D02*
X169165237Y-78997081D01*
X169165237Y-78997081D02*
X169069999Y-78949462D01*
X169069999Y-78949462D02*
X168927142Y-78949462D01*
X168927142Y-78949462D02*
X168831904Y-78997081D01*
X168831904Y-78997081D02*
X168784285Y-79092319D01*
X168784285Y-79092319D02*
X168784285Y-79616129D01*
X167593808Y-78711367D02*
X167546189Y-78663748D01*
X167546189Y-78663748D02*
X167450951Y-78616129D01*
X167450951Y-78616129D02*
X167212856Y-78616129D01*
X167212856Y-78616129D02*
X167117618Y-78663748D01*
X167117618Y-78663748D02*
X167069999Y-78711367D01*
X167069999Y-78711367D02*
X167022380Y-78806605D01*
X167022380Y-78806605D02*
X167022380Y-78901843D01*
X167022380Y-78901843D02*
X167069999Y-79044700D01*
X167069999Y-79044700D02*
X167641427Y-79616129D01*
X167641427Y-79616129D02*
X167022380Y-79616129D01*
D13*
X171513332Y-85088983D02*
X171370475Y-85136602D01*
X171370475Y-85136602D02*
X171132380Y-85136602D01*
X171132380Y-85136602D02*
X171037142Y-85088983D01*
X171037142Y-85088983D02*
X170989523Y-85041363D01*
X170989523Y-85041363D02*
X170941904Y-84946125D01*
X170941904Y-84946125D02*
X170941904Y-84850887D01*
X170941904Y-84850887D02*
X170989523Y-84755649D01*
X170989523Y-84755649D02*
X171037142Y-84708030D01*
X171037142Y-84708030D02*
X171132380Y-84660411D01*
X171132380Y-84660411D02*
X171322856Y-84612792D01*
X171322856Y-84612792D02*
X171418094Y-84565173D01*
X171418094Y-84565173D02*
X171465713Y-84517554D01*
X171465713Y-84517554D02*
X171513332Y-84422316D01*
X171513332Y-84422316D02*
X171513332Y-84327078D01*
X171513332Y-84327078D02*
X171465713Y-84231840D01*
X171465713Y-84231840D02*
X171418094Y-84184221D01*
X171418094Y-84184221D02*
X171322856Y-84136602D01*
X171322856Y-84136602D02*
X171084761Y-84136602D01*
X171084761Y-84136602D02*
X170941904Y-84184221D01*
X170608570Y-84136602D02*
X170370475Y-85136602D01*
X170370475Y-85136602D02*
X170179999Y-84422316D01*
X170179999Y-84422316D02*
X169989523Y-85136602D01*
X169989523Y-85136602D02*
X169751428Y-84136602D01*
X169418094Y-84231840D02*
X169370475Y-84184221D01*
X169370475Y-84184221D02*
X169275237Y-84136602D01*
X169275237Y-84136602D02*
X169037142Y-84136602D01*
X169037142Y-84136602D02*
X168941904Y-84184221D01*
X168941904Y-84184221D02*
X168894285Y-84231840D01*
X168894285Y-84231840D02*
X168846666Y-84327078D01*
X168846666Y-84327078D02*
X168846666Y-84422316D01*
X168846666Y-84422316D02*
X168894285Y-84565173D01*
X168894285Y-84565173D02*
X169465713Y-85136602D01*
X169465713Y-85136602D02*
X168846666Y-85136602D01*
X130344421Y-85180533D02*
X130201564Y-85228152D01*
X130201564Y-85228152D02*
X129963469Y-85228152D01*
X129963469Y-85228152D02*
X129868231Y-85180533D01*
X129868231Y-85180533D02*
X129820612Y-85132913D01*
X129820612Y-85132913D02*
X129772993Y-85037675D01*
X129772993Y-85037675D02*
X129772993Y-84942437D01*
X129772993Y-84942437D02*
X129820612Y-84847199D01*
X129820612Y-84847199D02*
X129868231Y-84799580D01*
X129868231Y-84799580D02*
X129963469Y-84751961D01*
X129963469Y-84751961D02*
X130153945Y-84704342D01*
X130153945Y-84704342D02*
X130249183Y-84656723D01*
X130249183Y-84656723D02*
X130296802Y-84609104D01*
X130296802Y-84609104D02*
X130344421Y-84513866D01*
X130344421Y-84513866D02*
X130344421Y-84418628D01*
X130344421Y-84418628D02*
X130296802Y-84323390D01*
X130296802Y-84323390D02*
X130249183Y-84275771D01*
X130249183Y-84275771D02*
X130153945Y-84228152D01*
X130153945Y-84228152D02*
X129915850Y-84228152D01*
X129915850Y-84228152D02*
X129772993Y-84275771D01*
X129439659Y-84228152D02*
X129201564Y-85228152D01*
X129201564Y-85228152D02*
X129011088Y-84513866D01*
X129011088Y-84513866D02*
X128820612Y-85228152D01*
X128820612Y-85228152D02*
X128582517Y-84228152D01*
X127677755Y-85228152D02*
X128249183Y-85228152D01*
X127963469Y-85228152D02*
X127963469Y-84228152D01*
X127963469Y-84228152D02*
X128058707Y-84371009D01*
X128058707Y-84371009D02*
X128153945Y-84466247D01*
X128153945Y-84466247D02*
X128249183Y-84513866D01*
X137864560Y-91833333D02*
X137388369Y-91500000D01*
X137864560Y-91261905D02*
X136864560Y-91261905D01*
X136864560Y-91261905D02*
X136864560Y-91642857D01*
X136864560Y-91642857D02*
X136912179Y-91738095D01*
X136912179Y-91738095D02*
X136959798Y-91785714D01*
X136959798Y-91785714D02*
X137055036Y-91833333D01*
X137055036Y-91833333D02*
X137197893Y-91833333D01*
X137197893Y-91833333D02*
X137293131Y-91785714D01*
X137293131Y-91785714D02*
X137340750Y-91738095D01*
X137340750Y-91738095D02*
X137388369Y-91642857D01*
X137388369Y-91642857D02*
X137388369Y-91261905D01*
X137864560Y-92785714D02*
X137864560Y-92214286D01*
X137864560Y-92500000D02*
X136864560Y-92500000D01*
X136864560Y-92500000D02*
X137007417Y-92404762D01*
X137007417Y-92404762D02*
X137102655Y-92309524D01*
X137102655Y-92309524D02*
X137150274Y-92214286D01*
X151282094Y-91833333D02*
X150805903Y-91500000D01*
X151282094Y-91261905D02*
X150282094Y-91261905D01*
X150282094Y-91261905D02*
X150282094Y-91642857D01*
X150282094Y-91642857D02*
X150329713Y-91738095D01*
X150329713Y-91738095D02*
X150377332Y-91785714D01*
X150377332Y-91785714D02*
X150472570Y-91833333D01*
X150472570Y-91833333D02*
X150615427Y-91833333D01*
X150615427Y-91833333D02*
X150710665Y-91785714D01*
X150710665Y-91785714D02*
X150758284Y-91738095D01*
X150758284Y-91738095D02*
X150805903Y-91642857D01*
X150805903Y-91642857D02*
X150805903Y-91261905D01*
X150377332Y-92214286D02*
X150329713Y-92261905D01*
X150329713Y-92261905D02*
X150282094Y-92357143D01*
X150282094Y-92357143D02*
X150282094Y-92595238D01*
X150282094Y-92595238D02*
X150329713Y-92690476D01*
X150329713Y-92690476D02*
X150377332Y-92738095D01*
X150377332Y-92738095D02*
X150472570Y-92785714D01*
X150472570Y-92785714D02*
X150567808Y-92785714D01*
X150567808Y-92785714D02*
X150710665Y-92738095D01*
X150710665Y-92738095D02*
X151282094Y-92166667D01*
X151282094Y-92166667D02*
X151282094Y-92785714D01*
D14*
X146046460Y-58012771D02*
X146074835Y-58040110D01*
X146157572Y-58123484D01*
X146267002Y-58236990D01*
X146397809Y-58374840D01*
X146544674Y-58531243D01*
X146702280Y-58700410D01*
X146865309Y-58876551D01*
X147028443Y-59053877D01*
X147186364Y-59226598D01*
X147333754Y-59388924D01*
X147465296Y-59535065D01*
X147575671Y-59659233D01*
X147659561Y-59755636D01*
X147711650Y-59818486D01*
X147726618Y-59841993D01*
X147721481Y-59844589D01*
X147672358Y-59872002D01*
X147575197Y-59927272D01*
X147434092Y-60008041D01*
X147253135Y-60111955D01*
X147036418Y-60236655D01*
X146788036Y-60379788D01*
X146512079Y-60538995D01*
X146212641Y-60711922D01*
X145893814Y-60896212D01*
X145559691Y-61089509D01*
X145434804Y-61161780D01*
X145106555Y-61351658D01*
X144795504Y-61531473D01*
X144505697Y-61698893D01*
X144241179Y-61851587D01*
X144005996Y-61987223D01*
X143804193Y-62103467D01*
X143639815Y-62197987D01*
X143516907Y-62268452D01*
X143439516Y-62312529D01*
X143411686Y-62327886D01*
X143412938Y-62319708D01*
X143435774Y-62272706D01*
X143477775Y-62197618D01*
X143503540Y-62153173D01*
X143558333Y-62058392D01*
X143638962Y-61918800D01*
X143742807Y-61738934D01*
X143867250Y-61523329D01*
X144009674Y-61276525D01*
X144167458Y-61003057D01*
X144337985Y-60707463D01*
X144518636Y-60394280D01*
X144706793Y-60068045D01*
X144891031Y-59748691D01*
X145070148Y-59438419D01*
X145238575Y-59146869D01*
X145393782Y-58878412D01*
X145533239Y-58637415D01*
X145654416Y-58428249D01*
X145754784Y-58255283D01*
X145831813Y-58122888D01*
X145882972Y-58035431D01*
X145905732Y-57997283D01*
X145952429Y-57924448D01*
X146046460Y-58012771D01*
G36*
X146046460Y-58012771D02*
G01*
X146074835Y-58040110D01*
X146157572Y-58123484D01*
X146267002Y-58236990D01*
X146397809Y-58374840D01*
X146544674Y-58531243D01*
X146702280Y-58700410D01*
X146865309Y-58876551D01*
X147028443Y-59053877D01*
X147186364Y-59226598D01*
X147333754Y-59388924D01*
X147465296Y-59535065D01*
X147575671Y-59659233D01*
X147659561Y-59755636D01*
X147711650Y-59818486D01*
X147726618Y-59841993D01*
X147721481Y-59844589D01*
X147672358Y-59872002D01*
X147575197Y-59927272D01*
X147434092Y-60008041D01*
X147253135Y-60111955D01*
X147036418Y-60236655D01*
X146788036Y-60379788D01*
X146512079Y-60538995D01*
X146212641Y-60711922D01*
X145893814Y-60896212D01*
X145559691Y-61089509D01*
X145434804Y-61161780D01*
X145106555Y-61351658D01*
X144795504Y-61531473D01*
X144505697Y-61698893D01*
X144241179Y-61851587D01*
X144005996Y-61987223D01*
X143804193Y-62103467D01*
X143639815Y-62197987D01*
X143516907Y-62268452D01*
X143439516Y-62312529D01*
X143411686Y-62327886D01*
X143412938Y-62319708D01*
X143435774Y-62272706D01*
X143477775Y-62197618D01*
X143503540Y-62153173D01*
X143558333Y-62058392D01*
X143638962Y-61918800D01*
X143742807Y-61738934D01*
X143867250Y-61523329D01*
X144009674Y-61276525D01*
X144167458Y-61003057D01*
X144337985Y-60707463D01*
X144518636Y-60394280D01*
X144706793Y-60068045D01*
X144891031Y-59748691D01*
X145070148Y-59438419D01*
X145238575Y-59146869D01*
X145393782Y-58878412D01*
X145533239Y-58637415D01*
X145654416Y-58428249D01*
X145754784Y-58255283D01*
X145831813Y-58122888D01*
X145882972Y-58035431D01*
X145905732Y-57997283D01*
X145952429Y-57924448D01*
X146046460Y-58012771D01*
G37*
X149571909Y-51674395D02*
X149594974Y-51709068D01*
X149645789Y-51792369D01*
X149721803Y-51919868D01*
X149820462Y-52087136D01*
X149939214Y-52289744D01*
X150075507Y-52523263D01*
X150226789Y-52783261D01*
X150390507Y-53065311D01*
X150564108Y-53364982D01*
X150745041Y-53677846D01*
X150930752Y-53999472D01*
X151118690Y-54325431D01*
X151306303Y-54651293D01*
X151491037Y-54972629D01*
X151670340Y-55285010D01*
X151841660Y-55584006D01*
X152002445Y-55865188D01*
X152150142Y-56124125D01*
X152282199Y-56356389D01*
X152396063Y-56557550D01*
X152489183Y-56723179D01*
X152559005Y-56848845D01*
X152602977Y-56930120D01*
X152618547Y-56962574D01*
X152618562Y-56962821D01*
X152593454Y-56996877D01*
X152521305Y-57054604D01*
X152409622Y-57130539D01*
X152265910Y-57219220D01*
X152169534Y-57275950D01*
X152030853Y-57354838D01*
X151934257Y-57404554D01*
X151873273Y-57427894D01*
X151841428Y-57427657D01*
X151832252Y-57406639D01*
X151831553Y-57403212D01*
X151805325Y-57361409D01*
X151748788Y-57290324D01*
X151672360Y-57203212D01*
X151637099Y-57165795D01*
X151527752Y-57065069D01*
X151406832Y-56978976D01*
X151267153Y-56904992D01*
X151101529Y-56840591D01*
X150902773Y-56783249D01*
X150663698Y-56730442D01*
X150377120Y-56679645D01*
X150035851Y-56628335D01*
X149643057Y-56570499D01*
X149263337Y-56508391D01*
X148931309Y-56446133D01*
X148639552Y-56381929D01*
X148380642Y-56313983D01*
X148147155Y-56240498D01*
X147931669Y-56159680D01*
X147726759Y-56069732D01*
X147576165Y-55995554D01*
X147432318Y-55917495D01*
X147318561Y-55847809D01*
X147243786Y-55791975D01*
X147216886Y-55755474D01*
X147217680Y-55752785D01*
X147239349Y-55709769D01*
X147288478Y-55619690D01*
X147362159Y-55487589D01*
X147457483Y-55318511D01*
X147571541Y-55117500D01*
X147701425Y-54889597D01*
X147844226Y-54639847D01*
X147997036Y-54373293D01*
X148156946Y-54094979D01*
X148321048Y-53809947D01*
X148486432Y-53523242D01*
X148650191Y-53239905D01*
X148809415Y-52964982D01*
X148961196Y-52703514D01*
X149102626Y-52460546D01*
X149230796Y-52241121D01*
X149342797Y-52050282D01*
X149435721Y-51893073D01*
X149506659Y-51774536D01*
X149552703Y-51699716D01*
X149570943Y-51673655D01*
X149571909Y-51674395D01*
G36*
X149571909Y-51674395D02*
G01*
X149594974Y-51709068D01*
X149645789Y-51792369D01*
X149721803Y-51919868D01*
X149820462Y-52087136D01*
X149939214Y-52289744D01*
X150075507Y-52523263D01*
X150226789Y-52783261D01*
X150390507Y-53065311D01*
X150564108Y-53364982D01*
X150745041Y-53677846D01*
X150930752Y-53999472D01*
X151118690Y-54325431D01*
X151306303Y-54651293D01*
X151491037Y-54972629D01*
X151670340Y-55285010D01*
X151841660Y-55584006D01*
X152002445Y-55865188D01*
X152150142Y-56124125D01*
X152282199Y-56356389D01*
X152396063Y-56557550D01*
X152489183Y-56723179D01*
X152559005Y-56848845D01*
X152602977Y-56930120D01*
X152618547Y-56962574D01*
X152618562Y-56962821D01*
X152593454Y-56996877D01*
X152521305Y-57054604D01*
X152409622Y-57130539D01*
X152265910Y-57219220D01*
X152169534Y-57275950D01*
X152030853Y-57354838D01*
X151934257Y-57404554D01*
X151873273Y-57427894D01*
X151841428Y-57427657D01*
X151832252Y-57406639D01*
X151831553Y-57403212D01*
X151805325Y-57361409D01*
X151748788Y-57290324D01*
X151672360Y-57203212D01*
X151637099Y-57165795D01*
X151527752Y-57065069D01*
X151406832Y-56978976D01*
X151267153Y-56904992D01*
X151101529Y-56840591D01*
X150902773Y-56783249D01*
X150663698Y-56730442D01*
X150377120Y-56679645D01*
X150035851Y-56628335D01*
X149643057Y-56570499D01*
X149263337Y-56508391D01*
X148931309Y-56446133D01*
X148639552Y-56381929D01*
X148380642Y-56313983D01*
X148147155Y-56240498D01*
X147931669Y-56159680D01*
X147726759Y-56069732D01*
X147576165Y-55995554D01*
X147432318Y-55917495D01*
X147318561Y-55847809D01*
X147243786Y-55791975D01*
X147216886Y-55755474D01*
X147217680Y-55752785D01*
X147239349Y-55709769D01*
X147288478Y-55619690D01*
X147362159Y-55487589D01*
X147457483Y-55318511D01*
X147571541Y-55117500D01*
X147701425Y-54889597D01*
X147844226Y-54639847D01*
X147997036Y-54373293D01*
X148156946Y-54094979D01*
X148321048Y-53809947D01*
X148486432Y-53523242D01*
X148650191Y-53239905D01*
X148809415Y-52964982D01*
X148961196Y-52703514D01*
X149102626Y-52460546D01*
X149230796Y-52241121D01*
X149342797Y-52050282D01*
X149435721Y-51893073D01*
X149506659Y-51774536D01*
X149552703Y-51699716D01*
X149570943Y-51673655D01*
X149571909Y-51674395D01*
G37*
X153300883Y-58120125D02*
X153312392Y-58137295D01*
X153353518Y-58204737D01*
X153421147Y-58318446D01*
X153512689Y-58473982D01*
X153625555Y-58666909D01*
X153757156Y-58892788D01*
X153904904Y-59147181D01*
X154066210Y-59425651D01*
X154238484Y-59723760D01*
X154419139Y-60037070D01*
X154468683Y-60123088D01*
X154664588Y-60463196D01*
X154861806Y-60805554D01*
X155056308Y-61143170D01*
X155244065Y-61469052D01*
X155421050Y-61776209D01*
X155583232Y-62057648D01*
X155726584Y-62306377D01*
X155847077Y-62515405D01*
X155940682Y-62677740D01*
X156382849Y-63444387D01*
X150182940Y-63444387D01*
X149926631Y-63444364D01*
X149315788Y-63444130D01*
X148723652Y-63443649D01*
X148153107Y-63442934D01*
X147607035Y-63441997D01*
X147088319Y-63440852D01*
X146599842Y-63439509D01*
X146144487Y-63437982D01*
X145725136Y-63436283D01*
X145344674Y-63434424D01*
X145005982Y-63432418D01*
X144711944Y-63430276D01*
X144465442Y-63428011D01*
X144269360Y-63425637D01*
X144126580Y-63423163D01*
X144039985Y-63420605D01*
X144012459Y-63417972D01*
X144032897Y-63404653D01*
X144103410Y-63362212D01*
X144219231Y-63293886D01*
X144375649Y-63202387D01*
X144567954Y-63090425D01*
X144791434Y-62960711D01*
X145041380Y-62815953D01*
X145313080Y-62658864D01*
X145601824Y-62492154D01*
X145902900Y-62318532D01*
X146211599Y-62140710D01*
X146523209Y-61961397D01*
X146833020Y-61783304D01*
X147136321Y-61609142D01*
X147428401Y-61441621D01*
X147704550Y-61283451D01*
X147960056Y-61137343D01*
X148190210Y-61006007D01*
X148390300Y-60892154D01*
X148555616Y-60798494D01*
X148681447Y-60727737D01*
X148763082Y-60682593D01*
X148795810Y-60665774D01*
X148817167Y-60669943D01*
X148881504Y-60707862D01*
X148973231Y-60778110D01*
X149082268Y-60873384D01*
X149180478Y-60968758D01*
X149305566Y-61098678D01*
X149445525Y-61250356D01*
X149593181Y-61415441D01*
X149741359Y-61585581D01*
X149882885Y-61752426D01*
X150010585Y-61907623D01*
X150117283Y-62042823D01*
X150195806Y-62149673D01*
X150238979Y-62219823D01*
X150267800Y-62271055D01*
X150346075Y-62377077D01*
X150446705Y-62489870D01*
X150555341Y-62594969D01*
X150657636Y-62677906D01*
X150739243Y-62724217D01*
X150829372Y-62734921D01*
X150949641Y-62705336D01*
X151063946Y-62637498D01*
X151152654Y-62540151D01*
X151168015Y-62514895D01*
X151187572Y-62473532D01*
X151200319Y-62423753D01*
X151207073Y-62354864D01*
X151208651Y-62256169D01*
X151205870Y-62116974D01*
X151199550Y-61926582D01*
X151195021Y-61816449D01*
X151185397Y-61642279D01*
X151174039Y-61489844D01*
X151162005Y-61372543D01*
X151150354Y-61303777D01*
X151122146Y-61225221D01*
X151038521Y-61070525D01*
X150908578Y-60887228D01*
X150730729Y-60673179D01*
X150503388Y-60426225D01*
X150404732Y-60322177D01*
X150290664Y-60199438D01*
X150196517Y-60095375D01*
X150130036Y-60018578D01*
X150098966Y-59977638D01*
X150095772Y-59971137D01*
X150091942Y-59943152D01*
X150111078Y-59912123D01*
X150161018Y-59871364D01*
X150249601Y-59814188D01*
X150384664Y-59733909D01*
X150499483Y-59666889D01*
X150710772Y-59544292D01*
X150877130Y-59449063D01*
X151004144Y-59378111D01*
X151097401Y-59328344D01*
X151162489Y-59296671D01*
X151204996Y-59279999D01*
X151248982Y-59261501D01*
X151274691Y-59236660D01*
X151277096Y-59230801D01*
X151314711Y-59198213D01*
X151383458Y-59156241D01*
X151492226Y-59097666D01*
X151572536Y-59172429D01*
X151600903Y-59202718D01*
X151666899Y-59285032D01*
X151747481Y-59394936D01*
X151831153Y-59517107D01*
X152009460Y-59787023D01*
X151995466Y-61186515D01*
X151893575Y-61285512D01*
X151859337Y-61320804D01*
X151749541Y-61479365D01*
X151685449Y-61667915D01*
X151663612Y-61895606D01*
X151669035Y-62017604D01*
X151707310Y-62232801D01*
X151777070Y-62429211D01*
X151872272Y-62586809D01*
X151938378Y-62644273D01*
X152055887Y-62687920D01*
X152188910Y-62692954D01*
X152320420Y-62661701D01*
X152433391Y-62596485D01*
X152510795Y-62499631D01*
X152513328Y-62494382D01*
X152560115Y-62398496D01*
X152609667Y-62298289D01*
X152651733Y-62204219D01*
X152712076Y-62045666D01*
X152778652Y-61850190D01*
X152849147Y-61626502D01*
X152921246Y-61383314D01*
X152992638Y-61129335D01*
X153061008Y-60873277D01*
X153124042Y-60623849D01*
X153179428Y-60389764D01*
X153224852Y-60179732D01*
X153258000Y-60002463D01*
X153276559Y-59866669D01*
X153278216Y-59781059D01*
X153274483Y-59761610D01*
X153238105Y-59663157D01*
X153170602Y-59531443D01*
X153077898Y-59378376D01*
X153042317Y-59323215D01*
X152899353Y-59098290D01*
X152777828Y-58901589D01*
X152680422Y-58737710D01*
X152609817Y-58611255D01*
X152568692Y-58526825D01*
X152559727Y-58489019D01*
X152560765Y-58487686D01*
X152597878Y-58460455D01*
X152677192Y-58410683D01*
X152787841Y-58344997D01*
X152918956Y-58270022D01*
X152930041Y-58263797D01*
X153072403Y-58185470D01*
X153171551Y-58135518D01*
X153236601Y-58110362D01*
X153276673Y-58106424D01*
X153300883Y-58120125D01*
G36*
X153300883Y-58120125D02*
G01*
X153312392Y-58137295D01*
X153353518Y-58204737D01*
X153421147Y-58318446D01*
X153512689Y-58473982D01*
X153625555Y-58666909D01*
X153757156Y-58892788D01*
X153904904Y-59147181D01*
X154066210Y-59425651D01*
X154238484Y-59723760D01*
X154419139Y-60037070D01*
X154468683Y-60123088D01*
X154664588Y-60463196D01*
X154861806Y-60805554D01*
X155056308Y-61143170D01*
X155244065Y-61469052D01*
X155421050Y-61776209D01*
X155583232Y-62057648D01*
X155726584Y-62306377D01*
X155847077Y-62515405D01*
X155940682Y-62677740D01*
X156382849Y-63444387D01*
X150182940Y-63444387D01*
X149926631Y-63444364D01*
X149315788Y-63444130D01*
X148723652Y-63443649D01*
X148153107Y-63442934D01*
X147607035Y-63441997D01*
X147088319Y-63440852D01*
X146599842Y-63439509D01*
X146144487Y-63437982D01*
X145725136Y-63436283D01*
X145344674Y-63434424D01*
X145005982Y-63432418D01*
X144711944Y-63430276D01*
X144465442Y-63428011D01*
X144269360Y-63425637D01*
X144126580Y-63423163D01*
X144039985Y-63420605D01*
X144012459Y-63417972D01*
X144032897Y-63404653D01*
X144103410Y-63362212D01*
X144219231Y-63293886D01*
X144375649Y-63202387D01*
X144567954Y-63090425D01*
X144791434Y-62960711D01*
X145041380Y-62815953D01*
X145313080Y-62658864D01*
X145601824Y-62492154D01*
X145902900Y-62318532D01*
X146211599Y-62140710D01*
X146523209Y-61961397D01*
X146833020Y-61783304D01*
X147136321Y-61609142D01*
X147428401Y-61441621D01*
X147704550Y-61283451D01*
X147960056Y-61137343D01*
X148190210Y-61006007D01*
X148390300Y-60892154D01*
X148555616Y-60798494D01*
X148681447Y-60727737D01*
X148763082Y-60682593D01*
X148795810Y-60665774D01*
X148817167Y-60669943D01*
X148881504Y-60707862D01*
X148973231Y-60778110D01*
X149082268Y-60873384D01*
X149180478Y-60968758D01*
X149305566Y-61098678D01*
X149445525Y-61250356D01*
X149593181Y-61415441D01*
X149741359Y-61585581D01*
X149882885Y-61752426D01*
X150010585Y-61907623D01*
X150117283Y-62042823D01*
X150195806Y-62149673D01*
X150238979Y-62219823D01*
X150267800Y-62271055D01*
X150346075Y-62377077D01*
X150446705Y-62489870D01*
X150555341Y-62594969D01*
X150657636Y-62677906D01*
X150739243Y-62724217D01*
X150829372Y-62734921D01*
X150949641Y-62705336D01*
X151063946Y-62637498D01*
X151152654Y-62540151D01*
X151168015Y-62514895D01*
X151187572Y-62473532D01*
X151200319Y-62423753D01*
X151207073Y-62354864D01*
X151208651Y-62256169D01*
X151205870Y-62116974D01*
X151199550Y-61926582D01*
X151195021Y-61816449D01*
X151185397Y-61642279D01*
X151174039Y-61489844D01*
X151162005Y-61372543D01*
X151150354Y-61303777D01*
X151122146Y-61225221D01*
X151038521Y-61070525D01*
X150908578Y-60887228D01*
X150730729Y-60673179D01*
X150503388Y-60426225D01*
X150404732Y-60322177D01*
X150290664Y-60199438D01*
X150196517Y-60095375D01*
X150130036Y-60018578D01*
X150098966Y-59977638D01*
X150095772Y-59971137D01*
X150091942Y-59943152D01*
X150111078Y-59912123D01*
X150161018Y-59871364D01*
X150249601Y-59814188D01*
X150384664Y-59733909D01*
X150499483Y-59666889D01*
X150710772Y-59544292D01*
X150877130Y-59449063D01*
X151004144Y-59378111D01*
X151097401Y-59328344D01*
X151162489Y-59296671D01*
X151204996Y-59279999D01*
X151248982Y-59261501D01*
X151274691Y-59236660D01*
X151277096Y-59230801D01*
X151314711Y-59198213D01*
X151383458Y-59156241D01*
X151492226Y-59097666D01*
X151572536Y-59172429D01*
X151600903Y-59202718D01*
X151666899Y-59285032D01*
X151747481Y-59394936D01*
X151831153Y-59517107D01*
X152009460Y-59787023D01*
X151995466Y-61186515D01*
X151893575Y-61285512D01*
X151859337Y-61320804D01*
X151749541Y-61479365D01*
X151685449Y-61667915D01*
X151663612Y-61895606D01*
X151669035Y-62017604D01*
X151707310Y-62232801D01*
X151777070Y-62429211D01*
X151872272Y-62586809D01*
X151938378Y-62644273D01*
X152055887Y-62687920D01*
X152188910Y-62692954D01*
X152320420Y-62661701D01*
X152433391Y-62596485D01*
X152510795Y-62499631D01*
X152513328Y-62494382D01*
X152560115Y-62398496D01*
X152609667Y-62298289D01*
X152651733Y-62204219D01*
X152712076Y-62045666D01*
X152778652Y-61850190D01*
X152849147Y-61626502D01*
X152921246Y-61383314D01*
X152992638Y-61129335D01*
X153061008Y-60873277D01*
X153124042Y-60623849D01*
X153179428Y-60389764D01*
X153224852Y-60179732D01*
X153258000Y-60002463D01*
X153276559Y-59866669D01*
X153278216Y-59781059D01*
X153274483Y-59761610D01*
X153238105Y-59663157D01*
X153170602Y-59531443D01*
X153077898Y-59378376D01*
X153042317Y-59323215D01*
X152899353Y-59098290D01*
X152777828Y-58901589D01*
X152680422Y-58737710D01*
X152609817Y-58611255D01*
X152568692Y-58526825D01*
X152559727Y-58489019D01*
X152560765Y-58487686D01*
X152597878Y-58460455D01*
X152677192Y-58410683D01*
X152787841Y-58344997D01*
X152918956Y-58270022D01*
X152930041Y-58263797D01*
X153072403Y-58185470D01*
X153171551Y-58135518D01*
X153236601Y-58110362D01*
X153276673Y-58106424D01*
X153300883Y-58120125D01*
G37*
D15*
G36*
X131914583Y-96744898D02*
G01*
X127223171Y-96744898D01*
X127223171Y-95602503D01*
X131914583Y-95602503D01*
X131914583Y-96744898D01*
G37*
G36*
X128607584Y-93279691D02*
G01*
X128615584Y-93280300D01*
X128623467Y-93281301D01*
X128631224Y-93282687D01*
X128638845Y-93284446D01*
X128646320Y-93286569D01*
X128653639Y-93289045D01*
X128660793Y-93291866D01*
X128667771Y-93295021D01*
X128674563Y-93298500D01*
X128681160Y-93302293D01*
X128687551Y-93306391D01*
X128693727Y-93310783D01*
X128699678Y-93315459D01*
X128705394Y-93320411D01*
X128710865Y-93325627D01*
X128716081Y-93331097D01*
X128721032Y-93336813D01*
X128725709Y-93342764D01*
X128730101Y-93348940D01*
X128734198Y-93355332D01*
X128737991Y-93361928D01*
X128741470Y-93368721D01*
X128744625Y-93375698D01*
X128747446Y-93382852D01*
X128749922Y-93390171D01*
X128752045Y-93397646D01*
X128753804Y-93405267D01*
X128755190Y-93413024D01*
X128756191Y-93420907D01*
X128756800Y-93428907D01*
X128757005Y-93437013D01*
X128756800Y-93445118D01*
X128756191Y-93453118D01*
X128755190Y-93461001D01*
X128753804Y-93468758D01*
X128752045Y-93476378D01*
X128749922Y-93483853D01*
X128747446Y-93491172D01*
X128744625Y-93498325D01*
X128741470Y-93505302D01*
X128737991Y-93512093D01*
X128734198Y-93518690D01*
X128730101Y-93525080D01*
X128725709Y-93531256D01*
X128721032Y-93537206D01*
X128716081Y-93542921D01*
X128710865Y-93548392D01*
X128705394Y-93553607D01*
X128699678Y-93558558D01*
X128693727Y-93563234D01*
X128687551Y-93567625D01*
X128681160Y-93571722D01*
X128674563Y-93575515D01*
X128667771Y-93578993D01*
X128660793Y-93582147D01*
X128653639Y-93584967D01*
X128646320Y-93587444D01*
X128638845Y-93589566D01*
X128631224Y-93591325D01*
X128623467Y-93592710D01*
X128615584Y-93593712D01*
X128607584Y-93594320D01*
X128599478Y-93594525D01*
X128591373Y-93594320D01*
X128583373Y-93593712D01*
X128575490Y-93592710D01*
X128567733Y-93591325D01*
X128560112Y-93589566D01*
X128552637Y-93587444D01*
X128545318Y-93584968D01*
X128538164Y-93582147D01*
X128531187Y-93578993D01*
X128524394Y-93575515D01*
X128517798Y-93571722D01*
X128511406Y-93567625D01*
X128505230Y-93563234D01*
X128499279Y-93558558D01*
X128493563Y-93553607D01*
X128488093Y-93548392D01*
X128482877Y-93542921D01*
X128477925Y-93537206D01*
X128473249Y-93531256D01*
X128468857Y-93525081D01*
X128464759Y-93518690D01*
X128460966Y-93512094D01*
X128457487Y-93505302D01*
X128454332Y-93498325D01*
X128451512Y-93491172D01*
X128449035Y-93483853D01*
X128446912Y-93476378D01*
X128445153Y-93468758D01*
X128443768Y-93461001D01*
X128442766Y-93453118D01*
X128442157Y-93445118D01*
X128441952Y-93437013D01*
X128442157Y-93428907D01*
X128442766Y-93420907D01*
X128443768Y-93413024D01*
X128445153Y-93405267D01*
X128446912Y-93397646D01*
X128449035Y-93390171D01*
X128451512Y-93382852D01*
X128454332Y-93375698D01*
X128457487Y-93368720D01*
X128460966Y-93361928D01*
X128464759Y-93355332D01*
X128468857Y-93348940D01*
X128473249Y-93342764D01*
X128477925Y-93336813D01*
X128482877Y-93331097D01*
X128488093Y-93325626D01*
X128493563Y-93320410D01*
X128499279Y-93315459D01*
X128505230Y-93310783D01*
X128511406Y-93306391D01*
X128517798Y-93302293D01*
X128524394Y-93298500D01*
X128531187Y-93295021D01*
X128538164Y-93291866D01*
X128545318Y-93289045D01*
X128552637Y-93286569D01*
X128560112Y-93284446D01*
X128567733Y-93282687D01*
X128575490Y-93281301D01*
X128583373Y-93280300D01*
X128591373Y-93279691D01*
X128599478Y-93279486D01*
X128607584Y-93279691D01*
G37*
G36*
X130683205Y-89484139D02*
G01*
X130705375Y-89501184D01*
X130726532Y-89518974D01*
X130746631Y-89537524D01*
X130765624Y-89556848D01*
X130783468Y-89576963D01*
X130800115Y-89597883D01*
X130815520Y-89619623D01*
X130829637Y-89642199D01*
X130842421Y-89665626D01*
X130853826Y-89689920D01*
X130855697Y-89694314D01*
X130857455Y-89698588D01*
X130859106Y-89702739D01*
X130860650Y-89706763D01*
X130862092Y-89710657D01*
X130863435Y-89714417D01*
X130864681Y-89718040D01*
X130865831Y-89721508D01*
X130865835Y-89721522D01*
X131037462Y-89721522D01*
X131037462Y-89883447D01*
X130842396Y-89883447D01*
X130841820Y-89890154D01*
X130801011Y-90364553D01*
X132371724Y-88710327D01*
X132371724Y-88894854D01*
X130783294Y-90570441D01*
X130767075Y-90758989D01*
X130603301Y-92662903D01*
X130624053Y-92684021D01*
X132272990Y-94362009D01*
X132177967Y-94455386D01*
X130588390Y-92836230D01*
X130524322Y-93580910D01*
X130523951Y-93584190D01*
X130523405Y-93587455D01*
X130522690Y-93590701D01*
X130521811Y-93593922D01*
X130520774Y-93597115D01*
X130519584Y-93600273D01*
X130518246Y-93603392D01*
X130516766Y-93606467D01*
X130515149Y-93609493D01*
X130513400Y-93612466D01*
X130509529Y-93618229D01*
X130505196Y-93623719D01*
X130500443Y-93628895D01*
X130495314Y-93633719D01*
X130489851Y-93638150D01*
X130484097Y-93642150D01*
X130478095Y-93645679D01*
X130475015Y-93647255D01*
X130471889Y-93648698D01*
X130468722Y-93650004D01*
X130465520Y-93651168D01*
X130462288Y-93652185D01*
X130459032Y-93653049D01*
X130455757Y-93653757D01*
X130452467Y-93654302D01*
X130452467Y-93898553D01*
X130152407Y-93898553D01*
X130152407Y-93654923D01*
X129011915Y-93654923D01*
X128996355Y-93682068D01*
X128979066Y-93708029D01*
X128960127Y-93732730D01*
X128939616Y-93756091D01*
X128917612Y-93778035D01*
X128894193Y-93798482D01*
X128869437Y-93817354D01*
X128843424Y-93834572D01*
X128816232Y-93850059D01*
X128787939Y-93863736D01*
X128758624Y-93875523D01*
X128728365Y-93885344D01*
X128697242Y-93893119D01*
X128665331Y-93898769D01*
X128632713Y-93902217D01*
X128599466Y-93903384D01*
X128575466Y-93902777D01*
X128551782Y-93900976D01*
X128528442Y-93898010D01*
X128505476Y-93893909D01*
X128482912Y-93888702D01*
X128460781Y-93882418D01*
X128439112Y-93875086D01*
X128417933Y-93866736D01*
X128397275Y-93857397D01*
X128377166Y-93847098D01*
X128357635Y-93835869D01*
X128338713Y-93823738D01*
X128320428Y-93810736D01*
X128302810Y-93796891D01*
X128285888Y-93782233D01*
X128269691Y-93766791D01*
X128254249Y-93750595D01*
X128239591Y-93733673D01*
X128225746Y-93716055D01*
X128212743Y-93697771D01*
X128200612Y-93678849D01*
X128189383Y-93659318D01*
X128179084Y-93639209D01*
X128169744Y-93618551D01*
X128161393Y-93597372D01*
X128154061Y-93575702D01*
X128147777Y-93553570D01*
X128142569Y-93531006D01*
X128138468Y-93508039D01*
X128135502Y-93484698D01*
X128133701Y-93461013D01*
X128133094Y-93437013D01*
X128356929Y-93437013D01*
X128357244Y-93449494D01*
X128358181Y-93461811D01*
X128359724Y-93473950D01*
X128361857Y-93485894D01*
X128364565Y-93497628D01*
X128367834Y-93509138D01*
X128371647Y-93520408D01*
X128375990Y-93531422D01*
X128380848Y-93542166D01*
X128386204Y-93552625D01*
X128392045Y-93562782D01*
X128398354Y-93572623D01*
X128405116Y-93582132D01*
X128412317Y-93591295D01*
X128419940Y-93600096D01*
X128427972Y-93608520D01*
X128436395Y-93616551D01*
X128445196Y-93624175D01*
X128454359Y-93631375D01*
X128463869Y-93638138D01*
X128473710Y-93644447D01*
X128483867Y-93650287D01*
X128494325Y-93655644D01*
X128505069Y-93660501D01*
X128516084Y-93664844D01*
X128527353Y-93668658D01*
X128538863Y-93671926D01*
X128550598Y-93674635D01*
X128562542Y-93676768D01*
X128574680Y-93678310D01*
X128586998Y-93679247D01*
X128599479Y-93679563D01*
X128611961Y-93679247D01*
X128624280Y-93678310D01*
X128636419Y-93676768D01*
X128648364Y-93674635D01*
X128660099Y-93671926D01*
X128671609Y-93668658D01*
X128682879Y-93664844D01*
X128693894Y-93660501D01*
X128704638Y-93655644D01*
X128715097Y-93650287D01*
X128725254Y-93644447D01*
X128735095Y-93638138D01*
X128744605Y-93631375D01*
X128753767Y-93624175D01*
X128762568Y-93616551D01*
X128770991Y-93608520D01*
X128779022Y-93600096D01*
X128786645Y-93591295D01*
X128793846Y-93582132D01*
X128800608Y-93572623D01*
X128806917Y-93562782D01*
X128812757Y-93552625D01*
X128818113Y-93542166D01*
X128822970Y-93531422D01*
X128827312Y-93520408D01*
X128831125Y-93509138D01*
X128834394Y-93497628D01*
X128837102Y-93485894D01*
X128839235Y-93473950D01*
X128840777Y-93461811D01*
X128841714Y-93449494D01*
X128842029Y-93437013D01*
X128841714Y-93424530D01*
X128840777Y-93412212D01*
X128839235Y-93400073D01*
X128837102Y-93388128D01*
X128834394Y-93376392D01*
X128831125Y-93364882D01*
X128827312Y-93353612D01*
X128822970Y-93342597D01*
X128818113Y-93331853D01*
X128812756Y-93321395D01*
X128806916Y-93311237D01*
X128800608Y-93301396D01*
X128793846Y-93291887D01*
X128786645Y-93282724D01*
X128779022Y-93273924D01*
X128770991Y-93265500D01*
X128762568Y-93257469D01*
X128753767Y-93249846D01*
X128744604Y-93242646D01*
X128735095Y-93235884D01*
X128725254Y-93229575D01*
X128715097Y-93223735D01*
X128704638Y-93218379D01*
X128693894Y-93213522D01*
X128682879Y-93209179D01*
X128671609Y-93205366D01*
X128660099Y-93202098D01*
X128648364Y-93199390D01*
X128636419Y-93197257D01*
X128624280Y-93195714D01*
X128611961Y-93194778D01*
X128599479Y-93194462D01*
X128586998Y-93194778D01*
X128574680Y-93195714D01*
X128562542Y-93197257D01*
X128550598Y-93199390D01*
X128538863Y-93202098D01*
X128527353Y-93205366D01*
X128516084Y-93209179D01*
X128505069Y-93213522D01*
X128494325Y-93218379D01*
X128483867Y-93223735D01*
X128473710Y-93229575D01*
X128463869Y-93235884D01*
X128454359Y-93242646D01*
X128445196Y-93249846D01*
X128436395Y-93257469D01*
X128427972Y-93265500D01*
X128419940Y-93273924D01*
X128412317Y-93282724D01*
X128405116Y-93291887D01*
X128398354Y-93301396D01*
X128392045Y-93311237D01*
X128386204Y-93321395D01*
X128380848Y-93331853D01*
X128375990Y-93342597D01*
X128371647Y-93353612D01*
X128367834Y-93364882D01*
X128364565Y-93376392D01*
X128361857Y-93388128D01*
X128359724Y-93400073D01*
X128358181Y-93412212D01*
X128357244Y-93424530D01*
X128356929Y-93437013D01*
X128133094Y-93437013D01*
X128133198Y-93427100D01*
X128133506Y-93417238D01*
X128134018Y-93407429D01*
X128134730Y-93397675D01*
X128135641Y-93387978D01*
X128136749Y-93378340D01*
X128138051Y-93368763D01*
X128139544Y-93359248D01*
X127116435Y-94438505D01*
X127019793Y-94346788D01*
X128459546Y-92830482D01*
X128640810Y-92830482D01*
X128654169Y-92973799D01*
X128675745Y-92976831D01*
X128696994Y-92980835D01*
X128717891Y-92985789D01*
X128738414Y-92991668D01*
X128758538Y-92998450D01*
X128778242Y-93006111D01*
X128797500Y-93014627D01*
X128816291Y-93023975D01*
X128834589Y-93034131D01*
X128852373Y-93045073D01*
X128869618Y-93056777D01*
X128886301Y-93069219D01*
X128902399Y-93082376D01*
X128917887Y-93096224D01*
X128932744Y-93110740D01*
X128946945Y-93125901D01*
X128960466Y-93141683D01*
X128973285Y-93158062D01*
X128985378Y-93175016D01*
X128996722Y-93192521D01*
X129007293Y-93210553D01*
X129017068Y-93229089D01*
X129026022Y-93248105D01*
X129034134Y-93267579D01*
X129041379Y-93287487D01*
X129047734Y-93307804D01*
X129053176Y-93328509D01*
X129057681Y-93349576D01*
X129061226Y-93370984D01*
X129063786Y-93392708D01*
X129065340Y-93414726D01*
X129065863Y-93437013D01*
X129065810Y-93444105D01*
X129065652Y-93451172D01*
X129065389Y-93458214D01*
X129065023Y-93465230D01*
X129064555Y-93472218D01*
X129063985Y-93479178D01*
X129063314Y-93486110D01*
X129062544Y-93493011D01*
X130369386Y-93493011D01*
X130438974Y-92684021D01*
X129594805Y-91824145D01*
X128640810Y-92830482D01*
X128459546Y-92830482D01*
X128476510Y-92812616D01*
X128279582Y-90699657D01*
X128442236Y-90699657D01*
X128624617Y-92656656D01*
X129503452Y-91731092D01*
X129501108Y-91728704D01*
X129685281Y-91728704D01*
X129687628Y-91731092D01*
X130453857Y-92510829D01*
X130604555Y-90758989D01*
X129685281Y-91728704D01*
X129501108Y-91728704D01*
X128460223Y-90668433D01*
X128460223Y-90699657D01*
X128442236Y-90699657D01*
X128279582Y-90699657D01*
X127910785Y-90699657D01*
X127910785Y-90280676D01*
X128052496Y-90280676D01*
X128052496Y-90554059D01*
X128266035Y-90554059D01*
X128257439Y-90461897D01*
X128079524Y-90280676D01*
X128052496Y-90280676D01*
X127910785Y-90280676D01*
X127910785Y-90135051D01*
X127936571Y-90135051D01*
X126697778Y-88873210D01*
X126697778Y-88688589D01*
X128119210Y-90135065D01*
X128226971Y-90135065D01*
X128204133Y-89890154D01*
X128366806Y-89890154D01*
X128389624Y-90135079D01*
X128460223Y-90135079D01*
X128460223Y-90482070D01*
X128530968Y-90554059D01*
X128851461Y-90880190D01*
X128851461Y-90692964D01*
X129843265Y-90692964D01*
X129843265Y-91016814D01*
X128985710Y-91016814D01*
X129593968Y-91635772D01*
X130622300Y-90552764D01*
X130679297Y-89890154D01*
X128366806Y-89890154D01*
X128204133Y-89890154D01*
X128203693Y-89885431D01*
X128198836Y-89887408D01*
X128193921Y-89889269D01*
X128188950Y-89891013D01*
X128183924Y-89892639D01*
X128178845Y-89894144D01*
X128173715Y-89895527D01*
X128168535Y-89896786D01*
X128163307Y-89897919D01*
X128158033Y-89898925D01*
X128152715Y-89899803D01*
X128147353Y-89900550D01*
X128141951Y-89901165D01*
X128136509Y-89901646D01*
X128131030Y-89901992D01*
X128125515Y-89902201D01*
X128119965Y-89902271D01*
X128108854Y-89901990D01*
X128097890Y-89901156D01*
X128087084Y-89899783D01*
X128076452Y-89897884D01*
X128066006Y-89895473D01*
X128055761Y-89892564D01*
X128045729Y-89889169D01*
X128035924Y-89885303D01*
X128026361Y-89880979D01*
X128017052Y-89876211D01*
X128008010Y-89871012D01*
X127999251Y-89865396D01*
X127990786Y-89859377D01*
X127982630Y-89852967D01*
X127974796Y-89846181D01*
X127967298Y-89839032D01*
X127960150Y-89831534D01*
X127953364Y-89823700D01*
X127946955Y-89815544D01*
X127940936Y-89807079D01*
X127935320Y-89798319D01*
X127930122Y-89789278D01*
X127925354Y-89779969D01*
X127921031Y-89770406D01*
X127917165Y-89760601D01*
X127913771Y-89750570D01*
X127910862Y-89740325D01*
X127908451Y-89729880D01*
X127906958Y-89721522D01*
X128373162Y-89721522D01*
X130254784Y-89721522D01*
X130254784Y-89574170D01*
X130531487Y-89574170D01*
X130531487Y-89721508D01*
X130692710Y-89721508D01*
X130686535Y-89710541D01*
X130679776Y-89699821D01*
X130672448Y-89689346D01*
X130664565Y-89679113D01*
X130656139Y-89669119D01*
X130647183Y-89659361D01*
X130637713Y-89649836D01*
X130627740Y-89640543D01*
X130617278Y-89631477D01*
X130606341Y-89622637D01*
X130594942Y-89614019D01*
X130583094Y-89605621D01*
X130570811Y-89597440D01*
X130558107Y-89589473D01*
X130544994Y-89581717D01*
X130531487Y-89574170D01*
X130254784Y-89574170D01*
X130254784Y-89475234D01*
X130201000Y-89463247D01*
X130146253Y-89452550D01*
X130090879Y-89443077D01*
X130035209Y-89434760D01*
X129979578Y-89427530D01*
X129924319Y-89421321D01*
X129869765Y-89416064D01*
X129816251Y-89411692D01*
X129816251Y-89417926D01*
X129816251Y-89579851D01*
X129020133Y-89579851D01*
X129020133Y-89428723D01*
X128966554Y-89436191D01*
X128913250Y-89444775D01*
X128860549Y-89454546D01*
X128808765Y-89465574D01*
X128758212Y-89477928D01*
X128709204Y-89491679D01*
X128662055Y-89506898D01*
X128617078Y-89523655D01*
X128574588Y-89542020D01*
X128534899Y-89562064D01*
X128516203Y-89572737D01*
X128498325Y-89583857D01*
X128481304Y-89595431D01*
X128465179Y-89607469D01*
X128449990Y-89619980D01*
X128435776Y-89632972D01*
X128422576Y-89646454D01*
X128410429Y-89660434D01*
X128399375Y-89674923D01*
X128389453Y-89689928D01*
X128380702Y-89705458D01*
X128373162Y-89721522D01*
X127906958Y-89721522D01*
X127906552Y-89719248D01*
X127905180Y-89708444D01*
X127904346Y-89697480D01*
X127904065Y-89686371D01*
X127904346Y-89675260D01*
X127905180Y-89664295D01*
X127906552Y-89653490D01*
X127908451Y-89642858D01*
X127910862Y-89632412D01*
X127913771Y-89622167D01*
X127917165Y-89612135D01*
X127921031Y-89602330D01*
X127925354Y-89592767D01*
X127930122Y-89583457D01*
X127935320Y-89574416D01*
X127940936Y-89565656D01*
X127946955Y-89557192D01*
X127953364Y-89549036D01*
X127960150Y-89541202D01*
X127967298Y-89533704D01*
X127974796Y-89526556D01*
X127982630Y-89519770D01*
X127990786Y-89513361D01*
X127999251Y-89507342D01*
X128008010Y-89501726D01*
X128017052Y-89496528D01*
X128026361Y-89491760D01*
X128035924Y-89487436D01*
X128045729Y-89483571D01*
X128055761Y-89480177D01*
X128066006Y-89477268D01*
X128076452Y-89474857D01*
X128087084Y-89472958D01*
X128097890Y-89471585D01*
X128108854Y-89470752D01*
X128119965Y-89470471D01*
X128132802Y-89470846D01*
X128145441Y-89471958D01*
X128157861Y-89473786D01*
X128170041Y-89476309D01*
X128181961Y-89479505D01*
X128193598Y-89483354D01*
X128204933Y-89487835D01*
X128215944Y-89492926D01*
X128226610Y-89498607D01*
X128236911Y-89504857D01*
X128246824Y-89511654D01*
X128256329Y-89518978D01*
X128265406Y-89526808D01*
X128274032Y-89535122D01*
X128282188Y-89543900D01*
X128289851Y-89553120D01*
X128319311Y-89521683D01*
X128351987Y-89492359D01*
X128387654Y-89465075D01*
X128426084Y-89439762D01*
X128467049Y-89416348D01*
X128510325Y-89394762D01*
X128555682Y-89374933D01*
X128602894Y-89356791D01*
X128641628Y-89343684D01*
X129182085Y-89343684D01*
X129182085Y-89417926D01*
X129654353Y-89417926D01*
X129654353Y-89343684D01*
X129182085Y-89343684D01*
X128641628Y-89343684D01*
X128651735Y-89340264D01*
X128701977Y-89325281D01*
X128753394Y-89311772D01*
X128805758Y-89299665D01*
X128858842Y-89288889D01*
X128912419Y-89279374D01*
X129020133Y-89263843D01*
X129020133Y-89181772D01*
X129816251Y-89181772D01*
X129816251Y-89245894D01*
X129869942Y-89249753D01*
X129924393Y-89254516D01*
X129979384Y-89260256D01*
X130034698Y-89267048D01*
X130090114Y-89274963D01*
X130145413Y-89284075D01*
X130200376Y-89294458D01*
X130254784Y-89306184D01*
X130254784Y-89289628D01*
X130531474Y-89289628D01*
X130531474Y-89396646D01*
X130558761Y-89409545D01*
X130585310Y-89423097D01*
X130611074Y-89437317D01*
X130636009Y-89452220D01*
X130660068Y-89467822D01*
X130670578Y-89475234D01*
X130683205Y-89484139D01*
G37*
D14*
X166035406Y-92444948D02*
X166061127Y-92460647D01*
X166087778Y-92482226D01*
X166087778Y-93129685D01*
X166061127Y-93151264D01*
X166029767Y-93168739D01*
X165993966Y-93169575D01*
X165962528Y-93149082D01*
X165958652Y-93144416D01*
X165953186Y-93134949D01*
X165948978Y-93121267D01*
X165945867Y-93100748D01*
X165943687Y-93070768D01*
X165942277Y-93028704D01*
X165941471Y-92971933D01*
X165941107Y-92897830D01*
X165941022Y-92803773D01*
X165941022Y-92482226D01*
X165967673Y-92460647D01*
X165991387Y-92445877D01*
X166014400Y-92439067D01*
X166035406Y-92444948D01*
G36*
X166035406Y-92444948D02*
G01*
X166061127Y-92460647D01*
X166087778Y-92482226D01*
X166087778Y-93129685D01*
X166061127Y-93151264D01*
X166029767Y-93168739D01*
X165993966Y-93169575D01*
X165962528Y-93149082D01*
X165958652Y-93144416D01*
X165953186Y-93134949D01*
X165948978Y-93121267D01*
X165945867Y-93100748D01*
X165943687Y-93070768D01*
X165942277Y-93028704D01*
X165941471Y-92971933D01*
X165941107Y-92897830D01*
X165941022Y-92803773D01*
X165941022Y-92482226D01*
X165967673Y-92460647D01*
X165991387Y-92445877D01*
X166014400Y-92439067D01*
X166035406Y-92444948D01*
G37*
X173166137Y-92443463D02*
X173200291Y-92466776D01*
X173228000Y-92494486D01*
X173228000Y-92807537D01*
X173227959Y-92891567D01*
X173227701Y-92965788D01*
X173227030Y-93022542D01*
X173225752Y-93064512D01*
X173223673Y-93094389D01*
X173220599Y-93114861D01*
X173216333Y-93128614D01*
X173210684Y-93138337D01*
X173203455Y-93146717D01*
X173171991Y-93168181D01*
X173136826Y-93169947D01*
X173103821Y-93150267D01*
X173098515Y-93144398D01*
X173093066Y-93135314D01*
X173088900Y-93121973D01*
X173085846Y-93101757D01*
X173083732Y-93072049D01*
X173082386Y-93030232D01*
X173081637Y-92973689D01*
X173081314Y-92899802D01*
X173081245Y-92805955D01*
X173081284Y-92730294D01*
X173081539Y-92652385D01*
X173082183Y-92592375D01*
X173083388Y-92547648D01*
X173085324Y-92515585D01*
X173088164Y-92493571D01*
X173092079Y-92478987D01*
X173097242Y-92469218D01*
X173103822Y-92461645D01*
X173133006Y-92442624D01*
X173166137Y-92443463D01*
G36*
X173166137Y-92443463D02*
G01*
X173200291Y-92466776D01*
X173228000Y-92494486D01*
X173228000Y-92807537D01*
X173227959Y-92891567D01*
X173227701Y-92965788D01*
X173227030Y-93022542D01*
X173225752Y-93064512D01*
X173223673Y-93094389D01*
X173220599Y-93114861D01*
X173216333Y-93128614D01*
X173210684Y-93138337D01*
X173203455Y-93146717D01*
X173171991Y-93168181D01*
X173136826Y-93169947D01*
X173103821Y-93150267D01*
X173098515Y-93144398D01*
X173093066Y-93135314D01*
X173088900Y-93121973D01*
X173085846Y-93101757D01*
X173083732Y-93072049D01*
X173082386Y-93030232D01*
X173081637Y-92973689D01*
X173081314Y-92899802D01*
X173081245Y-92805955D01*
X173081284Y-92730294D01*
X173081539Y-92652385D01*
X173082183Y-92592375D01*
X173083388Y-92547648D01*
X173085324Y-92515585D01*
X173088164Y-92493571D01*
X173092079Y-92478987D01*
X173097242Y-92469218D01*
X173103822Y-92461645D01*
X173133006Y-92442624D01*
X173166137Y-92443463D01*
G37*
X172634562Y-87202851D02*
X172717313Y-87230053D01*
X172792406Y-87275484D01*
X172864298Y-87341302D01*
X172902845Y-87385567D01*
X172942256Y-87443961D01*
X172967446Y-87504586D01*
X172980861Y-87573865D01*
X172984948Y-87658222D01*
X172984669Y-87704307D01*
X172982460Y-87745450D01*
X172976894Y-87777582D01*
X172966586Y-87808122D01*
X172950148Y-87844489D01*
X172936200Y-87871728D01*
X172877665Y-87957429D01*
X172805619Y-88026617D01*
X172721946Y-88077741D01*
X172628531Y-88109250D01*
X172595434Y-88116225D01*
X172554960Y-88123094D01*
X172521999Y-88124919D01*
X172487698Y-88121947D01*
X172443200Y-88114426D01*
X172391934Y-88102002D01*
X172301434Y-88064112D01*
X172222345Y-88009835D01*
X172156528Y-87941770D01*
X172105840Y-87862510D01*
X172072140Y-87774655D01*
X172057286Y-87680795D01*
X172063136Y-87583530D01*
X172089399Y-87487220D01*
X172134418Y-87398494D01*
X172195373Y-87323419D01*
X172270184Y-87263641D01*
X172356767Y-87220809D01*
X172453043Y-87196571D01*
X172556928Y-87192576D01*
X172634562Y-87202851D01*
G36*
X172634562Y-87202851D02*
G01*
X172717313Y-87230053D01*
X172792406Y-87275484D01*
X172864298Y-87341302D01*
X172902845Y-87385567D01*
X172942256Y-87443961D01*
X172967446Y-87504586D01*
X172980861Y-87573865D01*
X172984948Y-87658222D01*
X172984669Y-87704307D01*
X172982460Y-87745450D01*
X172976894Y-87777582D01*
X172966586Y-87808122D01*
X172950148Y-87844489D01*
X172936200Y-87871728D01*
X172877665Y-87957429D01*
X172805619Y-88026617D01*
X172721946Y-88077741D01*
X172628531Y-88109250D01*
X172595434Y-88116225D01*
X172554960Y-88123094D01*
X172521999Y-88124919D01*
X172487698Y-88121947D01*
X172443200Y-88114426D01*
X172391934Y-88102002D01*
X172301434Y-88064112D01*
X172222345Y-88009835D01*
X172156528Y-87941770D01*
X172105840Y-87862510D01*
X172072140Y-87774655D01*
X172057286Y-87680795D01*
X172063136Y-87583530D01*
X172089399Y-87487220D01*
X172134418Y-87398494D01*
X172195373Y-87323419D01*
X172270184Y-87263641D01*
X172356767Y-87220809D01*
X172453043Y-87196571D01*
X172556928Y-87192576D01*
X172634562Y-87202851D01*
G37*
X165429890Y-92439158D02*
X165504405Y-92439497D01*
X165561811Y-92440239D01*
X165604611Y-92441535D01*
X165635304Y-92443537D01*
X165656390Y-92446396D01*
X165670373Y-92450266D01*
X165679750Y-92455298D01*
X165687022Y-92461645D01*
X165705829Y-92494362D01*
X165707275Y-92531939D01*
X165690917Y-92565179D01*
X165689557Y-92566631D01*
X165678354Y-92574992D01*
X165661252Y-92580547D01*
X165634082Y-92583840D01*
X165592678Y-92585418D01*
X165532873Y-92585822D01*
X165393511Y-92585822D01*
X165393511Y-92849589D01*
X165393436Y-92925417D01*
X165393029Y-92992083D01*
X165392046Y-93041867D01*
X165390250Y-93077784D01*
X165387399Y-93102850D01*
X165383253Y-93120081D01*
X165377571Y-93132492D01*
X165370114Y-93143100D01*
X165367824Y-93145906D01*
X165336646Y-93168548D01*
X165302266Y-93170112D01*
X165269334Y-93150267D01*
X165262354Y-93142191D01*
X165256883Y-93131593D01*
X165252863Y-93115749D01*
X165250072Y-93091773D01*
X165248288Y-93056773D01*
X165247289Y-93007863D01*
X165246852Y-92942153D01*
X165246756Y-92856756D01*
X165246756Y-92585822D01*
X165100819Y-92585822D01*
X165089720Y-92585821D01*
X165033202Y-92585596D01*
X164994357Y-92584457D01*
X164968965Y-92581657D01*
X164952804Y-92576450D01*
X164941653Y-92568089D01*
X164931289Y-92555826D01*
X164915442Y-92525138D01*
X164918543Y-92491358D01*
X164944188Y-92458822D01*
X164949129Y-92455105D01*
X164959338Y-92450269D01*
X164974764Y-92446506D01*
X164997886Y-92443683D01*
X165031183Y-92441670D01*
X165077137Y-92440333D01*
X165138228Y-92439542D01*
X165216936Y-92439163D01*
X165315740Y-92439067D01*
X165335767Y-92439067D01*
X165429890Y-92439158D01*
G36*
X165429890Y-92439158D02*
G01*
X165504405Y-92439497D01*
X165561811Y-92440239D01*
X165604611Y-92441535D01*
X165635304Y-92443537D01*
X165656390Y-92446396D01*
X165670373Y-92450266D01*
X165679750Y-92455298D01*
X165687022Y-92461645D01*
X165705829Y-92494362D01*
X165707275Y-92531939D01*
X165690917Y-92565179D01*
X165689557Y-92566631D01*
X165678354Y-92574992D01*
X165661252Y-92580547D01*
X165634082Y-92583840D01*
X165592678Y-92585418D01*
X165532873Y-92585822D01*
X165393511Y-92585822D01*
X165393511Y-92849589D01*
X165393436Y-92925417D01*
X165393029Y-92992083D01*
X165392046Y-93041867D01*
X165390250Y-93077784D01*
X165387399Y-93102850D01*
X165383253Y-93120081D01*
X165377571Y-93132492D01*
X165370114Y-93143100D01*
X165367824Y-93145906D01*
X165336646Y-93168548D01*
X165302266Y-93170112D01*
X165269334Y-93150267D01*
X165262354Y-93142191D01*
X165256883Y-93131593D01*
X165252863Y-93115749D01*
X165250072Y-93091773D01*
X165248288Y-93056773D01*
X165247289Y-93007863D01*
X165246852Y-92942153D01*
X165246756Y-92856756D01*
X165246756Y-92585822D01*
X165100819Y-92585822D01*
X165089720Y-92585821D01*
X165033202Y-92585596D01*
X164994357Y-92584457D01*
X164968965Y-92581657D01*
X164952804Y-92576450D01*
X164941653Y-92568089D01*
X164931289Y-92555826D01*
X164915442Y-92525138D01*
X164918543Y-92491358D01*
X164944188Y-92458822D01*
X164949129Y-92455105D01*
X164959338Y-92450269D01*
X164974764Y-92446506D01*
X164997886Y-92443683D01*
X165031183Y-92441670D01*
X165077137Y-92440333D01*
X165138228Y-92439542D01*
X165216936Y-92439163D01*
X165315740Y-92439067D01*
X165335767Y-92439067D01*
X165429890Y-92439158D01*
G37*
X164659734Y-92461645D02*
X164665366Y-92467835D01*
X164670456Y-92476041D01*
X164674543Y-92487817D01*
X164677721Y-92505276D01*
X164680087Y-92530530D01*
X164681738Y-92565690D01*
X164682769Y-92612869D01*
X164683276Y-92674177D01*
X164683359Y-92751727D01*
X164683109Y-92847631D01*
X164682625Y-92964000D01*
X164682557Y-92978175D01*
X164681970Y-93039937D01*
X164680647Y-93083620D01*
X164678103Y-93113001D01*
X164673848Y-93131855D01*
X164667396Y-93143959D01*
X164658262Y-93153089D01*
X164624804Y-93170506D01*
X164589856Y-93167604D01*
X164558953Y-93143100D01*
X164549944Y-93129897D01*
X164542492Y-93111361D01*
X164538124Y-93085333D01*
X164536070Y-93046787D01*
X164535555Y-92990700D01*
X164535555Y-92868045D01*
X164038845Y-92868045D01*
X164038845Y-93002871D01*
X164038772Y-93038662D01*
X164038009Y-93084992D01*
X164035833Y-93115526D01*
X164031536Y-93134557D01*
X164024412Y-93146374D01*
X164013755Y-93155271D01*
X163981504Y-93170341D01*
X163946217Y-93167673D01*
X163915486Y-93143100D01*
X163910831Y-93136845D01*
X163904895Y-93126321D01*
X163900364Y-93112391D01*
X163897048Y-93092317D01*
X163894759Y-93063360D01*
X163893308Y-93022781D01*
X163892505Y-92967840D01*
X163892162Y-92895799D01*
X163892089Y-92803920D01*
X163892089Y-92494486D01*
X163919798Y-92466776D01*
X163951177Y-92444533D01*
X163984406Y-92441844D01*
X164016267Y-92461645D01*
X164024553Y-92471415D01*
X164031965Y-92487307D01*
X164036302Y-92511275D01*
X164038338Y-92548148D01*
X164038845Y-92602756D01*
X164038845Y-92721289D01*
X164535556Y-92721289D01*
X164535556Y-92605776D01*
X164535994Y-92554078D01*
X164537958Y-92519554D01*
X164542474Y-92496978D01*
X164550567Y-92481126D01*
X164563265Y-92466775D01*
X164594643Y-92444533D01*
X164627872Y-92441844D01*
X164659734Y-92461645D01*
G36*
X164659734Y-92461645D02*
G01*
X164665366Y-92467835D01*
X164670456Y-92476041D01*
X164674543Y-92487817D01*
X164677721Y-92505276D01*
X164680087Y-92530530D01*
X164681738Y-92565690D01*
X164682769Y-92612869D01*
X164683276Y-92674177D01*
X164683359Y-92751727D01*
X164683109Y-92847631D01*
X164682625Y-92964000D01*
X164682557Y-92978175D01*
X164681970Y-93039937D01*
X164680647Y-93083620D01*
X164678103Y-93113001D01*
X164673848Y-93131855D01*
X164667396Y-93143959D01*
X164658262Y-93153089D01*
X164624804Y-93170506D01*
X164589856Y-93167604D01*
X164558953Y-93143100D01*
X164549944Y-93129897D01*
X164542492Y-93111361D01*
X164538124Y-93085333D01*
X164536070Y-93046787D01*
X164535555Y-92990700D01*
X164535555Y-92868045D01*
X164038845Y-92868045D01*
X164038845Y-93002871D01*
X164038772Y-93038662D01*
X164038009Y-93084992D01*
X164035833Y-93115526D01*
X164031536Y-93134557D01*
X164024412Y-93146374D01*
X164013755Y-93155271D01*
X163981504Y-93170341D01*
X163946217Y-93167673D01*
X163915486Y-93143100D01*
X163910831Y-93136845D01*
X163904895Y-93126321D01*
X163900364Y-93112391D01*
X163897048Y-93092317D01*
X163894759Y-93063360D01*
X163893308Y-93022781D01*
X163892505Y-92967840D01*
X163892162Y-92895799D01*
X163892089Y-92803920D01*
X163892089Y-92494486D01*
X163919798Y-92466776D01*
X163951177Y-92444533D01*
X163984406Y-92441844D01*
X164016267Y-92461645D01*
X164024553Y-92471415D01*
X164031965Y-92487307D01*
X164036302Y-92511275D01*
X164038338Y-92548148D01*
X164038845Y-92602756D01*
X164038845Y-92721289D01*
X164535556Y-92721289D01*
X164535556Y-92605776D01*
X164535994Y-92554078D01*
X164537958Y-92519554D01*
X164542474Y-92496978D01*
X164550567Y-92481126D01*
X164563265Y-92466775D01*
X164594643Y-92444533D01*
X164627872Y-92441844D01*
X164659734Y-92461645D01*
G37*
X169365133Y-93050397D02*
X169363163Y-93083175D01*
X169360235Y-93106095D01*
X169356158Y-93121897D01*
X169350743Y-93133319D01*
X169343803Y-93143100D01*
X169320406Y-93172845D01*
X169154714Y-93172251D01*
X169119918Y-93171953D01*
X169021435Y-93168522D01*
X168940474Y-93160839D01*
X168873379Y-93148282D01*
X168816496Y-93130228D01*
X168766169Y-93106052D01*
X168762810Y-93104135D01*
X168704998Y-93067417D01*
X168662644Y-93030451D01*
X168629828Y-92986966D01*
X168600628Y-92930689D01*
X168596346Y-92921073D01*
X168573769Y-92857887D01*
X168568034Y-92812334D01*
X168717279Y-92812334D01*
X168722892Y-92837061D01*
X168728618Y-92852938D01*
X168761548Y-92912847D01*
X168808886Y-92958600D01*
X168872652Y-92991736D01*
X168954861Y-93013790D01*
X168957655Y-93014292D01*
X169003940Y-93020256D01*
X169060336Y-93024483D01*
X169115274Y-93026089D01*
X169209157Y-93026089D01*
X169209157Y-92585822D01*
X169121667Y-92586269D01*
X169054747Y-92588746D01*
X168962349Y-92599998D01*
X168883034Y-92619537D01*
X168821060Y-92646511D01*
X168790120Y-92667240D01*
X168762001Y-92697006D01*
X168738660Y-92739434D01*
X168731533Y-92755400D01*
X168719709Y-92787902D01*
X168717279Y-92812334D01*
X168568034Y-92812334D01*
X168566797Y-92802509D01*
X168575399Y-92747483D01*
X168599541Y-92685351D01*
X168600337Y-92683658D01*
X168640788Y-92614236D01*
X168691472Y-92557638D01*
X168754198Y-92513070D01*
X168830775Y-92479741D01*
X168923009Y-92456861D01*
X169032711Y-92443636D01*
X169161691Y-92439275D01*
X169165263Y-92439270D01*
X169225283Y-92439410D01*
X169267214Y-92440446D01*
X169295327Y-92443040D01*
X169313897Y-92447853D01*
X169327194Y-92455544D01*
X169339491Y-92466775D01*
X169367201Y-92494485D01*
X169367200Y-92803920D01*
X169367175Y-92865526D01*
X169366950Y-92944311D01*
X169366332Y-93005021D01*
X169365775Y-93026089D01*
X169365133Y-93050397D01*
G36*
X169365133Y-93050397D02*
G01*
X169363163Y-93083175D01*
X169360235Y-93106095D01*
X169356158Y-93121897D01*
X169350743Y-93133319D01*
X169343803Y-93143100D01*
X169320406Y-93172845D01*
X169154714Y-93172251D01*
X169119918Y-93171953D01*
X169021435Y-93168522D01*
X168940474Y-93160839D01*
X168873379Y-93148282D01*
X168816496Y-93130228D01*
X168766169Y-93106052D01*
X168762810Y-93104135D01*
X168704998Y-93067417D01*
X168662644Y-93030451D01*
X168629828Y-92986966D01*
X168600628Y-92930689D01*
X168596346Y-92921073D01*
X168573769Y-92857887D01*
X168568034Y-92812334D01*
X168717279Y-92812334D01*
X168722892Y-92837061D01*
X168728618Y-92852938D01*
X168761548Y-92912847D01*
X168808886Y-92958600D01*
X168872652Y-92991736D01*
X168954861Y-93013790D01*
X168957655Y-93014292D01*
X169003940Y-93020256D01*
X169060336Y-93024483D01*
X169115274Y-93026089D01*
X169209157Y-93026089D01*
X169209157Y-92585822D01*
X169121667Y-92586269D01*
X169054747Y-92588746D01*
X168962349Y-92599998D01*
X168883034Y-92619537D01*
X168821060Y-92646511D01*
X168790120Y-92667240D01*
X168762001Y-92697006D01*
X168738660Y-92739434D01*
X168731533Y-92755400D01*
X168719709Y-92787902D01*
X168717279Y-92812334D01*
X168568034Y-92812334D01*
X168566797Y-92802509D01*
X168575399Y-92747483D01*
X168599541Y-92685351D01*
X168600337Y-92683658D01*
X168640788Y-92614236D01*
X168691472Y-92557638D01*
X168754198Y-92513070D01*
X168830775Y-92479741D01*
X168923009Y-92456861D01*
X169032711Y-92443636D01*
X169161691Y-92439275D01*
X169165263Y-92439270D01*
X169225283Y-92439410D01*
X169267214Y-92440446D01*
X169295327Y-92443040D01*
X169313897Y-92447853D01*
X169327194Y-92455544D01*
X169339491Y-92466775D01*
X169367201Y-92494485D01*
X169367200Y-92803920D01*
X169367175Y-92865526D01*
X169366950Y-92944311D01*
X169366332Y-93005021D01*
X169365775Y-93026089D01*
X169365133Y-93050397D01*
G37*
X176382883Y-92440457D02*
X176409973Y-92446739D01*
X176429556Y-92459760D01*
X176442830Y-92481777D01*
X176450998Y-92515055D01*
X176455260Y-92561851D01*
X176455857Y-92585822D01*
X176456817Y-92624427D01*
X176456870Y-92705041D01*
X176456622Y-92805955D01*
X176456583Y-92881617D01*
X176456328Y-92959526D01*
X176455684Y-93019536D01*
X176454480Y-93064264D01*
X176452543Y-93096326D01*
X176449703Y-93118340D01*
X176445788Y-93132924D01*
X176440626Y-93142694D01*
X176434046Y-93150267D01*
X176427077Y-93156502D01*
X176414080Y-93163801D01*
X176394931Y-93168554D01*
X176365528Y-93171292D01*
X176321762Y-93172544D01*
X176259528Y-93172846D01*
X176210582Y-93172469D01*
X176103722Y-93168041D01*
X176014494Y-93157953D01*
X175939696Y-93141365D01*
X175876125Y-93117435D01*
X175820579Y-93085321D01*
X175769854Y-93044182D01*
X175763866Y-93038330D01*
X175726999Y-92989821D01*
X175695899Y-92929013D01*
X175674417Y-92864769D01*
X175669136Y-92826026D01*
X175816352Y-92826026D01*
X175834635Y-92876961D01*
X175864305Y-92922878D01*
X175911002Y-92965287D01*
X175972392Y-92995090D01*
X176051538Y-93014226D01*
X176053028Y-93014464D01*
X176101999Y-93020256D01*
X176160693Y-93024396D01*
X176216734Y-93026004D01*
X176309867Y-93026088D01*
X176309867Y-92585823D01*
X176233667Y-92585808D01*
X176230638Y-92585817D01*
X176179520Y-92587782D01*
X176119416Y-92592507D01*
X176062708Y-92599035D01*
X176012750Y-92608330D01*
X175937998Y-92634600D01*
X175880488Y-92673899D01*
X175838988Y-92726933D01*
X175817771Y-92778200D01*
X175816352Y-92826026D01*
X175669136Y-92826026D01*
X175666400Y-92805956D01*
X175667679Y-92784739D01*
X175679990Y-92727323D01*
X175702520Y-92667413D01*
X175731751Y-92613363D01*
X175764167Y-92573532D01*
X175783708Y-92556509D01*
X175838420Y-92517322D01*
X175898723Y-92487193D01*
X175967919Y-92465232D01*
X176049311Y-92450550D01*
X176146200Y-92442259D01*
X176261888Y-92439467D01*
X176301371Y-92439066D01*
X176347082Y-92438652D01*
X176382883Y-92440457D01*
G36*
X176382883Y-92440457D02*
G01*
X176409973Y-92446739D01*
X176429556Y-92459760D01*
X176442830Y-92481777D01*
X176450998Y-92515055D01*
X176455260Y-92561851D01*
X176455857Y-92585822D01*
X176456817Y-92624427D01*
X176456870Y-92705041D01*
X176456622Y-92805955D01*
X176456583Y-92881617D01*
X176456328Y-92959526D01*
X176455684Y-93019536D01*
X176454480Y-93064264D01*
X176452543Y-93096326D01*
X176449703Y-93118340D01*
X176445788Y-93132924D01*
X176440626Y-93142694D01*
X176434046Y-93150267D01*
X176427077Y-93156502D01*
X176414080Y-93163801D01*
X176394931Y-93168554D01*
X176365528Y-93171292D01*
X176321762Y-93172544D01*
X176259528Y-93172846D01*
X176210582Y-93172469D01*
X176103722Y-93168041D01*
X176014494Y-93157953D01*
X175939696Y-93141365D01*
X175876125Y-93117435D01*
X175820579Y-93085321D01*
X175769854Y-93044182D01*
X175763866Y-93038330D01*
X175726999Y-92989821D01*
X175695899Y-92929013D01*
X175674417Y-92864769D01*
X175669136Y-92826026D01*
X175816352Y-92826026D01*
X175834635Y-92876961D01*
X175864305Y-92922878D01*
X175911002Y-92965287D01*
X175972392Y-92995090D01*
X176051538Y-93014226D01*
X176053028Y-93014464D01*
X176101999Y-93020256D01*
X176160693Y-93024396D01*
X176216734Y-93026004D01*
X176309867Y-93026088D01*
X176309867Y-92585823D01*
X176233667Y-92585808D01*
X176230638Y-92585817D01*
X176179520Y-92587782D01*
X176119416Y-92592507D01*
X176062708Y-92599035D01*
X176012750Y-92608330D01*
X175937998Y-92634600D01*
X175880488Y-92673899D01*
X175838988Y-92726933D01*
X175817771Y-92778200D01*
X175816352Y-92826026D01*
X175669136Y-92826026D01*
X175666400Y-92805956D01*
X175667679Y-92784739D01*
X175679990Y-92727323D01*
X175702520Y-92667413D01*
X175731751Y-92613363D01*
X175764167Y-92573532D01*
X175783708Y-92556509D01*
X175838420Y-92517322D01*
X175898723Y-92487193D01*
X175967919Y-92465232D01*
X176049311Y-92450550D01*
X176146200Y-92442259D01*
X176261888Y-92439467D01*
X176301371Y-92439066D01*
X176347082Y-92438652D01*
X176382883Y-92440457D01*
G37*
X171511893Y-92437892D02*
X171523301Y-92444029D01*
X171533850Y-92454691D01*
X171545136Y-92468811D01*
X171549589Y-92474772D01*
X171555588Y-92485268D01*
X171560167Y-92499093D01*
X171563519Y-92518998D01*
X171565832Y-92547732D01*
X171567301Y-92588045D01*
X171568113Y-92642687D01*
X171568460Y-92714407D01*
X171568534Y-92805956D01*
X171568511Y-92864486D01*
X171568292Y-92943573D01*
X171567684Y-93004516D01*
X171566492Y-93050061D01*
X171564529Y-93082963D01*
X171561603Y-93105968D01*
X171557523Y-93121826D01*
X171552097Y-93133287D01*
X171545136Y-93143100D01*
X171514708Y-93167494D01*
X171479765Y-93170372D01*
X171442784Y-93151282D01*
X171438600Y-93147807D01*
X171430424Y-93139279D01*
X171424364Y-93127728D01*
X171419981Y-93109895D01*
X171416839Y-93082524D01*
X171414502Y-93042354D01*
X171412531Y-92986128D01*
X171410489Y-92910589D01*
X171404845Y-92691458D01*
X171139556Y-92932098D01*
X171065722Y-92998875D01*
X171000542Y-93056991D01*
X170948348Y-93101949D01*
X170907273Y-93134871D01*
X170875455Y-93156878D01*
X170851026Y-93169094D01*
X170832124Y-93172639D01*
X170816883Y-93168636D01*
X170803439Y-93158206D01*
X170789927Y-93142474D01*
X170783683Y-93133991D01*
X170778050Y-93123413D01*
X170773839Y-93109256D01*
X170770887Y-93088803D01*
X170769032Y-93059342D01*
X170768113Y-93018161D01*
X170767968Y-92962544D01*
X170768435Y-92889779D01*
X170769352Y-92797151D01*
X170772666Y-92482199D01*
X170799318Y-92460633D01*
X170825383Y-92444441D01*
X170858241Y-92441670D01*
X170892772Y-92460623D01*
X170897084Y-92464208D01*
X170905216Y-92472737D01*
X170911245Y-92484329D01*
X170915606Y-92502235D01*
X170918734Y-92529706D01*
X170921063Y-92569994D01*
X170923029Y-92626351D01*
X170925067Y-92702029D01*
X170930711Y-92921878D01*
X171111334Y-92758084D01*
X171198072Y-92679451D01*
X171273843Y-92611058D01*
X171335980Y-92555708D01*
X171386078Y-92512338D01*
X171425735Y-92479881D01*
X171456548Y-92457273D01*
X171480114Y-92443448D01*
X171498030Y-92437344D01*
X171511893Y-92437892D01*
G36*
X171511893Y-92437892D02*
G01*
X171523301Y-92444029D01*
X171533850Y-92454691D01*
X171545136Y-92468811D01*
X171549589Y-92474772D01*
X171555588Y-92485268D01*
X171560167Y-92499093D01*
X171563519Y-92518998D01*
X171565832Y-92547732D01*
X171567301Y-92588045D01*
X171568113Y-92642687D01*
X171568460Y-92714407D01*
X171568534Y-92805956D01*
X171568511Y-92864486D01*
X171568292Y-92943573D01*
X171567684Y-93004516D01*
X171566492Y-93050061D01*
X171564529Y-93082963D01*
X171561603Y-93105968D01*
X171557523Y-93121826D01*
X171552097Y-93133287D01*
X171545136Y-93143100D01*
X171514708Y-93167494D01*
X171479765Y-93170372D01*
X171442784Y-93151282D01*
X171438600Y-93147807D01*
X171430424Y-93139279D01*
X171424364Y-93127728D01*
X171419981Y-93109895D01*
X171416839Y-93082524D01*
X171414502Y-93042354D01*
X171412531Y-92986128D01*
X171410489Y-92910589D01*
X171404845Y-92691458D01*
X171139556Y-92932098D01*
X171065722Y-92998875D01*
X171000542Y-93056991D01*
X170948348Y-93101949D01*
X170907273Y-93134871D01*
X170875455Y-93156878D01*
X170851026Y-93169094D01*
X170832124Y-93172639D01*
X170816883Y-93168636D01*
X170803439Y-93158206D01*
X170789927Y-93142474D01*
X170783683Y-93133991D01*
X170778050Y-93123413D01*
X170773839Y-93109256D01*
X170770887Y-93088803D01*
X170769032Y-93059342D01*
X170768113Y-93018161D01*
X170767968Y-92962544D01*
X170768435Y-92889779D01*
X170769352Y-92797151D01*
X170772666Y-92482199D01*
X170799318Y-92460633D01*
X170825383Y-92444441D01*
X170858241Y-92441670D01*
X170892772Y-92460623D01*
X170897084Y-92464208D01*
X170905216Y-92472737D01*
X170911245Y-92484329D01*
X170915606Y-92502235D01*
X170918734Y-92529706D01*
X170921063Y-92569994D01*
X170923029Y-92626351D01*
X170925067Y-92702029D01*
X170930711Y-92921878D01*
X171111334Y-92758084D01*
X171198072Y-92679451D01*
X171273843Y-92611058D01*
X171335980Y-92555708D01*
X171386078Y-92512338D01*
X171425735Y-92479881D01*
X171456548Y-92457273D01*
X171480114Y-92443448D01*
X171498030Y-92437344D01*
X171511893Y-92437892D01*
G37*
X172309150Y-92444179D02*
X172415157Y-92460494D01*
X172508969Y-92488545D01*
X172587765Y-92527452D01*
X172648719Y-92576334D01*
X172674789Y-92609195D01*
X172704297Y-92658394D01*
X172729568Y-92712252D01*
X172747218Y-92763419D01*
X172753858Y-92804543D01*
X172752298Y-92824259D01*
X172739357Y-92875592D01*
X172716194Y-92932117D01*
X172686303Y-92986035D01*
X172653173Y-93029539D01*
X172642977Y-93039887D01*
X172575891Y-93091662D01*
X172495766Y-93131554D01*
X172409556Y-93155956D01*
X172354592Y-93164068D01*
X172261139Y-93170673D01*
X172171358Y-93168586D01*
X172088869Y-93158340D01*
X172017286Y-93140470D01*
X171960228Y-93115508D01*
X171921311Y-93083988D01*
X171919936Y-93082012D01*
X171912849Y-93056786D01*
X171908610Y-93009535D01*
X171907200Y-92940071D01*
X171908060Y-92877839D01*
X171912780Y-92830456D01*
X171924470Y-92798353D01*
X171946239Y-92778800D01*
X171981198Y-92769070D01*
X172032456Y-92766433D01*
X172103123Y-92768161D01*
X172151743Y-92771173D01*
X172201939Y-92779366D01*
X172234433Y-92793419D01*
X172251892Y-92814654D01*
X172256983Y-92844394D01*
X172256877Y-92848936D01*
X172248175Y-92883729D01*
X172224165Y-92907147D01*
X172182900Y-92920347D01*
X172122431Y-92924489D01*
X172053956Y-92924489D01*
X172053956Y-92962841D01*
X172054006Y-92971976D01*
X172056227Y-92989227D01*
X172065494Y-92999521D01*
X172086875Y-93006459D01*
X172125436Y-93013641D01*
X172130910Y-93014575D01*
X172227860Y-93024478D01*
X172317852Y-93021559D01*
X172398760Y-93006829D01*
X172468458Y-92981299D01*
X172524824Y-92945978D01*
X172565729Y-92901879D01*
X172589051Y-92850012D01*
X172592663Y-92791388D01*
X172587145Y-92762495D01*
X172560461Y-92706604D01*
X172514273Y-92660945D01*
X172449291Y-92626109D01*
X172366229Y-92602690D01*
X172341555Y-92598241D01*
X172252226Y-92587742D01*
X172172419Y-92588971D01*
X172094326Y-92601906D01*
X172059184Y-92608696D01*
X172013745Y-92609713D01*
X171982430Y-92597182D01*
X171962277Y-92570395D01*
X171955893Y-92542148D01*
X171965379Y-92510924D01*
X171974708Y-92497499D01*
X172008943Y-92473967D01*
X172061565Y-92456095D01*
X172130081Y-92444599D01*
X172212000Y-92440192D01*
X172309150Y-92444179D01*
G36*
X172309150Y-92444179D02*
G01*
X172415157Y-92460494D01*
X172508969Y-92488545D01*
X172587765Y-92527452D01*
X172648719Y-92576334D01*
X172674789Y-92609195D01*
X172704297Y-92658394D01*
X172729568Y-92712252D01*
X172747218Y-92763419D01*
X172753858Y-92804543D01*
X172752298Y-92824259D01*
X172739357Y-92875592D01*
X172716194Y-92932117D01*
X172686303Y-92986035D01*
X172653173Y-93029539D01*
X172642977Y-93039887D01*
X172575891Y-93091662D01*
X172495766Y-93131554D01*
X172409556Y-93155956D01*
X172354592Y-93164068D01*
X172261139Y-93170673D01*
X172171358Y-93168586D01*
X172088869Y-93158340D01*
X172017286Y-93140470D01*
X171960228Y-93115508D01*
X171921311Y-93083988D01*
X171919936Y-93082012D01*
X171912849Y-93056786D01*
X171908610Y-93009535D01*
X171907200Y-92940071D01*
X171908060Y-92877839D01*
X171912780Y-92830456D01*
X171924470Y-92798353D01*
X171946239Y-92778800D01*
X171981198Y-92769070D01*
X172032456Y-92766433D01*
X172103123Y-92768161D01*
X172151743Y-92771173D01*
X172201939Y-92779366D01*
X172234433Y-92793419D01*
X172251892Y-92814654D01*
X172256983Y-92844394D01*
X172256877Y-92848936D01*
X172248175Y-92883729D01*
X172224165Y-92907147D01*
X172182900Y-92920347D01*
X172122431Y-92924489D01*
X172053956Y-92924489D01*
X172053956Y-92962841D01*
X172054006Y-92971976D01*
X172056227Y-92989227D01*
X172065494Y-92999521D01*
X172086875Y-93006459D01*
X172125436Y-93013641D01*
X172130910Y-93014575D01*
X172227860Y-93024478D01*
X172317852Y-93021559D01*
X172398760Y-93006829D01*
X172468458Y-92981299D01*
X172524824Y-92945978D01*
X172565729Y-92901879D01*
X172589051Y-92850012D01*
X172592663Y-92791388D01*
X172587145Y-92762495D01*
X172560461Y-92706604D01*
X172514273Y-92660945D01*
X172449291Y-92626109D01*
X172366229Y-92602690D01*
X172341555Y-92598241D01*
X172252226Y-92587742D01*
X172172419Y-92588971D01*
X172094326Y-92601906D01*
X172059184Y-92608696D01*
X172013745Y-92609713D01*
X171982430Y-92597182D01*
X171962277Y-92570395D01*
X171955893Y-92542148D01*
X171965379Y-92510924D01*
X171974708Y-92497499D01*
X172008943Y-92473967D01*
X172061565Y-92456095D01*
X172130081Y-92444599D01*
X172212000Y-92440192D01*
X172309150Y-92444179D01*
G37*
X170359803Y-92468811D02*
X170364752Y-92475495D01*
X170370596Y-92486066D01*
X170375057Y-92500153D01*
X170378321Y-92520478D01*
X170380574Y-92549765D01*
X170382002Y-92590738D01*
X170382792Y-92646118D01*
X170383129Y-92718628D01*
X170383200Y-92810994D01*
X170383171Y-92876912D01*
X170382939Y-92955228D01*
X170382320Y-93015496D01*
X170381126Y-93060393D01*
X170379179Y-93092602D01*
X170376294Y-93114800D01*
X170372288Y-93129669D01*
X170366979Y-93139889D01*
X170360183Y-93148138D01*
X170355668Y-93152796D01*
X170347438Y-93159282D01*
X170336078Y-93164194D01*
X170318810Y-93167749D01*
X170292855Y-93170167D01*
X170255436Y-93171667D01*
X170203773Y-93172467D01*
X170135089Y-93172787D01*
X170046606Y-93172845D01*
X170026931Y-93172838D01*
X169939906Y-93172572D01*
X169872254Y-93171806D01*
X169821300Y-93170392D01*
X169784367Y-93168180D01*
X169758783Y-93165022D01*
X169741871Y-93160769D01*
X169730957Y-93155271D01*
X169720464Y-93145285D01*
X169707203Y-93114168D01*
X169708386Y-93078280D01*
X169724550Y-93046733D01*
X169726739Y-93044457D01*
X169735427Y-93038188D01*
X169748769Y-93033523D01*
X169769752Y-93030227D01*
X169801363Y-93028068D01*
X169846590Y-93026814D01*
X169908420Y-93026231D01*
X169989839Y-93026089D01*
X170236446Y-93026089D01*
X170236446Y-92868045D01*
X170074006Y-92868045D01*
X170038338Y-92867964D01*
X169982568Y-92867168D01*
X169943430Y-92865162D01*
X169916976Y-92861521D01*
X169899259Y-92855812D01*
X169886329Y-92847607D01*
X169882686Y-92844423D01*
X169864278Y-92813448D01*
X169863644Y-92777112D01*
X169881183Y-92743493D01*
X169881245Y-92743424D01*
X169890916Y-92734798D01*
X169904209Y-92728742D01*
X169924917Y-92724811D01*
X169956828Y-92722556D01*
X170003734Y-92721531D01*
X170069424Y-92721289D01*
X170237571Y-92721289D01*
X170234186Y-92656378D01*
X170230800Y-92591467D01*
X169988723Y-92588414D01*
X169963707Y-92588086D01*
X169882087Y-92586606D01*
X169819768Y-92584222D01*
X169774154Y-92580226D01*
X169742652Y-92573913D01*
X169722667Y-92564574D01*
X169711604Y-92551503D01*
X169706869Y-92533992D01*
X169705867Y-92511335D01*
X169705873Y-92508970D01*
X169707027Y-92488939D01*
X169711824Y-92473146D01*
X169722632Y-92461090D01*
X169741817Y-92452267D01*
X169771745Y-92446175D01*
X169814783Y-92442311D01*
X169873299Y-92440174D01*
X169949657Y-92439260D01*
X170046226Y-92439067D01*
X170336406Y-92439067D01*
X170359803Y-92468811D01*
G36*
X170359803Y-92468811D02*
G01*
X170364752Y-92475495D01*
X170370596Y-92486066D01*
X170375057Y-92500153D01*
X170378321Y-92520478D01*
X170380574Y-92549765D01*
X170382002Y-92590738D01*
X170382792Y-92646118D01*
X170383129Y-92718628D01*
X170383200Y-92810994D01*
X170383171Y-92876912D01*
X170382939Y-92955228D01*
X170382320Y-93015496D01*
X170381126Y-93060393D01*
X170379179Y-93092602D01*
X170376294Y-93114800D01*
X170372288Y-93129669D01*
X170366979Y-93139889D01*
X170360183Y-93148138D01*
X170355668Y-93152796D01*
X170347438Y-93159282D01*
X170336078Y-93164194D01*
X170318810Y-93167749D01*
X170292855Y-93170167D01*
X170255436Y-93171667D01*
X170203773Y-93172467D01*
X170135089Y-93172787D01*
X170046606Y-93172845D01*
X170026931Y-93172838D01*
X169939906Y-93172572D01*
X169872254Y-93171806D01*
X169821300Y-93170392D01*
X169784367Y-93168180D01*
X169758783Y-93165022D01*
X169741871Y-93160769D01*
X169730957Y-93155271D01*
X169720464Y-93145285D01*
X169707203Y-93114168D01*
X169708386Y-93078280D01*
X169724550Y-93046733D01*
X169726739Y-93044457D01*
X169735427Y-93038188D01*
X169748769Y-93033523D01*
X169769752Y-93030227D01*
X169801363Y-93028068D01*
X169846590Y-93026814D01*
X169908420Y-93026231D01*
X169989839Y-93026089D01*
X170236446Y-93026089D01*
X170236446Y-92868045D01*
X170074006Y-92868045D01*
X170038338Y-92867964D01*
X169982568Y-92867168D01*
X169943430Y-92865162D01*
X169916976Y-92861521D01*
X169899259Y-92855812D01*
X169886329Y-92847607D01*
X169882686Y-92844423D01*
X169864278Y-92813448D01*
X169863644Y-92777112D01*
X169881183Y-92743493D01*
X169881245Y-92743424D01*
X169890916Y-92734798D01*
X169904209Y-92728742D01*
X169924917Y-92724811D01*
X169956828Y-92722556D01*
X170003734Y-92721531D01*
X170069424Y-92721289D01*
X170237571Y-92721289D01*
X170234186Y-92656378D01*
X170230800Y-92591467D01*
X169988723Y-92588414D01*
X169963707Y-92588086D01*
X169882087Y-92586606D01*
X169819768Y-92584222D01*
X169774154Y-92580226D01*
X169742652Y-92573913D01*
X169722667Y-92564574D01*
X169711604Y-92551503D01*
X169706869Y-92533992D01*
X169705867Y-92511335D01*
X169705873Y-92508970D01*
X169707027Y-92488939D01*
X169711824Y-92473146D01*
X169722632Y-92461090D01*
X169741817Y-92452267D01*
X169771745Y-92446175D01*
X169814783Y-92442311D01*
X169873299Y-92440174D01*
X169949657Y-92439260D01*
X170046226Y-92439067D01*
X170336406Y-92439067D01*
X170359803Y-92468811D01*
G37*
X175036735Y-92439083D02*
X175113831Y-92439275D01*
X175172777Y-92439860D01*
X175216365Y-92441051D01*
X175247383Y-92443064D01*
X175268625Y-92446112D01*
X175282882Y-92450409D01*
X175292945Y-92456172D01*
X175301606Y-92463612D01*
X175303391Y-92465293D01*
X175310635Y-92472832D01*
X175316277Y-92481850D01*
X175320516Y-92494984D01*
X175323556Y-92514872D01*
X175325594Y-92544151D01*
X175326830Y-92585458D01*
X175327465Y-92641431D01*
X175327700Y-92714707D01*
X175327734Y-92807923D01*
X175327697Y-92880713D01*
X175327448Y-92958889D01*
X175326812Y-93019103D01*
X175325615Y-93063982D01*
X175323684Y-93096152D01*
X175320846Y-93118239D01*
X175316926Y-93132870D01*
X175311755Y-93142670D01*
X175305157Y-93150267D01*
X175301823Y-93153444D01*
X175293300Y-93159554D01*
X175281298Y-93164229D01*
X175263087Y-93167659D01*
X175235940Y-93170036D01*
X175197129Y-93171552D01*
X175143924Y-93172398D01*
X175073598Y-93172765D01*
X174983422Y-93172845D01*
X174941314Y-93172833D01*
X174860167Y-93172651D01*
X174797675Y-93172098D01*
X174751109Y-93170982D01*
X174717741Y-93169114D01*
X174694844Y-93166298D01*
X174679688Y-93162346D01*
X174669546Y-93157066D01*
X174661689Y-93150267D01*
X174646963Y-93128667D01*
X174639112Y-93099467D01*
X174644610Y-93075560D01*
X174661689Y-93048667D01*
X174666668Y-93044059D01*
X174676443Y-93037772D01*
X174690559Y-93033146D01*
X174712054Y-93029930D01*
X174743968Y-93027870D01*
X174789342Y-93026711D01*
X174851213Y-93026202D01*
X174932622Y-93026089D01*
X175180978Y-93026088D01*
X175180978Y-92868044D01*
X175019801Y-92868045D01*
X174983983Y-92867899D01*
X174918359Y-92866176D01*
X174871118Y-92861741D01*
X174839383Y-92853637D01*
X174820277Y-92840906D01*
X174810923Y-92822592D01*
X174808445Y-92797738D01*
X174809242Y-92777482D01*
X174814494Y-92755656D01*
X174827287Y-92740304D01*
X174850628Y-92730309D01*
X174887517Y-92724553D01*
X174940959Y-92721919D01*
X175013958Y-92721289D01*
X175182105Y-92721289D01*
X175178719Y-92656378D01*
X175175334Y-92591467D01*
X174927617Y-92588418D01*
X174865026Y-92587539D01*
X174796565Y-92586095D01*
X174745661Y-92584164D01*
X174709408Y-92581514D01*
X174684902Y-92577910D01*
X174669235Y-92573121D01*
X174659507Y-92566913D01*
X174653491Y-92560510D01*
X174640482Y-92528828D01*
X174644044Y-92493142D01*
X174663818Y-92462084D01*
X174667069Y-92459161D01*
X174676049Y-92452810D01*
X174688153Y-92447957D01*
X174706159Y-92444403D01*
X174732847Y-92441945D01*
X174770997Y-92440386D01*
X174823386Y-92439518D01*
X174892794Y-92439146D01*
X174982001Y-92439067D01*
X175036735Y-92439083D01*
G36*
X175036735Y-92439083D02*
G01*
X175113831Y-92439275D01*
X175172777Y-92439860D01*
X175216365Y-92441051D01*
X175247383Y-92443064D01*
X175268625Y-92446112D01*
X175282882Y-92450409D01*
X175292945Y-92456172D01*
X175301606Y-92463612D01*
X175303391Y-92465293D01*
X175310635Y-92472832D01*
X175316277Y-92481850D01*
X175320516Y-92494984D01*
X175323556Y-92514872D01*
X175325594Y-92544151D01*
X175326830Y-92585458D01*
X175327465Y-92641431D01*
X175327700Y-92714707D01*
X175327734Y-92807923D01*
X175327697Y-92880713D01*
X175327448Y-92958889D01*
X175326812Y-93019103D01*
X175325615Y-93063982D01*
X175323684Y-93096152D01*
X175320846Y-93118239D01*
X175316926Y-93132870D01*
X175311755Y-93142670D01*
X175305157Y-93150267D01*
X175301823Y-93153444D01*
X175293300Y-93159554D01*
X175281298Y-93164229D01*
X175263087Y-93167659D01*
X175235940Y-93170036D01*
X175197129Y-93171552D01*
X175143924Y-93172398D01*
X175073598Y-93172765D01*
X174983422Y-93172845D01*
X174941314Y-93172833D01*
X174860167Y-93172651D01*
X174797675Y-93172098D01*
X174751109Y-93170982D01*
X174717741Y-93169114D01*
X174694844Y-93166298D01*
X174679688Y-93162346D01*
X174669546Y-93157066D01*
X174661689Y-93150267D01*
X174646963Y-93128667D01*
X174639112Y-93099467D01*
X174644610Y-93075560D01*
X174661689Y-93048667D01*
X174666668Y-93044059D01*
X174676443Y-93037772D01*
X174690559Y-93033146D01*
X174712054Y-93029930D01*
X174743968Y-93027870D01*
X174789342Y-93026711D01*
X174851213Y-93026202D01*
X174932622Y-93026089D01*
X175180978Y-93026088D01*
X175180978Y-92868044D01*
X175019801Y-92868045D01*
X174983983Y-92867899D01*
X174918359Y-92866176D01*
X174871118Y-92861741D01*
X174839383Y-92853637D01*
X174820277Y-92840906D01*
X174810923Y-92822592D01*
X174808445Y-92797738D01*
X174809242Y-92777482D01*
X174814494Y-92755656D01*
X174827287Y-92740304D01*
X174850628Y-92730309D01*
X174887517Y-92724553D01*
X174940959Y-92721919D01*
X175013958Y-92721289D01*
X175182105Y-92721289D01*
X175178719Y-92656378D01*
X175175334Y-92591467D01*
X174927617Y-92588418D01*
X174865026Y-92587539D01*
X174796565Y-92586095D01*
X174745661Y-92584164D01*
X174709408Y-92581514D01*
X174684902Y-92577910D01*
X174669235Y-92573121D01*
X174659507Y-92566913D01*
X174653491Y-92560510D01*
X174640482Y-92528828D01*
X174644044Y-92493142D01*
X174663818Y-92462084D01*
X174667069Y-92459161D01*
X174676049Y-92452810D01*
X174688153Y-92447957D01*
X174706159Y-92444403D01*
X174732847Y-92441945D01*
X174770997Y-92440386D01*
X174823386Y-92439518D01*
X174892794Y-92439146D01*
X174982001Y-92439067D01*
X175036735Y-92439083D01*
G37*
X166469702Y-92448478D02*
X166487663Y-92466989D01*
X166508263Y-92498071D01*
X166533095Y-92543756D01*
X166563750Y-92606078D01*
X166601820Y-92687071D01*
X166616454Y-92718455D01*
X166646203Y-92781638D01*
X166672297Y-92836244D01*
X166693292Y-92879290D01*
X166707739Y-92907793D01*
X166714191Y-92918770D01*
X166715550Y-92918189D01*
X166725542Y-92904242D01*
X166742832Y-92874704D01*
X166765430Y-92833086D01*
X166791339Y-92782903D01*
X166807311Y-92751414D01*
X166836261Y-92696060D01*
X166858749Y-92657044D01*
X166876966Y-92631566D01*
X166893096Y-92616831D01*
X166909330Y-92610042D01*
X166927857Y-92608400D01*
X166938359Y-92608875D01*
X166954476Y-92613082D01*
X166969790Y-92623946D01*
X166986388Y-92644219D01*
X167006357Y-92676655D01*
X167031783Y-92724004D01*
X167064752Y-92789022D01*
X167074485Y-92808277D01*
X167098943Y-92854946D01*
X167119178Y-92891110D01*
X167133311Y-92913497D01*
X167139460Y-92918844D01*
X167140827Y-92915573D01*
X167150202Y-92894664D01*
X167167063Y-92857725D01*
X167189978Y-92807874D01*
X167217520Y-92748226D01*
X167248255Y-92681898D01*
X167274970Y-92624677D01*
X167304593Y-92562688D01*
X167327663Y-92516949D01*
X167345643Y-92484908D01*
X167359990Y-92464014D01*
X167372166Y-92451718D01*
X167383632Y-92445466D01*
X167393043Y-92442574D01*
X167418147Y-92442425D01*
X167445290Y-92457768D01*
X167446590Y-92458753D01*
X167468674Y-92481388D01*
X167479723Y-92503613D01*
X167479769Y-92504253D01*
X167475227Y-92521915D01*
X167462364Y-92556481D01*
X167442604Y-92604826D01*
X167417381Y-92663825D01*
X167388119Y-92730354D01*
X167356250Y-92801291D01*
X167323201Y-92873507D01*
X167290401Y-92943879D01*
X167259280Y-93009285D01*
X167231265Y-93066597D01*
X167207786Y-93112692D01*
X167190272Y-93144446D01*
X167180151Y-93158733D01*
X167145743Y-93172102D01*
X167104046Y-93165741D01*
X167098681Y-93161044D01*
X167082852Y-93138893D01*
X167060650Y-93102132D01*
X167034233Y-93054415D01*
X167005759Y-92999393D01*
X166925986Y-92840150D01*
X166852799Y-92986742D01*
X166843103Y-93006032D01*
X166816125Y-93058380D01*
X166792097Y-93103170D01*
X166773332Y-93136155D01*
X166762146Y-93153089D01*
X166761000Y-93154331D01*
X166732878Y-93169619D01*
X166697817Y-93171302D01*
X166666776Y-93158733D01*
X166664350Y-93155884D01*
X166652090Y-93135259D01*
X166632352Y-93097708D01*
X166606448Y-93045880D01*
X166575685Y-92982423D01*
X166541376Y-92909985D01*
X166504825Y-92831216D01*
X166484585Y-92787093D01*
X166447812Y-92706364D01*
X166419355Y-92642687D01*
X166398331Y-92593752D01*
X166383854Y-92557257D01*
X166375039Y-92530895D01*
X166371004Y-92512361D01*
X166370862Y-92499352D01*
X166373730Y-92489561D01*
X166388387Y-92468678D01*
X166414990Y-92448377D01*
X166415745Y-92448035D01*
X166435335Y-92441035D01*
X166452790Y-92440504D01*
X166469702Y-92448478D01*
G36*
X166469702Y-92448478D02*
G01*
X166487663Y-92466989D01*
X166508263Y-92498071D01*
X166533095Y-92543756D01*
X166563750Y-92606078D01*
X166601820Y-92687071D01*
X166616454Y-92718455D01*
X166646203Y-92781638D01*
X166672297Y-92836244D01*
X166693292Y-92879290D01*
X166707739Y-92907793D01*
X166714191Y-92918770D01*
X166715550Y-92918189D01*
X166725542Y-92904242D01*
X166742832Y-92874704D01*
X166765430Y-92833086D01*
X166791339Y-92782903D01*
X166807311Y-92751414D01*
X166836261Y-92696060D01*
X166858749Y-92657044D01*
X166876966Y-92631566D01*
X166893096Y-92616831D01*
X166909330Y-92610042D01*
X166927857Y-92608400D01*
X166938359Y-92608875D01*
X166954476Y-92613082D01*
X166969790Y-92623946D01*
X166986388Y-92644219D01*
X167006357Y-92676655D01*
X167031783Y-92724004D01*
X167064752Y-92789022D01*
X167074485Y-92808277D01*
X167098943Y-92854946D01*
X167119178Y-92891110D01*
X167133311Y-92913497D01*
X167139460Y-92918844D01*
X167140827Y-92915573D01*
X167150202Y-92894664D01*
X167167063Y-92857725D01*
X167189978Y-92807874D01*
X167217520Y-92748226D01*
X167248255Y-92681898D01*
X167274970Y-92624677D01*
X167304593Y-92562688D01*
X167327663Y-92516949D01*
X167345643Y-92484908D01*
X167359990Y-92464014D01*
X167372166Y-92451718D01*
X167383632Y-92445466D01*
X167393043Y-92442574D01*
X167418147Y-92442425D01*
X167445290Y-92457768D01*
X167446590Y-92458753D01*
X167468674Y-92481388D01*
X167479723Y-92503613D01*
X167479769Y-92504253D01*
X167475227Y-92521915D01*
X167462364Y-92556481D01*
X167442604Y-92604826D01*
X167417381Y-92663825D01*
X167388119Y-92730354D01*
X167356250Y-92801291D01*
X167323201Y-92873507D01*
X167290401Y-92943879D01*
X167259280Y-93009285D01*
X167231265Y-93066597D01*
X167207786Y-93112692D01*
X167190272Y-93144446D01*
X167180151Y-93158733D01*
X167145743Y-93172102D01*
X167104046Y-93165741D01*
X167098681Y-93161044D01*
X167082852Y-93138893D01*
X167060650Y-93102132D01*
X167034233Y-93054415D01*
X167005759Y-92999393D01*
X166925986Y-92840150D01*
X166852799Y-92986742D01*
X166843103Y-93006032D01*
X166816125Y-93058380D01*
X166792097Y-93103170D01*
X166773332Y-93136155D01*
X166762146Y-93153089D01*
X166761000Y-93154331D01*
X166732878Y-93169619D01*
X166697817Y-93171302D01*
X166666776Y-93158733D01*
X166664350Y-93155884D01*
X166652090Y-93135259D01*
X166632352Y-93097708D01*
X166606448Y-93045880D01*
X166575685Y-92982423D01*
X166541376Y-92909985D01*
X166504825Y-92831216D01*
X166484585Y-92787093D01*
X166447812Y-92706364D01*
X166419355Y-92642687D01*
X166398331Y-92593752D01*
X166383854Y-92557257D01*
X166375039Y-92530895D01*
X166371004Y-92512361D01*
X166370862Y-92499352D01*
X166373730Y-92489561D01*
X166388387Y-92468678D01*
X166414990Y-92448377D01*
X166415745Y-92448035D01*
X166435335Y-92441035D01*
X166452790Y-92440504D01*
X166469702Y-92448478D01*
G37*
X174020853Y-92439936D02*
X174087100Y-92445366D01*
X174142399Y-92454964D01*
X174193283Y-92469825D01*
X174264595Y-92502958D01*
X174315752Y-92545640D01*
X174346575Y-92597705D01*
X174356889Y-92658983D01*
X174355952Y-92690232D01*
X174350160Y-92715029D01*
X174335353Y-92736699D01*
X174307380Y-92764049D01*
X174299402Y-92771378D01*
X174275692Y-92792281D01*
X174253298Y-92809251D01*
X174229265Y-92823205D01*
X174200637Y-92835056D01*
X174164460Y-92845720D01*
X174117780Y-92856111D01*
X174057641Y-92867146D01*
X173981090Y-92879739D01*
X173885171Y-92894804D01*
X173866808Y-92897838D01*
X173804478Y-92911459D01*
X173759260Y-92927192D01*
X173732976Y-92944263D01*
X173727447Y-92961897D01*
X173730068Y-92966168D01*
X173748000Y-92981233D01*
X173776126Y-92997867D01*
X173788927Y-93003857D01*
X173810224Y-93011050D01*
X173836610Y-93015827D01*
X173872454Y-93018646D01*
X173922128Y-93019964D01*
X173990000Y-93020237D01*
X174007785Y-93020164D01*
X174075406Y-93019053D01*
X174140345Y-93016828D01*
X174195970Y-93013762D01*
X174235651Y-93010127D01*
X174271162Y-93006059D01*
X174300415Y-93005275D01*
X174319315Y-93009876D01*
X174334429Y-93020551D01*
X174338086Y-93024144D01*
X174354427Y-93055918D01*
X174353107Y-93091572D01*
X174334150Y-93122190D01*
X174313780Y-93133796D01*
X174277796Y-93146491D01*
X174235372Y-93156540D01*
X174231922Y-93157139D01*
X174189252Y-93162356D01*
X174131866Y-93166730D01*
X174066849Y-93169818D01*
X174001289Y-93171177D01*
X173985057Y-93171218D01*
X173886744Y-93168741D01*
X173806693Y-93160735D01*
X173741513Y-93146203D01*
X173687817Y-93124149D01*
X173642216Y-93093576D01*
X173601323Y-93053486D01*
X173581202Y-93027259D01*
X173569576Y-92997712D01*
X173566667Y-92957995D01*
X173566808Y-92946026D01*
X173570681Y-92913345D01*
X173583065Y-92886819D01*
X173608230Y-92855971D01*
X173629442Y-92833831D01*
X173655838Y-92811285D01*
X173685555Y-92792917D01*
X173721785Y-92777661D01*
X173767718Y-92764449D01*
X173826544Y-92752214D01*
X173901456Y-92739889D01*
X173995644Y-92726406D01*
X174040957Y-92719396D01*
X174108911Y-92704837D01*
X174158047Y-92688337D01*
X174187614Y-92670438D01*
X174196864Y-92651685D01*
X174185048Y-92632615D01*
X174151416Y-92613771D01*
X174148370Y-92612557D01*
X174102011Y-92600479D01*
X174039361Y-92592279D01*
X173965927Y-92588119D01*
X173887217Y-92588161D01*
X173808739Y-92592569D01*
X173736000Y-92601505D01*
X173732072Y-92602154D01*
X173683257Y-92609861D01*
X173651005Y-92613473D01*
X173630008Y-92612876D01*
X173614954Y-92607954D01*
X173600534Y-92598596D01*
X173599364Y-92597725D01*
X173574847Y-92567351D01*
X173570054Y-92531850D01*
X173585860Y-92497269D01*
X173590406Y-92492813D01*
X173620020Y-92477673D01*
X173667002Y-92464550D01*
X173727306Y-92453750D01*
X173796888Y-92445581D01*
X173871703Y-92440351D01*
X173947706Y-92438367D01*
X174020853Y-92439936D01*
G36*
X174020853Y-92439936D02*
G01*
X174087100Y-92445366D01*
X174142399Y-92454964D01*
X174193283Y-92469825D01*
X174264595Y-92502958D01*
X174315752Y-92545640D01*
X174346575Y-92597705D01*
X174356889Y-92658983D01*
X174355952Y-92690232D01*
X174350160Y-92715029D01*
X174335353Y-92736699D01*
X174307380Y-92764049D01*
X174299402Y-92771378D01*
X174275692Y-92792281D01*
X174253298Y-92809251D01*
X174229265Y-92823205D01*
X174200637Y-92835056D01*
X174164460Y-92845720D01*
X174117780Y-92856111D01*
X174057641Y-92867146D01*
X173981090Y-92879739D01*
X173885171Y-92894804D01*
X173866808Y-92897838D01*
X173804478Y-92911459D01*
X173759260Y-92927192D01*
X173732976Y-92944263D01*
X173727447Y-92961897D01*
X173730068Y-92966168D01*
X173748000Y-92981233D01*
X173776126Y-92997867D01*
X173788927Y-93003857D01*
X173810224Y-93011050D01*
X173836610Y-93015827D01*
X173872454Y-93018646D01*
X173922128Y-93019964D01*
X173990000Y-93020237D01*
X174007785Y-93020164D01*
X174075406Y-93019053D01*
X174140345Y-93016828D01*
X174195970Y-93013762D01*
X174235651Y-93010127D01*
X174271162Y-93006059D01*
X174300415Y-93005275D01*
X174319315Y-93009876D01*
X174334429Y-93020551D01*
X174338086Y-93024144D01*
X174354427Y-93055918D01*
X174353107Y-93091572D01*
X174334150Y-93122190D01*
X174313780Y-93133796D01*
X174277796Y-93146491D01*
X174235372Y-93156540D01*
X174231922Y-93157139D01*
X174189252Y-93162356D01*
X174131866Y-93166730D01*
X174066849Y-93169818D01*
X174001289Y-93171177D01*
X173985057Y-93171218D01*
X173886744Y-93168741D01*
X173806693Y-93160735D01*
X173741513Y-93146203D01*
X173687817Y-93124149D01*
X173642216Y-93093576D01*
X173601323Y-93053486D01*
X173581202Y-93027259D01*
X173569576Y-92997712D01*
X173566667Y-92957995D01*
X173566808Y-92946026D01*
X173570681Y-92913345D01*
X173583065Y-92886819D01*
X173608230Y-92855971D01*
X173629442Y-92833831D01*
X173655838Y-92811285D01*
X173685555Y-92792917D01*
X173721785Y-92777661D01*
X173767718Y-92764449D01*
X173826544Y-92752214D01*
X173901456Y-92739889D01*
X173995644Y-92726406D01*
X174040957Y-92719396D01*
X174108911Y-92704837D01*
X174158047Y-92688337D01*
X174187614Y-92670438D01*
X174196864Y-92651685D01*
X174185048Y-92632615D01*
X174151416Y-92613771D01*
X174148370Y-92612557D01*
X174102011Y-92600479D01*
X174039361Y-92592279D01*
X173965927Y-92588119D01*
X173887217Y-92588161D01*
X173808739Y-92592569D01*
X173736000Y-92601505D01*
X173732072Y-92602154D01*
X173683257Y-92609861D01*
X173651005Y-92613473D01*
X173630008Y-92612876D01*
X173614954Y-92607954D01*
X173600534Y-92598596D01*
X173599364Y-92597725D01*
X173574847Y-92567351D01*
X173570054Y-92531850D01*
X173585860Y-92497269D01*
X173590406Y-92492813D01*
X173620020Y-92477673D01*
X173667002Y-92464550D01*
X173727306Y-92453750D01*
X173796888Y-92445581D01*
X173871703Y-92440351D01*
X173947706Y-92438367D01*
X174020853Y-92439936D01*
G37*
X170168711Y-88132033D02*
X170264267Y-88149523D01*
X170428558Y-88194564D01*
X170582589Y-88257656D01*
X170728509Y-88339915D01*
X170868466Y-88442458D01*
X171004608Y-88566399D01*
X171048473Y-88611661D01*
X171160758Y-88743865D01*
X171253972Y-88881832D01*
X171330719Y-89029750D01*
X171393603Y-89191803D01*
X171397420Y-89203391D01*
X171447507Y-89389392D01*
X171480899Y-89585520D01*
X171497584Y-89787568D01*
X171497551Y-89991325D01*
X171480791Y-90192581D01*
X171447292Y-90387128D01*
X171397044Y-90570756D01*
X171353190Y-90688053D01*
X171275348Y-90850951D01*
X171181828Y-91004866D01*
X171074822Y-91146671D01*
X170956519Y-91273239D01*
X170829111Y-91381441D01*
X170751606Y-91434120D01*
X170624725Y-91503750D01*
X170487243Y-91562468D01*
X170345715Y-91607587D01*
X170206702Y-91636422D01*
X170192597Y-91638106D01*
X170149153Y-91641434D01*
X170091723Y-91644275D01*
X170026122Y-91646373D01*
X169958167Y-91647468D01*
X169831379Y-91645140D01*
X169683673Y-91632136D01*
X169545780Y-91607133D01*
X169412014Y-91569318D01*
X169388562Y-91560889D01*
X169340612Y-91541408D01*
X169284140Y-91516473D01*
X169222379Y-91487722D01*
X169158563Y-91456790D01*
X169095926Y-91425315D01*
X169037703Y-91394934D01*
X168987126Y-91367283D01*
X168947433Y-91343999D01*
X168921854Y-91326719D01*
X168913625Y-91317079D01*
X168915076Y-91313984D01*
X168926250Y-91294079D01*
X168947134Y-91258420D01*
X168976265Y-91209459D01*
X169012181Y-91149646D01*
X169053420Y-91081433D01*
X169098517Y-91007271D01*
X169279785Y-90710008D01*
X169326315Y-90754539D01*
X169417723Y-90832865D01*
X169531334Y-90907439D01*
X169649122Y-90961474D01*
X169769558Y-90994290D01*
X169891117Y-91005210D01*
X169932585Y-91003868D01*
X170050080Y-90985612D01*
X170160089Y-90946617D01*
X170261430Y-90887670D01*
X170352922Y-90809557D01*
X170433380Y-90713064D01*
X170501627Y-90598978D01*
X170517908Y-90564724D01*
X170563982Y-90441240D01*
X170599106Y-90302918D01*
X170623197Y-90153560D01*
X170636173Y-89996972D01*
X170637949Y-89836956D01*
X170628443Y-89677313D01*
X170607572Y-89521850D01*
X170575252Y-89374366D01*
X170531399Y-89238668D01*
X170493982Y-89152076D01*
X170429185Y-89038688D01*
X170353772Y-88945070D01*
X170267418Y-88870959D01*
X170169795Y-88816094D01*
X170060577Y-88780212D01*
X169939439Y-88763051D01*
X169870038Y-88761880D01*
X169747168Y-88776141D01*
X169631664Y-88811241D01*
X169524953Y-88866682D01*
X169428464Y-88941964D01*
X169412721Y-88956440D01*
X169382149Y-88982962D01*
X169359809Y-89000138D01*
X169349691Y-89004787D01*
X169347706Y-89002597D01*
X169333241Y-88983721D01*
X169309400Y-88950397D01*
X169278029Y-88905380D01*
X169240974Y-88851425D01*
X169200083Y-88791285D01*
X169157202Y-88727718D01*
X169114178Y-88663476D01*
X169072857Y-88601315D01*
X169035087Y-88543991D01*
X169002712Y-88494257D01*
X168977583Y-88454868D01*
X168961542Y-88428580D01*
X168956439Y-88418147D01*
X168961050Y-88413941D01*
X168980267Y-88408933D01*
X168989838Y-88406386D01*
X169017808Y-88395249D01*
X169059449Y-88376802D01*
X169110995Y-88352725D01*
X169168690Y-88324699D01*
X169179957Y-88319154D01*
X169357686Y-88239889D01*
X169527490Y-88180385D01*
X169691430Y-88140245D01*
X169851571Y-88119071D01*
X170009977Y-88116466D01*
X170168711Y-88132033D01*
G36*
X170168711Y-88132033D02*
G01*
X170264267Y-88149523D01*
X170428558Y-88194564D01*
X170582589Y-88257656D01*
X170728509Y-88339915D01*
X170868466Y-88442458D01*
X171004608Y-88566399D01*
X171048473Y-88611661D01*
X171160758Y-88743865D01*
X171253972Y-88881832D01*
X171330719Y-89029750D01*
X171393603Y-89191803D01*
X171397420Y-89203391D01*
X171447507Y-89389392D01*
X171480899Y-89585520D01*
X171497584Y-89787568D01*
X171497551Y-89991325D01*
X171480791Y-90192581D01*
X171447292Y-90387128D01*
X171397044Y-90570756D01*
X171353190Y-90688053D01*
X171275348Y-90850951D01*
X171181828Y-91004866D01*
X171074822Y-91146671D01*
X170956519Y-91273239D01*
X170829111Y-91381441D01*
X170751606Y-91434120D01*
X170624725Y-91503750D01*
X170487243Y-91562468D01*
X170345715Y-91607587D01*
X170206702Y-91636422D01*
X170192597Y-91638106D01*
X170149153Y-91641434D01*
X170091723Y-91644275D01*
X170026122Y-91646373D01*
X169958167Y-91647468D01*
X169831379Y-91645140D01*
X169683673Y-91632136D01*
X169545780Y-91607133D01*
X169412014Y-91569318D01*
X169388562Y-91560889D01*
X169340612Y-91541408D01*
X169284140Y-91516473D01*
X169222379Y-91487722D01*
X169158563Y-91456790D01*
X169095926Y-91425315D01*
X169037703Y-91394934D01*
X168987126Y-91367283D01*
X168947433Y-91343999D01*
X168921854Y-91326719D01*
X168913625Y-91317079D01*
X168915076Y-91313984D01*
X168926250Y-91294079D01*
X168947134Y-91258420D01*
X168976265Y-91209459D01*
X169012181Y-91149646D01*
X169053420Y-91081433D01*
X169098517Y-91007271D01*
X169279785Y-90710008D01*
X169326315Y-90754539D01*
X169417723Y-90832865D01*
X169531334Y-90907439D01*
X169649122Y-90961474D01*
X169769558Y-90994290D01*
X169891117Y-91005210D01*
X169932585Y-91003868D01*
X170050080Y-90985612D01*
X170160089Y-90946617D01*
X170261430Y-90887670D01*
X170352922Y-90809557D01*
X170433380Y-90713064D01*
X170501627Y-90598978D01*
X170517908Y-90564724D01*
X170563982Y-90441240D01*
X170599106Y-90302918D01*
X170623197Y-90153560D01*
X170636173Y-89996972D01*
X170637949Y-89836956D01*
X170628443Y-89677313D01*
X170607572Y-89521850D01*
X170575252Y-89374366D01*
X170531399Y-89238668D01*
X170493982Y-89152076D01*
X170429185Y-89038688D01*
X170353772Y-88945070D01*
X170267418Y-88870959D01*
X170169795Y-88816094D01*
X170060577Y-88780212D01*
X169939439Y-88763051D01*
X169870038Y-88761880D01*
X169747168Y-88776141D01*
X169631664Y-88811241D01*
X169524953Y-88866682D01*
X169428464Y-88941964D01*
X169412721Y-88956440D01*
X169382149Y-88982962D01*
X169359809Y-89000138D01*
X169349691Y-89004787D01*
X169347706Y-89002597D01*
X169333241Y-88983721D01*
X169309400Y-88950397D01*
X169278029Y-88905380D01*
X169240974Y-88851425D01*
X169200083Y-88791285D01*
X169157202Y-88727718D01*
X169114178Y-88663476D01*
X169072857Y-88601315D01*
X169035087Y-88543991D01*
X169002712Y-88494257D01*
X168977583Y-88454868D01*
X168961542Y-88428580D01*
X168956439Y-88418147D01*
X168961050Y-88413941D01*
X168980267Y-88408933D01*
X168989838Y-88406386D01*
X169017808Y-88395249D01*
X169059449Y-88376802D01*
X169110995Y-88352725D01*
X169168690Y-88324699D01*
X169179957Y-88319154D01*
X169357686Y-88239889D01*
X169527490Y-88180385D01*
X169691430Y-88140245D01*
X169851571Y-88119071D01*
X170009977Y-88116466D01*
X170168711Y-88132033D01*
G37*
X166365994Y-90412711D02*
X166365268Y-90490158D01*
X166356689Y-90641594D01*
X166337833Y-90778283D01*
X166307837Y-90904276D01*
X166265836Y-91023625D01*
X166210969Y-91140381D01*
X166144167Y-91251179D01*
X166053363Y-91364739D01*
X165949708Y-91460211D01*
X165833887Y-91537074D01*
X165706586Y-91594797D01*
X165568489Y-91632858D01*
X165530793Y-91638666D01*
X165451752Y-91644396D01*
X165363629Y-91644583D01*
X165274236Y-91639539D01*
X165191384Y-91629578D01*
X165122887Y-91615012D01*
X165092035Y-91605364D01*
X165014731Y-91575123D01*
X164937679Y-91537617D01*
X164868200Y-91496614D01*
X164813615Y-91455879D01*
X164790916Y-91436505D01*
X164768201Y-91418662D01*
X164756779Y-91411778D01*
X164755537Y-91413424D01*
X164752728Y-91431205D01*
X164750776Y-91464370D01*
X164750045Y-91507733D01*
X164750045Y-91603689D01*
X163891896Y-91603689D01*
X163926161Y-91542974D01*
X163931355Y-91533868D01*
X163939715Y-91519249D01*
X163947288Y-91505173D01*
X163954112Y-91490540D01*
X163960227Y-91474249D01*
X163965673Y-91455198D01*
X163970487Y-91432286D01*
X163974708Y-91404413D01*
X163978377Y-91370478D01*
X163981531Y-91329379D01*
X163984211Y-91280016D01*
X163986454Y-91221286D01*
X163988299Y-91152090D01*
X163989787Y-91071326D01*
X163990955Y-90977894D01*
X163991844Y-90870692D01*
X163992491Y-90748621D01*
X163992936Y-90610576D01*
X163993217Y-90455459D01*
X163993375Y-90282168D01*
X163993448Y-90089603D01*
X163993474Y-89876662D01*
X163993485Y-89740530D01*
X164795200Y-89740530D01*
X164795200Y-90890721D01*
X164865756Y-90937089D01*
X164906417Y-90960791D01*
X164960546Y-90986639D01*
X165009689Y-91004829D01*
X165073165Y-91020551D01*
X165169330Y-91031541D01*
X165253900Y-91023365D01*
X165327219Y-90995805D01*
X165389637Y-90948642D01*
X165441502Y-90881658D01*
X165483160Y-90794633D01*
X165514962Y-90687350D01*
X165517545Y-90675009D01*
X165526000Y-90613772D01*
X165531663Y-90536692D01*
X165534576Y-90449002D01*
X165534783Y-90355934D01*
X165532330Y-90262720D01*
X165527261Y-90174594D01*
X165519619Y-90096788D01*
X165509448Y-90034532D01*
X165508167Y-90028666D01*
X165479126Y-89918121D01*
X165444611Y-89827575D01*
X165403456Y-89754953D01*
X165354499Y-89698181D01*
X165296573Y-89655184D01*
X165264620Y-89639615D01*
X165191784Y-89620722D01*
X165110443Y-89617465D01*
X165025319Y-89629389D01*
X164941133Y-89656040D01*
X164862608Y-89696963D01*
X164795200Y-89740530D01*
X163993485Y-89740530D01*
X163993493Y-89642245D01*
X163993690Y-87957378D01*
X164899017Y-87957378D01*
X164874585Y-87994067D01*
X164868319Y-88003647D01*
X164842208Y-88049981D01*
X164824469Y-88097102D01*
X164812908Y-88152251D01*
X164805331Y-88222668D01*
X164804839Y-88229650D01*
X164803062Y-88267641D01*
X164801444Y-88321575D01*
X164799999Y-88388703D01*
X164798740Y-88466271D01*
X164797681Y-88551528D01*
X164796829Y-88641724D01*
X164796203Y-88734107D01*
X164795812Y-88825925D01*
X164795670Y-88914427D01*
X164795790Y-88996862D01*
X164796183Y-89070479D01*
X164796863Y-89132526D01*
X164797841Y-89180251D01*
X164799132Y-89210904D01*
X164800747Y-89221733D01*
X164808957Y-89217333D01*
X164830647Y-89202362D01*
X164860014Y-89180448D01*
X164908879Y-89146236D01*
X164997124Y-89099714D01*
X165095916Y-89066046D01*
X165208510Y-89044231D01*
X165338164Y-89033265D01*
X165430670Y-89032219D01*
X165552011Y-89042014D01*
X165662099Y-89066174D01*
X165765389Y-89105785D01*
X165866338Y-89161932D01*
X165911503Y-89192883D01*
X166016911Y-89284115D01*
X166108539Y-89393106D01*
X166186332Y-89519726D01*
X166250241Y-89663845D01*
X166300214Y-89825332D01*
X166336199Y-90004059D01*
X166358143Y-90199895D01*
X166363900Y-90355934D01*
X166365994Y-90412711D01*
G36*
X166365994Y-90412711D02*
G01*
X166365268Y-90490158D01*
X166356689Y-90641594D01*
X166337833Y-90778283D01*
X166307837Y-90904276D01*
X166265836Y-91023625D01*
X166210969Y-91140381D01*
X166144167Y-91251179D01*
X166053363Y-91364739D01*
X165949708Y-91460211D01*
X165833887Y-91537074D01*
X165706586Y-91594797D01*
X165568489Y-91632858D01*
X165530793Y-91638666D01*
X165451752Y-91644396D01*
X165363629Y-91644583D01*
X165274236Y-91639539D01*
X165191384Y-91629578D01*
X165122887Y-91615012D01*
X165092035Y-91605364D01*
X165014731Y-91575123D01*
X164937679Y-91537617D01*
X164868200Y-91496614D01*
X164813615Y-91455879D01*
X164790916Y-91436505D01*
X164768201Y-91418662D01*
X164756779Y-91411778D01*
X164755537Y-91413424D01*
X164752728Y-91431205D01*
X164750776Y-91464370D01*
X164750045Y-91507733D01*
X164750045Y-91603689D01*
X163891896Y-91603689D01*
X163926161Y-91542974D01*
X163931355Y-91533868D01*
X163939715Y-91519249D01*
X163947288Y-91505173D01*
X163954112Y-91490540D01*
X163960227Y-91474249D01*
X163965673Y-91455198D01*
X163970487Y-91432286D01*
X163974708Y-91404413D01*
X163978377Y-91370478D01*
X163981531Y-91329379D01*
X163984211Y-91280016D01*
X163986454Y-91221286D01*
X163988299Y-91152090D01*
X163989787Y-91071326D01*
X163990955Y-90977894D01*
X163991844Y-90870692D01*
X163992491Y-90748621D01*
X163992936Y-90610576D01*
X163993217Y-90455459D01*
X163993375Y-90282168D01*
X163993448Y-90089603D01*
X163993474Y-89876662D01*
X163993485Y-89740530D01*
X164795200Y-89740530D01*
X164795200Y-90890721D01*
X164865756Y-90937089D01*
X164906417Y-90960791D01*
X164960546Y-90986639D01*
X165009689Y-91004829D01*
X165073165Y-91020551D01*
X165169330Y-91031541D01*
X165253900Y-91023365D01*
X165327219Y-90995805D01*
X165389637Y-90948642D01*
X165441502Y-90881658D01*
X165483160Y-90794633D01*
X165514962Y-90687350D01*
X165517545Y-90675009D01*
X165526000Y-90613772D01*
X165531663Y-90536692D01*
X165534576Y-90449002D01*
X165534783Y-90355934D01*
X165532330Y-90262720D01*
X165527261Y-90174594D01*
X165519619Y-90096788D01*
X165509448Y-90034532D01*
X165508167Y-90028666D01*
X165479126Y-89918121D01*
X165444611Y-89827575D01*
X165403456Y-89754953D01*
X165354499Y-89698181D01*
X165296573Y-89655184D01*
X165264620Y-89639615D01*
X165191784Y-89620722D01*
X165110443Y-89617465D01*
X165025319Y-89629389D01*
X164941133Y-89656040D01*
X164862608Y-89696963D01*
X164795200Y-89740530D01*
X163993485Y-89740530D01*
X163993493Y-89642245D01*
X163993690Y-87957378D01*
X164899017Y-87957378D01*
X164874585Y-87994067D01*
X164868319Y-88003647D01*
X164842208Y-88049981D01*
X164824469Y-88097102D01*
X164812908Y-88152251D01*
X164805331Y-88222668D01*
X164804839Y-88229650D01*
X164803062Y-88267641D01*
X164801444Y-88321575D01*
X164799999Y-88388703D01*
X164798740Y-88466271D01*
X164797681Y-88551528D01*
X164796829Y-88641724D01*
X164796203Y-88734107D01*
X164795812Y-88825925D01*
X164795670Y-88914427D01*
X164795790Y-88996862D01*
X164796183Y-89070479D01*
X164796863Y-89132526D01*
X164797841Y-89180251D01*
X164799132Y-89210904D01*
X164800747Y-89221733D01*
X164808957Y-89217333D01*
X164830647Y-89202362D01*
X164860014Y-89180448D01*
X164908879Y-89146236D01*
X164997124Y-89099714D01*
X165095916Y-89066046D01*
X165208510Y-89044231D01*
X165338164Y-89033265D01*
X165430670Y-89032219D01*
X165552011Y-89042014D01*
X165662099Y-89066174D01*
X165765389Y-89105785D01*
X165866338Y-89161932D01*
X165911503Y-89192883D01*
X166016911Y-89284115D01*
X166108539Y-89393106D01*
X166186332Y-89519726D01*
X166250241Y-89663845D01*
X166300214Y-89825332D01*
X166336199Y-90004059D01*
X166358143Y-90199895D01*
X166363900Y-90355934D01*
X166365994Y-90412711D01*
G37*
X168907755Y-90813467D02*
X168907262Y-90847363D01*
X168903632Y-90922203D01*
X168896022Y-90984401D01*
X168883688Y-91040984D01*
X168839313Y-91167076D01*
X168776400Y-91281679D01*
X168696238Y-91382568D01*
X168599739Y-91468924D01*
X168487822Y-91539932D01*
X168361397Y-91594776D01*
X168221378Y-91632638D01*
X168185149Y-91638351D01*
X168106155Y-91644313D01*
X168017841Y-91644646D01*
X167928075Y-91639659D01*
X167844722Y-91629666D01*
X167775651Y-91614978D01*
X167689187Y-91584749D01*
X167579286Y-91530057D01*
X167481956Y-91462543D01*
X167419867Y-91411556D01*
X167416605Y-91507622D01*
X167413343Y-91603689D01*
X166990450Y-91603689D01*
X166979543Y-91603686D01*
X166885056Y-91603380D01*
X166798330Y-91602616D01*
X166721837Y-91601451D01*
X166658043Y-91599942D01*
X166609418Y-91598147D01*
X166578433Y-91596121D01*
X166567556Y-91593922D01*
X166567578Y-91593463D01*
X166574614Y-91577910D01*
X166590434Y-91555072D01*
X166594734Y-91549637D01*
X166605777Y-91535606D01*
X166615311Y-91522186D01*
X166623461Y-91507722D01*
X166630352Y-91490556D01*
X166636111Y-91469034D01*
X166640862Y-91441497D01*
X166644731Y-91406292D01*
X166647844Y-91361760D01*
X166650325Y-91306246D01*
X166652300Y-91238093D01*
X166653894Y-91155645D01*
X166655234Y-91057246D01*
X166656444Y-90941239D01*
X166657649Y-90805968D01*
X166658595Y-90694586D01*
X167459378Y-90694586D01*
X167459378Y-90890462D01*
X167504048Y-90946973D01*
X167516785Y-90962212D01*
X167563604Y-91004843D01*
X167624254Y-91040672D01*
X167634897Y-91045850D01*
X167673676Y-91062745D01*
X167708691Y-91072909D01*
X167748722Y-91078325D01*
X167802541Y-91080978D01*
X167820648Y-91081383D01*
X167896011Y-91078540D01*
X167956743Y-91066620D01*
X168008452Y-91044037D01*
X168056746Y-91009211D01*
X168061803Y-91004798D01*
X168110272Y-90949160D01*
X168138459Y-90885333D01*
X168147752Y-90810282D01*
X168140520Y-90738693D01*
X168115795Y-90675645D01*
X168071249Y-90617758D01*
X168016319Y-90570809D01*
X167943894Y-90530961D01*
X167857340Y-90503263D01*
X167754670Y-90487096D01*
X167633894Y-90481842D01*
X167625007Y-90481857D01*
X167569659Y-90482655D01*
X167522736Y-90484488D01*
X167488953Y-90487111D01*
X167473028Y-90490274D01*
X167468943Y-90496741D01*
X167464572Y-90518874D01*
X167461604Y-90557988D01*
X167459914Y-90615939D01*
X167459378Y-90694586D01*
X166658595Y-90694586D01*
X166658975Y-90649778D01*
X166660228Y-90507012D01*
X166661651Y-90361942D01*
X166663176Y-90236027D01*
X166664933Y-90127436D01*
X166667051Y-90034334D01*
X166669660Y-89954891D01*
X166672890Y-89887273D01*
X166676869Y-89829649D01*
X166681728Y-89780185D01*
X166687597Y-89737050D01*
X166694604Y-89698410D01*
X166702880Y-89662435D01*
X166712554Y-89627289D01*
X166723756Y-89591142D01*
X166736616Y-89552161D01*
X166752090Y-89509091D01*
X166794994Y-89416871D01*
X166848735Y-89337099D01*
X166917575Y-89262965D01*
X166995185Y-89199405D01*
X167099761Y-89137725D01*
X167219244Y-89090202D01*
X167354507Y-89056567D01*
X167506426Y-89036552D01*
X167675872Y-89029889D01*
X167733890Y-89030287D01*
X167799398Y-89032335D01*
X167860693Y-89036704D01*
X167922097Y-89044035D01*
X167987932Y-89054969D01*
X168062520Y-89070147D01*
X168150184Y-89090209D01*
X168255245Y-89115797D01*
X168283805Y-89122820D01*
X168359054Y-89140776D01*
X168429388Y-89156820D01*
X168490566Y-89170028D01*
X168538354Y-89179474D01*
X168568511Y-89184231D01*
X168596783Y-89187910D01*
X168623060Y-89193187D01*
X168633059Y-89197942D01*
X168629952Y-89206781D01*
X168619194Y-89234071D01*
X168601864Y-89276906D01*
X168579126Y-89332425D01*
X168552147Y-89397772D01*
X168522090Y-89470089D01*
X168515493Y-89485879D01*
X168476907Y-89576484D01*
X168445768Y-89646217D01*
X168421917Y-89695405D01*
X168405198Y-89724374D01*
X168395453Y-89733452D01*
X168387766Y-89731405D01*
X168361415Y-89721760D01*
X168322982Y-89706190D01*
X168277822Y-89686816D01*
X168183293Y-89648814D01*
X168046480Y-89607780D01*
X167905288Y-89582612D01*
X167867314Y-89578611D01*
X167764059Y-89576447D01*
X167676952Y-89589622D01*
X167605129Y-89618756D01*
X167547731Y-89664466D01*
X167503896Y-89727372D01*
X167472762Y-89808092D01*
X167453470Y-89907245D01*
X167446050Y-89966224D01*
X167607936Y-89959445D01*
X167734495Y-89957813D01*
X167885951Y-89964194D01*
X168034396Y-89978777D01*
X168170579Y-90000882D01*
X168235246Y-90015821D01*
X168367490Y-90058741D01*
X168489762Y-90115340D01*
X168599685Y-90184017D01*
X168694883Y-90263170D01*
X168772981Y-90351196D01*
X168831599Y-90446494D01*
X168855595Y-90498864D01*
X168881232Y-90569590D01*
X168897478Y-90640811D01*
X168905822Y-90719712D01*
X168907690Y-90810282D01*
X168907755Y-90813467D01*
G36*
X168907755Y-90813467D02*
G01*
X168907262Y-90847363D01*
X168903632Y-90922203D01*
X168896022Y-90984401D01*
X168883688Y-91040984D01*
X168839313Y-91167076D01*
X168776400Y-91281679D01*
X168696238Y-91382568D01*
X168599739Y-91468924D01*
X168487822Y-91539932D01*
X168361397Y-91594776D01*
X168221378Y-91632638D01*
X168185149Y-91638351D01*
X168106155Y-91644313D01*
X168017841Y-91644646D01*
X167928075Y-91639659D01*
X167844722Y-91629666D01*
X167775651Y-91614978D01*
X167689187Y-91584749D01*
X167579286Y-91530057D01*
X167481956Y-91462543D01*
X167419867Y-91411556D01*
X167416605Y-91507622D01*
X167413343Y-91603689D01*
X166990450Y-91603689D01*
X166979543Y-91603686D01*
X166885056Y-91603380D01*
X166798330Y-91602616D01*
X166721837Y-91601451D01*
X166658043Y-91599942D01*
X166609418Y-91598147D01*
X166578433Y-91596121D01*
X166567556Y-91593922D01*
X166567578Y-91593463D01*
X166574614Y-91577910D01*
X166590434Y-91555072D01*
X166594734Y-91549637D01*
X166605777Y-91535606D01*
X166615311Y-91522186D01*
X166623461Y-91507722D01*
X166630352Y-91490556D01*
X166636111Y-91469034D01*
X166640862Y-91441497D01*
X166644731Y-91406292D01*
X166647844Y-91361760D01*
X166650325Y-91306246D01*
X166652300Y-91238093D01*
X166653894Y-91155645D01*
X166655234Y-91057246D01*
X166656444Y-90941239D01*
X166657649Y-90805968D01*
X166658595Y-90694586D01*
X167459378Y-90694586D01*
X167459378Y-90890462D01*
X167504048Y-90946973D01*
X167516785Y-90962212D01*
X167563604Y-91004843D01*
X167624254Y-91040672D01*
X167634897Y-91045850D01*
X167673676Y-91062745D01*
X167708691Y-91072909D01*
X167748722Y-91078325D01*
X167802541Y-91080978D01*
X167820648Y-91081383D01*
X167896011Y-91078540D01*
X167956743Y-91066620D01*
X168008452Y-91044037D01*
X168056746Y-91009211D01*
X168061803Y-91004798D01*
X168110272Y-90949160D01*
X168138459Y-90885333D01*
X168147752Y-90810282D01*
X168140520Y-90738693D01*
X168115795Y-90675645D01*
X168071249Y-90617758D01*
X168016319Y-90570809D01*
X167943894Y-90530961D01*
X167857340Y-90503263D01*
X167754670Y-90487096D01*
X167633894Y-90481842D01*
X167625007Y-90481857D01*
X167569659Y-90482655D01*
X167522736Y-90484488D01*
X167488953Y-90487111D01*
X167473028Y-90490274D01*
X167468943Y-90496741D01*
X167464572Y-90518874D01*
X167461604Y-90557988D01*
X167459914Y-90615939D01*
X167459378Y-90694586D01*
X166658595Y-90694586D01*
X166658975Y-90649778D01*
X166660228Y-90507012D01*
X166661651Y-90361942D01*
X166663176Y-90236027D01*
X166664933Y-90127436D01*
X166667051Y-90034334D01*
X166669660Y-89954891D01*
X166672890Y-89887273D01*
X166676869Y-89829649D01*
X166681728Y-89780185D01*
X166687597Y-89737050D01*
X166694604Y-89698410D01*
X166702880Y-89662435D01*
X166712554Y-89627289D01*
X166723756Y-89591142D01*
X166736616Y-89552161D01*
X166752090Y-89509091D01*
X166794994Y-89416871D01*
X166848735Y-89337099D01*
X166917575Y-89262965D01*
X166995185Y-89199405D01*
X167099761Y-89137725D01*
X167219244Y-89090202D01*
X167354507Y-89056567D01*
X167506426Y-89036552D01*
X167675872Y-89029889D01*
X167733890Y-89030287D01*
X167799398Y-89032335D01*
X167860693Y-89036704D01*
X167922097Y-89044035D01*
X167987932Y-89054969D01*
X168062520Y-89070147D01*
X168150184Y-89090209D01*
X168255245Y-89115797D01*
X168283805Y-89122820D01*
X168359054Y-89140776D01*
X168429388Y-89156820D01*
X168490566Y-89170028D01*
X168538354Y-89179474D01*
X168568511Y-89184231D01*
X168596783Y-89187910D01*
X168623060Y-89193187D01*
X168633059Y-89197942D01*
X168629952Y-89206781D01*
X168619194Y-89234071D01*
X168601864Y-89276906D01*
X168579126Y-89332425D01*
X168552147Y-89397772D01*
X168522090Y-89470089D01*
X168515493Y-89485879D01*
X168476907Y-89576484D01*
X168445768Y-89646217D01*
X168421917Y-89695405D01*
X168405198Y-89724374D01*
X168395453Y-89733452D01*
X168387766Y-89731405D01*
X168361415Y-89721760D01*
X168322982Y-89706190D01*
X168277822Y-89686816D01*
X168183293Y-89648814D01*
X168046480Y-89607780D01*
X167905288Y-89582612D01*
X167867314Y-89578611D01*
X167764059Y-89576447D01*
X167676952Y-89589622D01*
X167605129Y-89618756D01*
X167547731Y-89664466D01*
X167503896Y-89727372D01*
X167472762Y-89808092D01*
X167453470Y-89907245D01*
X167446050Y-89966224D01*
X167607936Y-89959445D01*
X167734495Y-89957813D01*
X167885951Y-89964194D01*
X168034396Y-89978777D01*
X168170579Y-90000882D01*
X168235246Y-90015821D01*
X168367490Y-90058741D01*
X168489762Y-90115340D01*
X168599685Y-90184017D01*
X168694883Y-90263170D01*
X168772981Y-90351196D01*
X168831599Y-90446494D01*
X168855595Y-90498864D01*
X168881232Y-90569590D01*
X168897478Y-90640811D01*
X168905822Y-90719712D01*
X168907690Y-90810282D01*
X168907755Y-90813467D01*
G37*
X176455614Y-88281792D02*
X176456059Y-88413011D01*
X176456362Y-88560216D01*
X176456548Y-88724349D01*
X176456642Y-88906352D01*
X176456671Y-89107165D01*
X176456661Y-89327732D01*
X176456636Y-89568992D01*
X176456622Y-89831888D01*
X176456622Y-89874040D01*
X176456645Y-90134668D01*
X176456685Y-90373796D01*
X176456708Y-90592360D01*
X176456687Y-90791295D01*
X176456593Y-90971535D01*
X176456395Y-91134015D01*
X176456063Y-91279670D01*
X176455569Y-91409434D01*
X176454883Y-91524243D01*
X176453976Y-91625031D01*
X176452817Y-91712730D01*
X176451378Y-91788279D01*
X176449629Y-91852611D01*
X176447540Y-91906661D01*
X176445083Y-91951363D01*
X176442227Y-91987652D01*
X176438944Y-92016463D01*
X176435202Y-92038731D01*
X176430974Y-92055390D01*
X176426229Y-92067375D01*
X176420939Y-92075621D01*
X176415073Y-92081061D01*
X176408602Y-92084634D01*
X176401497Y-92087270D01*
X176393728Y-92089906D01*
X176385266Y-92093477D01*
X176380908Y-92095145D01*
X176372395Y-92097111D01*
X176359694Y-92098912D01*
X176341885Y-92100555D01*
X176318050Y-92102047D01*
X176287266Y-92103397D01*
X176248617Y-92104611D01*
X176201182Y-92105697D01*
X176144043Y-92106661D01*
X176076279Y-92107511D01*
X175996971Y-92108253D01*
X175905199Y-92108897D01*
X175800044Y-92109447D01*
X175680587Y-92109913D01*
X175545908Y-92110300D01*
X175395088Y-92110616D01*
X175227206Y-92110869D01*
X175041345Y-92111066D01*
X174836583Y-92111212D01*
X174612002Y-92111318D01*
X174366682Y-92111389D01*
X174099704Y-92111432D01*
X174061321Y-92111437D01*
X173795922Y-92111480D01*
X173552050Y-92111525D01*
X173328783Y-92111548D01*
X173125196Y-92111524D01*
X172940367Y-92111430D01*
X172773374Y-92111243D01*
X172623290Y-92110939D01*
X172489196Y-92110494D01*
X172370166Y-92109885D01*
X172265279Y-92109089D01*
X172173610Y-92108080D01*
X172094237Y-92106838D01*
X172026237Y-92105335D01*
X171968686Y-92103551D01*
X171920662Y-92101461D01*
X171881240Y-92099042D01*
X171849499Y-92096271D01*
X171824514Y-92093121D01*
X171805364Y-92089571D01*
X171791123Y-92085598D01*
X171780871Y-92081178D01*
X171773682Y-92076286D01*
X171768635Y-92070900D01*
X171764805Y-92064996D01*
X171761271Y-92058549D01*
X171757108Y-92051537D01*
X171756025Y-92049686D01*
X171753813Y-92044180D01*
X171751786Y-92035867D01*
X171749938Y-92023809D01*
X171748261Y-92007063D01*
X171746745Y-91984686D01*
X171745383Y-91955740D01*
X171744167Y-91919280D01*
X171743089Y-91874367D01*
X171742140Y-91820057D01*
X171741312Y-91755410D01*
X171740597Y-91679484D01*
X171739987Y-91591338D01*
X171739942Y-91582492D01*
X172031378Y-91582492D01*
X172035260Y-91583765D01*
X172058520Y-91585791D01*
X172100874Y-91587626D01*
X172160132Y-91589227D01*
X172234107Y-91590549D01*
X172320610Y-91591548D01*
X172417452Y-91592181D01*
X172522445Y-91592400D01*
X173220651Y-91592400D01*
X174375090Y-91592400D01*
X174374456Y-91516200D01*
X174375574Y-91474160D01*
X174381304Y-91438334D01*
X174393890Y-91400772D01*
X174415568Y-91352577D01*
X174418789Y-91345897D01*
X174444188Y-91296359D01*
X174470995Y-91248369D01*
X174493917Y-91211466D01*
X174498485Y-91204834D01*
X174520516Y-91173593D01*
X174552693Y-91128654D01*
X174593457Y-91072147D01*
X174641245Y-91006204D01*
X174694498Y-90932957D01*
X174751655Y-90854536D01*
X174811155Y-90773072D01*
X174871437Y-90690698D01*
X174930939Y-90609544D01*
X174988105Y-90531742D01*
X175041370Y-90459423D01*
X175089174Y-90394718D01*
X175129957Y-90339759D01*
X175162158Y-90296676D01*
X175184216Y-90267602D01*
X175194571Y-90254667D01*
X175199044Y-90250351D01*
X175203236Y-90248312D01*
X175206643Y-90250926D01*
X175209325Y-90259986D01*
X175211341Y-90277285D01*
X175212748Y-90304614D01*
X175213605Y-90343765D01*
X175213970Y-90396533D01*
X175213903Y-90464707D01*
X175213460Y-90550082D01*
X175212702Y-90654449D01*
X175211685Y-90779600D01*
X175211308Y-90824300D01*
X175210170Y-90945395D01*
X175208972Y-91046688D01*
X175207636Y-91130262D01*
X175206077Y-91198204D01*
X175204215Y-91252600D01*
X175201966Y-91295532D01*
X175199248Y-91329089D01*
X175195979Y-91355355D01*
X175192078Y-91376416D01*
X175187461Y-91394358D01*
X175179193Y-91420770D01*
X175155582Y-91482772D01*
X175129685Y-91535573D01*
X175104535Y-91572645D01*
X175103338Y-91574075D01*
X175101168Y-91578424D01*
X175103328Y-91582026D01*
X175111643Y-91584951D01*
X175127939Y-91587269D01*
X175154042Y-91589051D01*
X175191771Y-91590367D01*
X175242956Y-91591285D01*
X175309420Y-91591878D01*
X175392987Y-91592214D01*
X175495483Y-91592365D01*
X175618732Y-91592400D01*
X176150296Y-91592400D01*
X176111523Y-91534783D01*
X176105432Y-91525893D01*
X176094977Y-91511069D01*
X176085579Y-91497422D01*
X176077183Y-91483765D01*
X176069733Y-91468911D01*
X176063173Y-91451670D01*
X176057446Y-91430855D01*
X176052495Y-91405280D01*
X176048266Y-91373755D01*
X176044701Y-91335093D01*
X176041744Y-91288107D01*
X176039340Y-91231608D01*
X176037431Y-91164409D01*
X176035962Y-91085322D01*
X176034877Y-90993160D01*
X176034118Y-90886734D01*
X176033630Y-90764857D01*
X176033358Y-90626341D01*
X176033243Y-90469999D01*
X176033231Y-90294642D01*
X176033265Y-90099082D01*
X176033289Y-89882133D01*
X176033280Y-89759513D01*
X176033243Y-89554447D01*
X176033227Y-89370116D01*
X176033289Y-89205334D01*
X176033484Y-89058916D01*
X176033870Y-88929674D01*
X176034505Y-88816422D01*
X176035444Y-88717975D01*
X176036745Y-88633144D01*
X176038464Y-88560744D01*
X176040659Y-88499589D01*
X176043385Y-88448492D01*
X176046701Y-88406266D01*
X176050662Y-88371727D01*
X176055325Y-88343686D01*
X176060747Y-88320958D01*
X176066986Y-88302356D01*
X176074097Y-88286693D01*
X176082138Y-88272784D01*
X176091166Y-88259441D01*
X176101236Y-88245479D01*
X176112407Y-88229711D01*
X176152197Y-88171868D01*
X175092314Y-88171867D01*
X175130311Y-88234966D01*
X175144993Y-88260005D01*
X175159531Y-88287586D01*
X175171627Y-88315700D01*
X175181532Y-88346551D01*
X175189494Y-88382344D01*
X175195761Y-88425283D01*
X175200582Y-88477575D01*
X175204206Y-88541419D01*
X175206882Y-88619025D01*
X175208857Y-88712594D01*
X175210382Y-88824333D01*
X175211704Y-88956445D01*
X175212613Y-89076434D01*
X175213020Y-89193063D01*
X175212767Y-89288531D01*
X175211857Y-89362556D01*
X175210293Y-89414855D01*
X175208079Y-89445149D01*
X175205220Y-89453156D01*
X175202161Y-89449858D01*
X175184006Y-89428408D01*
X175154275Y-89391889D01*
X175114639Y-89342442D01*
X175066770Y-89282207D01*
X175012343Y-89213328D01*
X174953027Y-89137943D01*
X174890495Y-89058196D01*
X174826421Y-88976228D01*
X174762475Y-88894180D01*
X174700331Y-88814194D01*
X174641661Y-88738411D01*
X174588137Y-88668973D01*
X174541430Y-88608021D01*
X174503214Y-88557696D01*
X174475161Y-88520140D01*
X174458943Y-88497495D01*
X174413635Y-88425213D01*
X174373662Y-88345463D01*
X174352130Y-88277188D01*
X174348827Y-88219844D01*
X174354116Y-88171867D01*
X173222356Y-88172117D01*
X173261867Y-88202721D01*
X173271248Y-88210089D01*
X173334183Y-88264438D01*
X173402997Y-88332259D01*
X173479596Y-88415516D01*
X173565888Y-88516178D01*
X173583053Y-88536847D01*
X173623833Y-88586409D01*
X173673588Y-88647326D01*
X173730955Y-88717898D01*
X173794569Y-88796424D01*
X173863069Y-88881205D01*
X173935090Y-88970537D01*
X174009270Y-89062722D01*
X174024517Y-89081702D01*
X174084246Y-89156060D01*
X174158653Y-89248848D01*
X174231131Y-89339388D01*
X174300314Y-89425978D01*
X174364841Y-89506918D01*
X174423347Y-89580506D01*
X174474470Y-89645044D01*
X174516847Y-89698829D01*
X174549115Y-89740162D01*
X174569910Y-89767342D01*
X174577869Y-89778667D01*
X174576111Y-89782771D01*
X174563230Y-89803334D01*
X174538885Y-89839561D01*
X174504247Y-89889824D01*
X174460486Y-89952492D01*
X174408775Y-90025936D01*
X174350284Y-90108527D01*
X174286184Y-90198636D01*
X174217645Y-90294631D01*
X174145843Y-90394885D01*
X174071944Y-90497768D01*
X173997122Y-90601650D01*
X173922545Y-90704901D01*
X173849387Y-90805892D01*
X173778819Y-90902994D01*
X173712011Y-90994577D01*
X173650135Y-91079011D01*
X173594361Y-91154667D01*
X173545862Y-91219916D01*
X173505807Y-91273128D01*
X173475369Y-91312673D01*
X173454944Y-91338026D01*
X173408898Y-91392295D01*
X173358613Y-91448775D01*
X173311815Y-91498668D01*
X173220651Y-91592400D01*
X172522445Y-91592400D01*
X172591356Y-91592349D01*
X172689607Y-91592091D01*
X172779030Y-91591637D01*
X172857333Y-91591010D01*
X172922223Y-91590235D01*
X172971411Y-91589335D01*
X173002604Y-91588334D01*
X173013511Y-91587257D01*
X173012322Y-91584037D01*
X173002176Y-91566452D01*
X172985040Y-91540158D01*
X172976540Y-91527691D01*
X172967329Y-91513622D01*
X172959233Y-91499352D01*
X172952185Y-91483479D01*
X172946117Y-91464609D01*
X172940961Y-91441341D01*
X172936651Y-91412278D01*
X172933119Y-91376022D01*
X172930297Y-91331170D01*
X172928118Y-91276328D01*
X172926514Y-91210097D01*
X172925418Y-91131077D01*
X172924764Y-91037871D01*
X172924484Y-90929079D01*
X172924509Y-90803303D01*
X172924772Y-90659145D01*
X172925206Y-90495207D01*
X172925745Y-90310089D01*
X172926279Y-90131231D01*
X172926805Y-89972374D01*
X172927350Y-89833316D01*
X172927945Y-89712665D01*
X172928619Y-89609028D01*
X172929403Y-89521011D01*
X172930326Y-89447223D01*
X172931420Y-89386269D01*
X172932712Y-89336757D01*
X172934235Y-89297293D01*
X172936019Y-89266484D01*
X172938092Y-89242938D01*
X172940485Y-89225260D01*
X172943230Y-89212059D01*
X172946356Y-89201940D01*
X172949891Y-89193511D01*
X172953790Y-89185375D01*
X172973437Y-89148544D01*
X172992225Y-89118392D01*
X172993272Y-89116908D01*
X173007602Y-89094660D01*
X173013511Y-89081702D01*
X173012504Y-89081249D01*
X172995305Y-89079803D01*
X172958656Y-89078480D01*
X172904962Y-89077316D01*
X172836631Y-89076347D01*
X172756064Y-89075611D01*
X172665671Y-89075142D01*
X172567854Y-89074978D01*
X172122195Y-89074978D01*
X172119120Y-90251845D01*
X172116045Y-91428712D01*
X172089407Y-91487622D01*
X172077485Y-91512183D01*
X172060246Y-91542434D01*
X172047074Y-91559560D01*
X172039076Y-91567591D01*
X172031378Y-91582492D01*
X171739942Y-91582492D01*
X171739474Y-91490029D01*
X171739050Y-91374617D01*
X171738706Y-91244160D01*
X171738434Y-91097716D01*
X171738227Y-90934344D01*
X171738076Y-90753101D01*
X171737972Y-90553048D01*
X171737908Y-90333241D01*
X171737876Y-90092739D01*
X171737867Y-89830602D01*
X171737867Y-87639031D01*
X171776249Y-87600649D01*
X171803355Y-87576911D01*
X171830253Y-87565111D01*
X171866560Y-87562267D01*
X171918489Y-87562267D01*
X171918489Y-87650206D01*
X171920427Y-87700102D01*
X171939199Y-87810523D01*
X171976217Y-87911987D01*
X172029368Y-88003152D01*
X172096546Y-88082673D01*
X172175638Y-88149205D01*
X172264534Y-88201406D01*
X172361125Y-88237930D01*
X172463300Y-88257435D01*
X172568950Y-88258573D01*
X172675965Y-88240005D01*
X172782232Y-88200384D01*
X172879219Y-88142516D01*
X172964293Y-88067685D01*
X173033015Y-87979615D01*
X173083918Y-87880616D01*
X173115535Y-87772993D01*
X173126399Y-87659054D01*
X173126400Y-87562267D01*
X174746753Y-87562267D01*
X174957897Y-87562280D01*
X175162020Y-87562330D01*
X175345686Y-87562430D01*
X175509991Y-87562592D01*
X175656029Y-87562829D01*
X175784894Y-87563153D01*
X175897683Y-87563575D01*
X175995488Y-87564109D01*
X176079404Y-87564768D01*
X176150528Y-87565561D01*
X176209950Y-87566504D01*
X176258768Y-87567608D01*
X176298077Y-87568884D01*
X176328969Y-87570347D01*
X176352541Y-87572007D01*
X176369886Y-87573878D01*
X176382099Y-87575972D01*
X176390275Y-87578300D01*
X176395508Y-87580876D01*
X176401504Y-87584445D01*
X176408279Y-87587978D01*
X176414478Y-87591488D01*
X176420126Y-87595918D01*
X176425247Y-87602207D01*
X176429869Y-87611301D01*
X176434015Y-87624139D01*
X176437713Y-87641662D01*
X176440987Y-87664813D01*
X176443863Y-87694534D01*
X176446367Y-87731765D01*
X176448524Y-87777449D01*
X176450360Y-87832527D01*
X176451900Y-87897941D01*
X176453170Y-87974633D01*
X176454195Y-88063544D01*
X176455001Y-88165617D01*
X176455034Y-88171868D01*
X176455614Y-88281792D01*
G36*
X176455614Y-88281792D02*
G01*
X176456059Y-88413011D01*
X176456362Y-88560216D01*
X176456548Y-88724349D01*
X176456642Y-88906352D01*
X176456671Y-89107165D01*
X176456661Y-89327732D01*
X176456636Y-89568992D01*
X176456622Y-89831888D01*
X176456622Y-89874040D01*
X176456645Y-90134668D01*
X176456685Y-90373796D01*
X176456708Y-90592360D01*
X176456687Y-90791295D01*
X176456593Y-90971535D01*
X176456395Y-91134015D01*
X176456063Y-91279670D01*
X176455569Y-91409434D01*
X176454883Y-91524243D01*
X176453976Y-91625031D01*
X176452817Y-91712730D01*
X176451378Y-91788279D01*
X176449629Y-91852611D01*
X176447540Y-91906661D01*
X176445083Y-91951363D01*
X176442227Y-91987652D01*
X176438944Y-92016463D01*
X176435202Y-92038731D01*
X176430974Y-92055390D01*
X176426229Y-92067375D01*
X176420939Y-92075621D01*
X176415073Y-92081061D01*
X176408602Y-92084634D01*
X176401497Y-92087270D01*
X176393728Y-92089906D01*
X176385266Y-92093477D01*
X176380908Y-92095145D01*
X176372395Y-92097111D01*
X176359694Y-92098912D01*
X176341885Y-92100555D01*
X176318050Y-92102047D01*
X176287266Y-92103397D01*
X176248617Y-92104611D01*
X176201182Y-92105697D01*
X176144043Y-92106661D01*
X176076279Y-92107511D01*
X175996971Y-92108253D01*
X175905199Y-92108897D01*
X175800044Y-92109447D01*
X175680587Y-92109913D01*
X175545908Y-92110300D01*
X175395088Y-92110616D01*
X175227206Y-92110869D01*
X175041345Y-92111066D01*
X174836583Y-92111212D01*
X174612002Y-92111318D01*
X174366682Y-92111389D01*
X174099704Y-92111432D01*
X174061321Y-92111437D01*
X173795922Y-92111480D01*
X173552050Y-92111525D01*
X173328783Y-92111548D01*
X173125196Y-92111524D01*
X172940367Y-92111430D01*
X172773374Y-92111243D01*
X172623290Y-92110939D01*
X172489196Y-92110494D01*
X172370166Y-92109885D01*
X172265279Y-92109089D01*
X172173610Y-92108080D01*
X172094237Y-92106838D01*
X172026237Y-92105335D01*
X171968686Y-92103551D01*
X171920662Y-92101461D01*
X171881240Y-92099042D01*
X171849499Y-92096271D01*
X171824514Y-92093121D01*
X171805364Y-92089571D01*
X171791123Y-92085598D01*
X171780871Y-92081178D01*
X171773682Y-92076286D01*
X171768635Y-92070900D01*
X171764805Y-92064996D01*
X171761271Y-92058549D01*
X171757108Y-92051537D01*
X171756025Y-92049686D01*
X171753813Y-92044180D01*
X171751786Y-92035867D01*
X171749938Y-92023809D01*
X171748261Y-92007063D01*
X171746745Y-91984686D01*
X171745383Y-91955740D01*
X171744167Y-91919280D01*
X171743089Y-91874367D01*
X171742140Y-91820057D01*
X171741312Y-91755410D01*
X171740597Y-91679484D01*
X171739987Y-91591338D01*
X171739942Y-91582492D01*
X172031378Y-91582492D01*
X172035260Y-91583765D01*
X172058520Y-91585791D01*
X172100874Y-91587626D01*
X172160132Y-91589227D01*
X172234107Y-91590549D01*
X172320610Y-91591548D01*
X172417452Y-91592181D01*
X172522445Y-91592400D01*
X173220651Y-91592400D01*
X174375090Y-91592400D01*
X174374456Y-91516200D01*
X174375574Y-91474160D01*
X174381304Y-91438334D01*
X174393890Y-91400772D01*
X174415568Y-91352577D01*
X174418789Y-91345897D01*
X174444188Y-91296359D01*
X174470995Y-91248369D01*
X174493917Y-91211466D01*
X174498485Y-91204834D01*
X174520516Y-91173593D01*
X174552693Y-91128654D01*
X174593457Y-91072147D01*
X174641245Y-91006204D01*
X174694498Y-90932957D01*
X174751655Y-90854536D01*
X174811155Y-90773072D01*
X174871437Y-90690698D01*
X174930939Y-90609544D01*
X174988105Y-90531742D01*
X175041370Y-90459423D01*
X175089174Y-90394718D01*
X175129957Y-90339759D01*
X175162158Y-90296676D01*
X175184216Y-90267602D01*
X175194571Y-90254667D01*
X175199044Y-90250351D01*
X175203236Y-90248312D01*
X175206643Y-90250926D01*
X175209325Y-90259986D01*
X175211341Y-90277285D01*
X175212748Y-90304614D01*
X175213605Y-90343765D01*
X175213970Y-90396533D01*
X175213903Y-90464707D01*
X175213460Y-90550082D01*
X175212702Y-90654449D01*
X175211685Y-90779600D01*
X175211308Y-90824300D01*
X175210170Y-90945395D01*
X175208972Y-91046688D01*
X175207636Y-91130262D01*
X175206077Y-91198204D01*
X175204215Y-91252600D01*
X175201966Y-91295532D01*
X175199248Y-91329089D01*
X175195979Y-91355355D01*
X175192078Y-91376416D01*
X175187461Y-91394358D01*
X175179193Y-91420770D01*
X175155582Y-91482772D01*
X175129685Y-91535573D01*
X175104535Y-91572645D01*
X175103338Y-91574075D01*
X175101168Y-91578424D01*
X175103328Y-91582026D01*
X175111643Y-91584951D01*
X175127939Y-91587269D01*
X175154042Y-91589051D01*
X175191771Y-91590367D01*
X175242956Y-91591285D01*
X175309420Y-91591878D01*
X175392987Y-91592214D01*
X175495483Y-91592365D01*
X175618732Y-91592400D01*
X176150296Y-91592400D01*
X176111523Y-91534783D01*
X176105432Y-91525893D01*
X176094977Y-91511069D01*
X176085579Y-91497422D01*
X176077183Y-91483765D01*
X176069733Y-91468911D01*
X176063173Y-91451670D01*
X176057446Y-91430855D01*
X176052495Y-91405280D01*
X176048266Y-91373755D01*
X176044701Y-91335093D01*
X176041744Y-91288107D01*
X176039340Y-91231608D01*
X176037431Y-91164409D01*
X176035962Y-91085322D01*
X176034877Y-90993160D01*
X176034118Y-90886734D01*
X176033630Y-90764857D01*
X176033358Y-90626341D01*
X176033243Y-90469999D01*
X176033231Y-90294642D01*
X176033265Y-90099082D01*
X176033289Y-89882133D01*
X176033280Y-89759513D01*
X176033243Y-89554447D01*
X176033227Y-89370116D01*
X176033289Y-89205334D01*
X176033484Y-89058916D01*
X176033870Y-88929674D01*
X176034505Y-88816422D01*
X176035444Y-88717975D01*
X176036745Y-88633144D01*
X176038464Y-88560744D01*
X176040659Y-88499589D01*
X176043385Y-88448492D01*
X176046701Y-88406266D01*
X176050662Y-88371727D01*
X176055325Y-88343686D01*
X176060747Y-88320958D01*
X176066986Y-88302356D01*
X176074097Y-88286693D01*
X176082138Y-88272784D01*
X176091166Y-88259441D01*
X176101236Y-88245479D01*
X176112407Y-88229711D01*
X176152197Y-88171868D01*
X175092314Y-88171867D01*
X175130311Y-88234966D01*
X175144993Y-88260005D01*
X175159531Y-88287586D01*
X175171627Y-88315700D01*
X175181532Y-88346551D01*
X175189494Y-88382344D01*
X175195761Y-88425283D01*
X175200582Y-88477575D01*
X175204206Y-88541419D01*
X175206882Y-88619025D01*
X175208857Y-88712594D01*
X175210382Y-88824333D01*
X175211704Y-88956445D01*
X175212613Y-89076434D01*
X175213020Y-89193063D01*
X175212767Y-89288531D01*
X175211857Y-89362556D01*
X175210293Y-89414855D01*
X175208079Y-89445149D01*
X175205220Y-89453156D01*
X175202161Y-89449858D01*
X175184006Y-89428408D01*
X175154275Y-89391889D01*
X175114639Y-89342442D01*
X175066770Y-89282207D01*
X175012343Y-89213328D01*
X174953027Y-89137943D01*
X174890495Y-89058196D01*
X174826421Y-88976228D01*
X174762475Y-88894180D01*
X174700331Y-88814194D01*
X174641661Y-88738411D01*
X174588137Y-88668973D01*
X174541430Y-88608021D01*
X174503214Y-88557696D01*
X174475161Y-88520140D01*
X174458943Y-88497495D01*
X174413635Y-88425213D01*
X174373662Y-88345463D01*
X174352130Y-88277188D01*
X174348827Y-88219844D01*
X174354116Y-88171867D01*
X173222356Y-88172117D01*
X173261867Y-88202721D01*
X173271248Y-88210089D01*
X173334183Y-88264438D01*
X173402997Y-88332259D01*
X173479596Y-88415516D01*
X173565888Y-88516178D01*
X173583053Y-88536847D01*
X173623833Y-88586409D01*
X173673588Y-88647326D01*
X173730955Y-88717898D01*
X173794569Y-88796424D01*
X173863069Y-88881205D01*
X173935090Y-88970537D01*
X174009270Y-89062722D01*
X174024517Y-89081702D01*
X174084246Y-89156060D01*
X174158653Y-89248848D01*
X174231131Y-89339388D01*
X174300314Y-89425978D01*
X174364841Y-89506918D01*
X174423347Y-89580506D01*
X174474470Y-89645044D01*
X174516847Y-89698829D01*
X174549115Y-89740162D01*
X174569910Y-89767342D01*
X174577869Y-89778667D01*
X174576111Y-89782771D01*
X174563230Y-89803334D01*
X174538885Y-89839561D01*
X174504247Y-89889824D01*
X174460486Y-89952492D01*
X174408775Y-90025936D01*
X174350284Y-90108527D01*
X174286184Y-90198636D01*
X174217645Y-90294631D01*
X174145843Y-90394885D01*
X174071944Y-90497768D01*
X173997122Y-90601650D01*
X173922545Y-90704901D01*
X173849387Y-90805892D01*
X173778819Y-90902994D01*
X173712011Y-90994577D01*
X173650135Y-91079011D01*
X173594361Y-91154667D01*
X173545862Y-91219916D01*
X173505807Y-91273128D01*
X173475369Y-91312673D01*
X173454944Y-91338026D01*
X173408898Y-91392295D01*
X173358613Y-91448775D01*
X173311815Y-91498668D01*
X173220651Y-91592400D01*
X172522445Y-91592400D01*
X172591356Y-91592349D01*
X172689607Y-91592091D01*
X172779030Y-91591637D01*
X172857333Y-91591010D01*
X172922223Y-91590235D01*
X172971411Y-91589335D01*
X173002604Y-91588334D01*
X173013511Y-91587257D01*
X173012322Y-91584037D01*
X173002176Y-91566452D01*
X172985040Y-91540158D01*
X172976540Y-91527691D01*
X172967329Y-91513622D01*
X172959233Y-91499352D01*
X172952185Y-91483479D01*
X172946117Y-91464609D01*
X172940961Y-91441341D01*
X172936651Y-91412278D01*
X172933119Y-91376022D01*
X172930297Y-91331170D01*
X172928118Y-91276328D01*
X172926514Y-91210097D01*
X172925418Y-91131077D01*
X172924764Y-91037871D01*
X172924484Y-90929079D01*
X172924509Y-90803303D01*
X172924772Y-90659145D01*
X172925206Y-90495207D01*
X172925745Y-90310089D01*
X172926279Y-90131231D01*
X172926805Y-89972374D01*
X172927350Y-89833316D01*
X172927945Y-89712665D01*
X172928619Y-89609028D01*
X172929403Y-89521011D01*
X172930326Y-89447223D01*
X172931420Y-89386269D01*
X172932712Y-89336757D01*
X172934235Y-89297293D01*
X172936019Y-89266484D01*
X172938092Y-89242938D01*
X172940485Y-89225260D01*
X172943230Y-89212059D01*
X172946356Y-89201940D01*
X172949891Y-89193511D01*
X172953790Y-89185375D01*
X172973437Y-89148544D01*
X172992225Y-89118392D01*
X172993272Y-89116908D01*
X173007602Y-89094660D01*
X173013511Y-89081702D01*
X173012504Y-89081249D01*
X172995305Y-89079803D01*
X172958656Y-89078480D01*
X172904962Y-89077316D01*
X172836631Y-89076347D01*
X172756064Y-89075611D01*
X172665671Y-89075142D01*
X172567854Y-89074978D01*
X172122195Y-89074978D01*
X172119120Y-90251845D01*
X172116045Y-91428712D01*
X172089407Y-91487622D01*
X172077485Y-91512183D01*
X172060246Y-91542434D01*
X172047074Y-91559560D01*
X172039076Y-91567591D01*
X172031378Y-91582492D01*
X171739942Y-91582492D01*
X171739474Y-91490029D01*
X171739050Y-91374617D01*
X171738706Y-91244160D01*
X171738434Y-91097716D01*
X171738227Y-90934344D01*
X171738076Y-90753101D01*
X171737972Y-90553048D01*
X171737908Y-90333241D01*
X171737876Y-90092739D01*
X171737867Y-89830602D01*
X171737867Y-87639031D01*
X171776249Y-87600649D01*
X171803355Y-87576911D01*
X171830253Y-87565111D01*
X171866560Y-87562267D01*
X171918489Y-87562267D01*
X171918489Y-87650206D01*
X171920427Y-87700102D01*
X171939199Y-87810523D01*
X171976217Y-87911987D01*
X172029368Y-88003152D01*
X172096546Y-88082673D01*
X172175638Y-88149205D01*
X172264534Y-88201406D01*
X172361125Y-88237930D01*
X172463300Y-88257435D01*
X172568950Y-88258573D01*
X172675965Y-88240005D01*
X172782232Y-88200384D01*
X172879219Y-88142516D01*
X172964293Y-88067685D01*
X173033015Y-87979615D01*
X173083918Y-87880616D01*
X173115535Y-87772993D01*
X173126399Y-87659054D01*
X173126400Y-87562267D01*
X174746753Y-87562267D01*
X174957897Y-87562280D01*
X175162020Y-87562330D01*
X175345686Y-87562430D01*
X175509991Y-87562592D01*
X175656029Y-87562829D01*
X175784894Y-87563153D01*
X175897683Y-87563575D01*
X175995488Y-87564109D01*
X176079404Y-87564768D01*
X176150528Y-87565561D01*
X176209950Y-87566504D01*
X176258768Y-87567608D01*
X176298077Y-87568884D01*
X176328969Y-87570347D01*
X176352541Y-87572007D01*
X176369886Y-87573878D01*
X176382099Y-87575972D01*
X176390275Y-87578300D01*
X176395508Y-87580876D01*
X176401504Y-87584445D01*
X176408279Y-87587978D01*
X176414478Y-87591488D01*
X176420126Y-87595918D01*
X176425247Y-87602207D01*
X176429869Y-87611301D01*
X176434015Y-87624139D01*
X176437713Y-87641662D01*
X176440987Y-87664813D01*
X176443863Y-87694534D01*
X176446367Y-87731765D01*
X176448524Y-87777449D01*
X176450360Y-87832527D01*
X176451900Y-87897941D01*
X176453170Y-87974633D01*
X176454195Y-88063544D01*
X176455001Y-88165617D01*
X176455034Y-88171868D01*
X176455614Y-88281792D01*
G37*
D16*
X167120000Y-80190000D02*
X167120000Y-83810000D01*
X167120000Y-83810000D02*
X173240000Y-83810000D01*
X173240000Y-80190000D02*
X167120000Y-80190000D01*
X173240000Y-83810000D02*
X173240000Y-80190000D01*
X125990000Y-80190000D02*
X125990000Y-83810000D01*
X125990000Y-83810000D02*
X132110000Y-83810000D01*
X132110000Y-80190000D02*
X125990000Y-80190000D01*
X132110000Y-83810000D02*
X132110000Y-80190000D01*
X135024741Y-92227064D02*
X135024741Y-91772936D01*
X136494741Y-92227064D02*
X136494741Y-91772936D01*
X148442275Y-92227064D02*
X148442275Y-91772936D01*
X149912275Y-92227064D02*
X149912275Y-91772936D01*
D11*
X156415000Y-79515000D02*
X156415000Y-82720000D01*
X156415000Y-102885000D02*
X156415000Y-99680000D01*
X158825000Y-79515000D02*
X156415000Y-79515000D01*
X158825000Y-102885000D02*
X156415000Y-102885000D01*
X160260000Y-78890000D02*
G75*
G02*
X160060000Y-78890000I-100000J0D01*
G01*
X160060000Y-78890000D02*
G75*
G02*
X160260000Y-78890000I100000J0D01*
G01*
X141175000Y-79515000D02*
X143585000Y-79515000D01*
X141175000Y-102885000D02*
X143585000Y-102885000D01*
X143585000Y-79515000D02*
X143585000Y-82720000D01*
X143585000Y-102885000D02*
X143585000Y-99680000D01*
X139940000Y-103510000D02*
G75*
G02*
X139740000Y-103510000I-100000J0D01*
G01*
X139740000Y-103510000D02*
G75*
G02*
X139940000Y-103510000I100000J0D01*
G01*
%LPC*%
D17*
X194421414Y-78697463D03*
X104970372Y-78314655D03*
X121674966Y-131018278D03*
X177092341Y-131155072D03*
X149801613Y-46007789D03*
D18*
X174770000Y-82000000D03*
X165590000Y-82000000D03*
X124460000Y-82000000D03*
X133640000Y-82000000D03*
D19*
X135759741Y-93000000D03*
X135759741Y-91000000D03*
X149177275Y-93000000D03*
X149177275Y-91000000D03*
D20*
X159335000Y-81040000D03*
X155905000Y-83580000D03*
X159335000Y-86120000D03*
X155905000Y-88660000D03*
X159335000Y-91200000D03*
X155905000Y-93740000D03*
X159335000Y-96280000D03*
X155905000Y-98820000D03*
X159335000Y-101360000D03*
D21*
X140665000Y-101360000D03*
X144095000Y-98820000D03*
X140665000Y-96280000D03*
X144095000Y-93740000D03*
X140665000Y-91200000D03*
X144095000Y-88660000D03*
X140665000Y-86120000D03*
X144095000Y-83580000D03*
X140665000Y-81040000D03*
%LPD*%
M02*
